%FSLAX45Y45*%
G04 Gerber Fmt 4.5, Leading zero omitted, Abs format (unit mm)*
G04 Created by KiCad (PCBNEW 5.1.10-88a1d61d58~90~ubuntu20.04.1) date 2021-10-05 16:38:43*
%MOMM*%
%LPD*%
G01*
G04 APERTURE LIST*
%TA.AperFunction,Profile*%
%ADD10C,0.050000*%
%TD*%
%ADD11C,0.200000*%
%ADD12C,0.300000*%
G04 APERTURE END LIST*
D10*
X4300000Y-17300000D02*
G75*
G02*
X3800000Y-16800000I0J500000D01*
G01*
X8800000Y-16800000D02*
G75*
G02*
X8300000Y-17300000I-500000J0D01*
G01*
X8300000Y-12300000D02*
G75*
G02*
X8800000Y-12800000I0J-500000D01*
G01*
X3800000Y-12800000D02*
G75*
G02*
X4300000Y-12300000I500000J0D01*
G01*
X8300000Y-12300000D02*
X4300000Y-12300000D01*
X8800000Y-16800000D02*
X8800000Y-12800000D01*
X4300000Y-17300000D02*
X8300000Y-17300000D01*
X3800000Y-16800000D02*
X3800000Y-12800000D01*
D11*
X4746310Y-14178600D02*
X4786310Y-14218600D01*
X4786310Y-14178600D02*
X4746310Y-14218600D01*
X4759010Y-14609130D02*
X4799010Y-14649130D01*
X4799010Y-14609130D02*
X4759010Y-14649130D01*
X5319080Y-14559600D02*
X5359080Y-14599600D01*
X5359080Y-14559600D02*
X5319080Y-14599600D01*
X5335590Y-14162090D02*
X5375590Y-14202090D01*
X5375590Y-14162090D02*
X5335590Y-14202090D01*
X5340670Y-14856780D02*
X5380670Y-14896780D01*
X5380670Y-14856780D02*
X5340670Y-14896780D01*
X5129530Y-14211300D02*
G75*
G03*
X5129530Y-14211300I-38100J0D01*
G01*
X5129530Y-14465300D02*
G75*
G03*
X5129530Y-14465300I-38100J0D01*
G01*
X5129530Y-14719300D02*
G75*
G03*
X5129530Y-14719300I-38100J0D01*
G01*
X5129530Y-14973300D02*
G75*
G03*
X5129530Y-14973300I-38100J0D01*
G01*
X8296000Y-13679000D02*
X8296000Y-13759000D01*
X8256000Y-13719000D02*
X8336000Y-13719000D01*
X8296000Y-14695000D02*
X8296000Y-14775000D01*
X8256000Y-14735000D02*
X8336000Y-14735000D01*
X8617000Y-13680000D02*
X8617000Y-13760000D01*
X8577000Y-13720000D02*
X8657000Y-13720000D01*
X8617000Y-14696000D02*
X8617000Y-14776000D01*
X8577000Y-14736000D02*
X8657000Y-14736000D01*
X4456226Y-13832636D02*
X4456226Y-13761924D01*
X4385514Y-13761924D01*
X4385514Y-13832636D01*
X4456226Y-13832636D01*
X4456226Y-14086636D02*
X4456226Y-14015924D01*
X4385514Y-14015924D01*
X4385514Y-14086636D01*
X4456226Y-14086636D01*
X4456226Y-14340636D02*
X4456226Y-14269924D01*
X4385514Y-14269924D01*
X4385514Y-14340636D01*
X4456226Y-14340636D01*
X4456226Y-14594636D02*
X4456226Y-14523924D01*
X4385514Y-14523924D01*
X4385514Y-14594636D01*
X4456226Y-14594636D01*
X5655666Y-12985106D02*
X5655666Y-12914394D01*
X5584954Y-12914394D01*
X5584954Y-12985106D01*
X5655666Y-12985106D01*
X5655666Y-13239106D02*
X5655666Y-13168394D01*
X5584954Y-13168394D01*
X5584954Y-13239106D01*
X5655666Y-13239106D01*
X5655666Y-13493106D02*
X5655666Y-13422394D01*
X5584954Y-13422394D01*
X5584954Y-13493106D01*
X5655666Y-13493106D01*
X5655666Y-13747106D02*
X5655666Y-13676394D01*
X5584954Y-13676394D01*
X5584954Y-13747106D01*
X5655666Y-13747106D01*
X5655666Y-14001106D02*
X5655666Y-13930394D01*
X5584954Y-13930394D01*
X5584954Y-14001106D01*
X5655666Y-14001106D01*
X5655666Y-14255106D02*
X5655666Y-14184394D01*
X5584954Y-14184394D01*
X5584954Y-14255106D01*
X5655666Y-14255106D01*
X5655666Y-14509106D02*
X5655666Y-14438394D01*
X5584954Y-14438394D01*
X5584954Y-14509106D01*
X5655666Y-14509106D01*
X5655666Y-14763106D02*
X5655666Y-14692394D01*
X5584954Y-14692394D01*
X5584954Y-14763106D01*
X5655666Y-14763106D01*
X5655666Y-15017106D02*
X5655666Y-14946394D01*
X5584954Y-14946394D01*
X5584954Y-15017106D01*
X5655666Y-15017106D01*
X5655666Y-15271106D02*
X5655666Y-15200394D01*
X5584954Y-15200394D01*
X5584954Y-15271106D01*
X5655666Y-15271106D01*
X5655666Y-15525106D02*
X5655666Y-15454394D01*
X5584954Y-15454394D01*
X5584954Y-15525106D01*
X5655666Y-15525106D01*
X5655666Y-15779106D02*
X5655666Y-15708394D01*
X5584954Y-15708394D01*
X5584954Y-15779106D01*
X5655666Y-15779106D01*
X5655666Y-16033106D02*
X5655666Y-15962394D01*
X5584954Y-15962394D01*
X5584954Y-16033106D01*
X5655666Y-16033106D01*
X5655666Y-16287106D02*
X5655666Y-16216394D01*
X5584954Y-16216394D01*
X5584954Y-16287106D01*
X5655666Y-16287106D01*
X5655666Y-16541106D02*
X5655666Y-16470394D01*
X5584954Y-16470394D01*
X5584954Y-16541106D01*
X5655666Y-16541106D01*
X7179666Y-12985106D02*
X7179666Y-12914394D01*
X7108954Y-12914394D01*
X7108954Y-12985106D01*
X7179666Y-12985106D01*
X7179666Y-13239106D02*
X7179666Y-13168394D01*
X7108954Y-13168394D01*
X7108954Y-13239106D01*
X7179666Y-13239106D01*
X7179666Y-13493106D02*
X7179666Y-13422394D01*
X7108954Y-13422394D01*
X7108954Y-13493106D01*
X7179666Y-13493106D01*
X7179666Y-13747106D02*
X7179666Y-13676394D01*
X7108954Y-13676394D01*
X7108954Y-13747106D01*
X7179666Y-13747106D01*
X7179666Y-14001106D02*
X7179666Y-13930394D01*
X7108954Y-13930394D01*
X7108954Y-14001106D01*
X7179666Y-14001106D01*
X7179666Y-14255106D02*
X7179666Y-14184394D01*
X7108954Y-14184394D01*
X7108954Y-14255106D01*
X7179666Y-14255106D01*
X7179666Y-14509106D02*
X7179666Y-14438394D01*
X7108954Y-14438394D01*
X7108954Y-14509106D01*
X7179666Y-14509106D01*
X7179666Y-14763106D02*
X7179666Y-14692394D01*
X7108954Y-14692394D01*
X7108954Y-14763106D01*
X7179666Y-14763106D01*
X7179666Y-15017106D02*
X7179666Y-14946394D01*
X7108954Y-14946394D01*
X7108954Y-15017106D01*
X7179666Y-15017106D01*
X7179666Y-15271106D02*
X7179666Y-15200394D01*
X7108954Y-15200394D01*
X7108954Y-15271106D01*
X7179666Y-15271106D01*
X7179666Y-15525106D02*
X7179666Y-15454394D01*
X7108954Y-15454394D01*
X7108954Y-15525106D01*
X7179666Y-15525106D01*
X7179666Y-15779106D02*
X7179666Y-15708394D01*
X7108954Y-15708394D01*
X7108954Y-15779106D01*
X7179666Y-15779106D01*
X7179666Y-16033106D02*
X7179666Y-15962394D01*
X7108954Y-15962394D01*
X7108954Y-16033106D01*
X7179666Y-16033106D01*
X7179666Y-16287106D02*
X7179666Y-16216394D01*
X7108954Y-16216394D01*
X7108954Y-16287106D01*
X7179666Y-16287106D01*
X7179666Y-16541106D02*
X7179666Y-16470394D01*
X7108954Y-16470394D01*
X7108954Y-16541106D01*
X7179666Y-16541106D01*
X7977936Y-13907566D02*
X7977936Y-13836854D01*
X7907224Y-13836854D01*
X7907224Y-13907566D01*
X7977936Y-13907566D01*
X7977936Y-14161566D02*
X7977936Y-14090854D01*
X7907224Y-14090854D01*
X7907224Y-14161566D01*
X7977936Y-14161566D01*
X7977936Y-14415566D02*
X7977936Y-14344854D01*
X7907224Y-14344854D01*
X7907224Y-14415566D01*
X7977936Y-14415566D01*
X7977936Y-14669566D02*
X7977936Y-14598854D01*
X7907224Y-14598854D01*
X7907224Y-14669566D01*
X7977936Y-14669566D01*
X4300000Y-12960000D02*
X4460000Y-12800000D01*
X4300000Y-12640000D01*
X4140000Y-12800000D01*
X4300000Y-12960000D01*
X4300000Y-16960000D02*
X4460000Y-16800000D01*
X4300000Y-16640000D01*
X4140000Y-16800000D01*
X4300000Y-16960000D01*
X8300000Y-12960000D02*
X8460000Y-12800000D01*
X8300000Y-12640000D01*
X8140000Y-12800000D01*
X8300000Y-12960000D01*
X8300000Y-16960000D02*
X8460000Y-16800000D01*
X8300000Y-16640000D01*
X8140000Y-16800000D01*
X8300000Y-16960000D01*
D12*
X4083928Y-17768214D02*
X4083928Y-17468214D01*
X4155357Y-17468214D01*
X4198214Y-17482500D01*
X4226786Y-17511072D01*
X4241071Y-17539643D01*
X4255357Y-17596786D01*
X4255357Y-17639643D01*
X4241071Y-17696786D01*
X4226786Y-17725357D01*
X4198214Y-17753929D01*
X4155357Y-17768214D01*
X4083928Y-17768214D01*
X4383928Y-17768214D02*
X4383928Y-17568214D01*
X4383928Y-17625357D02*
X4398214Y-17596786D01*
X4412500Y-17582500D01*
X4441071Y-17568214D01*
X4469643Y-17568214D01*
X4569643Y-17768214D02*
X4569643Y-17568214D01*
X4569643Y-17468214D02*
X4555357Y-17482500D01*
X4569643Y-17496786D01*
X4583928Y-17482500D01*
X4569643Y-17468214D01*
X4569643Y-17496786D01*
X4755357Y-17768214D02*
X4726786Y-17753929D01*
X4712500Y-17725357D01*
X4712500Y-17468214D01*
X4912500Y-17768214D02*
X4883928Y-17753929D01*
X4869643Y-17725357D01*
X4869643Y-17468214D01*
X5255357Y-17768214D02*
X5255357Y-17468214D01*
X5355357Y-17682500D01*
X5455357Y-17468214D01*
X5455357Y-17768214D01*
X5726786Y-17768214D02*
X5726786Y-17611072D01*
X5712500Y-17582500D01*
X5683928Y-17568214D01*
X5626786Y-17568214D01*
X5598214Y-17582500D01*
X5726786Y-17753929D02*
X5698214Y-17768214D01*
X5626786Y-17768214D01*
X5598214Y-17753929D01*
X5583928Y-17725357D01*
X5583928Y-17696786D01*
X5598214Y-17668214D01*
X5626786Y-17653929D01*
X5698214Y-17653929D01*
X5726786Y-17639643D01*
X5869643Y-17568214D02*
X5869643Y-17868214D01*
X5869643Y-17582500D02*
X5898214Y-17568214D01*
X5955357Y-17568214D01*
X5983928Y-17582500D01*
X5998214Y-17596786D01*
X6012500Y-17625357D01*
X6012500Y-17711072D01*
X5998214Y-17739643D01*
X5983928Y-17753929D01*
X5955357Y-17768214D01*
X5898214Y-17768214D01*
X5869643Y-17753929D01*
X6141071Y-17739643D02*
X6155357Y-17753929D01*
X6141071Y-17768214D01*
X6126786Y-17753929D01*
X6141071Y-17739643D01*
X6141071Y-17768214D01*
X6141071Y-17582500D02*
X6155357Y-17596786D01*
X6141071Y-17611072D01*
X6126786Y-17596786D01*
X6141071Y-17582500D01*
X6141071Y-17611072D01*
X3757500Y-18242500D02*
X3797500Y-18282500D01*
X3797500Y-18242500D02*
X3757500Y-18282500D01*
X4141071Y-18098214D02*
X4169643Y-18098214D01*
X4198214Y-18112500D01*
X4212500Y-18126786D01*
X4226786Y-18155357D01*
X4241071Y-18212500D01*
X4241071Y-18283929D01*
X4226786Y-18341072D01*
X4212500Y-18369643D01*
X4198214Y-18383929D01*
X4169643Y-18398214D01*
X4141071Y-18398214D01*
X4112500Y-18383929D01*
X4098214Y-18369643D01*
X4083928Y-18341072D01*
X4069643Y-18283929D01*
X4069643Y-18212500D01*
X4083928Y-18155357D01*
X4098214Y-18126786D01*
X4112500Y-18112500D01*
X4141071Y-18098214D01*
X4369643Y-18369643D02*
X4383928Y-18383929D01*
X4369643Y-18398214D01*
X4355357Y-18383929D01*
X4369643Y-18369643D01*
X4369643Y-18398214D01*
X4641071Y-18198214D02*
X4641071Y-18398214D01*
X4569643Y-18083929D02*
X4498214Y-18298214D01*
X4683928Y-18298214D01*
X4855357Y-18098214D02*
X4883928Y-18098214D01*
X4912500Y-18112500D01*
X4926786Y-18126786D01*
X4941071Y-18155357D01*
X4955357Y-18212500D01*
X4955357Y-18283929D01*
X4941071Y-18341072D01*
X4926786Y-18369643D01*
X4912500Y-18383929D01*
X4883928Y-18398214D01*
X4855357Y-18398214D01*
X4826786Y-18383929D01*
X4812500Y-18369643D01*
X4798214Y-18341072D01*
X4783928Y-18283929D01*
X4783928Y-18212500D01*
X4798214Y-18155357D01*
X4812500Y-18126786D01*
X4826786Y-18112500D01*
X4855357Y-18098214D01*
X5141071Y-18098214D02*
X5169643Y-18098214D01*
X5198214Y-18112500D01*
X5212500Y-18126786D01*
X5226786Y-18155357D01*
X5241071Y-18212500D01*
X5241071Y-18283929D01*
X5226786Y-18341072D01*
X5212500Y-18369643D01*
X5198214Y-18383929D01*
X5169643Y-18398214D01*
X5141071Y-18398214D01*
X5112500Y-18383929D01*
X5098214Y-18369643D01*
X5083928Y-18341072D01*
X5069643Y-18283929D01*
X5069643Y-18212500D01*
X5083928Y-18155357D01*
X5098214Y-18126786D01*
X5112500Y-18112500D01*
X5141071Y-18098214D01*
X5369643Y-18398214D02*
X5369643Y-18198214D01*
X5369643Y-18226786D02*
X5383928Y-18212500D01*
X5412500Y-18198214D01*
X5455357Y-18198214D01*
X5483928Y-18212500D01*
X5498214Y-18241072D01*
X5498214Y-18398214D01*
X5498214Y-18241072D02*
X5512500Y-18212500D01*
X5541071Y-18198214D01*
X5583928Y-18198214D01*
X5612500Y-18212500D01*
X5626786Y-18241072D01*
X5626786Y-18398214D01*
X5769643Y-18398214D02*
X5769643Y-18198214D01*
X5769643Y-18226786D02*
X5783928Y-18212500D01*
X5812500Y-18198214D01*
X5855357Y-18198214D01*
X5883928Y-18212500D01*
X5898214Y-18241072D01*
X5898214Y-18398214D01*
X5898214Y-18241072D02*
X5912500Y-18212500D01*
X5941071Y-18198214D01*
X5983928Y-18198214D01*
X6012500Y-18212500D01*
X6026786Y-18241072D01*
X6026786Y-18398214D01*
X6612500Y-18083929D02*
X6355357Y-18469643D01*
X6998214Y-18098214D02*
X7026786Y-18098214D01*
X7055357Y-18112500D01*
X7069643Y-18126786D01*
X7083928Y-18155357D01*
X7098214Y-18212500D01*
X7098214Y-18283929D01*
X7083928Y-18341072D01*
X7069643Y-18369643D01*
X7055357Y-18383929D01*
X7026786Y-18398214D01*
X6998214Y-18398214D01*
X6969643Y-18383929D01*
X6955357Y-18369643D01*
X6941071Y-18341072D01*
X6926786Y-18283929D01*
X6926786Y-18212500D01*
X6941071Y-18155357D01*
X6955357Y-18126786D01*
X6969643Y-18112500D01*
X6998214Y-18098214D01*
X7226786Y-18369643D02*
X7241071Y-18383929D01*
X7226786Y-18398214D01*
X7212500Y-18383929D01*
X7226786Y-18369643D01*
X7226786Y-18398214D01*
X7426786Y-18098214D02*
X7455357Y-18098214D01*
X7483928Y-18112500D01*
X7498214Y-18126786D01*
X7512500Y-18155357D01*
X7526786Y-18212500D01*
X7526786Y-18283929D01*
X7512500Y-18341072D01*
X7498214Y-18369643D01*
X7483928Y-18383929D01*
X7455357Y-18398214D01*
X7426786Y-18398214D01*
X7398214Y-18383929D01*
X7383928Y-18369643D01*
X7369643Y-18341072D01*
X7355357Y-18283929D01*
X7355357Y-18212500D01*
X7369643Y-18155357D01*
X7383928Y-18126786D01*
X7398214Y-18112500D01*
X7426786Y-18098214D01*
X7812500Y-18398214D02*
X7641071Y-18398214D01*
X7726786Y-18398214D02*
X7726786Y-18098214D01*
X7698214Y-18141072D01*
X7669643Y-18169643D01*
X7641071Y-18183929D01*
X8083928Y-18098214D02*
X7941071Y-18098214D01*
X7926786Y-18241072D01*
X7941071Y-18226786D01*
X7969643Y-18212500D01*
X8041071Y-18212500D01*
X8069643Y-18226786D01*
X8083928Y-18241072D01*
X8098214Y-18269643D01*
X8098214Y-18341072D01*
X8083928Y-18369643D01*
X8069643Y-18383929D01*
X8041071Y-18398214D01*
X7969643Y-18398214D01*
X7941071Y-18383929D01*
X7926786Y-18369643D01*
X8198214Y-18098214D02*
X8398214Y-18098214D01*
X8269643Y-18398214D01*
X8498214Y-18098214D02*
X8498214Y-18155357D01*
X8612500Y-18098214D02*
X8612500Y-18155357D01*
X9055357Y-18512500D02*
X9041071Y-18498214D01*
X9012500Y-18455357D01*
X8998214Y-18426786D01*
X8983928Y-18383929D01*
X8969643Y-18312500D01*
X8969643Y-18255357D01*
X8983928Y-18183929D01*
X8998214Y-18141072D01*
X9012500Y-18112500D01*
X9041071Y-18069643D01*
X9055357Y-18055357D01*
X9312500Y-18098214D02*
X9169643Y-18098214D01*
X9155357Y-18241072D01*
X9169643Y-18226786D01*
X9198214Y-18212500D01*
X9269643Y-18212500D01*
X9298214Y-18226786D01*
X9312500Y-18241072D01*
X9326786Y-18269643D01*
X9326786Y-18341072D01*
X9312500Y-18369643D01*
X9298214Y-18383929D01*
X9269643Y-18398214D01*
X9198214Y-18398214D01*
X9169643Y-18383929D01*
X9155357Y-18369643D01*
X9683928Y-18398214D02*
X9683928Y-18098214D01*
X9812500Y-18398214D02*
X9812500Y-18241072D01*
X9798214Y-18212500D01*
X9769643Y-18198214D01*
X9726786Y-18198214D01*
X9698214Y-18212500D01*
X9683928Y-18226786D01*
X9998214Y-18398214D02*
X9969643Y-18383929D01*
X9955357Y-18369643D01*
X9941071Y-18341072D01*
X9941071Y-18255357D01*
X9955357Y-18226786D01*
X9969643Y-18212500D01*
X9998214Y-18198214D01*
X10041071Y-18198214D01*
X10069643Y-18212500D01*
X10083928Y-18226786D01*
X10098214Y-18255357D01*
X10098214Y-18341072D01*
X10083928Y-18369643D01*
X10069643Y-18383929D01*
X10041071Y-18398214D01*
X9998214Y-18398214D01*
X10269643Y-18398214D02*
X10241071Y-18383929D01*
X10226786Y-18355357D01*
X10226786Y-18098214D01*
X10498214Y-18383929D02*
X10469643Y-18398214D01*
X10412500Y-18398214D01*
X10383928Y-18383929D01*
X10369643Y-18355357D01*
X10369643Y-18241072D01*
X10383928Y-18212500D01*
X10412500Y-18198214D01*
X10469643Y-18198214D01*
X10498214Y-18212500D01*
X10512500Y-18241072D01*
X10512500Y-18269643D01*
X10369643Y-18298214D01*
X10626786Y-18383929D02*
X10655357Y-18398214D01*
X10712500Y-18398214D01*
X10741071Y-18383929D01*
X10755357Y-18355357D01*
X10755357Y-18341072D01*
X10741071Y-18312500D01*
X10712500Y-18298214D01*
X10669643Y-18298214D01*
X10641071Y-18283929D01*
X10626786Y-18255357D01*
X10626786Y-18241072D01*
X10641071Y-18212500D01*
X10669643Y-18198214D01*
X10712500Y-18198214D01*
X10741071Y-18212500D01*
X10855357Y-18512500D02*
X10869643Y-18498214D01*
X10898214Y-18455357D01*
X10912500Y-18426786D01*
X10926786Y-18383929D01*
X10941071Y-18312500D01*
X10941071Y-18255357D01*
X10926786Y-18183929D01*
X10912500Y-18141072D01*
X10898214Y-18112500D01*
X10869643Y-18069643D01*
X10855357Y-18055357D01*
X3797500Y-18658500D02*
G75*
G03*
X3797500Y-18658500I-38100J0D01*
G01*
X4141071Y-18494214D02*
X4169643Y-18494214D01*
X4198214Y-18508500D01*
X4212500Y-18522786D01*
X4226786Y-18551357D01*
X4241071Y-18608500D01*
X4241071Y-18679929D01*
X4226786Y-18737072D01*
X4212500Y-18765643D01*
X4198214Y-18779929D01*
X4169643Y-18794214D01*
X4141071Y-18794214D01*
X4112500Y-18779929D01*
X4098214Y-18765643D01*
X4083928Y-18737072D01*
X4069643Y-18679929D01*
X4069643Y-18608500D01*
X4083928Y-18551357D01*
X4098214Y-18522786D01*
X4112500Y-18508500D01*
X4141071Y-18494214D01*
X4369643Y-18765643D02*
X4383928Y-18779929D01*
X4369643Y-18794214D01*
X4355357Y-18779929D01*
X4369643Y-18765643D01*
X4369643Y-18794214D01*
X4483928Y-18494214D02*
X4683928Y-18494214D01*
X4555357Y-18794214D01*
X4926786Y-18494214D02*
X4869643Y-18494214D01*
X4841071Y-18508500D01*
X4826786Y-18522786D01*
X4798214Y-18565643D01*
X4783928Y-18622786D01*
X4783928Y-18737072D01*
X4798214Y-18765643D01*
X4812500Y-18779929D01*
X4841071Y-18794214D01*
X4898214Y-18794214D01*
X4926786Y-18779929D01*
X4941071Y-18765643D01*
X4955357Y-18737072D01*
X4955357Y-18665643D01*
X4941071Y-18637072D01*
X4926786Y-18622786D01*
X4898214Y-18608500D01*
X4841071Y-18608500D01*
X4812500Y-18622786D01*
X4798214Y-18637072D01*
X4783928Y-18665643D01*
X5069643Y-18522786D02*
X5083928Y-18508500D01*
X5112500Y-18494214D01*
X5183928Y-18494214D01*
X5212500Y-18508500D01*
X5226786Y-18522786D01*
X5241071Y-18551357D01*
X5241071Y-18579929D01*
X5226786Y-18622786D01*
X5055357Y-18794214D01*
X5241071Y-18794214D01*
X5369643Y-18794214D02*
X5369643Y-18594214D01*
X5369643Y-18622786D02*
X5383928Y-18608500D01*
X5412500Y-18594214D01*
X5455357Y-18594214D01*
X5483928Y-18608500D01*
X5498214Y-18637072D01*
X5498214Y-18794214D01*
X5498214Y-18637072D02*
X5512500Y-18608500D01*
X5541071Y-18594214D01*
X5583928Y-18594214D01*
X5612500Y-18608500D01*
X5626786Y-18637072D01*
X5626786Y-18794214D01*
X5769643Y-18794214D02*
X5769643Y-18594214D01*
X5769643Y-18622786D02*
X5783928Y-18608500D01*
X5812500Y-18594214D01*
X5855357Y-18594214D01*
X5883928Y-18608500D01*
X5898214Y-18637072D01*
X5898214Y-18794214D01*
X5898214Y-18637072D02*
X5912500Y-18608500D01*
X5941071Y-18594214D01*
X5983928Y-18594214D01*
X6012500Y-18608500D01*
X6026786Y-18637072D01*
X6026786Y-18794214D01*
X6612500Y-18479929D02*
X6355357Y-18865643D01*
X6998214Y-18494214D02*
X7026786Y-18494214D01*
X7055357Y-18508500D01*
X7069643Y-18522786D01*
X7083928Y-18551357D01*
X7098214Y-18608500D01*
X7098214Y-18679929D01*
X7083928Y-18737072D01*
X7069643Y-18765643D01*
X7055357Y-18779929D01*
X7026786Y-18794214D01*
X6998214Y-18794214D01*
X6969643Y-18779929D01*
X6955357Y-18765643D01*
X6941071Y-18737072D01*
X6926786Y-18679929D01*
X6926786Y-18608500D01*
X6941071Y-18551357D01*
X6955357Y-18522786D01*
X6969643Y-18508500D01*
X6998214Y-18494214D01*
X7226786Y-18765643D02*
X7241071Y-18779929D01*
X7226786Y-18794214D01*
X7212500Y-18779929D01*
X7226786Y-18765643D01*
X7226786Y-18794214D01*
X7426786Y-18494214D02*
X7455357Y-18494214D01*
X7483928Y-18508500D01*
X7498214Y-18522786D01*
X7512500Y-18551357D01*
X7526786Y-18608500D01*
X7526786Y-18679929D01*
X7512500Y-18737072D01*
X7498214Y-18765643D01*
X7483928Y-18779929D01*
X7455357Y-18794214D01*
X7426786Y-18794214D01*
X7398214Y-18779929D01*
X7383928Y-18765643D01*
X7369643Y-18737072D01*
X7355357Y-18679929D01*
X7355357Y-18608500D01*
X7369643Y-18551357D01*
X7383928Y-18522786D01*
X7398214Y-18508500D01*
X7426786Y-18494214D01*
X7626786Y-18494214D02*
X7812500Y-18494214D01*
X7712500Y-18608500D01*
X7755357Y-18608500D01*
X7783928Y-18622786D01*
X7798214Y-18637072D01*
X7812500Y-18665643D01*
X7812500Y-18737072D01*
X7798214Y-18765643D01*
X7783928Y-18779929D01*
X7755357Y-18794214D01*
X7669643Y-18794214D01*
X7641071Y-18779929D01*
X7626786Y-18765643D01*
X7998214Y-18494214D02*
X8026786Y-18494214D01*
X8055357Y-18508500D01*
X8069643Y-18522786D01*
X8083928Y-18551357D01*
X8098214Y-18608500D01*
X8098214Y-18679929D01*
X8083928Y-18737072D01*
X8069643Y-18765643D01*
X8055357Y-18779929D01*
X8026786Y-18794214D01*
X7998214Y-18794214D01*
X7969643Y-18779929D01*
X7955357Y-18765643D01*
X7941071Y-18737072D01*
X7926786Y-18679929D01*
X7926786Y-18608500D01*
X7941071Y-18551357D01*
X7955357Y-18522786D01*
X7969643Y-18508500D01*
X7998214Y-18494214D01*
X8283928Y-18494214D02*
X8312500Y-18494214D01*
X8341071Y-18508500D01*
X8355357Y-18522786D01*
X8369643Y-18551357D01*
X8383928Y-18608500D01*
X8383928Y-18679929D01*
X8369643Y-18737072D01*
X8355357Y-18765643D01*
X8341071Y-18779929D01*
X8312500Y-18794214D01*
X8283928Y-18794214D01*
X8255357Y-18779929D01*
X8241071Y-18765643D01*
X8226786Y-18737072D01*
X8212500Y-18679929D01*
X8212500Y-18608500D01*
X8226786Y-18551357D01*
X8241071Y-18522786D01*
X8255357Y-18508500D01*
X8283928Y-18494214D01*
X8498214Y-18494214D02*
X8498214Y-18551357D01*
X8612500Y-18494214D02*
X8612500Y-18551357D01*
X9055357Y-18908500D02*
X9041071Y-18894214D01*
X9012500Y-18851357D01*
X8998214Y-18822786D01*
X8983928Y-18779929D01*
X8969643Y-18708500D01*
X8969643Y-18651357D01*
X8983928Y-18579929D01*
X8998214Y-18537072D01*
X9012500Y-18508500D01*
X9041071Y-18465643D01*
X9055357Y-18451357D01*
X9298214Y-18594214D02*
X9298214Y-18794214D01*
X9226786Y-18479929D02*
X9155357Y-18694214D01*
X9341071Y-18694214D01*
X9683928Y-18794214D02*
X9683928Y-18494214D01*
X9812500Y-18794214D02*
X9812500Y-18637072D01*
X9798214Y-18608500D01*
X9769643Y-18594214D01*
X9726786Y-18594214D01*
X9698214Y-18608500D01*
X9683928Y-18622786D01*
X9998214Y-18794214D02*
X9969643Y-18779929D01*
X9955357Y-18765643D01*
X9941071Y-18737072D01*
X9941071Y-18651357D01*
X9955357Y-18622786D01*
X9969643Y-18608500D01*
X9998214Y-18594214D01*
X10041071Y-18594214D01*
X10069643Y-18608500D01*
X10083928Y-18622786D01*
X10098214Y-18651357D01*
X10098214Y-18737072D01*
X10083928Y-18765643D01*
X10069643Y-18779929D01*
X10041071Y-18794214D01*
X9998214Y-18794214D01*
X10269643Y-18794214D02*
X10241071Y-18779929D01*
X10226786Y-18751357D01*
X10226786Y-18494214D01*
X10498214Y-18779929D02*
X10469643Y-18794214D01*
X10412500Y-18794214D01*
X10383928Y-18779929D01*
X10369643Y-18751357D01*
X10369643Y-18637072D01*
X10383928Y-18608500D01*
X10412500Y-18594214D01*
X10469643Y-18594214D01*
X10498214Y-18608500D01*
X10512500Y-18637072D01*
X10512500Y-18665643D01*
X10369643Y-18694214D01*
X10626786Y-18779929D02*
X10655357Y-18794214D01*
X10712500Y-18794214D01*
X10741071Y-18779929D01*
X10755357Y-18751357D01*
X10755357Y-18737072D01*
X10741071Y-18708500D01*
X10712500Y-18694214D01*
X10669643Y-18694214D01*
X10641071Y-18679929D01*
X10626786Y-18651357D01*
X10626786Y-18637072D01*
X10641071Y-18608500D01*
X10669643Y-18594214D01*
X10712500Y-18594214D01*
X10741071Y-18608500D01*
X10855357Y-18908500D02*
X10869643Y-18894214D01*
X10898214Y-18851357D01*
X10912500Y-18822786D01*
X10926786Y-18779929D01*
X10941071Y-18708500D01*
X10941071Y-18651357D01*
X10926786Y-18579929D01*
X10912500Y-18537072D01*
X10898214Y-18508500D01*
X10869643Y-18465643D01*
X10855357Y-18451357D01*
X3757500Y-19014500D02*
X3757500Y-19094500D01*
X3717500Y-19054500D02*
X3797500Y-19054500D01*
X4141071Y-18890214D02*
X4169643Y-18890214D01*
X4198214Y-18904500D01*
X4212500Y-18918786D01*
X4226786Y-18947357D01*
X4241071Y-19004500D01*
X4241071Y-19075929D01*
X4226786Y-19133072D01*
X4212500Y-19161643D01*
X4198214Y-19175929D01*
X4169643Y-19190214D01*
X4141071Y-19190214D01*
X4112500Y-19175929D01*
X4098214Y-19161643D01*
X4083928Y-19133072D01*
X4069643Y-19075929D01*
X4069643Y-19004500D01*
X4083928Y-18947357D01*
X4098214Y-18918786D01*
X4112500Y-18904500D01*
X4141071Y-18890214D01*
X4369643Y-19161643D02*
X4383928Y-19175929D01*
X4369643Y-19190214D01*
X4355357Y-19175929D01*
X4369643Y-19161643D01*
X4369643Y-19190214D01*
X4555357Y-19018786D02*
X4526786Y-19004500D01*
X4512500Y-18990214D01*
X4498214Y-18961643D01*
X4498214Y-18947357D01*
X4512500Y-18918786D01*
X4526786Y-18904500D01*
X4555357Y-18890214D01*
X4612500Y-18890214D01*
X4641071Y-18904500D01*
X4655357Y-18918786D01*
X4669643Y-18947357D01*
X4669643Y-18961643D01*
X4655357Y-18990214D01*
X4641071Y-19004500D01*
X4612500Y-19018786D01*
X4555357Y-19018786D01*
X4526786Y-19033072D01*
X4512500Y-19047357D01*
X4498214Y-19075929D01*
X4498214Y-19133072D01*
X4512500Y-19161643D01*
X4526786Y-19175929D01*
X4555357Y-19190214D01*
X4612500Y-19190214D01*
X4641071Y-19175929D01*
X4655357Y-19161643D01*
X4669643Y-19133072D01*
X4669643Y-19075929D01*
X4655357Y-19047357D01*
X4641071Y-19033072D01*
X4612500Y-19018786D01*
X4855357Y-18890214D02*
X4883928Y-18890214D01*
X4912500Y-18904500D01*
X4926786Y-18918786D01*
X4941071Y-18947357D01*
X4955357Y-19004500D01*
X4955357Y-19075929D01*
X4941071Y-19133072D01*
X4926786Y-19161643D01*
X4912500Y-19175929D01*
X4883928Y-19190214D01*
X4855357Y-19190214D01*
X4826786Y-19175929D01*
X4812500Y-19161643D01*
X4798214Y-19133072D01*
X4783928Y-19075929D01*
X4783928Y-19004500D01*
X4798214Y-18947357D01*
X4812500Y-18918786D01*
X4826786Y-18904500D01*
X4855357Y-18890214D01*
X5141071Y-18890214D02*
X5169643Y-18890214D01*
X5198214Y-18904500D01*
X5212500Y-18918786D01*
X5226786Y-18947357D01*
X5241071Y-19004500D01*
X5241071Y-19075929D01*
X5226786Y-19133072D01*
X5212500Y-19161643D01*
X5198214Y-19175929D01*
X5169643Y-19190214D01*
X5141071Y-19190214D01*
X5112500Y-19175929D01*
X5098214Y-19161643D01*
X5083928Y-19133072D01*
X5069643Y-19075929D01*
X5069643Y-19004500D01*
X5083928Y-18947357D01*
X5098214Y-18918786D01*
X5112500Y-18904500D01*
X5141071Y-18890214D01*
X5369643Y-19190214D02*
X5369643Y-18990214D01*
X5369643Y-19018786D02*
X5383928Y-19004500D01*
X5412500Y-18990214D01*
X5455357Y-18990214D01*
X5483928Y-19004500D01*
X5498214Y-19033072D01*
X5498214Y-19190214D01*
X5498214Y-19033072D02*
X5512500Y-19004500D01*
X5541071Y-18990214D01*
X5583928Y-18990214D01*
X5612500Y-19004500D01*
X5626786Y-19033072D01*
X5626786Y-19190214D01*
X5769643Y-19190214D02*
X5769643Y-18990214D01*
X5769643Y-19018786D02*
X5783928Y-19004500D01*
X5812500Y-18990214D01*
X5855357Y-18990214D01*
X5883928Y-19004500D01*
X5898214Y-19033072D01*
X5898214Y-19190214D01*
X5898214Y-19033072D02*
X5912500Y-19004500D01*
X5941071Y-18990214D01*
X5983928Y-18990214D01*
X6012500Y-19004500D01*
X6026786Y-19033072D01*
X6026786Y-19190214D01*
X6612500Y-18875929D02*
X6355357Y-19261643D01*
X6998214Y-18890214D02*
X7026786Y-18890214D01*
X7055357Y-18904500D01*
X7069643Y-18918786D01*
X7083928Y-18947357D01*
X7098214Y-19004500D01*
X7098214Y-19075929D01*
X7083928Y-19133072D01*
X7069643Y-19161643D01*
X7055357Y-19175929D01*
X7026786Y-19190214D01*
X6998214Y-19190214D01*
X6969643Y-19175929D01*
X6955357Y-19161643D01*
X6941071Y-19133072D01*
X6926786Y-19075929D01*
X6926786Y-19004500D01*
X6941071Y-18947357D01*
X6955357Y-18918786D01*
X6969643Y-18904500D01*
X6998214Y-18890214D01*
X7226786Y-19161643D02*
X7241071Y-19175929D01*
X7226786Y-19190214D01*
X7212500Y-19175929D01*
X7226786Y-19161643D01*
X7226786Y-19190214D01*
X7426786Y-18890214D02*
X7455357Y-18890214D01*
X7483928Y-18904500D01*
X7498214Y-18918786D01*
X7512500Y-18947357D01*
X7526786Y-19004500D01*
X7526786Y-19075929D01*
X7512500Y-19133072D01*
X7498214Y-19161643D01*
X7483928Y-19175929D01*
X7455357Y-19190214D01*
X7426786Y-19190214D01*
X7398214Y-19175929D01*
X7383928Y-19161643D01*
X7369643Y-19133072D01*
X7355357Y-19075929D01*
X7355357Y-19004500D01*
X7369643Y-18947357D01*
X7383928Y-18918786D01*
X7398214Y-18904500D01*
X7426786Y-18890214D01*
X7626786Y-18890214D02*
X7812500Y-18890214D01*
X7712500Y-19004500D01*
X7755357Y-19004500D01*
X7783928Y-19018786D01*
X7798214Y-19033072D01*
X7812500Y-19061643D01*
X7812500Y-19133072D01*
X7798214Y-19161643D01*
X7783928Y-19175929D01*
X7755357Y-19190214D01*
X7669643Y-19190214D01*
X7641071Y-19175929D01*
X7626786Y-19161643D01*
X8098214Y-19190214D02*
X7926786Y-19190214D01*
X8012500Y-19190214D02*
X8012500Y-18890214D01*
X7983928Y-18933072D01*
X7955357Y-18961643D01*
X7926786Y-18975929D01*
X8369643Y-18890214D02*
X8226786Y-18890214D01*
X8212500Y-19033072D01*
X8226786Y-19018786D01*
X8255357Y-19004500D01*
X8326786Y-19004500D01*
X8355357Y-19018786D01*
X8369643Y-19033072D01*
X8383928Y-19061643D01*
X8383928Y-19133072D01*
X8369643Y-19161643D01*
X8355357Y-19175929D01*
X8326786Y-19190214D01*
X8255357Y-19190214D01*
X8226786Y-19175929D01*
X8212500Y-19161643D01*
X8498214Y-18890214D02*
X8498214Y-18947357D01*
X8612500Y-18890214D02*
X8612500Y-18947357D01*
X9055357Y-19304500D02*
X9041071Y-19290214D01*
X9012500Y-19247357D01*
X8998214Y-19218786D01*
X8983928Y-19175929D01*
X8969643Y-19104500D01*
X8969643Y-19047357D01*
X8983928Y-18975929D01*
X8998214Y-18933072D01*
X9012500Y-18904500D01*
X9041071Y-18861643D01*
X9055357Y-18847357D01*
X9298214Y-18990214D02*
X9298214Y-19190214D01*
X9226786Y-18875929D02*
X9155357Y-19090214D01*
X9341071Y-19090214D01*
X9683928Y-19190214D02*
X9683928Y-18890214D01*
X9812500Y-19190214D02*
X9812500Y-19033072D01*
X9798214Y-19004500D01*
X9769643Y-18990214D01*
X9726786Y-18990214D01*
X9698214Y-19004500D01*
X9683928Y-19018786D01*
X9998214Y-19190214D02*
X9969643Y-19175929D01*
X9955357Y-19161643D01*
X9941071Y-19133072D01*
X9941071Y-19047357D01*
X9955357Y-19018786D01*
X9969643Y-19004500D01*
X9998214Y-18990214D01*
X10041071Y-18990214D01*
X10069643Y-19004500D01*
X10083928Y-19018786D01*
X10098214Y-19047357D01*
X10098214Y-19133072D01*
X10083928Y-19161643D01*
X10069643Y-19175929D01*
X10041071Y-19190214D01*
X9998214Y-19190214D01*
X10269643Y-19190214D02*
X10241071Y-19175929D01*
X10226786Y-19147357D01*
X10226786Y-18890214D01*
X10498214Y-19175929D02*
X10469643Y-19190214D01*
X10412500Y-19190214D01*
X10383928Y-19175929D01*
X10369643Y-19147357D01*
X10369643Y-19033072D01*
X10383928Y-19004500D01*
X10412500Y-18990214D01*
X10469643Y-18990214D01*
X10498214Y-19004500D01*
X10512500Y-19033072D01*
X10512500Y-19061643D01*
X10369643Y-19090214D01*
X10626786Y-19175929D02*
X10655357Y-19190214D01*
X10712500Y-19190214D01*
X10741071Y-19175929D01*
X10755357Y-19147357D01*
X10755357Y-19133072D01*
X10741071Y-19104500D01*
X10712500Y-19090214D01*
X10669643Y-19090214D01*
X10641071Y-19075929D01*
X10626786Y-19047357D01*
X10626786Y-19033072D01*
X10641071Y-19004500D01*
X10669643Y-18990214D01*
X10712500Y-18990214D01*
X10741071Y-19004500D01*
X10855357Y-19304500D02*
X10869643Y-19290214D01*
X10898214Y-19247357D01*
X10912500Y-19218786D01*
X10926786Y-19175929D01*
X10941071Y-19104500D01*
X10941071Y-19047357D01*
X10926786Y-18975929D01*
X10912500Y-18933072D01*
X10898214Y-18904500D01*
X10869643Y-18861643D01*
X10855357Y-18847357D01*
X3782856Y-19485856D02*
X3782856Y-19415144D01*
X3712144Y-19415144D01*
X3712144Y-19485856D01*
X3782856Y-19485856D01*
X4241071Y-19586214D02*
X4069643Y-19586214D01*
X4155357Y-19586214D02*
X4155357Y-19286214D01*
X4126786Y-19329072D01*
X4098214Y-19357643D01*
X4069643Y-19371929D01*
X4369643Y-19557643D02*
X4383928Y-19571929D01*
X4369643Y-19586214D01*
X4355357Y-19571929D01*
X4369643Y-19557643D01*
X4369643Y-19586214D01*
X4569643Y-19286214D02*
X4598214Y-19286214D01*
X4626786Y-19300500D01*
X4641071Y-19314786D01*
X4655357Y-19343357D01*
X4669643Y-19400500D01*
X4669643Y-19471929D01*
X4655357Y-19529072D01*
X4641071Y-19557643D01*
X4626786Y-19571929D01*
X4598214Y-19586214D01*
X4569643Y-19586214D01*
X4541071Y-19571929D01*
X4526786Y-19557643D01*
X4512500Y-19529072D01*
X4498214Y-19471929D01*
X4498214Y-19400500D01*
X4512500Y-19343357D01*
X4526786Y-19314786D01*
X4541071Y-19300500D01*
X4569643Y-19286214D01*
X4855357Y-19286214D02*
X4883928Y-19286214D01*
X4912500Y-19300500D01*
X4926786Y-19314786D01*
X4941071Y-19343357D01*
X4955357Y-19400500D01*
X4955357Y-19471929D01*
X4941071Y-19529072D01*
X4926786Y-19557643D01*
X4912500Y-19571929D01*
X4883928Y-19586214D01*
X4855357Y-19586214D01*
X4826786Y-19571929D01*
X4812500Y-19557643D01*
X4798214Y-19529072D01*
X4783928Y-19471929D01*
X4783928Y-19400500D01*
X4798214Y-19343357D01*
X4812500Y-19314786D01*
X4826786Y-19300500D01*
X4855357Y-19286214D01*
X5141071Y-19286214D02*
X5169643Y-19286214D01*
X5198214Y-19300500D01*
X5212500Y-19314786D01*
X5226786Y-19343357D01*
X5241071Y-19400500D01*
X5241071Y-19471929D01*
X5226786Y-19529072D01*
X5212500Y-19557643D01*
X5198214Y-19571929D01*
X5169643Y-19586214D01*
X5141071Y-19586214D01*
X5112500Y-19571929D01*
X5098214Y-19557643D01*
X5083928Y-19529072D01*
X5069643Y-19471929D01*
X5069643Y-19400500D01*
X5083928Y-19343357D01*
X5098214Y-19314786D01*
X5112500Y-19300500D01*
X5141071Y-19286214D01*
X5369643Y-19586214D02*
X5369643Y-19386214D01*
X5369643Y-19414786D02*
X5383928Y-19400500D01*
X5412500Y-19386214D01*
X5455357Y-19386214D01*
X5483928Y-19400500D01*
X5498214Y-19429072D01*
X5498214Y-19586214D01*
X5498214Y-19429072D02*
X5512500Y-19400500D01*
X5541071Y-19386214D01*
X5583928Y-19386214D01*
X5612500Y-19400500D01*
X5626786Y-19429072D01*
X5626786Y-19586214D01*
X5769643Y-19586214D02*
X5769643Y-19386214D01*
X5769643Y-19414786D02*
X5783928Y-19400500D01*
X5812500Y-19386214D01*
X5855357Y-19386214D01*
X5883928Y-19400500D01*
X5898214Y-19429072D01*
X5898214Y-19586214D01*
X5898214Y-19429072D02*
X5912500Y-19400500D01*
X5941071Y-19386214D01*
X5983928Y-19386214D01*
X6012500Y-19400500D01*
X6026786Y-19429072D01*
X6026786Y-19586214D01*
X6612500Y-19271929D02*
X6355357Y-19657643D01*
X6998214Y-19286214D02*
X7026786Y-19286214D01*
X7055357Y-19300500D01*
X7069643Y-19314786D01*
X7083928Y-19343357D01*
X7098214Y-19400500D01*
X7098214Y-19471929D01*
X7083928Y-19529072D01*
X7069643Y-19557643D01*
X7055357Y-19571929D01*
X7026786Y-19586214D01*
X6998214Y-19586214D01*
X6969643Y-19571929D01*
X6955357Y-19557643D01*
X6941071Y-19529072D01*
X6926786Y-19471929D01*
X6926786Y-19400500D01*
X6941071Y-19343357D01*
X6955357Y-19314786D01*
X6969643Y-19300500D01*
X6998214Y-19286214D01*
X7226786Y-19557643D02*
X7241071Y-19571929D01*
X7226786Y-19586214D01*
X7212500Y-19571929D01*
X7226786Y-19557643D01*
X7226786Y-19586214D01*
X7426786Y-19286214D02*
X7455357Y-19286214D01*
X7483928Y-19300500D01*
X7498214Y-19314786D01*
X7512500Y-19343357D01*
X7526786Y-19400500D01*
X7526786Y-19471929D01*
X7512500Y-19529072D01*
X7498214Y-19557643D01*
X7483928Y-19571929D01*
X7455357Y-19586214D01*
X7426786Y-19586214D01*
X7398214Y-19571929D01*
X7383928Y-19557643D01*
X7369643Y-19529072D01*
X7355357Y-19471929D01*
X7355357Y-19400500D01*
X7369643Y-19343357D01*
X7383928Y-19314786D01*
X7398214Y-19300500D01*
X7426786Y-19286214D01*
X7626786Y-19286214D02*
X7812500Y-19286214D01*
X7712500Y-19400500D01*
X7755357Y-19400500D01*
X7783928Y-19414786D01*
X7798214Y-19429072D01*
X7812500Y-19457643D01*
X7812500Y-19529072D01*
X7798214Y-19557643D01*
X7783928Y-19571929D01*
X7755357Y-19586214D01*
X7669643Y-19586214D01*
X7641071Y-19571929D01*
X7626786Y-19557643D01*
X7955357Y-19586214D02*
X8012500Y-19586214D01*
X8041071Y-19571929D01*
X8055357Y-19557643D01*
X8083928Y-19514786D01*
X8098214Y-19457643D01*
X8098214Y-19343357D01*
X8083928Y-19314786D01*
X8069643Y-19300500D01*
X8041071Y-19286214D01*
X7983928Y-19286214D01*
X7955357Y-19300500D01*
X7941071Y-19314786D01*
X7926786Y-19343357D01*
X7926786Y-19414786D01*
X7941071Y-19443357D01*
X7955357Y-19457643D01*
X7983928Y-19471929D01*
X8041071Y-19471929D01*
X8069643Y-19457643D01*
X8083928Y-19443357D01*
X8098214Y-19414786D01*
X8355357Y-19386214D02*
X8355357Y-19586214D01*
X8283928Y-19271929D02*
X8212500Y-19486214D01*
X8398214Y-19486214D01*
X8498214Y-19286214D02*
X8498214Y-19343357D01*
X8612500Y-19286214D02*
X8612500Y-19343357D01*
X9055357Y-19700500D02*
X9041071Y-19686214D01*
X9012500Y-19643357D01*
X8998214Y-19614786D01*
X8983928Y-19571929D01*
X8969643Y-19500500D01*
X8969643Y-19443357D01*
X8983928Y-19371929D01*
X8998214Y-19329072D01*
X9012500Y-19300500D01*
X9041071Y-19257643D01*
X9055357Y-19243357D01*
X9141071Y-19286214D02*
X9326786Y-19286214D01*
X9226786Y-19400500D01*
X9269643Y-19400500D01*
X9298214Y-19414786D01*
X9312500Y-19429072D01*
X9326786Y-19457643D01*
X9326786Y-19529072D01*
X9312500Y-19557643D01*
X9298214Y-19571929D01*
X9269643Y-19586214D01*
X9183928Y-19586214D01*
X9155357Y-19571929D01*
X9141071Y-19557643D01*
X9498214Y-19414786D02*
X9469643Y-19400500D01*
X9455357Y-19386214D01*
X9441071Y-19357643D01*
X9441071Y-19343357D01*
X9455357Y-19314786D01*
X9469643Y-19300500D01*
X9498214Y-19286214D01*
X9555357Y-19286214D01*
X9583928Y-19300500D01*
X9598214Y-19314786D01*
X9612500Y-19343357D01*
X9612500Y-19357643D01*
X9598214Y-19386214D01*
X9583928Y-19400500D01*
X9555357Y-19414786D01*
X9498214Y-19414786D01*
X9469643Y-19429072D01*
X9455357Y-19443357D01*
X9441071Y-19471929D01*
X9441071Y-19529072D01*
X9455357Y-19557643D01*
X9469643Y-19571929D01*
X9498214Y-19586214D01*
X9555357Y-19586214D01*
X9583928Y-19571929D01*
X9598214Y-19557643D01*
X9612500Y-19529072D01*
X9612500Y-19471929D01*
X9598214Y-19443357D01*
X9583928Y-19429072D01*
X9555357Y-19414786D01*
X9969643Y-19586214D02*
X9969643Y-19286214D01*
X10098214Y-19586214D02*
X10098214Y-19429072D01*
X10083928Y-19400500D01*
X10055357Y-19386214D01*
X10012500Y-19386214D01*
X9983928Y-19400500D01*
X9969643Y-19414786D01*
X10283928Y-19586214D02*
X10255357Y-19571929D01*
X10241071Y-19557643D01*
X10226786Y-19529072D01*
X10226786Y-19443357D01*
X10241071Y-19414786D01*
X10255357Y-19400500D01*
X10283928Y-19386214D01*
X10326786Y-19386214D01*
X10355357Y-19400500D01*
X10369643Y-19414786D01*
X10383928Y-19443357D01*
X10383928Y-19529072D01*
X10369643Y-19557643D01*
X10355357Y-19571929D01*
X10326786Y-19586214D01*
X10283928Y-19586214D01*
X10555357Y-19586214D02*
X10526786Y-19571929D01*
X10512500Y-19543357D01*
X10512500Y-19286214D01*
X10783928Y-19571929D02*
X10755357Y-19586214D01*
X10698214Y-19586214D01*
X10669643Y-19571929D01*
X10655357Y-19543357D01*
X10655357Y-19429072D01*
X10669643Y-19400500D01*
X10698214Y-19386214D01*
X10755357Y-19386214D01*
X10783928Y-19400500D01*
X10798214Y-19429072D01*
X10798214Y-19457643D01*
X10655357Y-19486214D01*
X10912500Y-19571929D02*
X10941071Y-19586214D01*
X10998214Y-19586214D01*
X11026786Y-19571929D01*
X11041071Y-19543357D01*
X11041071Y-19529072D01*
X11026786Y-19500500D01*
X10998214Y-19486214D01*
X10955357Y-19486214D01*
X10926786Y-19471929D01*
X10912500Y-19443357D01*
X10912500Y-19429072D01*
X10926786Y-19400500D01*
X10955357Y-19386214D01*
X10998214Y-19386214D01*
X11026786Y-19400500D01*
X11141071Y-19700500D02*
X11155357Y-19686214D01*
X11183928Y-19643357D01*
X11198214Y-19614786D01*
X11212500Y-19571929D01*
X11226786Y-19500500D01*
X11226786Y-19443357D01*
X11212500Y-19371929D01*
X11198214Y-19329072D01*
X11183928Y-19300500D01*
X11155357Y-19257643D01*
X11141071Y-19243357D01*
X3637500Y-20006500D02*
X3797500Y-19846500D01*
X3637500Y-19686500D01*
X3477500Y-19846500D01*
X3637500Y-20006500D01*
X4055357Y-19682214D02*
X4241071Y-19682214D01*
X4141071Y-19796500D01*
X4183928Y-19796500D01*
X4212500Y-19810786D01*
X4226786Y-19825072D01*
X4241071Y-19853643D01*
X4241071Y-19925072D01*
X4226786Y-19953643D01*
X4212500Y-19967929D01*
X4183928Y-19982214D01*
X4098214Y-19982214D01*
X4069643Y-19967929D01*
X4055357Y-19953643D01*
X4369643Y-19953643D02*
X4383928Y-19967929D01*
X4369643Y-19982214D01*
X4355357Y-19967929D01*
X4369643Y-19953643D01*
X4369643Y-19982214D01*
X4498214Y-19710786D02*
X4512500Y-19696500D01*
X4541071Y-19682214D01*
X4612500Y-19682214D01*
X4641071Y-19696500D01*
X4655357Y-19710786D01*
X4669643Y-19739357D01*
X4669643Y-19767929D01*
X4655357Y-19810786D01*
X4483928Y-19982214D01*
X4669643Y-19982214D01*
X4855357Y-19682214D02*
X4883928Y-19682214D01*
X4912500Y-19696500D01*
X4926786Y-19710786D01*
X4941071Y-19739357D01*
X4955357Y-19796500D01*
X4955357Y-19867929D01*
X4941071Y-19925072D01*
X4926786Y-19953643D01*
X4912500Y-19967929D01*
X4883928Y-19982214D01*
X4855357Y-19982214D01*
X4826786Y-19967929D01*
X4812500Y-19953643D01*
X4798214Y-19925072D01*
X4783928Y-19867929D01*
X4783928Y-19796500D01*
X4798214Y-19739357D01*
X4812500Y-19710786D01*
X4826786Y-19696500D01*
X4855357Y-19682214D01*
X5141071Y-19682214D02*
X5169643Y-19682214D01*
X5198214Y-19696500D01*
X5212500Y-19710786D01*
X5226786Y-19739357D01*
X5241071Y-19796500D01*
X5241071Y-19867929D01*
X5226786Y-19925072D01*
X5212500Y-19953643D01*
X5198214Y-19967929D01*
X5169643Y-19982214D01*
X5141071Y-19982214D01*
X5112500Y-19967929D01*
X5098214Y-19953643D01*
X5083928Y-19925072D01*
X5069643Y-19867929D01*
X5069643Y-19796500D01*
X5083928Y-19739357D01*
X5098214Y-19710786D01*
X5112500Y-19696500D01*
X5141071Y-19682214D01*
X5369643Y-19982214D02*
X5369643Y-19782214D01*
X5369643Y-19810786D02*
X5383928Y-19796500D01*
X5412500Y-19782214D01*
X5455357Y-19782214D01*
X5483928Y-19796500D01*
X5498214Y-19825072D01*
X5498214Y-19982214D01*
X5498214Y-19825072D02*
X5512500Y-19796500D01*
X5541071Y-19782214D01*
X5583928Y-19782214D01*
X5612500Y-19796500D01*
X5626786Y-19825072D01*
X5626786Y-19982214D01*
X5769643Y-19982214D02*
X5769643Y-19782214D01*
X5769643Y-19810786D02*
X5783928Y-19796500D01*
X5812500Y-19782214D01*
X5855357Y-19782214D01*
X5883928Y-19796500D01*
X5898214Y-19825072D01*
X5898214Y-19982214D01*
X5898214Y-19825072D02*
X5912500Y-19796500D01*
X5941071Y-19782214D01*
X5983928Y-19782214D01*
X6012500Y-19796500D01*
X6026786Y-19825072D01*
X6026786Y-19982214D01*
X6612500Y-19667929D02*
X6355357Y-20053643D01*
X6998214Y-19682214D02*
X7026786Y-19682214D01*
X7055357Y-19696500D01*
X7069643Y-19710786D01*
X7083928Y-19739357D01*
X7098214Y-19796500D01*
X7098214Y-19867929D01*
X7083928Y-19925072D01*
X7069643Y-19953643D01*
X7055357Y-19967929D01*
X7026786Y-19982214D01*
X6998214Y-19982214D01*
X6969643Y-19967929D01*
X6955357Y-19953643D01*
X6941071Y-19925072D01*
X6926786Y-19867929D01*
X6926786Y-19796500D01*
X6941071Y-19739357D01*
X6955357Y-19710786D01*
X6969643Y-19696500D01*
X6998214Y-19682214D01*
X7226786Y-19953643D02*
X7241071Y-19967929D01*
X7226786Y-19982214D01*
X7212500Y-19967929D01*
X7226786Y-19953643D01*
X7226786Y-19982214D01*
X7526786Y-19982214D02*
X7355357Y-19982214D01*
X7441071Y-19982214D02*
X7441071Y-19682214D01*
X7412500Y-19725072D01*
X7383928Y-19753643D01*
X7355357Y-19767929D01*
X7641071Y-19710786D02*
X7655357Y-19696500D01*
X7683928Y-19682214D01*
X7755357Y-19682214D01*
X7783928Y-19696500D01*
X7798214Y-19710786D01*
X7812500Y-19739357D01*
X7812500Y-19767929D01*
X7798214Y-19810786D01*
X7626786Y-19982214D01*
X7812500Y-19982214D01*
X8069643Y-19682214D02*
X8012500Y-19682214D01*
X7983928Y-19696500D01*
X7969643Y-19710786D01*
X7941071Y-19753643D01*
X7926786Y-19810786D01*
X7926786Y-19925072D01*
X7941071Y-19953643D01*
X7955357Y-19967929D01*
X7983928Y-19982214D01*
X8041071Y-19982214D01*
X8069643Y-19967929D01*
X8083928Y-19953643D01*
X8098214Y-19925072D01*
X8098214Y-19853643D01*
X8083928Y-19825072D01*
X8069643Y-19810786D01*
X8041071Y-19796500D01*
X7983928Y-19796500D01*
X7955357Y-19810786D01*
X7941071Y-19825072D01*
X7926786Y-19853643D01*
X8283928Y-19682214D02*
X8312500Y-19682214D01*
X8341071Y-19696500D01*
X8355357Y-19710786D01*
X8369643Y-19739357D01*
X8383928Y-19796500D01*
X8383928Y-19867929D01*
X8369643Y-19925072D01*
X8355357Y-19953643D01*
X8341071Y-19967929D01*
X8312500Y-19982214D01*
X8283928Y-19982214D01*
X8255357Y-19967929D01*
X8241071Y-19953643D01*
X8226786Y-19925072D01*
X8212500Y-19867929D01*
X8212500Y-19796500D01*
X8226786Y-19739357D01*
X8241071Y-19710786D01*
X8255357Y-19696500D01*
X8283928Y-19682214D01*
X8498214Y-19682214D02*
X8498214Y-19739357D01*
X8612500Y-19682214D02*
X8612500Y-19739357D01*
X9055357Y-20096500D02*
X9041071Y-20082214D01*
X9012500Y-20039357D01*
X8998214Y-20010786D01*
X8983928Y-19967929D01*
X8969643Y-19896500D01*
X8969643Y-19839357D01*
X8983928Y-19767929D01*
X8998214Y-19725072D01*
X9012500Y-19696500D01*
X9041071Y-19653643D01*
X9055357Y-19639357D01*
X9298214Y-19782214D02*
X9298214Y-19982214D01*
X9226786Y-19667929D02*
X9155357Y-19882214D01*
X9341071Y-19882214D01*
X9683928Y-19982214D02*
X9683928Y-19682214D01*
X9812500Y-19982214D02*
X9812500Y-19825072D01*
X9798214Y-19796500D01*
X9769643Y-19782214D01*
X9726786Y-19782214D01*
X9698214Y-19796500D01*
X9683928Y-19810786D01*
X9998214Y-19982214D02*
X9969643Y-19967929D01*
X9955357Y-19953643D01*
X9941071Y-19925072D01*
X9941071Y-19839357D01*
X9955357Y-19810786D01*
X9969643Y-19796500D01*
X9998214Y-19782214D01*
X10041071Y-19782214D01*
X10069643Y-19796500D01*
X10083928Y-19810786D01*
X10098214Y-19839357D01*
X10098214Y-19925072D01*
X10083928Y-19953643D01*
X10069643Y-19967929D01*
X10041071Y-19982214D01*
X9998214Y-19982214D01*
X10269643Y-19982214D02*
X10241071Y-19967929D01*
X10226786Y-19939357D01*
X10226786Y-19682214D01*
X10498214Y-19967929D02*
X10469643Y-19982214D01*
X10412500Y-19982214D01*
X10383928Y-19967929D01*
X10369643Y-19939357D01*
X10369643Y-19825072D01*
X10383928Y-19796500D01*
X10412500Y-19782214D01*
X10469643Y-19782214D01*
X10498214Y-19796500D01*
X10512500Y-19825072D01*
X10512500Y-19853643D01*
X10369643Y-19882214D01*
X10626786Y-19967929D02*
X10655357Y-19982214D01*
X10712500Y-19982214D01*
X10741071Y-19967929D01*
X10755357Y-19939357D01*
X10755357Y-19925072D01*
X10741071Y-19896500D01*
X10712500Y-19882214D01*
X10669643Y-19882214D01*
X10641071Y-19867929D01*
X10626786Y-19839357D01*
X10626786Y-19825072D01*
X10641071Y-19796500D01*
X10669643Y-19782214D01*
X10712500Y-19782214D01*
X10741071Y-19796500D01*
X10855357Y-20096500D02*
X10869643Y-20082214D01*
X10898214Y-20039357D01*
X10912500Y-20010786D01*
X10926786Y-19967929D01*
X10941071Y-19896500D01*
X10941071Y-19839357D01*
X10926786Y-19767929D01*
X10912500Y-19725072D01*
X10898214Y-19696500D01*
X10869643Y-19653643D01*
X10855357Y-19639357D01*
M02*
