%TF.GenerationSoftware,KiCad,Pcbnew,5.1.12-84ad8e8a86~92~ubuntu20.04.1*%
%TF.CreationDate,2021-11-28T14:42:32-08:00*%
%TF.ProjectId,FilaScale-s,46696c61-5363-4616-9c65-2d732e6b6963,rev?*%
%TF.SameCoordinates,Original*%
%TF.FileFunction,Legend,Bot*%
%TF.FilePolarity,Positive*%
%FSLAX46Y46*%
G04 Gerber Fmt 4.6, Leading zero omitted, Abs format (unit mm)*
G04 Created by KiCad (PCBNEW 5.1.12-84ad8e8a86~92~ubuntu20.04.1) date 2021-11-28 14:42:32*
%MOMM*%
%LPD*%
G01*
G04 APERTURE LIST*
%ADD10C,0.500000*%
%ADD11C,0.300000*%
G04 APERTURE END LIST*
D10*
X59755114Y-133849957D02*
X59755114Y-132849957D01*
X61326542Y-132849957D02*
X58326542Y-132849957D01*
X58326542Y-134278528D01*
X61326542Y-135421385D02*
X59326542Y-135421385D01*
X58326542Y-135421385D02*
X58469400Y-135278528D01*
X58612257Y-135421385D01*
X58469400Y-135564242D01*
X58326542Y-135421385D01*
X58612257Y-135421385D01*
X61326542Y-137278528D02*
X61183685Y-136992814D01*
X60897971Y-136849957D01*
X58326542Y-136849957D01*
X61326542Y-139707100D02*
X59755114Y-139707100D01*
X59469400Y-139564242D01*
X59326542Y-139278528D01*
X59326542Y-138707100D01*
X59469400Y-138421385D01*
X61183685Y-139707100D02*
X61326542Y-139421385D01*
X61326542Y-138707100D01*
X61183685Y-138421385D01*
X60897971Y-138278528D01*
X60612257Y-138278528D01*
X60326542Y-138421385D01*
X60183685Y-138707100D01*
X60183685Y-139421385D01*
X60040828Y-139707100D01*
X61183685Y-140992814D02*
X61326542Y-141421385D01*
X61326542Y-142135671D01*
X61183685Y-142421385D01*
X61040828Y-142564242D01*
X60755114Y-142707100D01*
X60469400Y-142707100D01*
X60183685Y-142564242D01*
X60040828Y-142421385D01*
X59897971Y-142135671D01*
X59755114Y-141564242D01*
X59612257Y-141278528D01*
X59469400Y-141135671D01*
X59183685Y-140992814D01*
X58897971Y-140992814D01*
X58612257Y-141135671D01*
X58469400Y-141278528D01*
X58326542Y-141564242D01*
X58326542Y-142278528D01*
X58469400Y-142707100D01*
X61183685Y-145278528D02*
X61326542Y-144992814D01*
X61326542Y-144421385D01*
X61183685Y-144135671D01*
X61040828Y-143992814D01*
X60755114Y-143849957D01*
X59897971Y-143849957D01*
X59612257Y-143992814D01*
X59469400Y-144135671D01*
X59326542Y-144421385D01*
X59326542Y-144992814D01*
X59469400Y-145278528D01*
X61326542Y-147849957D02*
X59755114Y-147849957D01*
X59469400Y-147707100D01*
X59326542Y-147421385D01*
X59326542Y-146849957D01*
X59469400Y-146564242D01*
X61183685Y-147849957D02*
X61326542Y-147564242D01*
X61326542Y-146849957D01*
X61183685Y-146564242D01*
X60897971Y-146421385D01*
X60612257Y-146421385D01*
X60326542Y-146564242D01*
X60183685Y-146849957D01*
X60183685Y-147564242D01*
X60040828Y-147849957D01*
X61326542Y-149707100D02*
X61183685Y-149421385D01*
X60897971Y-149278528D01*
X58326542Y-149278528D01*
X61183685Y-151992814D02*
X61326542Y-151707100D01*
X61326542Y-151135671D01*
X61183685Y-150849957D01*
X60897971Y-150707100D01*
X59755114Y-150707100D01*
X59469400Y-150849957D01*
X59326542Y-151135671D01*
X59326542Y-151707100D01*
X59469400Y-151992814D01*
X59755114Y-152135671D01*
X60040828Y-152135671D01*
X60326542Y-150707100D01*
X60183685Y-153421385D02*
X60183685Y-155707100D01*
X61183685Y-156992814D02*
X61326542Y-157421385D01*
X61326542Y-158135671D01*
X61183685Y-158421385D01*
X61040828Y-158564242D01*
X60755114Y-158707100D01*
X60469400Y-158707100D01*
X60183685Y-158564242D01*
X60040828Y-158421385D01*
X59897971Y-158135671D01*
X59755114Y-157564242D01*
X59612257Y-157278528D01*
X59469400Y-157135671D01*
X59183685Y-156992814D01*
X58897971Y-156992814D01*
X58612257Y-157135671D01*
X58469400Y-157278528D01*
X58326542Y-157564242D01*
X58326542Y-158278528D01*
X58469400Y-158707100D01*
D11*
X64838971Y-132901857D02*
X63838971Y-132901857D01*
X64124685Y-132901857D02*
X63981828Y-132973285D01*
X63910400Y-133044714D01*
X63838971Y-133187571D01*
X63838971Y-133330428D01*
X64767542Y-134401857D02*
X64838971Y-134259000D01*
X64838971Y-133973285D01*
X64767542Y-133830428D01*
X64624685Y-133759000D01*
X64053257Y-133759000D01*
X63910400Y-133830428D01*
X63838971Y-133973285D01*
X63838971Y-134259000D01*
X63910400Y-134401857D01*
X64053257Y-134473285D01*
X64196114Y-134473285D01*
X64338971Y-133759000D01*
X63838971Y-134973285D02*
X64838971Y-135330428D01*
X63838971Y-135687571D01*
X63481828Y-137330428D02*
X63410400Y-137401857D01*
X63338971Y-137544714D01*
X63338971Y-137901857D01*
X63410400Y-138044714D01*
X63481828Y-138116142D01*
X63624685Y-138187571D01*
X63767542Y-138187571D01*
X63981828Y-138116142D01*
X64838971Y-137259000D01*
X64838971Y-138187571D01*
M02*
