M48
; DRILL file {KiCad 5.1.10-88a1d61d58~90~ubuntu20.04.1} date Tue Oct  5 16:38:44 2021
; FORMAT={-:-/ absolute / inch / decimal}
; #@! TF.CreationDate,2021-10-05T16:38:44-07:00
; #@! TF.GenerationSoftware,Kicad,Pcbnew,5.1.10-88a1d61d58~90~ubuntu20.04.1
; #@! TF.FileFunction,Plated,1,2,PTH
FMAT,2
INCH
T1C0.0157
T2C0.0300
T3C0.0315
T4C0.0394
T5C0.1260
%
G90
G05
T1
X1.8765Y-5.59
X1.8815Y-5.7595
X2.102Y-5.74
X2.1085Y-5.5835
X2.1105Y-5.857
T2
X2.0045Y-5.595
X2.0045Y-5.695
X2.0045Y-5.795
X2.0045Y-5.895
T3
X3.2661Y-5.4012
X3.2661Y-5.8012
X3.3925Y-5.4016
X3.3925Y-5.8016
T4
X1.7405Y-5.432
X1.7405Y-5.532
X1.7405Y-5.632
X1.7405Y-5.732
X2.2127Y-5.0983
X2.2127Y-5.1983
X2.2127Y-5.2983
X2.2127Y-5.3983
X2.2127Y-5.4983
X2.2127Y-5.5983
X2.2127Y-5.6983
X2.2127Y-5.7983
X2.2127Y-5.8983
X2.2127Y-5.9983
X2.2127Y-6.0983
X2.2127Y-6.1983
X2.2127Y-6.2983
X2.2127Y-6.3983
X2.2127Y-6.4983
X2.8127Y-5.0983
X2.8127Y-5.1983
X2.8127Y-5.2983
X2.8127Y-5.3983
X2.8127Y-5.4983
X2.8127Y-5.5983
X2.8127Y-5.6983
X2.8127Y-5.7983
X2.8127Y-5.8983
X2.8127Y-5.9983
X2.8127Y-6.0983
X2.8127Y-6.1983
X2.8127Y-6.2983
X2.8127Y-6.3983
X2.8127Y-6.4983
X3.127Y-5.4615
X3.127Y-5.5615
X3.127Y-5.6615
X3.127Y-5.7615
T5
X1.6929Y-5.0394
X1.6929Y-6.6142
X3.2677Y-5.0394
X3.2677Y-6.6142
T0
M30
