%TF.GenerationSoftware,KiCad,Pcbnew,5.1.10-88a1d61d58~90~ubuntu20.04.1*%
%TF.CreationDate,2021-10-05T16:38:46-07:00*%
%TF.ProjectId,FilaScale-s,46696c61-5363-4616-9c65-2d732e6b6963,rev?*%
%TF.SameCoordinates,Original*%
%TF.FileFunction,Legend,Top*%
%TF.FilePolarity,Positive*%
%FSLAX46Y46*%
G04 Gerber Fmt 4.6, Leading zero omitted, Abs format (unit mm)*
G04 Created by KiCad (PCBNEW 5.1.10-88a1d61d58~90~ubuntu20.04.1) date 2021-10-05 16:38:46*
%MOMM*%
%LPD*%
G01*
G04 APERTURE LIST*
%ADD10C,0.150000*%
%ADD11C,0.120000*%
G04 APERTURE END LIST*
D10*
X78367619Y-148613571D02*
X78510476Y-148661190D01*
X78558095Y-148708809D01*
X78605714Y-148804047D01*
X78605714Y-148946904D01*
X78558095Y-149042142D01*
X78510476Y-149089761D01*
X78415238Y-149137380D01*
X78034285Y-149137380D01*
X78034285Y-148137380D01*
X78367619Y-148137380D01*
X78462857Y-148185000D01*
X78510476Y-148232619D01*
X78558095Y-148327857D01*
X78558095Y-148423095D01*
X78510476Y-148518333D01*
X78462857Y-148565952D01*
X78367619Y-148613571D01*
X78034285Y-148613571D01*
X79034285Y-149137380D02*
X79034285Y-148137380D01*
X79367619Y-148851666D01*
X79700952Y-148137380D01*
X79700952Y-149137380D01*
X80177142Y-148613571D02*
X80510476Y-148613571D01*
X80653333Y-149137380D02*
X80177142Y-149137380D01*
X80177142Y-148137380D01*
X80653333Y-148137380D01*
X78081904Y-149882619D02*
X78129523Y-149835000D01*
X78224761Y-149787380D01*
X78462857Y-149787380D01*
X78558095Y-149835000D01*
X78605714Y-149882619D01*
X78653333Y-149977857D01*
X78653333Y-150073095D01*
X78605714Y-150215952D01*
X78034285Y-150787380D01*
X78653333Y-150787380D01*
X79224761Y-150215952D02*
X79129523Y-150168333D01*
X79081904Y-150120714D01*
X79034285Y-150025476D01*
X79034285Y-149977857D01*
X79081904Y-149882619D01*
X79129523Y-149835000D01*
X79224761Y-149787380D01*
X79415238Y-149787380D01*
X79510476Y-149835000D01*
X79558095Y-149882619D01*
X79605714Y-149977857D01*
X79605714Y-150025476D01*
X79558095Y-150120714D01*
X79510476Y-150168333D01*
X79415238Y-150215952D01*
X79224761Y-150215952D01*
X79129523Y-150263571D01*
X79081904Y-150311190D01*
X79034285Y-150406428D01*
X79034285Y-150596904D01*
X79081904Y-150692142D01*
X79129523Y-150739761D01*
X79224761Y-150787380D01*
X79415238Y-150787380D01*
X79510476Y-150739761D01*
X79558095Y-150692142D01*
X79605714Y-150596904D01*
X79605714Y-150406428D01*
X79558095Y-150311190D01*
X79510476Y-150263571D01*
X79415238Y-150215952D01*
X80224761Y-149787380D02*
X80320000Y-149787380D01*
X80415238Y-149835000D01*
X80462857Y-149882619D01*
X80510476Y-149977857D01*
X80558095Y-150168333D01*
X80558095Y-150406428D01*
X80510476Y-150596904D01*
X80462857Y-150692142D01*
X80415238Y-150739761D01*
X80320000Y-150787380D01*
X80224761Y-150787380D01*
X80129523Y-150739761D01*
X80081904Y-150692142D01*
X80034285Y-150596904D01*
X79986666Y-150406428D01*
X79986666Y-150168333D01*
X80034285Y-149977857D01*
X80081904Y-149882619D01*
X80129523Y-149835000D01*
X80224761Y-149787380D01*
X75055714Y-146474761D02*
X75198571Y-146522380D01*
X75436666Y-146522380D01*
X75531904Y-146474761D01*
X75579523Y-146427142D01*
X75627142Y-146331904D01*
X75627142Y-146236666D01*
X75579523Y-146141428D01*
X75531904Y-146093809D01*
X75436666Y-146046190D01*
X75246190Y-145998571D01*
X75150952Y-145950952D01*
X75103333Y-145903333D01*
X75055714Y-145808095D01*
X75055714Y-145712857D01*
X75103333Y-145617619D01*
X75150952Y-145570000D01*
X75246190Y-145522380D01*
X75484285Y-145522380D01*
X75627142Y-145570000D01*
X76055714Y-146522380D02*
X76055714Y-145522380D01*
X76293809Y-145522380D01*
X76436666Y-145570000D01*
X76531904Y-145665238D01*
X76579523Y-145760476D01*
X76627142Y-145950952D01*
X76627142Y-146093809D01*
X76579523Y-146284285D01*
X76531904Y-146379523D01*
X76436666Y-146474761D01*
X76293809Y-146522380D01*
X76055714Y-146522380D01*
X77008095Y-146236666D02*
X77484285Y-146236666D01*
X76912857Y-146522380D02*
X77246190Y-145522380D01*
X77579523Y-146522380D01*
X75349523Y-144074761D02*
X75492380Y-144122380D01*
X75730476Y-144122380D01*
X75825714Y-144074761D01*
X75873333Y-144027142D01*
X75920952Y-143931904D01*
X75920952Y-143836666D01*
X75873333Y-143741428D01*
X75825714Y-143693809D01*
X75730476Y-143646190D01*
X75540000Y-143598571D01*
X75444761Y-143550952D01*
X75397142Y-143503333D01*
X75349523Y-143408095D01*
X75349523Y-143312857D01*
X75397142Y-143217619D01*
X75444761Y-143170000D01*
X75540000Y-143122380D01*
X75778095Y-143122380D01*
X75920952Y-143170000D01*
X76920952Y-144027142D02*
X76873333Y-144074761D01*
X76730476Y-144122380D01*
X76635238Y-144122380D01*
X76492380Y-144074761D01*
X76397142Y-143979523D01*
X76349523Y-143884285D01*
X76301904Y-143693809D01*
X76301904Y-143550952D01*
X76349523Y-143360476D01*
X76397142Y-143265238D01*
X76492380Y-143170000D01*
X76635238Y-143122380D01*
X76730476Y-143122380D01*
X76873333Y-143170000D01*
X76920952Y-143217619D01*
X77825714Y-144122380D02*
X77349523Y-144122380D01*
X77349523Y-143122380D01*
X48668571Y-140114761D02*
X48811428Y-140162380D01*
X49049523Y-140162380D01*
X49144761Y-140114761D01*
X49192380Y-140067142D01*
X49240000Y-139971904D01*
X49240000Y-139876666D01*
X49192380Y-139781428D01*
X49144761Y-139733809D01*
X49049523Y-139686190D01*
X48859047Y-139638571D01*
X48763809Y-139590952D01*
X48716190Y-139543333D01*
X48668571Y-139448095D01*
X48668571Y-139352857D01*
X48716190Y-139257619D01*
X48763809Y-139210000D01*
X48859047Y-139162380D01*
X49097142Y-139162380D01*
X49240000Y-139210000D01*
X50240000Y-140067142D02*
X50192380Y-140114761D01*
X50049523Y-140162380D01*
X49954285Y-140162380D01*
X49811428Y-140114761D01*
X49716190Y-140019523D01*
X49668571Y-139924285D01*
X49620952Y-139733809D01*
X49620952Y-139590952D01*
X49668571Y-139400476D01*
X49716190Y-139305238D01*
X49811428Y-139210000D01*
X49954285Y-139162380D01*
X50049523Y-139162380D01*
X50192380Y-139210000D01*
X50240000Y-139257619D01*
X50620952Y-139876666D02*
X51097142Y-139876666D01*
X50525714Y-140162380D02*
X50859047Y-139162380D01*
X51192380Y-140162380D01*
X52001904Y-140162380D02*
X51525714Y-140162380D01*
X51525714Y-139162380D01*
X52335238Y-139638571D02*
X52668571Y-139638571D01*
X52811428Y-140162380D02*
X52335238Y-140162380D01*
X52335238Y-139162380D01*
X52811428Y-139162380D01*
X46808095Y-147692380D02*
X46808095Y-146692380D01*
X47189047Y-146692380D01*
X47284285Y-146740000D01*
X47331904Y-146787619D01*
X47379523Y-146882857D01*
X47379523Y-147025714D01*
X47331904Y-147120952D01*
X47284285Y-147168571D01*
X47189047Y-147216190D01*
X46808095Y-147216190D01*
X48379523Y-147597142D02*
X48331904Y-147644761D01*
X48189047Y-147692380D01*
X48093809Y-147692380D01*
X47950952Y-147644761D01*
X47855714Y-147549523D01*
X47808095Y-147454285D01*
X47760476Y-147263809D01*
X47760476Y-147120952D01*
X47808095Y-146930476D01*
X47855714Y-146835238D01*
X47950952Y-146740000D01*
X48093809Y-146692380D01*
X48189047Y-146692380D01*
X48331904Y-146740000D01*
X48379523Y-146787619D01*
X48808095Y-147692380D02*
X48808095Y-146692380D01*
X49379523Y-147692380D02*
X48950952Y-147120952D01*
X49379523Y-146692380D02*
X48808095Y-147263809D01*
X46734285Y-145282380D02*
X46734285Y-144282380D01*
X47115238Y-144282380D01*
X47210476Y-144330000D01*
X47258095Y-144377619D01*
X47305714Y-144472857D01*
X47305714Y-144615714D01*
X47258095Y-144710952D01*
X47210476Y-144758571D01*
X47115238Y-144806190D01*
X46734285Y-144806190D01*
X47734285Y-145282380D02*
X47734285Y-144282380D01*
X47972380Y-144282380D01*
X48115238Y-144330000D01*
X48210476Y-144425238D01*
X48258095Y-144520476D01*
X48305714Y-144710952D01*
X48305714Y-144853809D01*
X48258095Y-145044285D01*
X48210476Y-145139523D01*
X48115238Y-145234761D01*
X47972380Y-145282380D01*
X47734285Y-145282380D01*
X48924761Y-144282380D02*
X49115238Y-144282380D01*
X49210476Y-144330000D01*
X49305714Y-144425238D01*
X49353333Y-144615714D01*
X49353333Y-144949047D01*
X49305714Y-145139523D01*
X49210476Y-145234761D01*
X49115238Y-145282380D01*
X48924761Y-145282380D01*
X48829523Y-145234761D01*
X48734285Y-145139523D01*
X48686666Y-144949047D01*
X48686666Y-144615714D01*
X48734285Y-144425238D01*
X48829523Y-144330000D01*
X48924761Y-144282380D01*
X39834285Y-145801428D02*
X40596190Y-145801428D01*
X40215238Y-146182380D02*
X40215238Y-145420476D01*
X41548571Y-145182380D02*
X41072380Y-145182380D01*
X41024761Y-145658571D01*
X41072380Y-145610952D01*
X41167619Y-145563333D01*
X41405714Y-145563333D01*
X41500952Y-145610952D01*
X41548571Y-145658571D01*
X41596190Y-145753809D01*
X41596190Y-145991904D01*
X41548571Y-146087142D01*
X41500952Y-146134761D01*
X41405714Y-146182380D01*
X41167619Y-146182380D01*
X41072380Y-146134761D01*
X41024761Y-146087142D01*
X41881904Y-145182380D02*
X42215238Y-146182380D01*
X42548571Y-145182380D01*
X40518095Y-137550000D02*
X40422857Y-137502380D01*
X40280000Y-137502380D01*
X40137142Y-137550000D01*
X40041904Y-137645238D01*
X39994285Y-137740476D01*
X39946666Y-137930952D01*
X39946666Y-138073809D01*
X39994285Y-138264285D01*
X40041904Y-138359523D01*
X40137142Y-138454761D01*
X40280000Y-138502380D01*
X40375238Y-138502380D01*
X40518095Y-138454761D01*
X40565714Y-138407142D01*
X40565714Y-138073809D01*
X40375238Y-138073809D01*
X40994285Y-138502380D02*
X40994285Y-137502380D01*
X41565714Y-138502380D01*
X41565714Y-137502380D01*
X42041904Y-138502380D02*
X42041904Y-137502380D01*
X42280000Y-137502380D01*
X42422857Y-137550000D01*
X42518095Y-137645238D01*
X42565714Y-137740476D01*
X42613333Y-137930952D01*
X42613333Y-138073809D01*
X42565714Y-138264285D01*
X42518095Y-138359523D01*
X42422857Y-138454761D01*
X42280000Y-138502380D01*
X42041904Y-138502380D01*
X40104285Y-142342380D02*
X40675714Y-142342380D01*
X40390000Y-143342380D02*
X40390000Y-142342380D01*
X40913809Y-142342380D02*
X41580476Y-143342380D01*
X41580476Y-142342380D02*
X40913809Y-143342380D01*
X42151904Y-142342380D02*
X42342380Y-142342380D01*
X42437619Y-142390000D01*
X42532857Y-142485238D01*
X42580476Y-142675714D01*
X42580476Y-143009047D01*
X42532857Y-143199523D01*
X42437619Y-143294761D01*
X42342380Y-143342380D01*
X42151904Y-143342380D01*
X42056666Y-143294761D01*
X41961428Y-143199523D01*
X41913809Y-143009047D01*
X41913809Y-142675714D01*
X41961428Y-142485238D01*
X42056666Y-142390000D01*
X42151904Y-142342380D01*
X41085238Y-141002380D02*
X40751904Y-140526190D01*
X40513809Y-141002380D02*
X40513809Y-140002380D01*
X40894761Y-140002380D01*
X40990000Y-140050000D01*
X41037619Y-140097619D01*
X41085238Y-140192857D01*
X41085238Y-140335714D01*
X41037619Y-140430952D01*
X40990000Y-140478571D01*
X40894761Y-140526190D01*
X40513809Y-140526190D01*
X41418571Y-140002380D02*
X42085238Y-141002380D01*
X42085238Y-140002380D02*
X41418571Y-141002380D01*
X42466190Y-141002380D02*
X42466190Y-140002380D01*
X43372857Y-134667380D02*
X43039523Y-134191190D01*
X42801428Y-134667380D02*
X42801428Y-133667380D01*
X43182380Y-133667380D01*
X43277619Y-133715000D01*
X43325238Y-133762619D01*
X43372857Y-133857857D01*
X43372857Y-134000714D01*
X43325238Y-134095952D01*
X43277619Y-134143571D01*
X43182380Y-134191190D01*
X42801428Y-134191190D01*
X44134761Y-134143571D02*
X43801428Y-134143571D01*
X43801428Y-134667380D02*
X43801428Y-133667380D01*
X44277619Y-133667380D01*
X44658571Y-134667380D02*
X44658571Y-133667380D01*
X45134761Y-134667380D02*
X45134761Y-133667380D01*
X45372857Y-133667380D01*
X45515714Y-133715000D01*
X45610952Y-133810238D01*
X45658571Y-133905476D01*
X45706190Y-134095952D01*
X45706190Y-134238809D01*
X45658571Y-134429285D01*
X45610952Y-134524523D01*
X45515714Y-134619761D01*
X45372857Y-134667380D01*
X45134761Y-134667380D01*
X43015714Y-135317380D02*
X43587142Y-135317380D01*
X43301428Y-136317380D02*
X43301428Y-135317380D01*
X43872857Y-136031666D02*
X44349047Y-136031666D01*
X43777619Y-136317380D02*
X44110952Y-135317380D01*
X44444285Y-136317380D01*
X45301428Y-135365000D02*
X45206190Y-135317380D01*
X45063333Y-135317380D01*
X44920476Y-135365000D01*
X44825238Y-135460238D01*
X44777619Y-135555476D01*
X44730000Y-135745952D01*
X44730000Y-135888809D01*
X44777619Y-136079285D01*
X44825238Y-136174523D01*
X44920476Y-136269761D01*
X45063333Y-136317380D01*
X45158571Y-136317380D01*
X45301428Y-136269761D01*
X45349047Y-136222142D01*
X45349047Y-135888809D01*
X45158571Y-135888809D01*
D11*
%TO.C,J1*%
X52184300Y-140843000D02*
X52184300Y-151003000D01*
X49644300Y-140843000D02*
X52184300Y-140843000D01*
X49644300Y-151003000D02*
X49644300Y-140843000D01*
X52184300Y-151003000D02*
X49644300Y-151003000D01*
%TO.C,J2*%
X72843101Y-125557501D02*
X54803101Y-125557501D01*
X72843101Y-168997501D02*
X72843101Y-125557501D01*
X54803101Y-168997501D02*
X72843101Y-168997501D01*
X57473101Y-166327501D02*
X54803101Y-166327501D01*
X57473101Y-130767501D02*
X57473101Y-166327501D01*
X57473101Y-130767501D02*
X54803101Y-130767501D01*
X70173101Y-166327501D02*
X72843101Y-166327501D01*
X70173101Y-128227501D02*
X70173101Y-166327501D01*
X70173101Y-128227501D02*
X72843101Y-128227501D01*
X54803101Y-125557501D02*
X54803101Y-128227501D01*
X54803101Y-130767501D02*
X54803101Y-168997501D01*
X57473101Y-128227501D02*
X54803101Y-128227501D01*
X57473101Y-130767501D02*
X57473101Y-128227501D01*
%TO.C,J3*%
X78095800Y-147672100D02*
X80755800Y-147672100D01*
X78095800Y-139992100D02*
X78095800Y-147672100D01*
X80755800Y-139992100D02*
X80755800Y-147672100D01*
X78095800Y-139992100D02*
X80755800Y-139992100D01*
X78095800Y-138722100D02*
X78095800Y-137392100D01*
X78095800Y-137392100D02*
X79425800Y-137392100D01*
%TO.C,J4*%
X45538700Y-146922800D02*
X44208700Y-146922800D01*
X45538700Y-145592800D02*
X45538700Y-146922800D01*
X45538700Y-144322800D02*
X42878700Y-144322800D01*
X42878700Y-144322800D02*
X42878700Y-136642800D01*
X45538700Y-144322800D02*
X45538700Y-136642800D01*
X45538700Y-136642800D02*
X42878700Y-136642800D01*
%TO.C,R1*%
X81590000Y-145540000D02*
X84330000Y-145540000D01*
X84330000Y-145540000D02*
X84330000Y-139000000D01*
X84330000Y-139000000D02*
X81590000Y-139000000D01*
X81590000Y-139000000D02*
X81590000Y-145540000D01*
X82960000Y-146310000D02*
X82960000Y-145540000D01*
X82960000Y-138230000D02*
X82960000Y-139000000D01*
%TO.C,R2*%
X86170000Y-146320000D02*
X86170000Y-145550000D01*
X86170000Y-138240000D02*
X86170000Y-139010000D01*
X87540000Y-145550000D02*
X87540000Y-139010000D01*
X84800000Y-145550000D02*
X87540000Y-145550000D01*
X84800000Y-139010000D02*
X84800000Y-145550000D01*
X87540000Y-139010000D02*
X84800000Y-139010000D01*
%TO.C,M3*%
D10*
X42190476Y-164602380D02*
X42190476Y-163602380D01*
X42523809Y-164316666D01*
X42857142Y-163602380D01*
X42857142Y-164602380D01*
X43238095Y-163602380D02*
X43857142Y-163602380D01*
X43523809Y-163983333D01*
X43666666Y-163983333D01*
X43761904Y-164030952D01*
X43809523Y-164078571D01*
X43857142Y-164173809D01*
X43857142Y-164411904D01*
X43809523Y-164507142D01*
X43761904Y-164554761D01*
X43666666Y-164602380D01*
X43380952Y-164602380D01*
X43285714Y-164554761D01*
X43238095Y-164507142D01*
X82190476Y-164602380D02*
X82190476Y-163602380D01*
X82523809Y-164316666D01*
X82857142Y-163602380D01*
X82857142Y-164602380D01*
X83238095Y-163602380D02*
X83857142Y-163602380D01*
X83523809Y-163983333D01*
X83666666Y-163983333D01*
X83761904Y-164030952D01*
X83809523Y-164078571D01*
X83857142Y-164173809D01*
X83857142Y-164411904D01*
X83809523Y-164507142D01*
X83761904Y-164554761D01*
X83666666Y-164602380D01*
X83380952Y-164602380D01*
X83285714Y-164554761D01*
X83238095Y-164507142D01*
X82190476Y-124602380D02*
X82190476Y-123602380D01*
X82523809Y-124316666D01*
X82857142Y-123602380D01*
X82857142Y-124602380D01*
X83238095Y-123602380D02*
X83857142Y-123602380D01*
X83523809Y-123983333D01*
X83666666Y-123983333D01*
X83761904Y-124030952D01*
X83809523Y-124078571D01*
X83857142Y-124173809D01*
X83857142Y-124411904D01*
X83809523Y-124507142D01*
X83761904Y-124554761D01*
X83666666Y-124602380D01*
X83380952Y-124602380D01*
X83285714Y-124554761D01*
X83238095Y-124507142D01*
X42190476Y-124602380D02*
X42190476Y-123602380D01*
X42523809Y-124316666D01*
X42857142Y-123602380D01*
X42857142Y-124602380D01*
X43238095Y-123602380D02*
X43857142Y-123602380D01*
X43523809Y-123983333D01*
X43666666Y-123983333D01*
X43761904Y-124030952D01*
X43809523Y-124078571D01*
X43857142Y-124173809D01*
X43857142Y-124411904D01*
X43809523Y-124507142D01*
X43761904Y-124554761D01*
X43666666Y-124602380D01*
X43380952Y-124602380D01*
X43285714Y-124554761D01*
X43238095Y-124507142D01*
%TO.C,J1*%
X45500966Y-151090380D02*
X45500966Y-151804666D01*
X45453347Y-151947523D01*
X45358109Y-152042761D01*
X45215252Y-152090380D01*
X45120014Y-152090380D01*
X46500966Y-152090380D02*
X45929538Y-152090380D01*
X46215252Y-152090380D02*
X46215252Y-151090380D01*
X46120014Y-151233238D01*
X46024776Y-151328476D01*
X45929538Y-151376095D01*
%TO.C,J2*%
X63489767Y-123869881D02*
X63489767Y-124584167D01*
X63442148Y-124727024D01*
X63346910Y-124822262D01*
X63204053Y-124869881D01*
X63108815Y-124869881D01*
X63918339Y-123965120D02*
X63965958Y-123917501D01*
X64061196Y-123869881D01*
X64299291Y-123869881D01*
X64394529Y-123917501D01*
X64442148Y-123965120D01*
X64489767Y-124060358D01*
X64489767Y-124155596D01*
X64442148Y-124298453D01*
X63870720Y-124869881D01*
X64489767Y-124869881D01*
%TO.C,J3*%
X79092466Y-135844480D02*
X79092466Y-136558766D01*
X79044847Y-136701623D01*
X78949609Y-136796861D01*
X78806752Y-136844480D01*
X78711514Y-136844480D01*
X79473419Y-135844480D02*
X80092466Y-135844480D01*
X79759133Y-136225433D01*
X79901990Y-136225433D01*
X79997228Y-136273052D01*
X80044847Y-136320671D01*
X80092466Y-136415909D01*
X80092466Y-136654004D01*
X80044847Y-136749242D01*
X79997228Y-136796861D01*
X79901990Y-136844480D01*
X79616276Y-136844480D01*
X79521038Y-136796861D01*
X79473419Y-136749242D01*
%TO.C,J4*%
X43875366Y-147375180D02*
X43875366Y-148089466D01*
X43827747Y-148232323D01*
X43732509Y-148327561D01*
X43589652Y-148375180D01*
X43494414Y-148375180D01*
X44780128Y-147708514D02*
X44780128Y-148375180D01*
X44542033Y-147327561D02*
X44303938Y-148041847D01*
X44922985Y-148041847D01*
%TO.C,R1*%
X82813333Y-135612380D02*
X82480000Y-135136190D01*
X82241904Y-135612380D02*
X82241904Y-134612380D01*
X82622857Y-134612380D01*
X82718095Y-134660000D01*
X82765714Y-134707619D01*
X82813333Y-134802857D01*
X82813333Y-134945714D01*
X82765714Y-135040952D01*
X82718095Y-135088571D01*
X82622857Y-135136190D01*
X82241904Y-135136190D01*
X83765714Y-135612380D02*
X83194285Y-135612380D01*
X83480000Y-135612380D02*
X83480000Y-134612380D01*
X83384761Y-134755238D01*
X83289523Y-134850476D01*
X83194285Y-134898095D01*
%TO.C,R2*%
X85943333Y-135682380D02*
X85610000Y-135206190D01*
X85371904Y-135682380D02*
X85371904Y-134682380D01*
X85752857Y-134682380D01*
X85848095Y-134730000D01*
X85895714Y-134777619D01*
X85943333Y-134872857D01*
X85943333Y-135015714D01*
X85895714Y-135110952D01*
X85848095Y-135158571D01*
X85752857Y-135206190D01*
X85371904Y-135206190D01*
X86324285Y-134777619D02*
X86371904Y-134730000D01*
X86467142Y-134682380D01*
X86705238Y-134682380D01*
X86800476Y-134730000D01*
X86848095Y-134777619D01*
X86895714Y-134872857D01*
X86895714Y-134968095D01*
X86848095Y-135110952D01*
X86276666Y-135682380D01*
X86895714Y-135682380D01*
%TD*%
M02*
