%FSLAX45Y45*%
G04 Gerber Fmt 4.5, Leading zero omitted, Abs format (unit mm)*
G04 Created by KiCad (PCBNEW 5.1.12-84ad8e8a86~92~ubuntu20.04.1) date 2021-11-28 14:42:28*
%MOMM*%
%LPD*%
G01*
G04 APERTURE LIST*
%TA.AperFunction,Profile*%
%ADD10C,0.050000*%
%TD*%
%ADD11C,0.200000*%
%ADD12C,0.300000*%
G04 APERTURE END LIST*
D10*
X4300000Y-17300000D02*
G75*
G02*
X3800000Y-16800000I0J500000D01*
G01*
X10300000Y-16800000D02*
G75*
G02*
X9800000Y-17300000I-500000J0D01*
G01*
X9800000Y-12298999D02*
G75*
G02*
X10300000Y-12800000I0J-500001D01*
G01*
X3800000Y-12800000D02*
G75*
G02*
X4300000Y-12300000I500000J0D01*
G01*
X9800000Y-12298999D02*
X4300000Y-12300000D01*
X10300000Y-16800000D02*
X10300000Y-12800000D01*
X4300000Y-17300000D02*
X9800000Y-17300000D01*
X3800000Y-16800000D02*
X3800000Y-12800000D01*
D11*
X4386392Y-15608620D02*
X4426392Y-15648620D01*
X4426392Y-15608620D02*
X4386392Y-15648620D01*
X4388932Y-15987588D02*
X4428932Y-16027588D01*
X4428932Y-15987588D02*
X4388932Y-16027588D01*
X4746310Y-14178600D02*
X4786310Y-14218600D01*
X4786310Y-14178600D02*
X4746310Y-14218600D01*
X4779584Y-14529120D02*
X4819584Y-14569120D01*
X4819584Y-14529120D02*
X4779584Y-14569120D01*
X5260660Y-15990636D02*
X5300660Y-16030636D01*
X5300660Y-15990636D02*
X5260660Y-16030636D01*
X5262184Y-15611668D02*
X5302184Y-15651668D01*
X5302184Y-15611668D02*
X5262184Y-15651668D01*
X5335590Y-14162090D02*
X5375590Y-14202090D01*
X5375590Y-14162090D02*
X5335590Y-14202090D01*
X5340670Y-14856780D02*
X5380670Y-14896780D01*
X5380670Y-14856780D02*
X5340670Y-14896780D01*
X6775008Y-13879388D02*
X6815008Y-13919388D01*
X6815008Y-13879388D02*
X6775008Y-13919388D01*
X6789000Y-14595000D02*
X6829000Y-14635000D01*
X6829000Y-14595000D02*
X6789000Y-14635000D01*
X6789000Y-14978000D02*
X6829000Y-15018000D01*
X6829000Y-14978000D02*
X6789000Y-15018000D01*
X6795836Y-14212636D02*
X6835836Y-14252636D01*
X6835836Y-14212636D02*
X6795836Y-14252636D01*
X7351080Y-15343190D02*
X7391080Y-15383190D01*
X7391080Y-15343190D02*
X7351080Y-15383190D01*
X7351080Y-15601000D02*
X7391080Y-15641000D01*
X7391080Y-15601000D02*
X7351080Y-15641000D01*
X7419000Y-14570000D02*
X7459000Y-14610000D01*
X7459000Y-14570000D02*
X7419000Y-14610000D01*
X7434900Y-14950760D02*
X7474900Y-14990760D01*
X7474900Y-14950760D02*
X7434900Y-14990760D01*
X7697790Y-15296200D02*
X7737790Y-15336200D01*
X7737790Y-15296200D02*
X7697790Y-15336200D01*
X7918008Y-15548676D02*
X7958008Y-15588676D01*
X7958008Y-15548676D02*
X7918008Y-15588676D01*
X7972110Y-15218730D02*
X8012110Y-15258730D01*
X8012110Y-15218730D02*
X7972110Y-15258730D01*
X8005130Y-16241080D02*
X8045130Y-16281080D01*
X8045130Y-16241080D02*
X8005130Y-16281080D01*
X8031800Y-16002320D02*
X8071800Y-16042320D01*
X8071800Y-16002320D02*
X8031800Y-16042320D01*
X8199440Y-15052360D02*
X8239440Y-15092360D01*
X8239440Y-15052360D02*
X8199440Y-15092360D01*
X8529640Y-13692190D02*
X8569640Y-13732190D01*
X8569640Y-13692190D02*
X8529640Y-13732190D01*
X8698295Y-14112053D02*
X8738295Y-14152053D01*
X8738295Y-14112053D02*
X8698295Y-14152053D01*
X9233220Y-14414820D02*
X9273220Y-14454820D01*
X9273220Y-14414820D02*
X9233220Y-14454820D01*
X9259890Y-14037630D02*
X9299890Y-14077630D01*
X9299890Y-14037630D02*
X9259890Y-14077630D01*
X9792000Y-14155000D02*
X9832000Y-14195000D01*
X9832000Y-14155000D02*
X9792000Y-14195000D01*
X9806000Y-13908000D02*
X9846000Y-13948000D01*
X9846000Y-13908000D02*
X9806000Y-13948000D01*
X8082910Y-13459460D02*
G75*
G03*
X8082910Y-13459460I-40000J0D01*
G01*
X8082910Y-14475460D02*
G75*
G03*
X8082910Y-14475460I-40000J0D01*
G01*
X8434700Y-13460730D02*
G75*
G03*
X8434700Y-13460730I-40000J0D01*
G01*
X8434700Y-14476730D02*
G75*
G03*
X8434700Y-14476730I-40000J0D01*
G01*
X4421000Y-13735000D02*
X4421000Y-13835000D01*
X4371000Y-13785000D02*
X4471000Y-13785000D01*
X4421000Y-13989000D02*
X4421000Y-14089000D01*
X4371000Y-14039000D02*
X4471000Y-14039000D01*
X4421000Y-14243000D02*
X4421000Y-14343000D01*
X4371000Y-14293000D02*
X4471000Y-14293000D01*
X4421000Y-14497000D02*
X4421000Y-14597000D01*
X4371000Y-14547000D02*
X4471000Y-14547000D01*
X5082540Y-14170952D02*
X5082540Y-14270952D01*
X5032540Y-14220952D02*
X5132540Y-14220952D01*
X5082540Y-14424952D02*
X5082540Y-14524952D01*
X5032540Y-14474952D02*
X5132540Y-14474952D01*
X5082540Y-14678952D02*
X5082540Y-14778952D01*
X5032540Y-14728952D02*
X5132540Y-14728952D01*
X5082540Y-14932952D02*
X5082540Y-15032952D01*
X5032540Y-14982952D02*
X5132540Y-14982952D01*
X5610000Y-12901000D02*
X5610000Y-13001000D01*
X5560000Y-12951000D02*
X5660000Y-12951000D01*
X5610000Y-13155000D02*
X5610000Y-13255000D01*
X5560000Y-13205000D02*
X5660000Y-13205000D01*
X5610000Y-13409000D02*
X5610000Y-13509000D01*
X5560000Y-13459000D02*
X5660000Y-13459000D01*
X5610000Y-13663000D02*
X5610000Y-13763000D01*
X5560000Y-13713000D02*
X5660000Y-13713000D01*
X5610000Y-13917000D02*
X5610000Y-14017000D01*
X5560000Y-13967000D02*
X5660000Y-13967000D01*
X5610000Y-14171000D02*
X5610000Y-14271000D01*
X5560000Y-14221000D02*
X5660000Y-14221000D01*
X5610000Y-14425000D02*
X5610000Y-14525000D01*
X5560000Y-14475000D02*
X5660000Y-14475000D01*
X5610000Y-14679000D02*
X5610000Y-14779000D01*
X5560000Y-14729000D02*
X5660000Y-14729000D01*
X5610000Y-14933000D02*
X5610000Y-15033000D01*
X5560000Y-14983000D02*
X5660000Y-14983000D01*
X5610000Y-15187000D02*
X5610000Y-15287000D01*
X5560000Y-15237000D02*
X5660000Y-15237000D01*
X5610000Y-15441000D02*
X5610000Y-15541000D01*
X5560000Y-15491000D02*
X5660000Y-15491000D01*
X5610000Y-15695000D02*
X5610000Y-15795000D01*
X5560000Y-15745000D02*
X5660000Y-15745000D01*
X5610000Y-15949000D02*
X5610000Y-16049000D01*
X5560000Y-15999000D02*
X5660000Y-15999000D01*
X5610000Y-16203000D02*
X5610000Y-16303000D01*
X5560000Y-16253000D02*
X5660000Y-16253000D01*
X5610000Y-16457000D02*
X5610000Y-16557000D01*
X5560000Y-16507000D02*
X5660000Y-16507000D01*
X7134000Y-12901000D02*
X7134000Y-13001000D01*
X7084000Y-12951000D02*
X7184000Y-12951000D01*
X7134000Y-13155000D02*
X7134000Y-13255000D01*
X7084000Y-13205000D02*
X7184000Y-13205000D01*
X7134000Y-13409000D02*
X7134000Y-13509000D01*
X7084000Y-13459000D02*
X7184000Y-13459000D01*
X7134000Y-13663000D02*
X7134000Y-13763000D01*
X7084000Y-13713000D02*
X7184000Y-13713000D01*
X7134000Y-13917000D02*
X7134000Y-14017000D01*
X7084000Y-13967000D02*
X7184000Y-13967000D01*
X7134000Y-14171000D02*
X7134000Y-14271000D01*
X7084000Y-14221000D02*
X7184000Y-14221000D01*
X7134000Y-14425000D02*
X7134000Y-14525000D01*
X7084000Y-14475000D02*
X7184000Y-14475000D01*
X7134000Y-14679000D02*
X7134000Y-14779000D01*
X7084000Y-14729000D02*
X7184000Y-14729000D01*
X7134000Y-14933000D02*
X7134000Y-15033000D01*
X7084000Y-14983000D02*
X7184000Y-14983000D01*
X7134000Y-15187000D02*
X7134000Y-15287000D01*
X7084000Y-15237000D02*
X7184000Y-15237000D01*
X7134000Y-15441000D02*
X7134000Y-15541000D01*
X7084000Y-15491000D02*
X7184000Y-15491000D01*
X7134000Y-15695000D02*
X7134000Y-15795000D01*
X7084000Y-15745000D02*
X7184000Y-15745000D01*
X7134000Y-15949000D02*
X7134000Y-16049000D01*
X7084000Y-15999000D02*
X7184000Y-15999000D01*
X7134000Y-16203000D02*
X7134000Y-16303000D01*
X7084000Y-16253000D02*
X7184000Y-16253000D01*
X7134000Y-16457000D02*
X7134000Y-16557000D01*
X7084000Y-16507000D02*
X7184000Y-16507000D01*
X8296910Y-15363990D02*
X8296910Y-15463990D01*
X8246910Y-15413990D02*
X8346910Y-15413990D01*
X8296910Y-15617990D02*
X8296910Y-15717990D01*
X8246910Y-15667990D02*
X8346910Y-15667990D01*
X8296910Y-15871990D02*
X8296910Y-15971990D01*
X8246910Y-15921990D02*
X8346910Y-15921990D01*
X8296910Y-16125990D02*
X8296910Y-16225990D01*
X8246910Y-16175990D02*
X8346910Y-16175990D01*
X8296910Y-16379990D02*
X8296910Y-16479990D01*
X8246910Y-16429990D02*
X8346910Y-16429990D01*
X8550910Y-15363990D02*
X8550910Y-15463990D01*
X8500910Y-15413990D02*
X8600910Y-15413990D01*
X8550910Y-15617990D02*
X8550910Y-15717990D01*
X8500910Y-15667990D02*
X8600910Y-15667990D01*
X8550910Y-15871990D02*
X8550910Y-15971990D01*
X8500910Y-15921990D02*
X8600910Y-15921990D01*
X8550910Y-16125990D02*
X8550910Y-16225990D01*
X8500910Y-16175990D02*
X8600910Y-16175990D01*
X8550910Y-16379990D02*
X8550910Y-16479990D01*
X8500910Y-16429990D02*
X8600910Y-16429990D01*
X8937000Y-13745000D02*
X8937000Y-13845000D01*
X8887000Y-13795000D02*
X8987000Y-13795000D01*
X8937000Y-13999000D02*
X8937000Y-14099000D01*
X8887000Y-14049000D02*
X8987000Y-14049000D01*
X8937000Y-14253000D02*
X8937000Y-14353000D01*
X8887000Y-14303000D02*
X8987000Y-14303000D01*
X8937000Y-14507000D02*
X8937000Y-14607000D01*
X8887000Y-14557000D02*
X8987000Y-14557000D01*
X9614000Y-13743000D02*
X9614000Y-13843000D01*
X9564000Y-13793000D02*
X9664000Y-13793000D01*
X9614000Y-13997000D02*
X9614000Y-14097000D01*
X9564000Y-14047000D02*
X9664000Y-14047000D01*
X9614000Y-14251000D02*
X9614000Y-14351000D01*
X9564000Y-14301000D02*
X9664000Y-14301000D01*
X9614000Y-14505000D02*
X9614000Y-14605000D01*
X9564000Y-14555000D02*
X9664000Y-14555000D01*
X10013000Y-13743000D02*
X10013000Y-13843000D01*
X9963000Y-13793000D02*
X10063000Y-13793000D01*
X10013000Y-13997000D02*
X10013000Y-14097000D01*
X9963000Y-14047000D02*
X10063000Y-14047000D01*
X10013000Y-14251000D02*
X10013000Y-14351000D01*
X9963000Y-14301000D02*
X10063000Y-14301000D01*
X10013000Y-14505000D02*
X10013000Y-14605000D01*
X9963000Y-14555000D02*
X10063000Y-14555000D01*
X4413138Y-12913138D02*
X4413138Y-12686862D01*
X4186862Y-12686862D01*
X4186862Y-12913138D01*
X4413138Y-12913138D01*
X4413138Y-16913138D02*
X4413138Y-16686862D01*
X4186862Y-16686862D01*
X4186862Y-16913138D01*
X4413138Y-16913138D01*
X9913138Y-12913138D02*
X9913138Y-12686862D01*
X9686862Y-12686862D01*
X9686862Y-12913138D01*
X9913138Y-12913138D01*
X9913138Y-16913138D02*
X9913138Y-16686862D01*
X9686862Y-16686862D01*
X9686862Y-16913138D01*
X9913138Y-16913138D01*
D12*
X4083928Y-17768214D02*
X4083928Y-17468214D01*
X4155357Y-17468214D01*
X4198214Y-17482500D01*
X4226786Y-17511072D01*
X4241071Y-17539643D01*
X4255357Y-17596786D01*
X4255357Y-17639643D01*
X4241071Y-17696786D01*
X4226786Y-17725357D01*
X4198214Y-17753929D01*
X4155357Y-17768214D01*
X4083928Y-17768214D01*
X4383928Y-17768214D02*
X4383928Y-17568214D01*
X4383928Y-17625357D02*
X4398214Y-17596786D01*
X4412500Y-17582500D01*
X4441071Y-17568214D01*
X4469643Y-17568214D01*
X4569643Y-17768214D02*
X4569643Y-17568214D01*
X4569643Y-17468214D02*
X4555357Y-17482500D01*
X4569643Y-17496786D01*
X4583928Y-17482500D01*
X4569643Y-17468214D01*
X4569643Y-17496786D01*
X4755357Y-17768214D02*
X4726786Y-17753929D01*
X4712500Y-17725357D01*
X4712500Y-17468214D01*
X4912500Y-17768214D02*
X4883928Y-17753929D01*
X4869643Y-17725357D01*
X4869643Y-17468214D01*
X5255357Y-17768214D02*
X5255357Y-17468214D01*
X5355357Y-17682500D01*
X5455357Y-17468214D01*
X5455357Y-17768214D01*
X5726786Y-17768214D02*
X5726786Y-17611072D01*
X5712500Y-17582500D01*
X5683928Y-17568214D01*
X5626786Y-17568214D01*
X5598214Y-17582500D01*
X5726786Y-17753929D02*
X5698214Y-17768214D01*
X5626786Y-17768214D01*
X5598214Y-17753929D01*
X5583928Y-17725357D01*
X5583928Y-17696786D01*
X5598214Y-17668214D01*
X5626786Y-17653929D01*
X5698214Y-17653929D01*
X5726786Y-17639643D01*
X5869643Y-17568214D02*
X5869643Y-17868214D01*
X5869643Y-17582500D02*
X5898214Y-17568214D01*
X5955357Y-17568214D01*
X5983928Y-17582500D01*
X5998214Y-17596786D01*
X6012500Y-17625357D01*
X6012500Y-17711072D01*
X5998214Y-17739643D01*
X5983928Y-17753929D01*
X5955357Y-17768214D01*
X5898214Y-17768214D01*
X5869643Y-17753929D01*
X6141071Y-17739643D02*
X6155357Y-17753929D01*
X6141071Y-17768214D01*
X6126786Y-17753929D01*
X6141071Y-17739643D01*
X6141071Y-17768214D01*
X6141071Y-17582500D02*
X6155357Y-17596786D01*
X6141071Y-17611072D01*
X6126786Y-17596786D01*
X6141071Y-17582500D01*
X6141071Y-17611072D01*
X3757500Y-18242500D02*
X3797500Y-18282500D01*
X3797500Y-18242500D02*
X3757500Y-18282500D01*
X4141071Y-18098214D02*
X4169643Y-18098214D01*
X4198214Y-18112500D01*
X4212500Y-18126786D01*
X4226786Y-18155357D01*
X4241071Y-18212500D01*
X4241071Y-18283929D01*
X4226786Y-18341072D01*
X4212500Y-18369643D01*
X4198214Y-18383929D01*
X4169643Y-18398214D01*
X4141071Y-18398214D01*
X4112500Y-18383929D01*
X4098214Y-18369643D01*
X4083928Y-18341072D01*
X4069643Y-18283929D01*
X4069643Y-18212500D01*
X4083928Y-18155357D01*
X4098214Y-18126786D01*
X4112500Y-18112500D01*
X4141071Y-18098214D01*
X4369643Y-18369643D02*
X4383928Y-18383929D01*
X4369643Y-18398214D01*
X4355357Y-18383929D01*
X4369643Y-18369643D01*
X4369643Y-18398214D01*
X4641071Y-18198214D02*
X4641071Y-18398214D01*
X4569643Y-18083929D02*
X4498214Y-18298214D01*
X4683928Y-18298214D01*
X4855357Y-18098214D02*
X4883928Y-18098214D01*
X4912500Y-18112500D01*
X4926786Y-18126786D01*
X4941071Y-18155357D01*
X4955357Y-18212500D01*
X4955357Y-18283929D01*
X4941071Y-18341072D01*
X4926786Y-18369643D01*
X4912500Y-18383929D01*
X4883928Y-18398214D01*
X4855357Y-18398214D01*
X4826786Y-18383929D01*
X4812500Y-18369643D01*
X4798214Y-18341072D01*
X4783928Y-18283929D01*
X4783928Y-18212500D01*
X4798214Y-18155357D01*
X4812500Y-18126786D01*
X4826786Y-18112500D01*
X4855357Y-18098214D01*
X5141071Y-18098214D02*
X5169643Y-18098214D01*
X5198214Y-18112500D01*
X5212500Y-18126786D01*
X5226786Y-18155357D01*
X5241071Y-18212500D01*
X5241071Y-18283929D01*
X5226786Y-18341072D01*
X5212500Y-18369643D01*
X5198214Y-18383929D01*
X5169643Y-18398214D01*
X5141071Y-18398214D01*
X5112500Y-18383929D01*
X5098214Y-18369643D01*
X5083928Y-18341072D01*
X5069643Y-18283929D01*
X5069643Y-18212500D01*
X5083928Y-18155357D01*
X5098214Y-18126786D01*
X5112500Y-18112500D01*
X5141071Y-18098214D01*
X5369643Y-18398214D02*
X5369643Y-18198214D01*
X5369643Y-18226786D02*
X5383928Y-18212500D01*
X5412500Y-18198214D01*
X5455357Y-18198214D01*
X5483928Y-18212500D01*
X5498214Y-18241072D01*
X5498214Y-18398214D01*
X5498214Y-18241072D02*
X5512500Y-18212500D01*
X5541071Y-18198214D01*
X5583928Y-18198214D01*
X5612500Y-18212500D01*
X5626786Y-18241072D01*
X5626786Y-18398214D01*
X5769643Y-18398214D02*
X5769643Y-18198214D01*
X5769643Y-18226786D02*
X5783928Y-18212500D01*
X5812500Y-18198214D01*
X5855357Y-18198214D01*
X5883928Y-18212500D01*
X5898214Y-18241072D01*
X5898214Y-18398214D01*
X5898214Y-18241072D02*
X5912500Y-18212500D01*
X5941071Y-18198214D01*
X5983928Y-18198214D01*
X6012500Y-18212500D01*
X6026786Y-18241072D01*
X6026786Y-18398214D01*
X6612500Y-18083929D02*
X6355357Y-18469643D01*
X6998214Y-18098214D02*
X7026786Y-18098214D01*
X7055357Y-18112500D01*
X7069643Y-18126786D01*
X7083928Y-18155357D01*
X7098214Y-18212500D01*
X7098214Y-18283929D01*
X7083928Y-18341072D01*
X7069643Y-18369643D01*
X7055357Y-18383929D01*
X7026786Y-18398214D01*
X6998214Y-18398214D01*
X6969643Y-18383929D01*
X6955357Y-18369643D01*
X6941071Y-18341072D01*
X6926786Y-18283929D01*
X6926786Y-18212500D01*
X6941071Y-18155357D01*
X6955357Y-18126786D01*
X6969643Y-18112500D01*
X6998214Y-18098214D01*
X7226786Y-18369643D02*
X7241071Y-18383929D01*
X7226786Y-18398214D01*
X7212500Y-18383929D01*
X7226786Y-18369643D01*
X7226786Y-18398214D01*
X7426786Y-18098214D02*
X7455357Y-18098214D01*
X7483928Y-18112500D01*
X7498214Y-18126786D01*
X7512500Y-18155357D01*
X7526786Y-18212500D01*
X7526786Y-18283929D01*
X7512500Y-18341072D01*
X7498214Y-18369643D01*
X7483928Y-18383929D01*
X7455357Y-18398214D01*
X7426786Y-18398214D01*
X7398214Y-18383929D01*
X7383928Y-18369643D01*
X7369643Y-18341072D01*
X7355357Y-18283929D01*
X7355357Y-18212500D01*
X7369643Y-18155357D01*
X7383928Y-18126786D01*
X7398214Y-18112500D01*
X7426786Y-18098214D01*
X7812500Y-18398214D02*
X7641071Y-18398214D01*
X7726786Y-18398214D02*
X7726786Y-18098214D01*
X7698214Y-18141072D01*
X7669643Y-18169643D01*
X7641071Y-18183929D01*
X8083928Y-18098214D02*
X7941071Y-18098214D01*
X7926786Y-18241072D01*
X7941071Y-18226786D01*
X7969643Y-18212500D01*
X8041071Y-18212500D01*
X8069643Y-18226786D01*
X8083928Y-18241072D01*
X8098214Y-18269643D01*
X8098214Y-18341072D01*
X8083928Y-18369643D01*
X8069643Y-18383929D01*
X8041071Y-18398214D01*
X7969643Y-18398214D01*
X7941071Y-18383929D01*
X7926786Y-18369643D01*
X8198214Y-18098214D02*
X8398214Y-18098214D01*
X8269643Y-18398214D01*
X8498214Y-18098214D02*
X8498214Y-18155357D01*
X8612500Y-18098214D02*
X8612500Y-18155357D01*
X9055357Y-18512500D02*
X9041071Y-18498214D01*
X9012500Y-18455357D01*
X8998214Y-18426786D01*
X8983928Y-18383929D01*
X8969643Y-18312500D01*
X8969643Y-18255357D01*
X8983928Y-18183929D01*
X8998214Y-18141072D01*
X9012500Y-18112500D01*
X9041071Y-18069643D01*
X9055357Y-18055357D01*
X9155357Y-18126786D02*
X9169643Y-18112500D01*
X9198214Y-18098214D01*
X9269643Y-18098214D01*
X9298214Y-18112500D01*
X9312500Y-18126786D01*
X9326786Y-18155357D01*
X9326786Y-18183929D01*
X9312500Y-18226786D01*
X9141071Y-18398214D01*
X9326786Y-18398214D01*
X9498214Y-18226786D02*
X9469643Y-18212500D01*
X9455357Y-18198214D01*
X9441071Y-18169643D01*
X9441071Y-18155357D01*
X9455357Y-18126786D01*
X9469643Y-18112500D01*
X9498214Y-18098214D01*
X9555357Y-18098214D01*
X9583928Y-18112500D01*
X9598214Y-18126786D01*
X9612500Y-18155357D01*
X9612500Y-18169643D01*
X9598214Y-18198214D01*
X9583928Y-18212500D01*
X9555357Y-18226786D01*
X9498214Y-18226786D01*
X9469643Y-18241072D01*
X9455357Y-18255357D01*
X9441071Y-18283929D01*
X9441071Y-18341072D01*
X9455357Y-18369643D01*
X9469643Y-18383929D01*
X9498214Y-18398214D01*
X9555357Y-18398214D01*
X9583928Y-18383929D01*
X9598214Y-18369643D01*
X9612500Y-18341072D01*
X9612500Y-18283929D01*
X9598214Y-18255357D01*
X9583928Y-18241072D01*
X9555357Y-18226786D01*
X9969643Y-18398214D02*
X9969643Y-18098214D01*
X10098214Y-18398214D02*
X10098214Y-18241072D01*
X10083928Y-18212500D01*
X10055357Y-18198214D01*
X10012500Y-18198214D01*
X9983928Y-18212500D01*
X9969643Y-18226786D01*
X10283928Y-18398214D02*
X10255357Y-18383929D01*
X10241071Y-18369643D01*
X10226786Y-18341072D01*
X10226786Y-18255357D01*
X10241071Y-18226786D01*
X10255357Y-18212500D01*
X10283928Y-18198214D01*
X10326786Y-18198214D01*
X10355357Y-18212500D01*
X10369643Y-18226786D01*
X10383928Y-18255357D01*
X10383928Y-18341072D01*
X10369643Y-18369643D01*
X10355357Y-18383929D01*
X10326786Y-18398214D01*
X10283928Y-18398214D01*
X10555357Y-18398214D02*
X10526786Y-18383929D01*
X10512500Y-18355357D01*
X10512500Y-18098214D01*
X10783928Y-18383929D02*
X10755357Y-18398214D01*
X10698214Y-18398214D01*
X10669643Y-18383929D01*
X10655357Y-18355357D01*
X10655357Y-18241072D01*
X10669643Y-18212500D01*
X10698214Y-18198214D01*
X10755357Y-18198214D01*
X10783928Y-18212500D01*
X10798214Y-18241072D01*
X10798214Y-18269643D01*
X10655357Y-18298214D01*
X10912500Y-18383929D02*
X10941071Y-18398214D01*
X10998214Y-18398214D01*
X11026786Y-18383929D01*
X11041071Y-18355357D01*
X11041071Y-18341072D01*
X11026786Y-18312500D01*
X10998214Y-18298214D01*
X10955357Y-18298214D01*
X10926786Y-18283929D01*
X10912500Y-18255357D01*
X10912500Y-18241072D01*
X10926786Y-18212500D01*
X10955357Y-18198214D01*
X10998214Y-18198214D01*
X11026786Y-18212500D01*
X11141071Y-18512500D02*
X11155357Y-18498214D01*
X11183928Y-18455357D01*
X11198214Y-18426786D01*
X11212500Y-18383929D01*
X11226786Y-18312500D01*
X11226786Y-18255357D01*
X11212500Y-18183929D01*
X11198214Y-18141072D01*
X11183928Y-18112500D01*
X11155357Y-18069643D01*
X11141071Y-18055357D01*
X3797500Y-18658500D02*
G75*
G03*
X3797500Y-18658500I-40000J0D01*
G01*
X4141071Y-18494214D02*
X4169643Y-18494214D01*
X4198214Y-18508500D01*
X4212500Y-18522786D01*
X4226786Y-18551357D01*
X4241071Y-18608500D01*
X4241071Y-18679929D01*
X4226786Y-18737072D01*
X4212500Y-18765643D01*
X4198214Y-18779929D01*
X4169643Y-18794214D01*
X4141071Y-18794214D01*
X4112500Y-18779929D01*
X4098214Y-18765643D01*
X4083928Y-18737072D01*
X4069643Y-18679929D01*
X4069643Y-18608500D01*
X4083928Y-18551357D01*
X4098214Y-18522786D01*
X4112500Y-18508500D01*
X4141071Y-18494214D01*
X4369643Y-18765643D02*
X4383928Y-18779929D01*
X4369643Y-18794214D01*
X4355357Y-18779929D01*
X4369643Y-18765643D01*
X4369643Y-18794214D01*
X4555357Y-18622786D02*
X4526786Y-18608500D01*
X4512500Y-18594214D01*
X4498214Y-18565643D01*
X4498214Y-18551357D01*
X4512500Y-18522786D01*
X4526786Y-18508500D01*
X4555357Y-18494214D01*
X4612500Y-18494214D01*
X4641071Y-18508500D01*
X4655357Y-18522786D01*
X4669643Y-18551357D01*
X4669643Y-18565643D01*
X4655357Y-18594214D01*
X4641071Y-18608500D01*
X4612500Y-18622786D01*
X4555357Y-18622786D01*
X4526786Y-18637072D01*
X4512500Y-18651357D01*
X4498214Y-18679929D01*
X4498214Y-18737072D01*
X4512500Y-18765643D01*
X4526786Y-18779929D01*
X4555357Y-18794214D01*
X4612500Y-18794214D01*
X4641071Y-18779929D01*
X4655357Y-18765643D01*
X4669643Y-18737072D01*
X4669643Y-18679929D01*
X4655357Y-18651357D01*
X4641071Y-18637072D01*
X4612500Y-18622786D01*
X4855357Y-18494214D02*
X4883928Y-18494214D01*
X4912500Y-18508500D01*
X4926786Y-18522786D01*
X4941071Y-18551357D01*
X4955357Y-18608500D01*
X4955357Y-18679929D01*
X4941071Y-18737072D01*
X4926786Y-18765643D01*
X4912500Y-18779929D01*
X4883928Y-18794214D01*
X4855357Y-18794214D01*
X4826786Y-18779929D01*
X4812500Y-18765643D01*
X4798214Y-18737072D01*
X4783928Y-18679929D01*
X4783928Y-18608500D01*
X4798214Y-18551357D01*
X4812500Y-18522786D01*
X4826786Y-18508500D01*
X4855357Y-18494214D01*
X5141071Y-18494214D02*
X5169643Y-18494214D01*
X5198214Y-18508500D01*
X5212500Y-18522786D01*
X5226786Y-18551357D01*
X5241071Y-18608500D01*
X5241071Y-18679929D01*
X5226786Y-18737072D01*
X5212500Y-18765643D01*
X5198214Y-18779929D01*
X5169643Y-18794214D01*
X5141071Y-18794214D01*
X5112500Y-18779929D01*
X5098214Y-18765643D01*
X5083928Y-18737072D01*
X5069643Y-18679929D01*
X5069643Y-18608500D01*
X5083928Y-18551357D01*
X5098214Y-18522786D01*
X5112500Y-18508500D01*
X5141071Y-18494214D01*
X5369643Y-18794214D02*
X5369643Y-18594214D01*
X5369643Y-18622786D02*
X5383928Y-18608500D01*
X5412500Y-18594214D01*
X5455357Y-18594214D01*
X5483928Y-18608500D01*
X5498214Y-18637072D01*
X5498214Y-18794214D01*
X5498214Y-18637072D02*
X5512500Y-18608500D01*
X5541071Y-18594214D01*
X5583928Y-18594214D01*
X5612500Y-18608500D01*
X5626786Y-18637072D01*
X5626786Y-18794214D01*
X5769643Y-18794214D02*
X5769643Y-18594214D01*
X5769643Y-18622786D02*
X5783928Y-18608500D01*
X5812500Y-18594214D01*
X5855357Y-18594214D01*
X5883928Y-18608500D01*
X5898214Y-18637072D01*
X5898214Y-18794214D01*
X5898214Y-18637072D02*
X5912500Y-18608500D01*
X5941071Y-18594214D01*
X5983928Y-18594214D01*
X6012500Y-18608500D01*
X6026786Y-18637072D01*
X6026786Y-18794214D01*
X6612500Y-18479929D02*
X6355357Y-18865643D01*
X6998214Y-18494214D02*
X7026786Y-18494214D01*
X7055357Y-18508500D01*
X7069643Y-18522786D01*
X7083928Y-18551357D01*
X7098214Y-18608500D01*
X7098214Y-18679929D01*
X7083928Y-18737072D01*
X7069643Y-18765643D01*
X7055357Y-18779929D01*
X7026786Y-18794214D01*
X6998214Y-18794214D01*
X6969643Y-18779929D01*
X6955357Y-18765643D01*
X6941071Y-18737072D01*
X6926786Y-18679929D01*
X6926786Y-18608500D01*
X6941071Y-18551357D01*
X6955357Y-18522786D01*
X6969643Y-18508500D01*
X6998214Y-18494214D01*
X7226786Y-18765643D02*
X7241071Y-18779929D01*
X7226786Y-18794214D01*
X7212500Y-18779929D01*
X7226786Y-18765643D01*
X7226786Y-18794214D01*
X7426786Y-18494214D02*
X7455357Y-18494214D01*
X7483928Y-18508500D01*
X7498214Y-18522786D01*
X7512500Y-18551357D01*
X7526786Y-18608500D01*
X7526786Y-18679929D01*
X7512500Y-18737072D01*
X7498214Y-18765643D01*
X7483928Y-18779929D01*
X7455357Y-18794214D01*
X7426786Y-18794214D01*
X7398214Y-18779929D01*
X7383928Y-18765643D01*
X7369643Y-18737072D01*
X7355357Y-18679929D01*
X7355357Y-18608500D01*
X7369643Y-18551357D01*
X7383928Y-18522786D01*
X7398214Y-18508500D01*
X7426786Y-18494214D01*
X7626786Y-18494214D02*
X7812500Y-18494214D01*
X7712500Y-18608500D01*
X7755357Y-18608500D01*
X7783928Y-18622786D01*
X7798214Y-18637072D01*
X7812500Y-18665643D01*
X7812500Y-18737072D01*
X7798214Y-18765643D01*
X7783928Y-18779929D01*
X7755357Y-18794214D01*
X7669643Y-18794214D01*
X7641071Y-18779929D01*
X7626786Y-18765643D01*
X8098214Y-18794214D02*
X7926786Y-18794214D01*
X8012500Y-18794214D02*
X8012500Y-18494214D01*
X7983928Y-18537072D01*
X7955357Y-18565643D01*
X7926786Y-18579929D01*
X8369643Y-18494214D02*
X8226786Y-18494214D01*
X8212500Y-18637072D01*
X8226786Y-18622786D01*
X8255357Y-18608500D01*
X8326786Y-18608500D01*
X8355357Y-18622786D01*
X8369643Y-18637072D01*
X8383928Y-18665643D01*
X8383928Y-18737072D01*
X8369643Y-18765643D01*
X8355357Y-18779929D01*
X8326786Y-18794214D01*
X8255357Y-18794214D01*
X8226786Y-18779929D01*
X8212500Y-18765643D01*
X8498214Y-18494214D02*
X8498214Y-18551357D01*
X8612500Y-18494214D02*
X8612500Y-18551357D01*
X9055357Y-18908500D02*
X9041071Y-18894214D01*
X9012500Y-18851357D01*
X8998214Y-18822786D01*
X8983928Y-18779929D01*
X8969643Y-18708500D01*
X8969643Y-18651357D01*
X8983928Y-18579929D01*
X8998214Y-18537072D01*
X9012500Y-18508500D01*
X9041071Y-18465643D01*
X9055357Y-18451357D01*
X9298214Y-18594214D02*
X9298214Y-18794214D01*
X9226786Y-18479929D02*
X9155357Y-18694214D01*
X9341071Y-18694214D01*
X9683928Y-18794214D02*
X9683928Y-18494214D01*
X9812500Y-18794214D02*
X9812500Y-18637072D01*
X9798214Y-18608500D01*
X9769643Y-18594214D01*
X9726786Y-18594214D01*
X9698214Y-18608500D01*
X9683928Y-18622786D01*
X9998214Y-18794214D02*
X9969643Y-18779929D01*
X9955357Y-18765643D01*
X9941071Y-18737072D01*
X9941071Y-18651357D01*
X9955357Y-18622786D01*
X9969643Y-18608500D01*
X9998214Y-18594214D01*
X10041071Y-18594214D01*
X10069643Y-18608500D01*
X10083928Y-18622786D01*
X10098214Y-18651357D01*
X10098214Y-18737072D01*
X10083928Y-18765643D01*
X10069643Y-18779929D01*
X10041071Y-18794214D01*
X9998214Y-18794214D01*
X10269643Y-18794214D02*
X10241071Y-18779929D01*
X10226786Y-18751357D01*
X10226786Y-18494214D01*
X10498214Y-18779929D02*
X10469643Y-18794214D01*
X10412500Y-18794214D01*
X10383928Y-18779929D01*
X10369643Y-18751357D01*
X10369643Y-18637072D01*
X10383928Y-18608500D01*
X10412500Y-18594214D01*
X10469643Y-18594214D01*
X10498214Y-18608500D01*
X10512500Y-18637072D01*
X10512500Y-18665643D01*
X10369643Y-18694214D01*
X10626786Y-18779929D02*
X10655357Y-18794214D01*
X10712500Y-18794214D01*
X10741071Y-18779929D01*
X10755357Y-18751357D01*
X10755357Y-18737072D01*
X10741071Y-18708500D01*
X10712500Y-18694214D01*
X10669643Y-18694214D01*
X10641071Y-18679929D01*
X10626786Y-18651357D01*
X10626786Y-18637072D01*
X10641071Y-18608500D01*
X10669643Y-18594214D01*
X10712500Y-18594214D01*
X10741071Y-18608500D01*
X10855357Y-18908500D02*
X10869643Y-18894214D01*
X10898214Y-18851357D01*
X10912500Y-18822786D01*
X10926786Y-18779929D01*
X10941071Y-18708500D01*
X10941071Y-18651357D01*
X10926786Y-18579929D01*
X10912500Y-18537072D01*
X10898214Y-18508500D01*
X10869643Y-18465643D01*
X10855357Y-18451357D01*
X3747500Y-19004500D02*
X3747500Y-19104500D01*
X3697500Y-19054500D02*
X3797500Y-19054500D01*
X4241071Y-19190214D02*
X4069643Y-19190214D01*
X4155357Y-19190214D02*
X4155357Y-18890214D01*
X4126786Y-18933072D01*
X4098214Y-18961643D01*
X4069643Y-18975929D01*
X4369643Y-19161643D02*
X4383928Y-19175929D01*
X4369643Y-19190214D01*
X4355357Y-19175929D01*
X4369643Y-19161643D01*
X4369643Y-19190214D01*
X4569643Y-18890214D02*
X4598214Y-18890214D01*
X4626786Y-18904500D01*
X4641071Y-18918786D01*
X4655357Y-18947357D01*
X4669643Y-19004500D01*
X4669643Y-19075929D01*
X4655357Y-19133072D01*
X4641071Y-19161643D01*
X4626786Y-19175929D01*
X4598214Y-19190214D01*
X4569643Y-19190214D01*
X4541071Y-19175929D01*
X4526786Y-19161643D01*
X4512500Y-19133072D01*
X4498214Y-19075929D01*
X4498214Y-19004500D01*
X4512500Y-18947357D01*
X4526786Y-18918786D01*
X4541071Y-18904500D01*
X4569643Y-18890214D01*
X4855357Y-18890214D02*
X4883928Y-18890214D01*
X4912500Y-18904500D01*
X4926786Y-18918786D01*
X4941071Y-18947357D01*
X4955357Y-19004500D01*
X4955357Y-19075929D01*
X4941071Y-19133072D01*
X4926786Y-19161643D01*
X4912500Y-19175929D01*
X4883928Y-19190214D01*
X4855357Y-19190214D01*
X4826786Y-19175929D01*
X4812500Y-19161643D01*
X4798214Y-19133072D01*
X4783928Y-19075929D01*
X4783928Y-19004500D01*
X4798214Y-18947357D01*
X4812500Y-18918786D01*
X4826786Y-18904500D01*
X4855357Y-18890214D01*
X5141071Y-18890214D02*
X5169643Y-18890214D01*
X5198214Y-18904500D01*
X5212500Y-18918786D01*
X5226786Y-18947357D01*
X5241071Y-19004500D01*
X5241071Y-19075929D01*
X5226786Y-19133072D01*
X5212500Y-19161643D01*
X5198214Y-19175929D01*
X5169643Y-19190214D01*
X5141071Y-19190214D01*
X5112500Y-19175929D01*
X5098214Y-19161643D01*
X5083928Y-19133072D01*
X5069643Y-19075929D01*
X5069643Y-19004500D01*
X5083928Y-18947357D01*
X5098214Y-18918786D01*
X5112500Y-18904500D01*
X5141071Y-18890214D01*
X5369643Y-19190214D02*
X5369643Y-18990214D01*
X5369643Y-19018786D02*
X5383928Y-19004500D01*
X5412500Y-18990214D01*
X5455357Y-18990214D01*
X5483928Y-19004500D01*
X5498214Y-19033072D01*
X5498214Y-19190214D01*
X5498214Y-19033072D02*
X5512500Y-19004500D01*
X5541071Y-18990214D01*
X5583928Y-18990214D01*
X5612500Y-19004500D01*
X5626786Y-19033072D01*
X5626786Y-19190214D01*
X5769643Y-19190214D02*
X5769643Y-18990214D01*
X5769643Y-19018786D02*
X5783928Y-19004500D01*
X5812500Y-18990214D01*
X5855357Y-18990214D01*
X5883928Y-19004500D01*
X5898214Y-19033072D01*
X5898214Y-19190214D01*
X5898214Y-19033072D02*
X5912500Y-19004500D01*
X5941071Y-18990214D01*
X5983928Y-18990214D01*
X6012500Y-19004500D01*
X6026786Y-19033072D01*
X6026786Y-19190214D01*
X6612500Y-18875929D02*
X6355357Y-19261643D01*
X6998214Y-18890214D02*
X7026786Y-18890214D01*
X7055357Y-18904500D01*
X7069643Y-18918786D01*
X7083928Y-18947357D01*
X7098214Y-19004500D01*
X7098214Y-19075929D01*
X7083928Y-19133072D01*
X7069643Y-19161643D01*
X7055357Y-19175929D01*
X7026786Y-19190214D01*
X6998214Y-19190214D01*
X6969643Y-19175929D01*
X6955357Y-19161643D01*
X6941071Y-19133072D01*
X6926786Y-19075929D01*
X6926786Y-19004500D01*
X6941071Y-18947357D01*
X6955357Y-18918786D01*
X6969643Y-18904500D01*
X6998214Y-18890214D01*
X7226786Y-19161643D02*
X7241071Y-19175929D01*
X7226786Y-19190214D01*
X7212500Y-19175929D01*
X7226786Y-19161643D01*
X7226786Y-19190214D01*
X7426786Y-18890214D02*
X7455357Y-18890214D01*
X7483928Y-18904500D01*
X7498214Y-18918786D01*
X7512500Y-18947357D01*
X7526786Y-19004500D01*
X7526786Y-19075929D01*
X7512500Y-19133072D01*
X7498214Y-19161643D01*
X7483928Y-19175929D01*
X7455357Y-19190214D01*
X7426786Y-19190214D01*
X7398214Y-19175929D01*
X7383928Y-19161643D01*
X7369643Y-19133072D01*
X7355357Y-19075929D01*
X7355357Y-19004500D01*
X7369643Y-18947357D01*
X7383928Y-18918786D01*
X7398214Y-18904500D01*
X7426786Y-18890214D01*
X7626786Y-18890214D02*
X7812500Y-18890214D01*
X7712500Y-19004500D01*
X7755357Y-19004500D01*
X7783928Y-19018786D01*
X7798214Y-19033072D01*
X7812500Y-19061643D01*
X7812500Y-19133072D01*
X7798214Y-19161643D01*
X7783928Y-19175929D01*
X7755357Y-19190214D01*
X7669643Y-19190214D01*
X7641071Y-19175929D01*
X7626786Y-19161643D01*
X7955357Y-19190214D02*
X8012500Y-19190214D01*
X8041071Y-19175929D01*
X8055357Y-19161643D01*
X8083928Y-19118786D01*
X8098214Y-19061643D01*
X8098214Y-18947357D01*
X8083928Y-18918786D01*
X8069643Y-18904500D01*
X8041071Y-18890214D01*
X7983928Y-18890214D01*
X7955357Y-18904500D01*
X7941071Y-18918786D01*
X7926786Y-18947357D01*
X7926786Y-19018786D01*
X7941071Y-19047357D01*
X7955357Y-19061643D01*
X7983928Y-19075929D01*
X8041071Y-19075929D01*
X8069643Y-19061643D01*
X8083928Y-19047357D01*
X8098214Y-19018786D01*
X8355357Y-18990214D02*
X8355357Y-19190214D01*
X8283928Y-18875929D02*
X8212500Y-19090214D01*
X8398214Y-19090214D01*
X8498214Y-18890214D02*
X8498214Y-18947357D01*
X8612500Y-18890214D02*
X8612500Y-18947357D01*
X9055357Y-19304500D02*
X9041071Y-19290214D01*
X9012500Y-19247357D01*
X8998214Y-19218786D01*
X8983928Y-19175929D01*
X8969643Y-19104500D01*
X8969643Y-19047357D01*
X8983928Y-18975929D01*
X8998214Y-18933072D01*
X9012500Y-18904500D01*
X9041071Y-18861643D01*
X9055357Y-18847357D01*
X9298214Y-18890214D02*
X9241071Y-18890214D01*
X9212500Y-18904500D01*
X9198214Y-18918786D01*
X9169643Y-18961643D01*
X9155357Y-19018786D01*
X9155357Y-19133072D01*
X9169643Y-19161643D01*
X9183928Y-19175929D01*
X9212500Y-19190214D01*
X9269643Y-19190214D01*
X9298214Y-19175929D01*
X9312500Y-19161643D01*
X9326786Y-19133072D01*
X9326786Y-19061643D01*
X9312500Y-19033072D01*
X9298214Y-19018786D01*
X9269643Y-19004500D01*
X9212500Y-19004500D01*
X9183928Y-19018786D01*
X9169643Y-19033072D01*
X9155357Y-19061643D01*
X9512500Y-18890214D02*
X9541071Y-18890214D01*
X9569643Y-18904500D01*
X9583928Y-18918786D01*
X9598214Y-18947357D01*
X9612500Y-19004500D01*
X9612500Y-19075929D01*
X9598214Y-19133072D01*
X9583928Y-19161643D01*
X9569643Y-19175929D01*
X9541071Y-19190214D01*
X9512500Y-19190214D01*
X9483928Y-19175929D01*
X9469643Y-19161643D01*
X9455357Y-19133072D01*
X9441071Y-19075929D01*
X9441071Y-19004500D01*
X9455357Y-18947357D01*
X9469643Y-18918786D01*
X9483928Y-18904500D01*
X9512500Y-18890214D01*
X9969643Y-19190214D02*
X9969643Y-18890214D01*
X10098214Y-19190214D02*
X10098214Y-19033072D01*
X10083928Y-19004500D01*
X10055357Y-18990214D01*
X10012500Y-18990214D01*
X9983928Y-19004500D01*
X9969643Y-19018786D01*
X10283928Y-19190214D02*
X10255357Y-19175929D01*
X10241071Y-19161643D01*
X10226786Y-19133072D01*
X10226786Y-19047357D01*
X10241071Y-19018786D01*
X10255357Y-19004500D01*
X10283928Y-18990214D01*
X10326786Y-18990214D01*
X10355357Y-19004500D01*
X10369643Y-19018786D01*
X10383928Y-19047357D01*
X10383928Y-19133072D01*
X10369643Y-19161643D01*
X10355357Y-19175929D01*
X10326786Y-19190214D01*
X10283928Y-19190214D01*
X10555357Y-19190214D02*
X10526786Y-19175929D01*
X10512500Y-19147357D01*
X10512500Y-18890214D01*
X10783928Y-19175929D02*
X10755357Y-19190214D01*
X10698214Y-19190214D01*
X10669643Y-19175929D01*
X10655357Y-19147357D01*
X10655357Y-19033072D01*
X10669643Y-19004500D01*
X10698214Y-18990214D01*
X10755357Y-18990214D01*
X10783928Y-19004500D01*
X10798214Y-19033072D01*
X10798214Y-19061643D01*
X10655357Y-19090214D01*
X10912500Y-19175929D02*
X10941071Y-19190214D01*
X10998214Y-19190214D01*
X11026786Y-19175929D01*
X11041071Y-19147357D01*
X11041071Y-19133072D01*
X11026786Y-19104500D01*
X10998214Y-19090214D01*
X10955357Y-19090214D01*
X10926786Y-19075929D01*
X10912500Y-19047357D01*
X10912500Y-19033072D01*
X10926786Y-19004500D01*
X10955357Y-18990214D01*
X10998214Y-18990214D01*
X11026786Y-19004500D01*
X11141071Y-19304500D02*
X11155357Y-19290214D01*
X11183928Y-19247357D01*
X11198214Y-19218786D01*
X11212500Y-19175929D01*
X11226786Y-19104500D01*
X11226786Y-19047357D01*
X11212500Y-18975929D01*
X11198214Y-18933072D01*
X11183928Y-18904500D01*
X11155357Y-18861643D01*
X11141071Y-18847357D01*
X3750638Y-19563638D02*
X3750638Y-19337362D01*
X3524362Y-19337362D01*
X3524362Y-19563638D01*
X3750638Y-19563638D01*
X4055357Y-19286214D02*
X4241071Y-19286214D01*
X4141071Y-19400500D01*
X4183928Y-19400500D01*
X4212500Y-19414786D01*
X4226786Y-19429072D01*
X4241071Y-19457643D01*
X4241071Y-19529072D01*
X4226786Y-19557643D01*
X4212500Y-19571929D01*
X4183928Y-19586214D01*
X4098214Y-19586214D01*
X4069643Y-19571929D01*
X4055357Y-19557643D01*
X4369643Y-19557643D02*
X4383928Y-19571929D01*
X4369643Y-19586214D01*
X4355357Y-19571929D01*
X4369643Y-19557643D01*
X4369643Y-19586214D01*
X4498214Y-19314786D02*
X4512500Y-19300500D01*
X4541071Y-19286214D01*
X4612500Y-19286214D01*
X4641071Y-19300500D01*
X4655357Y-19314786D01*
X4669643Y-19343357D01*
X4669643Y-19371929D01*
X4655357Y-19414786D01*
X4483928Y-19586214D01*
X4669643Y-19586214D01*
X4855357Y-19286214D02*
X4883928Y-19286214D01*
X4912500Y-19300500D01*
X4926786Y-19314786D01*
X4941071Y-19343357D01*
X4955357Y-19400500D01*
X4955357Y-19471929D01*
X4941071Y-19529072D01*
X4926786Y-19557643D01*
X4912500Y-19571929D01*
X4883928Y-19586214D01*
X4855357Y-19586214D01*
X4826786Y-19571929D01*
X4812500Y-19557643D01*
X4798214Y-19529072D01*
X4783928Y-19471929D01*
X4783928Y-19400500D01*
X4798214Y-19343357D01*
X4812500Y-19314786D01*
X4826786Y-19300500D01*
X4855357Y-19286214D01*
X5141071Y-19286214D02*
X5169643Y-19286214D01*
X5198214Y-19300500D01*
X5212500Y-19314786D01*
X5226786Y-19343357D01*
X5241071Y-19400500D01*
X5241071Y-19471929D01*
X5226786Y-19529072D01*
X5212500Y-19557643D01*
X5198214Y-19571929D01*
X5169643Y-19586214D01*
X5141071Y-19586214D01*
X5112500Y-19571929D01*
X5098214Y-19557643D01*
X5083928Y-19529072D01*
X5069643Y-19471929D01*
X5069643Y-19400500D01*
X5083928Y-19343357D01*
X5098214Y-19314786D01*
X5112500Y-19300500D01*
X5141071Y-19286214D01*
X5369643Y-19586214D02*
X5369643Y-19386214D01*
X5369643Y-19414786D02*
X5383928Y-19400500D01*
X5412500Y-19386214D01*
X5455357Y-19386214D01*
X5483928Y-19400500D01*
X5498214Y-19429072D01*
X5498214Y-19586214D01*
X5498214Y-19429072D02*
X5512500Y-19400500D01*
X5541071Y-19386214D01*
X5583928Y-19386214D01*
X5612500Y-19400500D01*
X5626786Y-19429072D01*
X5626786Y-19586214D01*
X5769643Y-19586214D02*
X5769643Y-19386214D01*
X5769643Y-19414786D02*
X5783928Y-19400500D01*
X5812500Y-19386214D01*
X5855357Y-19386214D01*
X5883928Y-19400500D01*
X5898214Y-19429072D01*
X5898214Y-19586214D01*
X5898214Y-19429072D02*
X5912500Y-19400500D01*
X5941071Y-19386214D01*
X5983928Y-19386214D01*
X6012500Y-19400500D01*
X6026786Y-19429072D01*
X6026786Y-19586214D01*
X6612500Y-19271929D02*
X6355357Y-19657643D01*
X6998214Y-19286214D02*
X7026786Y-19286214D01*
X7055357Y-19300500D01*
X7069643Y-19314786D01*
X7083928Y-19343357D01*
X7098214Y-19400500D01*
X7098214Y-19471929D01*
X7083928Y-19529072D01*
X7069643Y-19557643D01*
X7055357Y-19571929D01*
X7026786Y-19586214D01*
X6998214Y-19586214D01*
X6969643Y-19571929D01*
X6955357Y-19557643D01*
X6941071Y-19529072D01*
X6926786Y-19471929D01*
X6926786Y-19400500D01*
X6941071Y-19343357D01*
X6955357Y-19314786D01*
X6969643Y-19300500D01*
X6998214Y-19286214D01*
X7226786Y-19557643D02*
X7241071Y-19571929D01*
X7226786Y-19586214D01*
X7212500Y-19571929D01*
X7226786Y-19557643D01*
X7226786Y-19586214D01*
X7526786Y-19586214D02*
X7355357Y-19586214D01*
X7441071Y-19586214D02*
X7441071Y-19286214D01*
X7412500Y-19329072D01*
X7383928Y-19357643D01*
X7355357Y-19371929D01*
X7641071Y-19314786D02*
X7655357Y-19300500D01*
X7683928Y-19286214D01*
X7755357Y-19286214D01*
X7783928Y-19300500D01*
X7798214Y-19314786D01*
X7812500Y-19343357D01*
X7812500Y-19371929D01*
X7798214Y-19414786D01*
X7626786Y-19586214D01*
X7812500Y-19586214D01*
X8069643Y-19286214D02*
X8012500Y-19286214D01*
X7983928Y-19300500D01*
X7969643Y-19314786D01*
X7941071Y-19357643D01*
X7926786Y-19414786D01*
X7926786Y-19529072D01*
X7941071Y-19557643D01*
X7955357Y-19571929D01*
X7983928Y-19586214D01*
X8041071Y-19586214D01*
X8069643Y-19571929D01*
X8083928Y-19557643D01*
X8098214Y-19529072D01*
X8098214Y-19457643D01*
X8083928Y-19429072D01*
X8069643Y-19414786D01*
X8041071Y-19400500D01*
X7983928Y-19400500D01*
X7955357Y-19414786D01*
X7941071Y-19429072D01*
X7926786Y-19457643D01*
X8283928Y-19286214D02*
X8312500Y-19286214D01*
X8341071Y-19300500D01*
X8355357Y-19314786D01*
X8369643Y-19343357D01*
X8383928Y-19400500D01*
X8383928Y-19471929D01*
X8369643Y-19529072D01*
X8355357Y-19557643D01*
X8341071Y-19571929D01*
X8312500Y-19586214D01*
X8283928Y-19586214D01*
X8255357Y-19571929D01*
X8241071Y-19557643D01*
X8226786Y-19529072D01*
X8212500Y-19471929D01*
X8212500Y-19400500D01*
X8226786Y-19343357D01*
X8241071Y-19314786D01*
X8255357Y-19300500D01*
X8283928Y-19286214D01*
X8498214Y-19286214D02*
X8498214Y-19343357D01*
X8612500Y-19286214D02*
X8612500Y-19343357D01*
X9055357Y-19700500D02*
X9041071Y-19686214D01*
X9012500Y-19643357D01*
X8998214Y-19614786D01*
X8983928Y-19571929D01*
X8969643Y-19500500D01*
X8969643Y-19443357D01*
X8983928Y-19371929D01*
X8998214Y-19329072D01*
X9012500Y-19300500D01*
X9041071Y-19257643D01*
X9055357Y-19243357D01*
X9298214Y-19386214D02*
X9298214Y-19586214D01*
X9226786Y-19271929D02*
X9155357Y-19486214D01*
X9341071Y-19486214D01*
X9683928Y-19586214D02*
X9683928Y-19286214D01*
X9812500Y-19586214D02*
X9812500Y-19429072D01*
X9798214Y-19400500D01*
X9769643Y-19386214D01*
X9726786Y-19386214D01*
X9698214Y-19400500D01*
X9683928Y-19414786D01*
X9998214Y-19586214D02*
X9969643Y-19571929D01*
X9955357Y-19557643D01*
X9941071Y-19529072D01*
X9941071Y-19443357D01*
X9955357Y-19414786D01*
X9969643Y-19400500D01*
X9998214Y-19386214D01*
X10041071Y-19386214D01*
X10069643Y-19400500D01*
X10083928Y-19414786D01*
X10098214Y-19443357D01*
X10098214Y-19529072D01*
X10083928Y-19557643D01*
X10069643Y-19571929D01*
X10041071Y-19586214D01*
X9998214Y-19586214D01*
X10269643Y-19586214D02*
X10241071Y-19571929D01*
X10226786Y-19543357D01*
X10226786Y-19286214D01*
X10498214Y-19571929D02*
X10469643Y-19586214D01*
X10412500Y-19586214D01*
X10383928Y-19571929D01*
X10369643Y-19543357D01*
X10369643Y-19429072D01*
X10383928Y-19400500D01*
X10412500Y-19386214D01*
X10469643Y-19386214D01*
X10498214Y-19400500D01*
X10512500Y-19429072D01*
X10512500Y-19457643D01*
X10369643Y-19486214D01*
X10626786Y-19571929D02*
X10655357Y-19586214D01*
X10712500Y-19586214D01*
X10741071Y-19571929D01*
X10755357Y-19543357D01*
X10755357Y-19529072D01*
X10741071Y-19500500D01*
X10712500Y-19486214D01*
X10669643Y-19486214D01*
X10641071Y-19471929D01*
X10626786Y-19443357D01*
X10626786Y-19429072D01*
X10641071Y-19400500D01*
X10669643Y-19386214D01*
X10712500Y-19386214D01*
X10741071Y-19400500D01*
X10855357Y-19700500D02*
X10869643Y-19686214D01*
X10898214Y-19643357D01*
X10912500Y-19614786D01*
X10926786Y-19571929D01*
X10941071Y-19500500D01*
X10941071Y-19443357D01*
X10926786Y-19371929D01*
X10912500Y-19329072D01*
X10898214Y-19300500D01*
X10869643Y-19257643D01*
X10855357Y-19243357D01*
M02*
