%TF.GenerationSoftware,KiCad,Pcbnew,5.1.12-84ad8e8a86~92~ubuntu20.04.1*%
%TF.CreationDate,2021-11-28T14:42:32-08:00*%
%TF.ProjectId,FilaScale-s,46696c61-5363-4616-9c65-2d732e6b6963,rev?*%
%TF.SameCoordinates,Original*%
%TF.FileFunction,Paste,Top*%
%TF.FilePolarity,Positive*%
%FSLAX46Y46*%
G04 Gerber Fmt 4.6, Leading zero omitted, Abs format (unit mm)*
G04 Created by KiCad (PCBNEW 5.1.12-84ad8e8a86~92~ubuntu20.04.1) date 2021-11-28 14:42:32*
%MOMM*%
%LPD*%
G01*
G04 APERTURE LIST*
G04 APERTURE END LIST*
%TO.C,C1*%
G36*
G01*
X45210000Y-152051360D02*
X51310000Y-152051360D01*
G75*
G02*
X51560000Y-152301360I0J-250000D01*
G01*
X51560000Y-153601360D01*
G75*
G02*
X51310000Y-153851360I-250000J0D01*
G01*
X45210000Y-153851360D01*
G75*
G02*
X44960000Y-153601360I0J250000D01*
G01*
X44960000Y-152301360D01*
G75*
G02*
X45210000Y-152051360I250000J0D01*
G01*
G37*
G36*
G01*
X45210000Y-157301360D02*
X51310000Y-157301360D01*
G75*
G02*
X51560000Y-157551360I0J-250000D01*
G01*
X51560000Y-158851360D01*
G75*
G02*
X51310000Y-159101360I-250000J0D01*
G01*
X45210000Y-159101360D01*
G75*
G02*
X44960000Y-158851360I0J250000D01*
G01*
X44960000Y-157551360D01*
G75*
G02*
X45210000Y-157301360I250000J0D01*
G01*
G37*
%TD*%
%TO.C,C2*%
G36*
G01*
X76344800Y-136224900D02*
X75394800Y-136224900D01*
G75*
G02*
X75144800Y-135974900I0J250000D01*
G01*
X75144800Y-135474900D01*
G75*
G02*
X75394800Y-135224900I250000J0D01*
G01*
X76344800Y-135224900D01*
G75*
G02*
X76594800Y-135474900I0J-250000D01*
G01*
X76594800Y-135974900D01*
G75*
G02*
X76344800Y-136224900I-250000J0D01*
G01*
G37*
G36*
G01*
X76344800Y-134324900D02*
X75394800Y-134324900D01*
G75*
G02*
X75144800Y-134074900I0J250000D01*
G01*
X75144800Y-133574900D01*
G75*
G02*
X75394800Y-133324900I250000J0D01*
G01*
X76344800Y-133324900D01*
G75*
G02*
X76594800Y-133574900I0J-250000D01*
G01*
X76594800Y-134074900D01*
G75*
G02*
X76344800Y-134324900I-250000J0D01*
G01*
G37*
%TD*%
%TO.C,C3*%
G36*
G01*
X74180680Y-161445240D02*
X75130680Y-161445240D01*
G75*
G02*
X75380680Y-161695240I0J-250000D01*
G01*
X75380680Y-162195240D01*
G75*
G02*
X75130680Y-162445240I-250000J0D01*
G01*
X74180680Y-162445240D01*
G75*
G02*
X73930680Y-162195240I0J250000D01*
G01*
X73930680Y-161695240D01*
G75*
G02*
X74180680Y-161445240I250000J0D01*
G01*
G37*
G36*
G01*
X74180680Y-163345240D02*
X75130680Y-163345240D01*
G75*
G02*
X75380680Y-163595240I0J-250000D01*
G01*
X75380680Y-164095240D01*
G75*
G02*
X75130680Y-164345240I-250000J0D01*
G01*
X74180680Y-164345240D01*
G75*
G02*
X73930680Y-164095240I0J250000D01*
G01*
X73930680Y-163595240D01*
G75*
G02*
X74180680Y-163345240I250000J0D01*
G01*
G37*
%TD*%
M02*
