%TF.GenerationSoftware,KiCad,Pcbnew,5.1.12-84ad8e8a86~92~ubuntu20.04.1*%
%TF.CreationDate,2021-11-28T14:42:32-08:00*%
%TF.ProjectId,FilaScale-s,46696c61-5363-4616-9c65-2d732e6b6963,rev?*%
%TF.SameCoordinates,Original*%
%TF.FileFunction,Copper,L1,Top*%
%TF.FilePolarity,Positive*%
%FSLAX46Y46*%
G04 Gerber Fmt 4.6, Leading zero omitted, Abs format (unit mm)*
G04 Created by KiCad (PCBNEW 5.1.12-84ad8e8a86~92~ubuntu20.04.1) date 2021-11-28 14:42:32*
%MOMM*%
%LPD*%
G01*
G04 APERTURE LIST*
%TA.AperFunction,ComponentPad*%
%ADD10R,1.700000X1.700000*%
%TD*%
%TA.AperFunction,ComponentPad*%
%ADD11O,1.700000X1.700000*%
%TD*%
%TA.AperFunction,ComponentPad*%
%ADD12C,5.700000*%
%TD*%
%TA.AperFunction,ComponentPad*%
%ADD13O,1.600000X1.600000*%
%TD*%
%TA.AperFunction,ComponentPad*%
%ADD14C,1.600000*%
%TD*%
%TA.AperFunction,ComponentPad*%
%ADD15R,1.600000X1.600000*%
%TD*%
%TA.AperFunction,ViaPad*%
%ADD16C,0.800000*%
%TD*%
%TA.AperFunction,Conductor*%
%ADD17C,0.400000*%
%TD*%
%TA.AperFunction,Conductor*%
%ADD18C,0.250000*%
%TD*%
%TA.AperFunction,Conductor*%
%ADD19C,0.700000*%
%TD*%
%TA.AperFunction,Conductor*%
%ADD20C,1.000000*%
%TD*%
%TA.AperFunction,Conductor*%
%ADD21C,0.500000*%
%TD*%
%TA.AperFunction,Conductor*%
%ADD22C,1.250000*%
%TD*%
%TA.AperFunction,Conductor*%
%ADD23C,0.254000*%
%TD*%
%TA.AperFunction,Conductor*%
%ADD24C,0.100000*%
%TD*%
G04 APERTURE END LIST*
D10*
%TO.P,J2,1*%
%TO.N,+5V*%
X44210000Y-145470000D03*
D11*
%TO.P,J2,2*%
%TO.N,/RFID_TXO*%
X44210000Y-142930000D03*
%TO.P,J2,3*%
%TO.N,/RFID_RXI*%
X44210000Y-140390000D03*
%TO.P,J2,4*%
%TO.N,GND*%
X44210000Y-137850000D03*
%TD*%
D12*
%TO.P,M3,1*%
%TO.N,N/C*%
X43000000Y-168000000D03*
%TD*%
%TO.P,M3,1*%
%TO.N,N/C*%
X98000000Y-168000000D03*
%TD*%
%TO.P,M3,1*%
%TO.N,N/C*%
X98000000Y-128000000D03*
%TD*%
%TO.P,M3,1*%
%TO.N,N/C*%
X43000000Y-128000000D03*
%TD*%
D13*
%TO.P,R2,2*%
%TO.N,+5V*%
X80429100Y-134594600D03*
D14*
%TO.P,R2,1*%
%TO.N,/SCL*%
X80429100Y-144754600D03*
%TD*%
%TO.P,R1,1*%
%TO.N,+5V*%
X83947000Y-134607300D03*
D13*
%TO.P,R1,2*%
%TO.N,/SDA*%
X83947000Y-144767300D03*
%TD*%
D15*
%TO.P,J4,1*%
%TO.N,Net-(J4-Pad1)*%
X56100000Y-129510000D03*
D13*
%TO.P,J4,17*%
%TO.N,Net-(J4-Pad17)*%
X71340000Y-162530000D03*
%TO.P,J4,2*%
%TO.N,Net-(J4-Pad2)*%
X56100000Y-132050000D03*
%TO.P,J4,18*%
%TO.N,/AREF*%
X71340000Y-159990000D03*
%TO.P,J4,3*%
%TO.N,Net-(J4-Pad3)*%
X56100000Y-134590000D03*
%TO.P,J4,19*%
%TO.N,/A0*%
X71340000Y-157450000D03*
%TO.P,J4,4*%
%TO.N,GND*%
X56100000Y-137130000D03*
%TO.P,J4,20*%
%TO.N,/A1*%
X71340000Y-154910000D03*
%TO.P,J4,5*%
%TO.N,/RFID_RXI*%
X56100000Y-139670000D03*
%TO.P,J4,21*%
%TO.N,/A2*%
X71340000Y-152370000D03*
%TO.P,J4,6*%
%TO.N,/D3*%
X56100000Y-142210000D03*
%TO.P,J4,22*%
%TO.N,Net-(J4-Pad22)*%
X71340000Y-149830000D03*
%TO.P,J4,7*%
%TO.N,/PD_DOUT*%
X56100000Y-144750000D03*
%TO.P,J4,23*%
%TO.N,/SDA*%
X71340000Y-147290000D03*
%TO.P,J4,8*%
%TO.N,/PD_SCK*%
X56100000Y-147290000D03*
%TO.P,J4,24*%
%TO.N,/SCL*%
X71340000Y-144750000D03*
%TO.P,J4,9*%
%TO.N,/D6*%
X56100000Y-149830000D03*
%TO.P,J4,25*%
%TO.N,/RFID_TXO*%
X71340000Y-142210000D03*
%TO.P,J4,10*%
%TO.N,/D7*%
X56100000Y-152370000D03*
%TO.P,J4,26*%
%TO.N,Net-(J4-Pad26)*%
X71340000Y-139670000D03*
%TO.P,J4,11*%
%TO.N,Net-(J4-Pad11)*%
X56100000Y-154910000D03*
%TO.P,J4,27*%
%TO.N,+5V*%
X71340000Y-137130000D03*
%TO.P,J4,12*%
%TO.N,Net-(J4-Pad12)*%
X56100000Y-157450000D03*
%TO.P,J4,28*%
%TO.N,Net-(J4-Pad28)*%
X71340000Y-134590000D03*
%TO.P,J4,13*%
%TO.N,Net-(J4-Pad13)*%
X56100000Y-159990000D03*
%TO.P,J4,29*%
%TO.N,GND*%
X71340000Y-132050000D03*
%TO.P,J4,14*%
%TO.N,Net-(J4-Pad14)*%
X56100000Y-162530000D03*
%TO.P,J4,30*%
%TO.N,Net-(J4-Pad30)*%
X71340000Y-129510000D03*
%TO.P,J4,15*%
%TO.N,Net-(J4-Pad15)*%
X56100000Y-165070000D03*
%TO.P,J4,16*%
%TO.N,Net-(J4-Pad16)*%
X71340000Y-165070000D03*
%TD*%
D11*
%TO.P,J5,4*%
%TO.N,/SDA*%
X89370000Y-145570000D03*
%TO.P,J5,3*%
%TO.N,/SCL*%
X89370000Y-143030000D03*
%TO.P,J5,2*%
%TO.N,GND*%
X89370000Y-140490000D03*
D10*
%TO.P,J5,1*%
%TO.N,+5V*%
X89370000Y-137950000D03*
%TD*%
%TO.P,J6,1*%
%TO.N,+5V*%
X96140000Y-137930000D03*
D11*
%TO.P,J6,2*%
%TO.N,/SCL*%
X96140000Y-140470000D03*
%TO.P,J6,3*%
%TO.N,/SDA*%
X96140000Y-143010000D03*
%TO.P,J6,4*%
%TO.N,GND*%
X96140000Y-145550000D03*
%TD*%
%TO.P,J7,4*%
%TO.N,GND*%
X100130000Y-145550000D03*
%TO.P,J7,3*%
%TO.N,/SDA*%
X100130000Y-143010000D03*
%TO.P,J7,2*%
%TO.N,/SCL*%
X100130000Y-140470000D03*
D10*
%TO.P,J7,1*%
%TO.N,+5V*%
X100130000Y-137930000D03*
%TD*%
%TO.P,J3,1*%
%TO.N,/D6*%
X82969100Y-154139900D03*
D11*
%TO.P,J3,2*%
%TO.N,+5V*%
X85509100Y-154139900D03*
%TO.P,J3,3*%
%TO.N,/D7*%
X82969100Y-156679900D03*
%TO.P,J3,4*%
%TO.N,GND*%
X85509100Y-156679900D03*
%TO.P,J3,5*%
%TO.N,/A2*%
X82969100Y-159219900D03*
%TO.P,J3,6*%
%TO.N,GND*%
X85509100Y-159219900D03*
%TO.P,J3,7*%
%TO.N,/A1*%
X82969100Y-161759900D03*
%TO.P,J3,8*%
%TO.N,GND*%
X85509100Y-161759900D03*
%TO.P,J3,9*%
%TO.N,/A0*%
X82969100Y-164299900D03*
%TO.P,J3,10*%
%TO.N,/D3*%
X85509100Y-164299900D03*
%TD*%
%TO.P,C1,1*%
%TO.N,+5V*%
%TA.AperFunction,SMDPad,CuDef*%
G36*
G01*
X45210000Y-152051360D02*
X51310000Y-152051360D01*
G75*
G02*
X51560000Y-152301360I0J-250000D01*
G01*
X51560000Y-153601360D01*
G75*
G02*
X51310000Y-153851360I-250000J0D01*
G01*
X45210000Y-153851360D01*
G75*
G02*
X44960000Y-153601360I0J250000D01*
G01*
X44960000Y-152301360D01*
G75*
G02*
X45210000Y-152051360I250000J0D01*
G01*
G37*
%TD.AperFunction*%
%TO.P,C1,2*%
%TO.N,GND*%
%TA.AperFunction,SMDPad,CuDef*%
G36*
G01*
X45210000Y-157301360D02*
X51310000Y-157301360D01*
G75*
G02*
X51560000Y-157551360I0J-250000D01*
G01*
X51560000Y-158851360D01*
G75*
G02*
X51310000Y-159101360I-250000J0D01*
G01*
X45210000Y-159101360D01*
G75*
G02*
X44960000Y-158851360I0J250000D01*
G01*
X44960000Y-157551360D01*
G75*
G02*
X45210000Y-157301360I250000J0D01*
G01*
G37*
%TD.AperFunction*%
%TD*%
%TO.P,C2,1*%
%TO.N,+5V*%
%TA.AperFunction,SMDPad,CuDef*%
G36*
G01*
X76344800Y-136224900D02*
X75394800Y-136224900D01*
G75*
G02*
X75144800Y-135974900I0J250000D01*
G01*
X75144800Y-135474900D01*
G75*
G02*
X75394800Y-135224900I250000J0D01*
G01*
X76344800Y-135224900D01*
G75*
G02*
X76594800Y-135474900I0J-250000D01*
G01*
X76594800Y-135974900D01*
G75*
G02*
X76344800Y-136224900I-250000J0D01*
G01*
G37*
%TD.AperFunction*%
%TO.P,C2,2*%
%TO.N,GND*%
%TA.AperFunction,SMDPad,CuDef*%
G36*
G01*
X76344800Y-134324900D02*
X75394800Y-134324900D01*
G75*
G02*
X75144800Y-134074900I0J250000D01*
G01*
X75144800Y-133574900D01*
G75*
G02*
X75394800Y-133324900I250000J0D01*
G01*
X76344800Y-133324900D01*
G75*
G02*
X76594800Y-133574900I0J-250000D01*
G01*
X76594800Y-134074900D01*
G75*
G02*
X76344800Y-134324900I-250000J0D01*
G01*
G37*
%TD.AperFunction*%
%TD*%
D10*
%TO.P,J1,1*%
%TO.N,+5V*%
X50825400Y-149829520D03*
D11*
%TO.P,J1,2*%
%TO.N,/PD_SCK*%
X50825400Y-147289520D03*
%TO.P,J1,3*%
%TO.N,/PD_DOUT*%
X50825400Y-144749520D03*
%TO.P,J1,4*%
%TO.N,GND*%
X50825400Y-142209520D03*
%TD*%
%TO.P,C3,1*%
%TO.N,/AREF*%
%TA.AperFunction,SMDPad,CuDef*%
G36*
G01*
X74180680Y-161445240D02*
X75130680Y-161445240D01*
G75*
G02*
X75380680Y-161695240I0J-250000D01*
G01*
X75380680Y-162195240D01*
G75*
G02*
X75130680Y-162445240I-250000J0D01*
G01*
X74180680Y-162445240D01*
G75*
G02*
X73930680Y-162195240I0J250000D01*
G01*
X73930680Y-161695240D01*
G75*
G02*
X74180680Y-161445240I250000J0D01*
G01*
G37*
%TD.AperFunction*%
%TO.P,C3,2*%
%TO.N,GND*%
%TA.AperFunction,SMDPad,CuDef*%
G36*
G01*
X74180680Y-163345240D02*
X75130680Y-163345240D01*
G75*
G02*
X75380680Y-163595240I0J-250000D01*
G01*
X75380680Y-164095240D01*
G75*
G02*
X75130680Y-164345240I-250000J0D01*
G01*
X74180680Y-164345240D01*
G75*
G02*
X73930680Y-164095240I0J250000D01*
G01*
X73930680Y-163595240D01*
G75*
G02*
X74180680Y-163345240I250000J0D01*
G01*
G37*
%TD.AperFunction*%
%TD*%
D16*
%TO.N,+5V*%
X85496400Y-137121900D03*
%TO.N,GND*%
X47663100Y-141986000D03*
X53555900Y-141820900D03*
X53606700Y-148767800D03*
X98120000Y-141750000D03*
X98260000Y-139280000D03*
X67950080Y-138993880D03*
X74390000Y-145900000D03*
X68090000Y-146150000D03*
X68090000Y-149980000D03*
X74549000Y-149707600D03*
X73710800Y-153631900D03*
X77177900Y-153162000D03*
X79380080Y-155686760D03*
X80518000Y-160223200D03*
X80251300Y-162610800D03*
X73710800Y-156210000D03*
X79921100Y-152387300D03*
X92532200Y-144348200D03*
X92798900Y-140576300D03*
X82194400Y-150723600D03*
X68158360Y-142326360D03*
X47995840Y-145491200D03*
X44063920Y-156286200D03*
X44089320Y-160075880D03*
X52806600Y-160106360D03*
X52821840Y-156316680D03*
%TO.N,/D3*%
X87182950Y-141320530D03*
%TD*%
D17*
%TO.N,+5V*%
X71327501Y-137117501D02*
X71340000Y-137130000D01*
D18*
X71400000Y-137190000D02*
X71340000Y-137130000D01*
D17*
X44210000Y-145470000D02*
X44210000Y-145594100D01*
D19*
X96130000Y-137920000D02*
X96140000Y-137930000D01*
X96120000Y-137950000D02*
X96140000Y-137930000D01*
D20*
X89370000Y-137950000D02*
X96120000Y-137950000D01*
X96140000Y-137930000D02*
X100130000Y-137930000D01*
X88550000Y-137130000D02*
X89370000Y-137950000D01*
D18*
X80429100Y-137121900D02*
X80437200Y-137130000D01*
X80429100Y-134594600D02*
X80429100Y-137121900D01*
X83947000Y-137109200D02*
X83967800Y-137130000D01*
X83947000Y-134607300D02*
X83947000Y-137109200D01*
D20*
X80437200Y-137130000D02*
X83967800Y-137130000D01*
X85488300Y-137130000D02*
X85496400Y-137121900D01*
X83967800Y-137130000D02*
X85488300Y-137130000D01*
X85488300Y-137130000D02*
X88550000Y-137130000D01*
D21*
X75869800Y-137121900D02*
X75877900Y-137130000D01*
X75869800Y-135724900D02*
X75869800Y-137121900D01*
D20*
X75877900Y-137130000D02*
X80437200Y-137130000D01*
X71340000Y-137130000D02*
X75877900Y-137130000D01*
D22*
X48225900Y-149485900D02*
X48225900Y-149610000D01*
X44210000Y-145470000D02*
X45412480Y-146672480D01*
X45412480Y-146672480D02*
X48225900Y-149485900D01*
X50844640Y-149610000D02*
X50845720Y-149611080D01*
X48225900Y-149610000D02*
X50844640Y-149610000D01*
X48225900Y-152917260D02*
X48260000Y-152951360D01*
X48225900Y-149610000D02*
X48225900Y-152917260D01*
X68117720Y-136504680D02*
X68743040Y-137130000D01*
X68117720Y-127741680D02*
X68117720Y-136504680D01*
X67289680Y-126913640D02*
X68117720Y-127741680D01*
X53914040Y-126913640D02*
X67289680Y-126913640D01*
X42001440Y-134787640D02*
X46040040Y-134787640D01*
X41280080Y-135509000D02*
X42001440Y-134787640D01*
X68743040Y-137130000D02*
X71340000Y-137130000D01*
X41280080Y-146324320D02*
X41280080Y-135509000D01*
X41628240Y-146672480D02*
X41280080Y-146324320D01*
X46040040Y-134787640D02*
X53914040Y-126913640D01*
X45412480Y-146672480D02*
X41628240Y-146672480D01*
D18*
%TO.N,/PD_SCK*%
X56099520Y-147289520D02*
X56100000Y-147290000D01*
X50825400Y-147289520D02*
X56099520Y-147289520D01*
%TO.N,/PD_DOUT*%
X56099520Y-144749520D02*
X56100000Y-144750000D01*
X50825400Y-144749520D02*
X56099520Y-144749520D01*
%TO.N,/RFID_RXI*%
X55347802Y-140512800D02*
X56203101Y-139657501D01*
X44332800Y-140512800D02*
X55347802Y-140512800D01*
X44210000Y-140390000D02*
X44332800Y-140512800D01*
%TO.N,/RFID_TXO*%
X70214999Y-143335001D02*
X71340000Y-142210000D01*
X44210000Y-142930000D02*
X44615001Y-143335001D01*
X70075560Y-143474440D02*
X70151760Y-143398240D01*
X44754440Y-143474440D02*
X70075560Y-143474440D01*
X44678240Y-143398240D02*
X44754440Y-143474440D01*
%TO.N,/SDA*%
X93580000Y-145570000D02*
X96140000Y-143010000D01*
X89370000Y-145570000D02*
X93580000Y-145570000D01*
X96140000Y-143010000D02*
X100130000Y-143010000D01*
X83947000Y-144767300D02*
X86855300Y-144767300D01*
X87658000Y-145570000D02*
X89370000Y-145570000D01*
X86855300Y-144767300D02*
X87658000Y-145570000D01*
X81424300Y-147290000D02*
X83947000Y-144767300D01*
X71340000Y-147290000D02*
X81424300Y-147290000D01*
%TO.N,/SCL*%
X71340000Y-144750000D02*
X71352499Y-144737501D01*
X93580000Y-143030000D02*
X96140000Y-140470000D01*
X89370000Y-143030000D02*
X93580000Y-143030000D01*
X96140000Y-140470000D02*
X100130000Y-140470000D01*
X80424500Y-144750000D02*
X80429100Y-144754600D01*
X71340000Y-144750000D02*
X80424500Y-144750000D01*
X89367400Y-143027400D02*
X89370000Y-143030000D01*
X82156300Y-143027400D02*
X89367400Y-143027400D01*
X80429100Y-144754600D02*
X82156300Y-143027400D01*
%TO.N,/D6*%
X77393800Y-148564600D02*
X82969100Y-154139900D01*
X57365400Y-148564600D02*
X77393800Y-148564600D01*
X56100000Y-149830000D02*
X57365400Y-148564600D01*
%TO.N,/D7*%
X77381100Y-151091900D02*
X82969100Y-156679900D01*
X57378100Y-151091900D02*
X77381100Y-151091900D01*
X56100000Y-152370000D02*
X57378100Y-151091900D01*
%TO.N,/A0*%
X71340000Y-157450000D02*
X73820500Y-157450000D01*
X80670400Y-164299900D02*
X82969100Y-164299900D01*
X73820500Y-157450000D02*
X80670400Y-164299900D01*
%TO.N,/A1*%
X71340000Y-154910000D02*
X73922100Y-154910000D01*
X80772000Y-161759900D02*
X82969100Y-161759900D01*
X73922100Y-154910000D02*
X80772000Y-161759900D01*
%TO.N,/A2*%
X71340000Y-152370000D02*
X73909400Y-152370000D01*
X80759300Y-159219900D02*
X82969100Y-159219900D01*
X73909400Y-152370000D02*
X80759300Y-159219900D01*
%TO.N,/D3*%
X86782951Y-140920531D02*
X87182950Y-141320530D01*
X68248469Y-140920531D02*
X86782951Y-140920531D01*
X57389469Y-140920531D02*
X68248469Y-140920531D01*
X56100000Y-142210000D02*
X57389469Y-140920531D01*
%TO.N,/AREF*%
X74655680Y-161010600D02*
X74655680Y-161945240D01*
X74366120Y-160721040D02*
X74655680Y-161010600D01*
X72649080Y-160721040D02*
X74366120Y-160721040D01*
X71918040Y-159990000D02*
X72649080Y-160721040D01*
X71340000Y-159990000D02*
X71918040Y-159990000D01*
%TD*%
D23*
%TO.N,GND*%
X98813245Y-123470184D02*
X99600779Y-123685629D01*
X100337719Y-124037131D01*
X101000770Y-124513582D01*
X101568962Y-125099910D01*
X102024347Y-125777595D01*
X102352529Y-126525213D01*
X102543833Y-127322053D01*
X102594001Y-128014695D01*
X102594000Y-167981915D01*
X102519806Y-168813246D01*
X102304362Y-169600774D01*
X101952859Y-170337716D01*
X101476413Y-171000760D01*
X100890081Y-171568956D01*
X100212400Y-172024338D01*
X99464784Y-172352519D01*
X98667749Y-172543870D01*
X97985108Y-172594000D01*
X43018085Y-172594000D01*
X42186754Y-172519806D01*
X41399226Y-172304362D01*
X40662284Y-171952859D01*
X39999240Y-171476413D01*
X39431044Y-170890081D01*
X38975662Y-170212400D01*
X38647481Y-169464784D01*
X38456130Y-168667749D01*
X38406000Y-167985108D01*
X38406000Y-167681774D01*
X39769000Y-167681774D01*
X39769000Y-168318226D01*
X39893166Y-168942448D01*
X40136725Y-169530452D01*
X40490319Y-170059642D01*
X40940358Y-170509681D01*
X41469548Y-170863275D01*
X42057552Y-171106834D01*
X42681774Y-171231000D01*
X43318226Y-171231000D01*
X43942448Y-171106834D01*
X44530452Y-170863275D01*
X45059642Y-170509681D01*
X45509681Y-170059642D01*
X45863275Y-169530452D01*
X46106834Y-168942448D01*
X46231000Y-168318226D01*
X46231000Y-167681774D01*
X94769000Y-167681774D01*
X94769000Y-168318226D01*
X94893166Y-168942448D01*
X95136725Y-169530452D01*
X95490319Y-170059642D01*
X95940358Y-170509681D01*
X96469548Y-170863275D01*
X97057552Y-171106834D01*
X97681774Y-171231000D01*
X98318226Y-171231000D01*
X98942448Y-171106834D01*
X99530452Y-170863275D01*
X100059642Y-170509681D01*
X100509681Y-170059642D01*
X100863275Y-169530452D01*
X101106834Y-168942448D01*
X101231000Y-168318226D01*
X101231000Y-167681774D01*
X101106834Y-167057552D01*
X100863275Y-166469548D01*
X100509681Y-165940358D01*
X100059642Y-165490319D01*
X99530452Y-165136725D01*
X98942448Y-164893166D01*
X98318226Y-164769000D01*
X97681774Y-164769000D01*
X97057552Y-164893166D01*
X96469548Y-165136725D01*
X95940358Y-165490319D01*
X95490319Y-165940358D01*
X95136725Y-166469548D01*
X94893166Y-167057552D01*
X94769000Y-167681774D01*
X46231000Y-167681774D01*
X46106834Y-167057552D01*
X45863275Y-166469548D01*
X45509681Y-165940358D01*
X45059642Y-165490319D01*
X44530452Y-165136725D01*
X44088547Y-164953682D01*
X54919000Y-164953682D01*
X54919000Y-165186318D01*
X54964386Y-165414485D01*
X55053412Y-165629413D01*
X55182658Y-165822843D01*
X55347157Y-165987342D01*
X55540587Y-166116588D01*
X55755515Y-166205614D01*
X55983682Y-166251000D01*
X56216318Y-166251000D01*
X56444485Y-166205614D01*
X56659413Y-166116588D01*
X56852843Y-165987342D01*
X57017342Y-165822843D01*
X57146588Y-165629413D01*
X57235614Y-165414485D01*
X57281000Y-165186318D01*
X57281000Y-164953682D01*
X70159000Y-164953682D01*
X70159000Y-165186318D01*
X70204386Y-165414485D01*
X70293412Y-165629413D01*
X70422658Y-165822843D01*
X70587157Y-165987342D01*
X70780587Y-166116588D01*
X70995515Y-166205614D01*
X71223682Y-166251000D01*
X71456318Y-166251000D01*
X71684485Y-166205614D01*
X71899413Y-166116588D01*
X72092843Y-165987342D01*
X72257342Y-165822843D01*
X72386588Y-165629413D01*
X72475614Y-165414485D01*
X72521000Y-165186318D01*
X72521000Y-164953682D01*
X72475614Y-164725515D01*
X72386588Y-164510587D01*
X72276107Y-164345240D01*
X73292608Y-164345240D01*
X73304868Y-164469722D01*
X73341178Y-164589420D01*
X73400143Y-164699734D01*
X73479495Y-164796425D01*
X73576186Y-164875777D01*
X73686500Y-164934742D01*
X73806198Y-164971052D01*
X73930680Y-164983312D01*
X74423930Y-164980240D01*
X74582680Y-164821490D01*
X74582680Y-163918240D01*
X74728680Y-163918240D01*
X74728680Y-164821490D01*
X74887430Y-164980240D01*
X75380680Y-164983312D01*
X75505162Y-164971052D01*
X75624860Y-164934742D01*
X75735174Y-164875777D01*
X75831865Y-164796425D01*
X75911217Y-164699734D01*
X75970182Y-164589420D01*
X76006492Y-164469722D01*
X76018752Y-164345240D01*
X76015680Y-164076990D01*
X75856930Y-163918240D01*
X74728680Y-163918240D01*
X74582680Y-163918240D01*
X73454430Y-163918240D01*
X73295680Y-164076990D01*
X73292608Y-164345240D01*
X72276107Y-164345240D01*
X72257342Y-164317157D01*
X72092843Y-164152658D01*
X71899413Y-164023412D01*
X71684485Y-163934386D01*
X71456318Y-163889000D01*
X71223682Y-163889000D01*
X70995515Y-163934386D01*
X70780587Y-164023412D01*
X70587157Y-164152658D01*
X70422658Y-164317157D01*
X70293412Y-164510587D01*
X70204386Y-164725515D01*
X70159000Y-164953682D01*
X57281000Y-164953682D01*
X57235614Y-164725515D01*
X57146588Y-164510587D01*
X57017342Y-164317157D01*
X56852843Y-164152658D01*
X56659413Y-164023412D01*
X56444485Y-163934386D01*
X56216318Y-163889000D01*
X55983682Y-163889000D01*
X55755515Y-163934386D01*
X55540587Y-164023412D01*
X55347157Y-164152658D01*
X55182658Y-164317157D01*
X55053412Y-164510587D01*
X54964386Y-164725515D01*
X54919000Y-164953682D01*
X44088547Y-164953682D01*
X43942448Y-164893166D01*
X43318226Y-164769000D01*
X42681774Y-164769000D01*
X42057552Y-164893166D01*
X41469548Y-165136725D01*
X40940358Y-165490319D01*
X40490319Y-165940358D01*
X40136725Y-166469548D01*
X39893166Y-167057552D01*
X39769000Y-167681774D01*
X38406000Y-167681774D01*
X38406000Y-162413682D01*
X54919000Y-162413682D01*
X54919000Y-162646318D01*
X54964386Y-162874485D01*
X55053412Y-163089413D01*
X55182658Y-163282843D01*
X55347157Y-163447342D01*
X55540587Y-163576588D01*
X55755515Y-163665614D01*
X55983682Y-163711000D01*
X56216318Y-163711000D01*
X56444485Y-163665614D01*
X56659413Y-163576588D01*
X56852843Y-163447342D01*
X57017342Y-163282843D01*
X57146588Y-163089413D01*
X57235614Y-162874485D01*
X57281000Y-162646318D01*
X57281000Y-162413682D01*
X70159000Y-162413682D01*
X70159000Y-162646318D01*
X70204386Y-162874485D01*
X70293412Y-163089413D01*
X70422658Y-163282843D01*
X70587157Y-163447342D01*
X70780587Y-163576588D01*
X70995515Y-163665614D01*
X71223682Y-163711000D01*
X71456318Y-163711000D01*
X71684485Y-163665614D01*
X71899413Y-163576588D01*
X72092843Y-163447342D01*
X72257342Y-163282843D01*
X72386588Y-163089413D01*
X72475614Y-162874485D01*
X72521000Y-162646318D01*
X72521000Y-162413682D01*
X72475614Y-162185515D01*
X72386588Y-161970587D01*
X72257342Y-161777157D01*
X72092843Y-161612658D01*
X71899413Y-161483412D01*
X71684485Y-161394386D01*
X71456318Y-161349000D01*
X71223682Y-161349000D01*
X70995515Y-161394386D01*
X70780587Y-161483412D01*
X70587157Y-161612658D01*
X70422658Y-161777157D01*
X70293412Y-161970587D01*
X70204386Y-162185515D01*
X70159000Y-162413682D01*
X57281000Y-162413682D01*
X57235614Y-162185515D01*
X57146588Y-161970587D01*
X57017342Y-161777157D01*
X56852843Y-161612658D01*
X56659413Y-161483412D01*
X56444485Y-161394386D01*
X56216318Y-161349000D01*
X55983682Y-161349000D01*
X55755515Y-161394386D01*
X55540587Y-161483412D01*
X55347157Y-161612658D01*
X55182658Y-161777157D01*
X55053412Y-161970587D01*
X54964386Y-162185515D01*
X54919000Y-162413682D01*
X38406000Y-162413682D01*
X38406000Y-159873682D01*
X54919000Y-159873682D01*
X54919000Y-160106318D01*
X54964386Y-160334485D01*
X55053412Y-160549413D01*
X55182658Y-160742843D01*
X55347157Y-160907342D01*
X55540587Y-161036588D01*
X55755515Y-161125614D01*
X55983682Y-161171000D01*
X56216318Y-161171000D01*
X56444485Y-161125614D01*
X56659413Y-161036588D01*
X56852843Y-160907342D01*
X57017342Y-160742843D01*
X57146588Y-160549413D01*
X57235614Y-160334485D01*
X57281000Y-160106318D01*
X57281000Y-159873682D01*
X70159000Y-159873682D01*
X70159000Y-160106318D01*
X70204386Y-160334485D01*
X70293412Y-160549413D01*
X70422658Y-160742843D01*
X70587157Y-160907342D01*
X70780587Y-161036588D01*
X70995515Y-161125614D01*
X71223682Y-161171000D01*
X71456318Y-161171000D01*
X71684485Y-161125614D01*
X71899413Y-161036588D01*
X72092843Y-160907342D01*
X72106317Y-160893868D01*
X72273708Y-161061260D01*
X72289553Y-161080567D01*
X72366601Y-161143799D01*
X72428347Y-161176803D01*
X72454505Y-161190785D01*
X72549887Y-161219718D01*
X72649080Y-161229488D01*
X72673934Y-161227040D01*
X73758430Y-161227040D01*
X73733192Y-161247752D01*
X73654490Y-161343651D01*
X73596009Y-161453061D01*
X73559997Y-161571778D01*
X73547837Y-161695240D01*
X73547837Y-162195240D01*
X73559997Y-162318702D01*
X73596009Y-162437419D01*
X73654490Y-162546829D01*
X73733192Y-162642728D01*
X73824460Y-162717629D01*
X73806198Y-162719428D01*
X73686500Y-162755738D01*
X73576186Y-162814703D01*
X73479495Y-162894055D01*
X73400143Y-162990746D01*
X73341178Y-163101060D01*
X73304868Y-163220758D01*
X73292608Y-163345240D01*
X73295680Y-163613490D01*
X73454430Y-163772240D01*
X74582680Y-163772240D01*
X74582680Y-163752240D01*
X74728680Y-163752240D01*
X74728680Y-163772240D01*
X75856930Y-163772240D01*
X76015680Y-163613490D01*
X76018752Y-163345240D01*
X76006492Y-163220758D01*
X75970182Y-163101060D01*
X75911217Y-162990746D01*
X75831865Y-162894055D01*
X75735174Y-162814703D01*
X75624860Y-162755738D01*
X75505162Y-162719428D01*
X75486900Y-162717629D01*
X75578168Y-162642728D01*
X75656870Y-162546829D01*
X75715351Y-162437419D01*
X75751363Y-162318702D01*
X75763523Y-162195240D01*
X75763523Y-161695240D01*
X75751363Y-161571778D01*
X75715351Y-161453061D01*
X75656870Y-161343651D01*
X75578168Y-161247752D01*
X75482269Y-161169050D01*
X75372859Y-161110569D01*
X75254142Y-161074557D01*
X75161680Y-161065450D01*
X75161680Y-161035454D01*
X75164128Y-161010600D01*
X75154358Y-160911407D01*
X75125425Y-160816025D01*
X75118848Y-160803720D01*
X75078439Y-160728121D01*
X75015207Y-160651073D01*
X74995895Y-160635224D01*
X74741496Y-160380825D01*
X74725647Y-160361513D01*
X74648599Y-160298281D01*
X74560695Y-160251295D01*
X74465313Y-160222362D01*
X74390974Y-160215040D01*
X74390966Y-160215040D01*
X74366120Y-160212593D01*
X74341274Y-160215040D01*
X72858672Y-160215040D01*
X72521000Y-159877369D01*
X72521000Y-159873682D01*
X72475614Y-159645515D01*
X72386588Y-159430587D01*
X72257342Y-159237157D01*
X72092843Y-159072658D01*
X71899413Y-158943412D01*
X71684485Y-158854386D01*
X71456318Y-158809000D01*
X71223682Y-158809000D01*
X70995515Y-158854386D01*
X70780587Y-158943412D01*
X70587157Y-159072658D01*
X70422658Y-159237157D01*
X70293412Y-159430587D01*
X70204386Y-159645515D01*
X70159000Y-159873682D01*
X57281000Y-159873682D01*
X57235614Y-159645515D01*
X57146588Y-159430587D01*
X57017342Y-159237157D01*
X56852843Y-159072658D01*
X56659413Y-158943412D01*
X56444485Y-158854386D01*
X56216318Y-158809000D01*
X55983682Y-158809000D01*
X55755515Y-158854386D01*
X55540587Y-158943412D01*
X55347157Y-159072658D01*
X55182658Y-159237157D01*
X55053412Y-159430587D01*
X54964386Y-159645515D01*
X54919000Y-159873682D01*
X38406000Y-159873682D01*
X38406000Y-159101360D01*
X44321928Y-159101360D01*
X44334188Y-159225842D01*
X44370498Y-159345540D01*
X44429463Y-159455854D01*
X44508815Y-159552545D01*
X44605506Y-159631897D01*
X44715820Y-159690862D01*
X44835518Y-159727172D01*
X44960000Y-159739432D01*
X48028250Y-159736360D01*
X48187000Y-159577610D01*
X48187000Y-158274360D01*
X48333000Y-158274360D01*
X48333000Y-159577610D01*
X48491750Y-159736360D01*
X51560000Y-159739432D01*
X51684482Y-159727172D01*
X51804180Y-159690862D01*
X51914494Y-159631897D01*
X52011185Y-159552545D01*
X52090537Y-159455854D01*
X52149502Y-159345540D01*
X52185812Y-159225842D01*
X52198072Y-159101360D01*
X52195000Y-158433110D01*
X52036250Y-158274360D01*
X48333000Y-158274360D01*
X48187000Y-158274360D01*
X44483750Y-158274360D01*
X44325000Y-158433110D01*
X44321928Y-159101360D01*
X38406000Y-159101360D01*
X38406000Y-157301360D01*
X44321928Y-157301360D01*
X44325000Y-157969610D01*
X44483750Y-158128360D01*
X48187000Y-158128360D01*
X48187000Y-156825110D01*
X48333000Y-156825110D01*
X48333000Y-158128360D01*
X52036250Y-158128360D01*
X52195000Y-157969610D01*
X52197923Y-157333682D01*
X54919000Y-157333682D01*
X54919000Y-157566318D01*
X54964386Y-157794485D01*
X55053412Y-158009413D01*
X55182658Y-158202843D01*
X55347157Y-158367342D01*
X55540587Y-158496588D01*
X55755515Y-158585614D01*
X55983682Y-158631000D01*
X56216318Y-158631000D01*
X56444485Y-158585614D01*
X56659413Y-158496588D01*
X56852843Y-158367342D01*
X57017342Y-158202843D01*
X57146588Y-158009413D01*
X57235614Y-157794485D01*
X57281000Y-157566318D01*
X57281000Y-157333682D01*
X70159000Y-157333682D01*
X70159000Y-157566318D01*
X70204386Y-157794485D01*
X70293412Y-158009413D01*
X70422658Y-158202843D01*
X70587157Y-158367342D01*
X70780587Y-158496588D01*
X70995515Y-158585614D01*
X71223682Y-158631000D01*
X71456318Y-158631000D01*
X71684485Y-158585614D01*
X71899413Y-158496588D01*
X72092843Y-158367342D01*
X72257342Y-158202843D01*
X72386588Y-158009413D01*
X72408712Y-157956000D01*
X73610909Y-157956000D01*
X80295028Y-164640120D01*
X80310873Y-164659427D01*
X80387921Y-164722659D01*
X80475825Y-164769645D01*
X80549007Y-164791844D01*
X80571206Y-164798578D01*
X80581094Y-164799552D01*
X80645546Y-164805900D01*
X80645553Y-164805900D01*
X80670399Y-164808347D01*
X80695245Y-164805900D01*
X81846268Y-164805900D01*
X81878202Y-164882997D01*
X82012920Y-165084617D01*
X82184383Y-165256080D01*
X82386003Y-165390798D01*
X82610031Y-165483593D01*
X82847857Y-165530900D01*
X83090343Y-165530900D01*
X83328169Y-165483593D01*
X83552197Y-165390798D01*
X83753817Y-165256080D01*
X83925280Y-165084617D01*
X84059998Y-164882997D01*
X84152793Y-164658969D01*
X84200100Y-164421143D01*
X84200100Y-164178657D01*
X84152793Y-163940831D01*
X84059998Y-163716803D01*
X83925280Y-163515183D01*
X83753817Y-163343720D01*
X83552197Y-163209002D01*
X83328169Y-163116207D01*
X83090343Y-163068900D01*
X82847857Y-163068900D01*
X82610031Y-163116207D01*
X82386003Y-163209002D01*
X82184383Y-163343720D01*
X82012920Y-163515183D01*
X81878202Y-163716803D01*
X81846268Y-163793900D01*
X80879992Y-163793900D01*
X74195876Y-157109785D01*
X74180027Y-157090473D01*
X74102979Y-157027241D01*
X74015075Y-156980255D01*
X73919693Y-156951322D01*
X73845354Y-156944000D01*
X73845346Y-156944000D01*
X73820500Y-156941553D01*
X73795654Y-156944000D01*
X72408712Y-156944000D01*
X72386588Y-156890587D01*
X72257342Y-156697157D01*
X72092843Y-156532658D01*
X71899413Y-156403412D01*
X71684485Y-156314386D01*
X71456318Y-156269000D01*
X71223682Y-156269000D01*
X70995515Y-156314386D01*
X70780587Y-156403412D01*
X70587157Y-156532658D01*
X70422658Y-156697157D01*
X70293412Y-156890587D01*
X70204386Y-157105515D01*
X70159000Y-157333682D01*
X57281000Y-157333682D01*
X57235614Y-157105515D01*
X57146588Y-156890587D01*
X57017342Y-156697157D01*
X56852843Y-156532658D01*
X56659413Y-156403412D01*
X56444485Y-156314386D01*
X56216318Y-156269000D01*
X55983682Y-156269000D01*
X55755515Y-156314386D01*
X55540587Y-156403412D01*
X55347157Y-156532658D01*
X55182658Y-156697157D01*
X55053412Y-156890587D01*
X54964386Y-157105515D01*
X54919000Y-157333682D01*
X52197923Y-157333682D01*
X52198072Y-157301360D01*
X52185812Y-157176878D01*
X52149502Y-157057180D01*
X52090537Y-156946866D01*
X52011185Y-156850175D01*
X51914494Y-156770823D01*
X51804180Y-156711858D01*
X51684482Y-156675548D01*
X51560000Y-156663288D01*
X48491750Y-156666360D01*
X48333000Y-156825110D01*
X48187000Y-156825110D01*
X48028250Y-156666360D01*
X44960000Y-156663288D01*
X44835518Y-156675548D01*
X44715820Y-156711858D01*
X44605506Y-156770823D01*
X44508815Y-156850175D01*
X44429463Y-156946866D01*
X44370498Y-157057180D01*
X44334188Y-157176878D01*
X44321928Y-157301360D01*
X38406000Y-157301360D01*
X38406000Y-154793682D01*
X54919000Y-154793682D01*
X54919000Y-155026318D01*
X54964386Y-155254485D01*
X55053412Y-155469413D01*
X55182658Y-155662843D01*
X55347157Y-155827342D01*
X55540587Y-155956588D01*
X55755515Y-156045614D01*
X55983682Y-156091000D01*
X56216318Y-156091000D01*
X56444485Y-156045614D01*
X56659413Y-155956588D01*
X56852843Y-155827342D01*
X57017342Y-155662843D01*
X57146588Y-155469413D01*
X57235614Y-155254485D01*
X57281000Y-155026318D01*
X57281000Y-154793682D01*
X57235614Y-154565515D01*
X57146588Y-154350587D01*
X57017342Y-154157157D01*
X56852843Y-153992658D01*
X56659413Y-153863412D01*
X56444485Y-153774386D01*
X56216318Y-153729000D01*
X55983682Y-153729000D01*
X55755515Y-153774386D01*
X55540587Y-153863412D01*
X55347157Y-153992658D01*
X55182658Y-154157157D01*
X55053412Y-154350587D01*
X54964386Y-154565515D01*
X54919000Y-154793682D01*
X38406000Y-154793682D01*
X38406000Y-135509000D01*
X40269213Y-135509000D01*
X40274081Y-135558424D01*
X40274080Y-146274906D01*
X40269213Y-146324320D01*
X40274080Y-146373733D01*
X40288637Y-146521529D01*
X40346161Y-146711161D01*
X40439575Y-146885928D01*
X40565289Y-147039111D01*
X40603678Y-147070616D01*
X40881944Y-147348882D01*
X40913449Y-147387271D01*
X41066632Y-147512985D01*
X41241398Y-147606399D01*
X41381990Y-147649047D01*
X41431030Y-147663923D01*
X41628240Y-147683347D01*
X41677654Y-147678480D01*
X44995782Y-147678480D01*
X47219900Y-149902599D01*
X47219901Y-151668517D01*
X45210000Y-151668517D01*
X45086538Y-151680677D01*
X44967821Y-151716689D01*
X44858411Y-151775170D01*
X44762512Y-151853872D01*
X44683810Y-151949771D01*
X44625329Y-152059181D01*
X44589317Y-152177898D01*
X44577157Y-152301360D01*
X44577157Y-153601360D01*
X44589317Y-153724822D01*
X44625329Y-153843539D01*
X44683810Y-153952949D01*
X44762512Y-154048848D01*
X44858411Y-154127550D01*
X44967821Y-154186031D01*
X45086538Y-154222043D01*
X45210000Y-154234203D01*
X51310000Y-154234203D01*
X51433462Y-154222043D01*
X51552179Y-154186031D01*
X51661589Y-154127550D01*
X51757488Y-154048848D01*
X51836190Y-153952949D01*
X51894671Y-153843539D01*
X51930683Y-153724822D01*
X51942843Y-153601360D01*
X51942843Y-152301360D01*
X51930683Y-152177898D01*
X51894671Y-152059181D01*
X51836190Y-151949771D01*
X51757488Y-151853872D01*
X51661589Y-151775170D01*
X51552179Y-151716689D01*
X51433462Y-151680677D01*
X51310000Y-151668517D01*
X49231900Y-151668517D01*
X49231900Y-150616000D01*
X49592557Y-150616000D01*
X49592557Y-150679520D01*
X49599913Y-150754209D01*
X49621699Y-150826028D01*
X49657078Y-150892216D01*
X49704689Y-150950231D01*
X49762704Y-150997842D01*
X49828892Y-151033221D01*
X49900711Y-151055007D01*
X49975400Y-151062363D01*
X51675400Y-151062363D01*
X51750089Y-151055007D01*
X51821908Y-151033221D01*
X51888096Y-150997842D01*
X51946111Y-150950231D01*
X51993722Y-150892216D01*
X52029101Y-150826028D01*
X52050887Y-150754209D01*
X52058243Y-150679520D01*
X52058243Y-149713682D01*
X54919000Y-149713682D01*
X54919000Y-149946318D01*
X54964386Y-150174485D01*
X55053412Y-150389413D01*
X55182658Y-150582843D01*
X55347157Y-150747342D01*
X55540587Y-150876588D01*
X55755515Y-150965614D01*
X55983682Y-151011000D01*
X56216318Y-151011000D01*
X56444485Y-150965614D01*
X56659413Y-150876588D01*
X56852843Y-150747342D01*
X57017342Y-150582843D01*
X57146588Y-150389413D01*
X57235614Y-150174485D01*
X57281000Y-149946318D01*
X57281000Y-149713682D01*
X57235614Y-149485515D01*
X57213490Y-149432102D01*
X57574992Y-149070600D01*
X70429215Y-149070600D01*
X70422658Y-149077157D01*
X70293412Y-149270587D01*
X70204386Y-149485515D01*
X70159000Y-149713682D01*
X70159000Y-149946318D01*
X70204386Y-150174485D01*
X70293412Y-150389413D01*
X70422658Y-150582843D01*
X70425715Y-150585900D01*
X57402945Y-150585900D01*
X57378099Y-150583453D01*
X57353253Y-150585900D01*
X57353246Y-150585900D01*
X57288794Y-150592248D01*
X57278906Y-150593222D01*
X57256707Y-150599956D01*
X57183525Y-150622155D01*
X57095621Y-150669141D01*
X57018573Y-150732373D01*
X57002728Y-150751680D01*
X56497898Y-151256510D01*
X56444485Y-151234386D01*
X56216318Y-151189000D01*
X55983682Y-151189000D01*
X55755515Y-151234386D01*
X55540587Y-151323412D01*
X55347157Y-151452658D01*
X55182658Y-151617157D01*
X55053412Y-151810587D01*
X54964386Y-152025515D01*
X54919000Y-152253682D01*
X54919000Y-152486318D01*
X54964386Y-152714485D01*
X55053412Y-152929413D01*
X55182658Y-153122843D01*
X55347157Y-153287342D01*
X55540587Y-153416588D01*
X55755515Y-153505614D01*
X55983682Y-153551000D01*
X56216318Y-153551000D01*
X56444485Y-153505614D01*
X56659413Y-153416588D01*
X56852843Y-153287342D01*
X57017342Y-153122843D01*
X57146588Y-152929413D01*
X57235614Y-152714485D01*
X57281000Y-152486318D01*
X57281000Y-152253682D01*
X57235614Y-152025515D01*
X57213490Y-151972102D01*
X57587692Y-151597900D01*
X70441915Y-151597900D01*
X70422658Y-151617157D01*
X70293412Y-151810587D01*
X70204386Y-152025515D01*
X70159000Y-152253682D01*
X70159000Y-152486318D01*
X70204386Y-152714485D01*
X70293412Y-152929413D01*
X70422658Y-153122843D01*
X70587157Y-153287342D01*
X70780587Y-153416588D01*
X70995515Y-153505614D01*
X71223682Y-153551000D01*
X71456318Y-153551000D01*
X71684485Y-153505614D01*
X71899413Y-153416588D01*
X72092843Y-153287342D01*
X72257342Y-153122843D01*
X72386588Y-152929413D01*
X72408712Y-152876000D01*
X73699809Y-152876000D01*
X80383928Y-159560120D01*
X80399773Y-159579427D01*
X80476821Y-159642659D01*
X80564725Y-159689645D01*
X80637907Y-159711844D01*
X80660106Y-159718578D01*
X80669994Y-159719552D01*
X80734446Y-159725900D01*
X80734453Y-159725900D01*
X80759299Y-159728347D01*
X80784145Y-159725900D01*
X81846268Y-159725900D01*
X81878202Y-159802997D01*
X82012920Y-160004617D01*
X82184383Y-160176080D01*
X82386003Y-160310798D01*
X82610031Y-160403593D01*
X82847857Y-160450900D01*
X83090343Y-160450900D01*
X83328169Y-160403593D01*
X83552197Y-160310798D01*
X83753817Y-160176080D01*
X83925280Y-160004617D01*
X84059998Y-159802997D01*
X84106294Y-159691227D01*
X84131574Y-159774565D01*
X84266253Y-160032649D01*
X84448693Y-160259500D01*
X84671884Y-160446400D01*
X84751362Y-160489900D01*
X84671884Y-160533400D01*
X84448693Y-160720300D01*
X84266253Y-160947151D01*
X84131574Y-161205235D01*
X84106294Y-161288573D01*
X84059998Y-161176803D01*
X83925280Y-160975183D01*
X83753817Y-160803720D01*
X83552197Y-160669002D01*
X83328169Y-160576207D01*
X83090343Y-160528900D01*
X82847857Y-160528900D01*
X82610031Y-160576207D01*
X82386003Y-160669002D01*
X82184383Y-160803720D01*
X82012920Y-160975183D01*
X81878202Y-161176803D01*
X81846268Y-161253900D01*
X80981592Y-161253900D01*
X74297476Y-154569785D01*
X74281627Y-154550473D01*
X74204579Y-154487241D01*
X74116675Y-154440255D01*
X74021293Y-154411322D01*
X73946954Y-154404000D01*
X73946946Y-154404000D01*
X73922100Y-154401553D01*
X73897254Y-154404000D01*
X72408712Y-154404000D01*
X72386588Y-154350587D01*
X72257342Y-154157157D01*
X72092843Y-153992658D01*
X71899413Y-153863412D01*
X71684485Y-153774386D01*
X71456318Y-153729000D01*
X71223682Y-153729000D01*
X70995515Y-153774386D01*
X70780587Y-153863412D01*
X70587157Y-153992658D01*
X70422658Y-154157157D01*
X70293412Y-154350587D01*
X70204386Y-154565515D01*
X70159000Y-154793682D01*
X70159000Y-155026318D01*
X70204386Y-155254485D01*
X70293412Y-155469413D01*
X70422658Y-155662843D01*
X70587157Y-155827342D01*
X70780587Y-155956588D01*
X70995515Y-156045614D01*
X71223682Y-156091000D01*
X71456318Y-156091000D01*
X71684485Y-156045614D01*
X71899413Y-155956588D01*
X72092843Y-155827342D01*
X72257342Y-155662843D01*
X72386588Y-155469413D01*
X72408712Y-155416000D01*
X73712509Y-155416000D01*
X80396628Y-162100120D01*
X80412473Y-162119427D01*
X80489521Y-162182659D01*
X80577425Y-162229645D01*
X80650607Y-162251844D01*
X80672806Y-162258578D01*
X80682694Y-162259552D01*
X80747146Y-162265900D01*
X80747153Y-162265900D01*
X80771999Y-162268347D01*
X80796845Y-162265900D01*
X81846268Y-162265900D01*
X81878202Y-162342997D01*
X82012920Y-162544617D01*
X82184383Y-162716080D01*
X82386003Y-162850798D01*
X82610031Y-162943593D01*
X82847857Y-162990900D01*
X83090343Y-162990900D01*
X83328169Y-162943593D01*
X83552197Y-162850798D01*
X83753817Y-162716080D01*
X83925280Y-162544617D01*
X84059998Y-162342997D01*
X84106294Y-162231227D01*
X84131574Y-162314565D01*
X84266253Y-162572649D01*
X84448693Y-162799500D01*
X84671884Y-162986400D01*
X84927249Y-163126166D01*
X85040262Y-163161675D01*
X84926003Y-163209002D01*
X84724383Y-163343720D01*
X84552920Y-163515183D01*
X84418202Y-163716803D01*
X84325407Y-163940831D01*
X84278100Y-164178657D01*
X84278100Y-164421143D01*
X84325407Y-164658969D01*
X84418202Y-164882997D01*
X84552920Y-165084617D01*
X84724383Y-165256080D01*
X84926003Y-165390798D01*
X85150031Y-165483593D01*
X85387857Y-165530900D01*
X85630343Y-165530900D01*
X85868169Y-165483593D01*
X86092197Y-165390798D01*
X86293817Y-165256080D01*
X86465280Y-165084617D01*
X86599998Y-164882997D01*
X86692793Y-164658969D01*
X86740100Y-164421143D01*
X86740100Y-164178657D01*
X86692793Y-163940831D01*
X86599998Y-163716803D01*
X86465280Y-163515183D01*
X86293817Y-163343720D01*
X86092197Y-163209002D01*
X85977938Y-163161675D01*
X86090951Y-163126166D01*
X86346316Y-162986400D01*
X86569507Y-162799500D01*
X86751947Y-162572649D01*
X86886626Y-162314565D01*
X86962625Y-162064026D01*
X86833339Y-161832900D01*
X85582100Y-161832900D01*
X85582100Y-161852900D01*
X85436100Y-161852900D01*
X85436100Y-161832900D01*
X85416100Y-161832900D01*
X85416100Y-161686900D01*
X85436100Y-161686900D01*
X85436100Y-159292900D01*
X85582100Y-159292900D01*
X85582100Y-161686900D01*
X86833339Y-161686900D01*
X86962625Y-161455774D01*
X86886626Y-161205235D01*
X86751947Y-160947151D01*
X86569507Y-160720300D01*
X86346316Y-160533400D01*
X86266838Y-160489900D01*
X86346316Y-160446400D01*
X86569507Y-160259500D01*
X86751947Y-160032649D01*
X86886626Y-159774565D01*
X86962625Y-159524026D01*
X86833339Y-159292900D01*
X85582100Y-159292900D01*
X85436100Y-159292900D01*
X85416100Y-159292900D01*
X85416100Y-159146900D01*
X85436100Y-159146900D01*
X85436100Y-156752900D01*
X85582100Y-156752900D01*
X85582100Y-159146900D01*
X86833339Y-159146900D01*
X86962625Y-158915774D01*
X86886626Y-158665235D01*
X86751947Y-158407151D01*
X86569507Y-158180300D01*
X86346316Y-157993400D01*
X86266838Y-157949900D01*
X86346316Y-157906400D01*
X86569507Y-157719500D01*
X86751947Y-157492649D01*
X86886626Y-157234565D01*
X86962625Y-156984026D01*
X86833339Y-156752900D01*
X85582100Y-156752900D01*
X85436100Y-156752900D01*
X85416100Y-156752900D01*
X85416100Y-156606900D01*
X85436100Y-156606900D01*
X85436100Y-156586900D01*
X85582100Y-156586900D01*
X85582100Y-156606900D01*
X86833339Y-156606900D01*
X86962625Y-156375774D01*
X86886626Y-156125235D01*
X86751947Y-155867151D01*
X86569507Y-155640300D01*
X86346316Y-155453400D01*
X86090951Y-155313634D01*
X85977938Y-155278125D01*
X86092197Y-155230798D01*
X86293817Y-155096080D01*
X86465280Y-154924617D01*
X86599998Y-154722997D01*
X86692793Y-154498969D01*
X86740100Y-154261143D01*
X86740100Y-154018657D01*
X86692793Y-153780831D01*
X86599998Y-153556803D01*
X86465280Y-153355183D01*
X86293817Y-153183720D01*
X86092197Y-153049002D01*
X85868169Y-152956207D01*
X85630343Y-152908900D01*
X85387857Y-152908900D01*
X85150031Y-152956207D01*
X84926003Y-153049002D01*
X84724383Y-153183720D01*
X84552920Y-153355183D01*
X84418202Y-153556803D01*
X84325407Y-153780831D01*
X84278100Y-154018657D01*
X84278100Y-154261143D01*
X84325407Y-154498969D01*
X84418202Y-154722997D01*
X84552920Y-154924617D01*
X84724383Y-155096080D01*
X84926003Y-155230798D01*
X85040262Y-155278125D01*
X84927249Y-155313634D01*
X84671884Y-155453400D01*
X84448693Y-155640300D01*
X84266253Y-155867151D01*
X84131574Y-156125235D01*
X84106294Y-156208573D01*
X84059998Y-156096803D01*
X83925280Y-155895183D01*
X83753817Y-155723720D01*
X83552197Y-155589002D01*
X83328169Y-155496207D01*
X83090343Y-155448900D01*
X82847857Y-155448900D01*
X82610031Y-155496207D01*
X82532934Y-155528142D01*
X82377535Y-155372743D01*
X83819100Y-155372743D01*
X83893789Y-155365387D01*
X83965608Y-155343601D01*
X84031796Y-155308222D01*
X84089811Y-155260611D01*
X84137422Y-155202596D01*
X84172801Y-155136408D01*
X84194587Y-155064589D01*
X84201943Y-154989900D01*
X84201943Y-153289900D01*
X84194587Y-153215211D01*
X84172801Y-153143392D01*
X84137422Y-153077204D01*
X84089811Y-153019189D01*
X84031796Y-152971578D01*
X83965608Y-152936199D01*
X83893789Y-152914413D01*
X83819100Y-152907057D01*
X82451849Y-152907057D01*
X77769176Y-148224385D01*
X77753327Y-148205073D01*
X77676279Y-148141841D01*
X77588375Y-148094855D01*
X77492993Y-148065922D01*
X77418654Y-148058600D01*
X77418646Y-148058600D01*
X77393800Y-148056153D01*
X77368954Y-148058600D01*
X72241585Y-148058600D01*
X72257342Y-148042843D01*
X72386588Y-147849413D01*
X72408712Y-147796000D01*
X81399454Y-147796000D01*
X81424300Y-147798447D01*
X81449146Y-147796000D01*
X81449154Y-147796000D01*
X81523493Y-147788678D01*
X81618875Y-147759745D01*
X81706779Y-147712759D01*
X81783827Y-147649527D01*
X81799676Y-147630215D01*
X83549102Y-145880790D01*
X83602515Y-145902914D01*
X83830682Y-145948300D01*
X84063318Y-145948300D01*
X84291485Y-145902914D01*
X84506413Y-145813888D01*
X84699843Y-145684642D01*
X84864342Y-145520143D01*
X84993588Y-145326713D01*
X85015712Y-145273300D01*
X86645709Y-145273300D01*
X87282628Y-145910220D01*
X87298473Y-145929527D01*
X87375521Y-145992759D01*
X87448200Y-146031607D01*
X87463425Y-146039745D01*
X87558806Y-146068678D01*
X87568694Y-146069652D01*
X87633146Y-146076000D01*
X87633153Y-146076000D01*
X87657999Y-146078447D01*
X87682845Y-146076000D01*
X88247168Y-146076000D01*
X88279102Y-146153097D01*
X88413820Y-146354717D01*
X88585283Y-146526180D01*
X88786903Y-146660898D01*
X89010931Y-146753693D01*
X89248757Y-146801000D01*
X89491243Y-146801000D01*
X89729069Y-146753693D01*
X89953097Y-146660898D01*
X90154717Y-146526180D01*
X90326180Y-146354717D01*
X90460898Y-146153097D01*
X90492832Y-146076000D01*
X93555154Y-146076000D01*
X93580000Y-146078447D01*
X93604846Y-146076000D01*
X93604854Y-146076000D01*
X93679193Y-146068678D01*
X93774575Y-146039745D01*
X93862479Y-145992759D01*
X93939527Y-145929527D01*
X93955376Y-145910215D01*
X94011465Y-145854126D01*
X94686475Y-145854126D01*
X94762474Y-146104665D01*
X94897153Y-146362749D01*
X95079593Y-146589600D01*
X95302784Y-146776500D01*
X95558149Y-146916266D01*
X95835874Y-147003527D01*
X96067000Y-146874457D01*
X96067000Y-145623000D01*
X96213000Y-145623000D01*
X96213000Y-146874457D01*
X96444126Y-147003527D01*
X96721851Y-146916266D01*
X96977216Y-146776500D01*
X97200407Y-146589600D01*
X97382847Y-146362749D01*
X97517526Y-146104665D01*
X97593525Y-145854126D01*
X98676475Y-145854126D01*
X98752474Y-146104665D01*
X98887153Y-146362749D01*
X99069593Y-146589600D01*
X99292784Y-146776500D01*
X99548149Y-146916266D01*
X99825874Y-147003527D01*
X100057000Y-146874457D01*
X100057000Y-145623000D01*
X100203000Y-145623000D01*
X100203000Y-146874457D01*
X100434126Y-147003527D01*
X100711851Y-146916266D01*
X100967216Y-146776500D01*
X101190407Y-146589600D01*
X101372847Y-146362749D01*
X101507526Y-146104665D01*
X101583525Y-145854126D01*
X101454239Y-145623000D01*
X100203000Y-145623000D01*
X100057000Y-145623000D01*
X98805761Y-145623000D01*
X98676475Y-145854126D01*
X97593525Y-145854126D01*
X97464239Y-145623000D01*
X96213000Y-145623000D01*
X96067000Y-145623000D01*
X94815761Y-145623000D01*
X94686475Y-145854126D01*
X94011465Y-145854126D01*
X94715543Y-145150048D01*
X94686475Y-145245874D01*
X94815761Y-145477000D01*
X96067000Y-145477000D01*
X96067000Y-145457000D01*
X96213000Y-145457000D01*
X96213000Y-145477000D01*
X97464239Y-145477000D01*
X97593525Y-145245874D01*
X97517526Y-144995335D01*
X97382847Y-144737251D01*
X97200407Y-144510400D01*
X96977216Y-144323500D01*
X96721851Y-144183734D01*
X96608838Y-144148225D01*
X96723097Y-144100898D01*
X96924717Y-143966180D01*
X97096180Y-143794717D01*
X97230898Y-143593097D01*
X97262832Y-143516000D01*
X99007168Y-143516000D01*
X99039102Y-143593097D01*
X99173820Y-143794717D01*
X99345283Y-143966180D01*
X99546903Y-144100898D01*
X99661162Y-144148225D01*
X99548149Y-144183734D01*
X99292784Y-144323500D01*
X99069593Y-144510400D01*
X98887153Y-144737251D01*
X98752474Y-144995335D01*
X98676475Y-145245874D01*
X98805761Y-145477000D01*
X100057000Y-145477000D01*
X100057000Y-145457000D01*
X100203000Y-145457000D01*
X100203000Y-145477000D01*
X101454239Y-145477000D01*
X101583525Y-145245874D01*
X101507526Y-144995335D01*
X101372847Y-144737251D01*
X101190407Y-144510400D01*
X100967216Y-144323500D01*
X100711851Y-144183734D01*
X100598838Y-144148225D01*
X100713097Y-144100898D01*
X100914717Y-143966180D01*
X101086180Y-143794717D01*
X101220898Y-143593097D01*
X101313693Y-143369069D01*
X101361000Y-143131243D01*
X101361000Y-142888757D01*
X101313693Y-142650931D01*
X101220898Y-142426903D01*
X101086180Y-142225283D01*
X100914717Y-142053820D01*
X100713097Y-141919102D01*
X100489069Y-141826307D01*
X100251243Y-141779000D01*
X100008757Y-141779000D01*
X99770931Y-141826307D01*
X99546903Y-141919102D01*
X99345283Y-142053820D01*
X99173820Y-142225283D01*
X99039102Y-142426903D01*
X99007168Y-142504000D01*
X97262832Y-142504000D01*
X97230898Y-142426903D01*
X97096180Y-142225283D01*
X96924717Y-142053820D01*
X96723097Y-141919102D01*
X96499069Y-141826307D01*
X96261243Y-141779000D01*
X96018757Y-141779000D01*
X95780931Y-141826307D01*
X95556903Y-141919102D01*
X95355283Y-142053820D01*
X95183820Y-142225283D01*
X95049102Y-142426903D01*
X94956307Y-142650931D01*
X94909000Y-142888757D01*
X94909000Y-143131243D01*
X94956307Y-143369069D01*
X94988242Y-143446167D01*
X93370409Y-145064000D01*
X90492832Y-145064000D01*
X90460898Y-144986903D01*
X90326180Y-144785283D01*
X90154717Y-144613820D01*
X89953097Y-144479102D01*
X89729069Y-144386307D01*
X89491243Y-144339000D01*
X89248757Y-144339000D01*
X89010931Y-144386307D01*
X88786903Y-144479102D01*
X88585283Y-144613820D01*
X88413820Y-144785283D01*
X88279102Y-144986903D01*
X88247168Y-145064000D01*
X87867592Y-145064000D01*
X87230676Y-144427085D01*
X87214827Y-144407773D01*
X87137779Y-144344541D01*
X87049875Y-144297555D01*
X86954493Y-144268622D01*
X86880154Y-144261300D01*
X86880146Y-144261300D01*
X86855300Y-144258853D01*
X86830454Y-144261300D01*
X85015712Y-144261300D01*
X84993588Y-144207887D01*
X84864342Y-144014457D01*
X84699843Y-143849958D01*
X84506413Y-143720712D01*
X84291485Y-143631686D01*
X84063318Y-143586300D01*
X83830682Y-143586300D01*
X83602515Y-143631686D01*
X83387587Y-143720712D01*
X83194157Y-143849958D01*
X83029658Y-144014457D01*
X82900412Y-144207887D01*
X82811386Y-144422815D01*
X82766000Y-144650982D01*
X82766000Y-144883618D01*
X82811386Y-145111785D01*
X82833510Y-145165198D01*
X81214709Y-146784000D01*
X72408712Y-146784000D01*
X72386588Y-146730587D01*
X72257342Y-146537157D01*
X72092843Y-146372658D01*
X71899413Y-146243412D01*
X71684485Y-146154386D01*
X71456318Y-146109000D01*
X71223682Y-146109000D01*
X70995515Y-146154386D01*
X70780587Y-146243412D01*
X70587157Y-146372658D01*
X70422658Y-146537157D01*
X70293412Y-146730587D01*
X70204386Y-146945515D01*
X70159000Y-147173682D01*
X70159000Y-147406318D01*
X70204386Y-147634485D01*
X70293412Y-147849413D01*
X70422658Y-148042843D01*
X70438415Y-148058600D01*
X57390254Y-148058600D01*
X57365400Y-148056152D01*
X57340546Y-148058600D01*
X57266207Y-148065922D01*
X57170825Y-148094855D01*
X57082921Y-148141841D01*
X57005873Y-148205073D01*
X56990028Y-148224380D01*
X56497898Y-148716510D01*
X56444485Y-148694386D01*
X56216318Y-148649000D01*
X55983682Y-148649000D01*
X55755515Y-148694386D01*
X55540587Y-148783412D01*
X55347157Y-148912658D01*
X55182658Y-149077157D01*
X55053412Y-149270587D01*
X54964386Y-149485515D01*
X54919000Y-149713682D01*
X52058243Y-149713682D01*
X52058243Y-148979520D01*
X52050887Y-148904831D01*
X52029101Y-148833012D01*
X51993722Y-148766824D01*
X51946111Y-148708809D01*
X51888096Y-148661198D01*
X51821908Y-148625819D01*
X51750089Y-148604033D01*
X51675400Y-148596677D01*
X49975400Y-148596677D01*
X49901046Y-148604000D01*
X48766699Y-148604000D01*
X47330976Y-147168277D01*
X49594400Y-147168277D01*
X49594400Y-147410763D01*
X49641707Y-147648589D01*
X49734502Y-147872617D01*
X49869220Y-148074237D01*
X50040683Y-148245700D01*
X50242303Y-148380418D01*
X50466331Y-148473213D01*
X50704157Y-148520520D01*
X50946643Y-148520520D01*
X51184469Y-148473213D01*
X51408497Y-148380418D01*
X51610117Y-148245700D01*
X51781580Y-148074237D01*
X51916298Y-147872617D01*
X51948232Y-147795520D01*
X55031089Y-147795520D01*
X55053412Y-147849413D01*
X55182658Y-148042843D01*
X55347157Y-148207342D01*
X55540587Y-148336588D01*
X55755515Y-148425614D01*
X55983682Y-148471000D01*
X56216318Y-148471000D01*
X56444485Y-148425614D01*
X56659413Y-148336588D01*
X56852843Y-148207342D01*
X57017342Y-148042843D01*
X57146588Y-147849413D01*
X57235614Y-147634485D01*
X57281000Y-147406318D01*
X57281000Y-147173682D01*
X57235614Y-146945515D01*
X57146588Y-146730587D01*
X57017342Y-146537157D01*
X56852843Y-146372658D01*
X56659413Y-146243412D01*
X56444485Y-146154386D01*
X56216318Y-146109000D01*
X55983682Y-146109000D01*
X55755515Y-146154386D01*
X55540587Y-146243412D01*
X55347157Y-146372658D01*
X55182658Y-146537157D01*
X55053412Y-146730587D01*
X55031486Y-146783520D01*
X51948232Y-146783520D01*
X51916298Y-146706423D01*
X51781580Y-146504803D01*
X51610117Y-146333340D01*
X51408497Y-146198622D01*
X51184469Y-146105827D01*
X50946643Y-146058520D01*
X50704157Y-146058520D01*
X50466331Y-146105827D01*
X50242303Y-146198622D01*
X50040683Y-146333340D01*
X49869220Y-146504803D01*
X49734502Y-146706423D01*
X49641707Y-146930451D01*
X49594400Y-147168277D01*
X47330976Y-147168277D01*
X46158776Y-145996078D01*
X46127271Y-145957689D01*
X46088887Y-145926188D01*
X45442843Y-145280145D01*
X45442843Y-144620000D01*
X45435487Y-144545311D01*
X45413701Y-144473492D01*
X45378322Y-144407304D01*
X45330711Y-144349289D01*
X45272696Y-144301678D01*
X45206508Y-144266299D01*
X45134689Y-144244513D01*
X45060000Y-144237157D01*
X43360000Y-144237157D01*
X43285311Y-144244513D01*
X43213492Y-144266299D01*
X43147304Y-144301678D01*
X43089289Y-144349289D01*
X43041678Y-144407304D01*
X43006299Y-144473492D01*
X42984513Y-144545311D01*
X42977157Y-144620000D01*
X42977157Y-145666480D01*
X42286080Y-145666480D01*
X42286080Y-142808757D01*
X42979000Y-142808757D01*
X42979000Y-143051243D01*
X43026307Y-143289069D01*
X43119102Y-143513097D01*
X43253820Y-143714717D01*
X43425283Y-143886180D01*
X43626903Y-144020898D01*
X43850931Y-144113693D01*
X44088757Y-144161000D01*
X44331243Y-144161000D01*
X44569069Y-144113693D01*
X44793097Y-144020898D01*
X44853647Y-143980440D01*
X49858772Y-143980440D01*
X49734502Y-144166423D01*
X49641707Y-144390451D01*
X49594400Y-144628277D01*
X49594400Y-144870763D01*
X49641707Y-145108589D01*
X49734502Y-145332617D01*
X49869220Y-145534237D01*
X50040683Y-145705700D01*
X50242303Y-145840418D01*
X50466331Y-145933213D01*
X50704157Y-145980520D01*
X50946643Y-145980520D01*
X51184469Y-145933213D01*
X51408497Y-145840418D01*
X51610117Y-145705700D01*
X51781580Y-145534237D01*
X51916298Y-145332617D01*
X51948232Y-145255520D01*
X55031089Y-145255520D01*
X55053412Y-145309413D01*
X55182658Y-145502843D01*
X55347157Y-145667342D01*
X55540587Y-145796588D01*
X55755515Y-145885614D01*
X55983682Y-145931000D01*
X56216318Y-145931000D01*
X56444485Y-145885614D01*
X56659413Y-145796588D01*
X56852843Y-145667342D01*
X57017342Y-145502843D01*
X57146588Y-145309413D01*
X57235614Y-145094485D01*
X57281000Y-144866318D01*
X57281000Y-144633682D01*
X70159000Y-144633682D01*
X70159000Y-144866318D01*
X70204386Y-145094485D01*
X70293412Y-145309413D01*
X70422658Y-145502843D01*
X70587157Y-145667342D01*
X70780587Y-145796588D01*
X70995515Y-145885614D01*
X71223682Y-145931000D01*
X71456318Y-145931000D01*
X71684485Y-145885614D01*
X71899413Y-145796588D01*
X72092843Y-145667342D01*
X72257342Y-145502843D01*
X72386588Y-145309413D01*
X72408712Y-145256000D01*
X79358482Y-145256000D01*
X79382512Y-145314013D01*
X79511758Y-145507443D01*
X79676257Y-145671942D01*
X79869687Y-145801188D01*
X80084615Y-145890214D01*
X80312782Y-145935600D01*
X80545418Y-145935600D01*
X80773585Y-145890214D01*
X80988513Y-145801188D01*
X81181943Y-145671942D01*
X81346442Y-145507443D01*
X81475688Y-145314013D01*
X81564714Y-145099085D01*
X81610100Y-144870918D01*
X81610100Y-144638282D01*
X81564714Y-144410115D01*
X81542590Y-144356702D01*
X82365892Y-143533400D01*
X88246091Y-143533400D01*
X88279102Y-143613097D01*
X88413820Y-143814717D01*
X88585283Y-143986180D01*
X88786903Y-144120898D01*
X89010931Y-144213693D01*
X89248757Y-144261000D01*
X89491243Y-144261000D01*
X89729069Y-144213693D01*
X89953097Y-144120898D01*
X90154717Y-143986180D01*
X90326180Y-143814717D01*
X90460898Y-143613097D01*
X90492832Y-143536000D01*
X93555154Y-143536000D01*
X93580000Y-143538447D01*
X93604846Y-143536000D01*
X93604854Y-143536000D01*
X93679193Y-143528678D01*
X93774575Y-143499745D01*
X93862479Y-143452759D01*
X93939527Y-143389527D01*
X93955376Y-143370215D01*
X95703833Y-141621758D01*
X95780931Y-141653693D01*
X96018757Y-141701000D01*
X96261243Y-141701000D01*
X96499069Y-141653693D01*
X96723097Y-141560898D01*
X96924717Y-141426180D01*
X97096180Y-141254717D01*
X97230898Y-141053097D01*
X97262832Y-140976000D01*
X99007168Y-140976000D01*
X99039102Y-141053097D01*
X99173820Y-141254717D01*
X99345283Y-141426180D01*
X99546903Y-141560898D01*
X99770931Y-141653693D01*
X100008757Y-141701000D01*
X100251243Y-141701000D01*
X100489069Y-141653693D01*
X100713097Y-141560898D01*
X100914717Y-141426180D01*
X101086180Y-141254717D01*
X101220898Y-141053097D01*
X101313693Y-140829069D01*
X101361000Y-140591243D01*
X101361000Y-140348757D01*
X101313693Y-140110931D01*
X101220898Y-139886903D01*
X101086180Y-139685283D01*
X100914717Y-139513820D01*
X100713097Y-139379102D01*
X100489069Y-139286307D01*
X100251243Y-139239000D01*
X100008757Y-139239000D01*
X99770931Y-139286307D01*
X99546903Y-139379102D01*
X99345283Y-139513820D01*
X99173820Y-139685283D01*
X99039102Y-139886903D01*
X99007168Y-139964000D01*
X97262832Y-139964000D01*
X97230898Y-139886903D01*
X97096180Y-139685283D01*
X96924717Y-139513820D01*
X96723097Y-139379102D01*
X96499069Y-139286307D01*
X96261243Y-139239000D01*
X96018757Y-139239000D01*
X95780931Y-139286307D01*
X95556903Y-139379102D01*
X95355283Y-139513820D01*
X95183820Y-139685283D01*
X95049102Y-139886903D01*
X94956307Y-140110931D01*
X94909000Y-140348757D01*
X94909000Y-140591243D01*
X94956307Y-140829069D01*
X94988242Y-140906167D01*
X93370409Y-142524000D01*
X90492832Y-142524000D01*
X90460898Y-142446903D01*
X90326180Y-142245283D01*
X90154717Y-142073820D01*
X89953097Y-141939102D01*
X89838838Y-141891775D01*
X89951851Y-141856266D01*
X90207216Y-141716500D01*
X90430407Y-141529600D01*
X90612847Y-141302749D01*
X90747526Y-141044665D01*
X90823525Y-140794126D01*
X90694239Y-140563000D01*
X89443000Y-140563000D01*
X89443000Y-140583000D01*
X89297000Y-140583000D01*
X89297000Y-140563000D01*
X88045761Y-140563000D01*
X87916475Y-140794126D01*
X87992474Y-141044665D01*
X88127153Y-141302749D01*
X88309593Y-141529600D01*
X88532784Y-141716500D01*
X88788149Y-141856266D01*
X88901162Y-141891775D01*
X88786903Y-141939102D01*
X88585283Y-142073820D01*
X88413820Y-142245283D01*
X88279102Y-142446903D01*
X88248244Y-142521400D01*
X82181154Y-142521400D01*
X82156300Y-142518952D01*
X82131446Y-142521400D01*
X82057107Y-142528722D01*
X81961725Y-142557655D01*
X81873821Y-142604641D01*
X81796773Y-142667873D01*
X81780928Y-142687180D01*
X80826998Y-143641110D01*
X80773585Y-143618986D01*
X80545418Y-143573600D01*
X80312782Y-143573600D01*
X80084615Y-143618986D01*
X79869687Y-143708012D01*
X79676257Y-143837258D01*
X79511758Y-144001757D01*
X79382512Y-144195187D01*
X79362293Y-144244000D01*
X72408712Y-144244000D01*
X72386588Y-144190587D01*
X72257342Y-143997157D01*
X72092843Y-143832658D01*
X71899413Y-143703412D01*
X71684485Y-143614386D01*
X71456318Y-143569000D01*
X71223682Y-143569000D01*
X70995515Y-143614386D01*
X70780587Y-143703412D01*
X70587157Y-143832658D01*
X70422658Y-143997157D01*
X70293412Y-144190587D01*
X70204386Y-144405515D01*
X70159000Y-144633682D01*
X57281000Y-144633682D01*
X57235614Y-144405515D01*
X57146588Y-144190587D01*
X57017342Y-143997157D01*
X57000625Y-143980440D01*
X70050714Y-143980440D01*
X70075560Y-143982887D01*
X70100406Y-143980440D01*
X70100414Y-143980440D01*
X70174753Y-143973118D01*
X70270135Y-143944185D01*
X70358039Y-143897199D01*
X70435087Y-143833967D01*
X70450936Y-143814655D01*
X70527130Y-143738461D01*
X70539792Y-143723033D01*
X70555220Y-143710371D01*
X70942102Y-143323490D01*
X70995515Y-143345614D01*
X71223682Y-143391000D01*
X71456318Y-143391000D01*
X71684485Y-143345614D01*
X71899413Y-143256588D01*
X72092843Y-143127342D01*
X72257342Y-142962843D01*
X72386588Y-142769413D01*
X72475614Y-142554485D01*
X72521000Y-142326318D01*
X72521000Y-142093682D01*
X72475614Y-141865515D01*
X72386588Y-141650587D01*
X72257342Y-141457157D01*
X72226716Y-141426531D01*
X86407734Y-141426531D01*
X86431963Y-141548339D01*
X86490837Y-141690472D01*
X86576308Y-141818389D01*
X86685091Y-141927172D01*
X86813008Y-142012643D01*
X86955141Y-142071517D01*
X87106028Y-142101530D01*
X87259872Y-142101530D01*
X87410759Y-142071517D01*
X87552892Y-142012643D01*
X87680809Y-141927172D01*
X87789592Y-141818389D01*
X87875063Y-141690472D01*
X87933937Y-141548339D01*
X87963950Y-141397452D01*
X87963950Y-141243608D01*
X87933937Y-141092721D01*
X87875063Y-140950588D01*
X87789592Y-140822671D01*
X87680809Y-140713888D01*
X87552892Y-140628417D01*
X87410759Y-140569543D01*
X87259872Y-140539530D01*
X87116312Y-140539530D01*
X87065430Y-140497772D01*
X86977526Y-140450786D01*
X86882144Y-140421853D01*
X86807805Y-140414531D01*
X86807797Y-140414531D01*
X86782951Y-140412084D01*
X86758105Y-140414531D01*
X72262896Y-140414531D01*
X72386588Y-140229413D01*
X72475614Y-140014485D01*
X72521000Y-139786318D01*
X72521000Y-139553682D01*
X72475614Y-139325515D01*
X72386588Y-139110587D01*
X72257342Y-138917157D01*
X72092843Y-138752658D01*
X71899413Y-138623412D01*
X71684485Y-138534386D01*
X71456318Y-138489000D01*
X71223682Y-138489000D01*
X70995515Y-138534386D01*
X70780587Y-138623412D01*
X70587157Y-138752658D01*
X70422658Y-138917157D01*
X70293412Y-139110587D01*
X70204386Y-139325515D01*
X70159000Y-139553682D01*
X70159000Y-139786318D01*
X70204386Y-140014485D01*
X70293412Y-140229413D01*
X70417104Y-140414531D01*
X57414323Y-140414531D01*
X57389469Y-140412083D01*
X57364615Y-140414531D01*
X57290276Y-140421853D01*
X57194894Y-140450786D01*
X57106990Y-140497772D01*
X57029942Y-140561004D01*
X57014097Y-140580311D01*
X56497898Y-141096510D01*
X56444485Y-141074386D01*
X56216318Y-141029000D01*
X55983682Y-141029000D01*
X55755515Y-141074386D01*
X55540587Y-141163412D01*
X55347157Y-141292658D01*
X55182658Y-141457157D01*
X55053412Y-141650587D01*
X54964386Y-141865515D01*
X54919000Y-142093682D01*
X54919000Y-142326318D01*
X54964386Y-142554485D01*
X55053412Y-142769413D01*
X55182658Y-142962843D01*
X55188255Y-142968440D01*
X52096337Y-142968440D01*
X52202926Y-142764185D01*
X52278925Y-142513646D01*
X52149639Y-142282520D01*
X50898400Y-142282520D01*
X50898400Y-142302520D01*
X50752400Y-142302520D01*
X50752400Y-142282520D01*
X49501161Y-142282520D01*
X49371875Y-142513646D01*
X49447874Y-142764185D01*
X49554463Y-142968440D01*
X45441000Y-142968440D01*
X45441000Y-142808757D01*
X45393693Y-142570931D01*
X45300898Y-142346903D01*
X45166180Y-142145283D01*
X44994717Y-141973820D01*
X44793097Y-141839102D01*
X44569069Y-141746307D01*
X44331243Y-141699000D01*
X44088757Y-141699000D01*
X43850931Y-141746307D01*
X43626903Y-141839102D01*
X43425283Y-141973820D01*
X43253820Y-142145283D01*
X43119102Y-142346903D01*
X43026307Y-142570931D01*
X42979000Y-142808757D01*
X42286080Y-142808757D01*
X42286080Y-138154126D01*
X42756475Y-138154126D01*
X42832474Y-138404665D01*
X42967153Y-138662749D01*
X43149593Y-138889600D01*
X43372784Y-139076500D01*
X43628149Y-139216266D01*
X43741162Y-139251775D01*
X43626903Y-139299102D01*
X43425283Y-139433820D01*
X43253820Y-139605283D01*
X43119102Y-139806903D01*
X43026307Y-140030931D01*
X42979000Y-140268757D01*
X42979000Y-140511243D01*
X43026307Y-140749069D01*
X43119102Y-140973097D01*
X43253820Y-141174717D01*
X43425283Y-141346180D01*
X43626903Y-141480898D01*
X43850931Y-141573693D01*
X44088757Y-141621000D01*
X44331243Y-141621000D01*
X44569069Y-141573693D01*
X44793097Y-141480898D01*
X44994717Y-141346180D01*
X45166180Y-141174717D01*
X45270360Y-141018800D01*
X49945456Y-141018800D01*
X49764993Y-141169920D01*
X49582553Y-141396771D01*
X49447874Y-141654855D01*
X49371875Y-141905394D01*
X49501161Y-142136520D01*
X50752400Y-142136520D01*
X50752400Y-142116520D01*
X50898400Y-142116520D01*
X50898400Y-142136520D01*
X52149639Y-142136520D01*
X52278925Y-141905394D01*
X52202926Y-141654855D01*
X52068247Y-141396771D01*
X51885807Y-141169920D01*
X51705344Y-141018800D01*
X55322956Y-141018800D01*
X55347802Y-141021247D01*
X55372648Y-141018800D01*
X55372656Y-141018800D01*
X55446995Y-141011478D01*
X55542377Y-140982545D01*
X55630281Y-140935559D01*
X55707329Y-140872327D01*
X55723178Y-140853015D01*
X55768080Y-140808113D01*
X55983682Y-140851000D01*
X56216318Y-140851000D01*
X56444485Y-140805614D01*
X56659413Y-140716588D01*
X56852843Y-140587342D01*
X57017342Y-140422843D01*
X57146588Y-140229413D01*
X57235614Y-140014485D01*
X57281000Y-139786318D01*
X57281000Y-139553682D01*
X57235614Y-139325515D01*
X57146588Y-139110587D01*
X57017342Y-138917157D01*
X56852843Y-138752658D01*
X56659413Y-138623412D01*
X56444485Y-138534386D01*
X56414316Y-138528385D01*
X56664524Y-138449298D01*
X56911059Y-138313815D01*
X57126426Y-138132839D01*
X57302348Y-137913324D01*
X57432064Y-137663706D01*
X57504078Y-137426294D01*
X57374161Y-137203000D01*
X56173000Y-137203000D01*
X56173000Y-137223000D01*
X56027000Y-137223000D01*
X56027000Y-137203000D01*
X54825839Y-137203000D01*
X54695922Y-137426294D01*
X54767936Y-137663706D01*
X54897652Y-137913324D01*
X55073574Y-138132839D01*
X55288941Y-138313815D01*
X55535476Y-138449298D01*
X55785684Y-138528385D01*
X55755515Y-138534386D01*
X55540587Y-138623412D01*
X55347157Y-138752658D01*
X55182658Y-138917157D01*
X55053412Y-139110587D01*
X54964386Y-139325515D01*
X54919000Y-139553682D01*
X54919000Y-139786318D01*
X54962857Y-140006800D01*
X45383698Y-140006800D01*
X45300898Y-139806903D01*
X45166180Y-139605283D01*
X44994717Y-139433820D01*
X44793097Y-139299102D01*
X44678838Y-139251775D01*
X44791851Y-139216266D01*
X45047216Y-139076500D01*
X45270407Y-138889600D01*
X45452847Y-138662749D01*
X45587526Y-138404665D01*
X45663525Y-138154126D01*
X45534239Y-137923000D01*
X44283000Y-137923000D01*
X44283000Y-137943000D01*
X44137000Y-137943000D01*
X44137000Y-137923000D01*
X42885761Y-137923000D01*
X42756475Y-138154126D01*
X42286080Y-138154126D01*
X42286080Y-137545874D01*
X42756475Y-137545874D01*
X42885761Y-137777000D01*
X44137000Y-137777000D01*
X44137000Y-136525543D01*
X44283000Y-136525543D01*
X44283000Y-137777000D01*
X45534239Y-137777000D01*
X45663525Y-137545874D01*
X45587526Y-137295335D01*
X45452847Y-137037251D01*
X45289151Y-136833706D01*
X54695922Y-136833706D01*
X54825839Y-137057000D01*
X56027000Y-137057000D01*
X56027000Y-137037000D01*
X56173000Y-137037000D01*
X56173000Y-137057000D01*
X57374161Y-137057000D01*
X57504078Y-136833706D01*
X57432064Y-136596294D01*
X57302348Y-136346676D01*
X57126426Y-136127161D01*
X56911059Y-135946185D01*
X56664524Y-135810702D01*
X56414316Y-135731615D01*
X56444485Y-135725614D01*
X56659413Y-135636588D01*
X56852843Y-135507342D01*
X57017342Y-135342843D01*
X57146588Y-135149413D01*
X57235614Y-134934485D01*
X57281000Y-134706318D01*
X57281000Y-134473682D01*
X57235614Y-134245515D01*
X57146588Y-134030587D01*
X57017342Y-133837157D01*
X56852843Y-133672658D01*
X56659413Y-133543412D01*
X56444485Y-133454386D01*
X56216318Y-133409000D01*
X55983682Y-133409000D01*
X55755515Y-133454386D01*
X55540587Y-133543412D01*
X55347157Y-133672658D01*
X55182658Y-133837157D01*
X55053412Y-134030587D01*
X54964386Y-134245515D01*
X54919000Y-134473682D01*
X54919000Y-134706318D01*
X54964386Y-134934485D01*
X55053412Y-135149413D01*
X55182658Y-135342843D01*
X55347157Y-135507342D01*
X55540587Y-135636588D01*
X55755515Y-135725614D01*
X55785684Y-135731615D01*
X55535476Y-135810702D01*
X55288941Y-135946185D01*
X55073574Y-136127161D01*
X54897652Y-136346676D01*
X54767936Y-136596294D01*
X54695922Y-136833706D01*
X45289151Y-136833706D01*
X45270407Y-136810400D01*
X45047216Y-136623500D01*
X44791851Y-136483734D01*
X44514126Y-136396473D01*
X44283000Y-136525543D01*
X44137000Y-136525543D01*
X43905874Y-136396473D01*
X43628149Y-136483734D01*
X43372784Y-136623500D01*
X43149593Y-136810400D01*
X42967153Y-137037251D01*
X42832474Y-137295335D01*
X42756475Y-137545874D01*
X42286080Y-137545874D01*
X42286080Y-135925698D01*
X42418139Y-135793640D01*
X45990626Y-135793640D01*
X46040040Y-135798507D01*
X46089454Y-135793640D01*
X46237250Y-135779083D01*
X46426882Y-135721559D01*
X46601648Y-135628145D01*
X46754831Y-135502431D01*
X46786336Y-135464042D01*
X50316696Y-131933682D01*
X54919000Y-131933682D01*
X54919000Y-132166318D01*
X54964386Y-132394485D01*
X55053412Y-132609413D01*
X55182658Y-132802843D01*
X55347157Y-132967342D01*
X55540587Y-133096588D01*
X55755515Y-133185614D01*
X55983682Y-133231000D01*
X56216318Y-133231000D01*
X56444485Y-133185614D01*
X56659413Y-133096588D01*
X56852843Y-132967342D01*
X57017342Y-132802843D01*
X57146588Y-132609413D01*
X57235614Y-132394485D01*
X57281000Y-132166318D01*
X57281000Y-131933682D01*
X57235614Y-131705515D01*
X57146588Y-131490587D01*
X57017342Y-131297157D01*
X56852843Y-131132658D01*
X56659413Y-131003412D01*
X56444485Y-130914386D01*
X56216318Y-130869000D01*
X55983682Y-130869000D01*
X55755515Y-130914386D01*
X55540587Y-131003412D01*
X55347157Y-131132658D01*
X55182658Y-131297157D01*
X55053412Y-131490587D01*
X54964386Y-131705515D01*
X54919000Y-131933682D01*
X50316696Y-131933682D01*
X53540378Y-128710000D01*
X54917157Y-128710000D01*
X54917157Y-130310000D01*
X54924513Y-130384689D01*
X54946299Y-130456508D01*
X54981678Y-130522696D01*
X55029289Y-130580711D01*
X55087304Y-130628322D01*
X55153492Y-130663701D01*
X55225311Y-130685487D01*
X55300000Y-130692843D01*
X56900000Y-130692843D01*
X56974689Y-130685487D01*
X57046508Y-130663701D01*
X57112696Y-130628322D01*
X57170711Y-130580711D01*
X57218322Y-130522696D01*
X57253701Y-130456508D01*
X57275487Y-130384689D01*
X57282843Y-130310000D01*
X57282843Y-128710000D01*
X57275487Y-128635311D01*
X57253701Y-128563492D01*
X57218322Y-128497304D01*
X57170711Y-128439289D01*
X57112696Y-128391678D01*
X57046508Y-128356299D01*
X56974689Y-128334513D01*
X56900000Y-128327157D01*
X55300000Y-128327157D01*
X55225311Y-128334513D01*
X55153492Y-128356299D01*
X55087304Y-128391678D01*
X55029289Y-128439289D01*
X54981678Y-128497304D01*
X54946299Y-128563492D01*
X54924513Y-128635311D01*
X54917157Y-128710000D01*
X53540378Y-128710000D01*
X54330739Y-127919640D01*
X66872982Y-127919640D01*
X67111720Y-128158379D01*
X67111721Y-136455256D01*
X67106853Y-136504680D01*
X67126277Y-136701889D01*
X67183801Y-136891521D01*
X67218958Y-136957294D01*
X67277216Y-137066288D01*
X67402930Y-137219471D01*
X67441314Y-137250972D01*
X67996744Y-137806402D01*
X68028249Y-137844791D01*
X68181432Y-137970505D01*
X68355040Y-138063300D01*
X68356198Y-138063919D01*
X68545830Y-138121443D01*
X68743039Y-138140867D01*
X68792453Y-138136000D01*
X70719843Y-138136000D01*
X70780587Y-138176588D01*
X70995515Y-138265614D01*
X71223682Y-138311000D01*
X71456318Y-138311000D01*
X71684485Y-138265614D01*
X71899413Y-138176588D01*
X72092843Y-138047342D01*
X72129185Y-138011000D01*
X85445030Y-138011000D01*
X85488300Y-138015262D01*
X85531570Y-138011000D01*
X88137157Y-138011000D01*
X88137157Y-138800000D01*
X88144513Y-138874689D01*
X88166299Y-138946508D01*
X88201678Y-139012696D01*
X88249289Y-139070711D01*
X88307304Y-139118322D01*
X88373492Y-139153701D01*
X88445311Y-139175487D01*
X88520000Y-139182843D01*
X88680152Y-139182843D01*
X88532784Y-139263500D01*
X88309593Y-139450400D01*
X88127153Y-139677251D01*
X87992474Y-139935335D01*
X87916475Y-140185874D01*
X88045761Y-140417000D01*
X89297000Y-140417000D01*
X89297000Y-140397000D01*
X89443000Y-140397000D01*
X89443000Y-140417000D01*
X90694239Y-140417000D01*
X90823525Y-140185874D01*
X90747526Y-139935335D01*
X90612847Y-139677251D01*
X90430407Y-139450400D01*
X90207216Y-139263500D01*
X90059848Y-139182843D01*
X90220000Y-139182843D01*
X90294689Y-139175487D01*
X90366508Y-139153701D01*
X90432696Y-139118322D01*
X90490711Y-139070711D01*
X90538322Y-139012696D01*
X90573701Y-138946508D01*
X90595487Y-138874689D01*
X90599790Y-138831000D01*
X94912180Y-138831000D01*
X94914513Y-138854689D01*
X94936299Y-138926508D01*
X94971678Y-138992696D01*
X95019289Y-139050711D01*
X95077304Y-139098322D01*
X95143492Y-139133701D01*
X95215311Y-139155487D01*
X95290000Y-139162843D01*
X96990000Y-139162843D01*
X97064689Y-139155487D01*
X97136508Y-139133701D01*
X97202696Y-139098322D01*
X97260711Y-139050711D01*
X97308322Y-138992696D01*
X97343701Y-138926508D01*
X97365487Y-138854689D01*
X97369790Y-138811000D01*
X98900210Y-138811000D01*
X98904513Y-138854689D01*
X98926299Y-138926508D01*
X98961678Y-138992696D01*
X99009289Y-139050711D01*
X99067304Y-139098322D01*
X99133492Y-139133701D01*
X99205311Y-139155487D01*
X99280000Y-139162843D01*
X100980000Y-139162843D01*
X101054689Y-139155487D01*
X101126508Y-139133701D01*
X101192696Y-139098322D01*
X101250711Y-139050711D01*
X101298322Y-138992696D01*
X101333701Y-138926508D01*
X101355487Y-138854689D01*
X101362843Y-138780000D01*
X101362843Y-137080000D01*
X101355487Y-137005311D01*
X101333701Y-136933492D01*
X101298322Y-136867304D01*
X101250711Y-136809289D01*
X101192696Y-136761678D01*
X101126508Y-136726299D01*
X101054689Y-136704513D01*
X100980000Y-136697157D01*
X99280000Y-136697157D01*
X99205311Y-136704513D01*
X99133492Y-136726299D01*
X99067304Y-136761678D01*
X99009289Y-136809289D01*
X98961678Y-136867304D01*
X98926299Y-136933492D01*
X98904513Y-137005311D01*
X98900210Y-137049000D01*
X97369790Y-137049000D01*
X97365487Y-137005311D01*
X97343701Y-136933492D01*
X97308322Y-136867304D01*
X97260711Y-136809289D01*
X97202696Y-136761678D01*
X97136508Y-136726299D01*
X97064689Y-136704513D01*
X96990000Y-136697157D01*
X95290000Y-136697157D01*
X95215311Y-136704513D01*
X95143492Y-136726299D01*
X95077304Y-136761678D01*
X95019289Y-136809289D01*
X94971678Y-136867304D01*
X94936299Y-136933492D01*
X94914513Y-137005311D01*
X94908240Y-137069000D01*
X90599790Y-137069000D01*
X90595487Y-137025311D01*
X90573701Y-136953492D01*
X90538322Y-136887304D01*
X90490711Y-136829289D01*
X90432696Y-136781678D01*
X90366508Y-136746299D01*
X90294689Y-136724513D01*
X90220000Y-136717157D01*
X89383078Y-136717157D01*
X89203565Y-136537644D01*
X89175975Y-136504025D01*
X89041825Y-136393932D01*
X88888775Y-136312125D01*
X88722706Y-136261748D01*
X88593273Y-136249000D01*
X88593270Y-136249000D01*
X88550000Y-136244738D01*
X88506730Y-136249000D01*
X85621906Y-136249000D01*
X85496399Y-136236638D01*
X85370894Y-136249000D01*
X84453000Y-136249000D01*
X84453000Y-135676012D01*
X84506413Y-135653888D01*
X84699843Y-135524642D01*
X84864342Y-135360143D01*
X84993588Y-135166713D01*
X85082614Y-134951785D01*
X85128000Y-134723618D01*
X85128000Y-134490982D01*
X85082614Y-134262815D01*
X84993588Y-134047887D01*
X84864342Y-133854457D01*
X84699843Y-133689958D01*
X84506413Y-133560712D01*
X84291485Y-133471686D01*
X84063318Y-133426300D01*
X83830682Y-133426300D01*
X83602515Y-133471686D01*
X83387587Y-133560712D01*
X83194157Y-133689958D01*
X83029658Y-133854457D01*
X82900412Y-134047887D01*
X82811386Y-134262815D01*
X82766000Y-134490982D01*
X82766000Y-134723618D01*
X82811386Y-134951785D01*
X82900412Y-135166713D01*
X83029658Y-135360143D01*
X83194157Y-135524642D01*
X83387587Y-135653888D01*
X83441000Y-135676013D01*
X83441001Y-136249000D01*
X80935100Y-136249000D01*
X80935100Y-135663312D01*
X80988513Y-135641188D01*
X81181943Y-135511942D01*
X81346442Y-135347443D01*
X81475688Y-135154013D01*
X81564714Y-134939085D01*
X81610100Y-134710918D01*
X81610100Y-134478282D01*
X81564714Y-134250115D01*
X81475688Y-134035187D01*
X81346442Y-133841757D01*
X81181943Y-133677258D01*
X80988513Y-133548012D01*
X80773585Y-133458986D01*
X80545418Y-133413600D01*
X80312782Y-133413600D01*
X80084615Y-133458986D01*
X79869687Y-133548012D01*
X79676257Y-133677258D01*
X79511758Y-133841757D01*
X79382512Y-134035187D01*
X79293486Y-134250115D01*
X79248100Y-134478282D01*
X79248100Y-134710918D01*
X79293486Y-134939085D01*
X79382512Y-135154013D01*
X79511758Y-135347443D01*
X79676257Y-135511942D01*
X79869687Y-135641188D01*
X79923100Y-135663313D01*
X79923101Y-136249000D01*
X76912409Y-136249000D01*
X76929471Y-136217079D01*
X76965483Y-136098362D01*
X76977643Y-135974900D01*
X76977643Y-135474900D01*
X76965483Y-135351438D01*
X76929471Y-135232721D01*
X76870990Y-135123311D01*
X76792288Y-135027412D01*
X76701020Y-134952511D01*
X76719282Y-134950712D01*
X76838980Y-134914402D01*
X76949294Y-134855437D01*
X77045985Y-134776085D01*
X77125337Y-134679394D01*
X77184302Y-134569080D01*
X77220612Y-134449382D01*
X77232872Y-134324900D01*
X77229800Y-134056650D01*
X77071050Y-133897900D01*
X75942800Y-133897900D01*
X75942800Y-133917900D01*
X75796800Y-133917900D01*
X75796800Y-133897900D01*
X74668550Y-133897900D01*
X74509800Y-134056650D01*
X74506728Y-134324900D01*
X74518988Y-134449382D01*
X74555298Y-134569080D01*
X74614263Y-134679394D01*
X74693615Y-134776085D01*
X74790306Y-134855437D01*
X74900620Y-134914402D01*
X75020318Y-134950712D01*
X75038580Y-134952511D01*
X74947312Y-135027412D01*
X74868610Y-135123311D01*
X74810129Y-135232721D01*
X74774117Y-135351438D01*
X74761957Y-135474900D01*
X74761957Y-135974900D01*
X74774117Y-136098362D01*
X74810129Y-136217079D01*
X74827191Y-136249000D01*
X72129185Y-136249000D01*
X72092843Y-136212658D01*
X71899413Y-136083412D01*
X71684485Y-135994386D01*
X71456318Y-135949000D01*
X71223682Y-135949000D01*
X70995515Y-135994386D01*
X70780587Y-136083412D01*
X70719843Y-136124000D01*
X69159738Y-136124000D01*
X69123720Y-136087982D01*
X69123720Y-132346294D01*
X69935922Y-132346294D01*
X70007936Y-132583706D01*
X70137652Y-132833324D01*
X70313574Y-133052839D01*
X70528941Y-133233815D01*
X70775476Y-133369298D01*
X71025684Y-133448385D01*
X70995515Y-133454386D01*
X70780587Y-133543412D01*
X70587157Y-133672658D01*
X70422658Y-133837157D01*
X70293412Y-134030587D01*
X70204386Y-134245515D01*
X70159000Y-134473682D01*
X70159000Y-134706318D01*
X70204386Y-134934485D01*
X70293412Y-135149413D01*
X70422658Y-135342843D01*
X70587157Y-135507342D01*
X70780587Y-135636588D01*
X70995515Y-135725614D01*
X71223682Y-135771000D01*
X71456318Y-135771000D01*
X71684485Y-135725614D01*
X71899413Y-135636588D01*
X72092843Y-135507342D01*
X72257342Y-135342843D01*
X72386588Y-135149413D01*
X72475614Y-134934485D01*
X72521000Y-134706318D01*
X72521000Y-134473682D01*
X72475614Y-134245515D01*
X72386588Y-134030587D01*
X72257342Y-133837157D01*
X72092843Y-133672658D01*
X71899413Y-133543412D01*
X71684485Y-133454386D01*
X71654316Y-133448385D01*
X71904524Y-133369298D01*
X71985313Y-133324900D01*
X74506728Y-133324900D01*
X74509800Y-133593150D01*
X74668550Y-133751900D01*
X75796800Y-133751900D01*
X75796800Y-132848650D01*
X75942800Y-132848650D01*
X75942800Y-133751900D01*
X77071050Y-133751900D01*
X77229800Y-133593150D01*
X77232872Y-133324900D01*
X77220612Y-133200418D01*
X77184302Y-133080720D01*
X77125337Y-132970406D01*
X77045985Y-132873715D01*
X76949294Y-132794363D01*
X76838980Y-132735398D01*
X76719282Y-132699088D01*
X76594800Y-132686828D01*
X76101550Y-132689900D01*
X75942800Y-132848650D01*
X75796800Y-132848650D01*
X75638050Y-132689900D01*
X75144800Y-132686828D01*
X75020318Y-132699088D01*
X74900620Y-132735398D01*
X74790306Y-132794363D01*
X74693615Y-132873715D01*
X74614263Y-132970406D01*
X74555298Y-133080720D01*
X74518988Y-133200418D01*
X74506728Y-133324900D01*
X71985313Y-133324900D01*
X72151059Y-133233815D01*
X72366426Y-133052839D01*
X72542348Y-132833324D01*
X72672064Y-132583706D01*
X72744078Y-132346294D01*
X72614161Y-132123000D01*
X71413000Y-132123000D01*
X71413000Y-132143000D01*
X71267000Y-132143000D01*
X71267000Y-132123000D01*
X70065839Y-132123000D01*
X69935922Y-132346294D01*
X69123720Y-132346294D01*
X69123720Y-131753706D01*
X69935922Y-131753706D01*
X70065839Y-131977000D01*
X71267000Y-131977000D01*
X71267000Y-131957000D01*
X71413000Y-131957000D01*
X71413000Y-131977000D01*
X72614161Y-131977000D01*
X72744078Y-131753706D01*
X72672064Y-131516294D01*
X72542348Y-131266676D01*
X72366426Y-131047161D01*
X72151059Y-130866185D01*
X71904524Y-130730702D01*
X71654316Y-130651615D01*
X71684485Y-130645614D01*
X71899413Y-130556588D01*
X72092843Y-130427342D01*
X72257342Y-130262843D01*
X72386588Y-130069413D01*
X72475614Y-129854485D01*
X72521000Y-129626318D01*
X72521000Y-129393682D01*
X72475614Y-129165515D01*
X72386588Y-128950587D01*
X72257342Y-128757157D01*
X72092843Y-128592658D01*
X71899413Y-128463412D01*
X71684485Y-128374386D01*
X71456318Y-128329000D01*
X71223682Y-128329000D01*
X70995515Y-128374386D01*
X70780587Y-128463412D01*
X70587157Y-128592658D01*
X70422658Y-128757157D01*
X70293412Y-128950587D01*
X70204386Y-129165515D01*
X70159000Y-129393682D01*
X70159000Y-129626318D01*
X70204386Y-129854485D01*
X70293412Y-130069413D01*
X70422658Y-130262843D01*
X70587157Y-130427342D01*
X70780587Y-130556588D01*
X70995515Y-130645614D01*
X71025684Y-130651615D01*
X70775476Y-130730702D01*
X70528941Y-130866185D01*
X70313574Y-131047161D01*
X70137652Y-131266676D01*
X70007936Y-131516294D01*
X69935922Y-131753706D01*
X69123720Y-131753706D01*
X69123720Y-127791086D01*
X69128586Y-127741679D01*
X69123720Y-127692272D01*
X69123720Y-127692266D01*
X69122687Y-127681774D01*
X94769000Y-127681774D01*
X94769000Y-128318226D01*
X94893166Y-128942448D01*
X95136725Y-129530452D01*
X95490319Y-130059642D01*
X95940358Y-130509681D01*
X96469548Y-130863275D01*
X97057552Y-131106834D01*
X97681774Y-131231000D01*
X98318226Y-131231000D01*
X98942448Y-131106834D01*
X99530452Y-130863275D01*
X100059642Y-130509681D01*
X100509681Y-130059642D01*
X100863275Y-129530452D01*
X101106834Y-128942448D01*
X101231000Y-128318226D01*
X101231000Y-127681774D01*
X101106834Y-127057552D01*
X100863275Y-126469548D01*
X100509681Y-125940358D01*
X100059642Y-125490319D01*
X99530452Y-125136725D01*
X98942448Y-124893166D01*
X98318226Y-124769000D01*
X97681774Y-124769000D01*
X97057552Y-124893166D01*
X96469548Y-125136725D01*
X95940358Y-125490319D01*
X95490319Y-125940358D01*
X95136725Y-126469548D01*
X94893166Y-127057552D01*
X94769000Y-127681774D01*
X69122687Y-127681774D01*
X69109163Y-127544470D01*
X69108452Y-127542124D01*
X69088165Y-127475248D01*
X69051639Y-127354838D01*
X68958225Y-127180072D01*
X68832511Y-127026889D01*
X68794127Y-126995388D01*
X68035976Y-126237238D01*
X68004471Y-126198849D01*
X67851288Y-126073135D01*
X67676522Y-125979721D01*
X67486890Y-125922197D01*
X67339094Y-125907640D01*
X67289680Y-125902773D01*
X67240266Y-125907640D01*
X53963454Y-125907640D01*
X53914040Y-125902773D01*
X53831192Y-125910933D01*
X53716830Y-125922197D01*
X53527198Y-125979721D01*
X53352432Y-126073135D01*
X53199249Y-126198849D01*
X53167748Y-126237233D01*
X45623342Y-133781640D01*
X42050853Y-133781640D01*
X42001439Y-133776773D01*
X41804229Y-133796197D01*
X41760094Y-133809586D01*
X41614598Y-133853721D01*
X41439832Y-133947135D01*
X41286649Y-134072849D01*
X41255149Y-134111232D01*
X40603673Y-134762709D01*
X40565290Y-134794209D01*
X40439576Y-134947392D01*
X40419554Y-134984851D01*
X40346161Y-135122159D01*
X40288637Y-135311791D01*
X40269213Y-135509000D01*
X38406000Y-135509000D01*
X38406000Y-128018085D01*
X38436014Y-127681774D01*
X39769000Y-127681774D01*
X39769000Y-128318226D01*
X39893166Y-128942448D01*
X40136725Y-129530452D01*
X40490319Y-130059642D01*
X40940358Y-130509681D01*
X41469548Y-130863275D01*
X42057552Y-131106834D01*
X42681774Y-131231000D01*
X43318226Y-131231000D01*
X43942448Y-131106834D01*
X44530452Y-130863275D01*
X45059642Y-130509681D01*
X45509681Y-130059642D01*
X45863275Y-129530452D01*
X46106834Y-128942448D01*
X46231000Y-128318226D01*
X46231000Y-127681774D01*
X46106834Y-127057552D01*
X45863275Y-126469548D01*
X45509681Y-125940358D01*
X45059642Y-125490319D01*
X44530452Y-125136725D01*
X43942448Y-124893166D01*
X43318226Y-124769000D01*
X42681774Y-124769000D01*
X42057552Y-124893166D01*
X41469548Y-125136725D01*
X40940358Y-125490319D01*
X40490319Y-125940358D01*
X40136725Y-126469548D01*
X39893166Y-127057552D01*
X39769000Y-127681774D01*
X38436014Y-127681774D01*
X38480194Y-127186754D01*
X38695638Y-126399227D01*
X39047141Y-125662284D01*
X39523587Y-124999240D01*
X40109919Y-124431044D01*
X40787600Y-123975662D01*
X41535216Y-123647481D01*
X42332251Y-123456130D01*
X43014937Y-123405997D01*
X97981948Y-123395993D01*
X98813245Y-123470184D01*
%TA.AperFunction,Conductor*%
D24*
G36*
X98813245Y-123470184D02*
G01*
X99600779Y-123685629D01*
X100337719Y-124037131D01*
X101000770Y-124513582D01*
X101568962Y-125099910D01*
X102024347Y-125777595D01*
X102352529Y-126525213D01*
X102543833Y-127322053D01*
X102594001Y-128014695D01*
X102594000Y-167981915D01*
X102519806Y-168813246D01*
X102304362Y-169600774D01*
X101952859Y-170337716D01*
X101476413Y-171000760D01*
X100890081Y-171568956D01*
X100212400Y-172024338D01*
X99464784Y-172352519D01*
X98667749Y-172543870D01*
X97985108Y-172594000D01*
X43018085Y-172594000D01*
X42186754Y-172519806D01*
X41399226Y-172304362D01*
X40662284Y-171952859D01*
X39999240Y-171476413D01*
X39431044Y-170890081D01*
X38975662Y-170212400D01*
X38647481Y-169464784D01*
X38456130Y-168667749D01*
X38406000Y-167985108D01*
X38406000Y-167681774D01*
X39769000Y-167681774D01*
X39769000Y-168318226D01*
X39893166Y-168942448D01*
X40136725Y-169530452D01*
X40490319Y-170059642D01*
X40940358Y-170509681D01*
X41469548Y-170863275D01*
X42057552Y-171106834D01*
X42681774Y-171231000D01*
X43318226Y-171231000D01*
X43942448Y-171106834D01*
X44530452Y-170863275D01*
X45059642Y-170509681D01*
X45509681Y-170059642D01*
X45863275Y-169530452D01*
X46106834Y-168942448D01*
X46231000Y-168318226D01*
X46231000Y-167681774D01*
X94769000Y-167681774D01*
X94769000Y-168318226D01*
X94893166Y-168942448D01*
X95136725Y-169530452D01*
X95490319Y-170059642D01*
X95940358Y-170509681D01*
X96469548Y-170863275D01*
X97057552Y-171106834D01*
X97681774Y-171231000D01*
X98318226Y-171231000D01*
X98942448Y-171106834D01*
X99530452Y-170863275D01*
X100059642Y-170509681D01*
X100509681Y-170059642D01*
X100863275Y-169530452D01*
X101106834Y-168942448D01*
X101231000Y-168318226D01*
X101231000Y-167681774D01*
X101106834Y-167057552D01*
X100863275Y-166469548D01*
X100509681Y-165940358D01*
X100059642Y-165490319D01*
X99530452Y-165136725D01*
X98942448Y-164893166D01*
X98318226Y-164769000D01*
X97681774Y-164769000D01*
X97057552Y-164893166D01*
X96469548Y-165136725D01*
X95940358Y-165490319D01*
X95490319Y-165940358D01*
X95136725Y-166469548D01*
X94893166Y-167057552D01*
X94769000Y-167681774D01*
X46231000Y-167681774D01*
X46106834Y-167057552D01*
X45863275Y-166469548D01*
X45509681Y-165940358D01*
X45059642Y-165490319D01*
X44530452Y-165136725D01*
X44088547Y-164953682D01*
X54919000Y-164953682D01*
X54919000Y-165186318D01*
X54964386Y-165414485D01*
X55053412Y-165629413D01*
X55182658Y-165822843D01*
X55347157Y-165987342D01*
X55540587Y-166116588D01*
X55755515Y-166205614D01*
X55983682Y-166251000D01*
X56216318Y-166251000D01*
X56444485Y-166205614D01*
X56659413Y-166116588D01*
X56852843Y-165987342D01*
X57017342Y-165822843D01*
X57146588Y-165629413D01*
X57235614Y-165414485D01*
X57281000Y-165186318D01*
X57281000Y-164953682D01*
X70159000Y-164953682D01*
X70159000Y-165186318D01*
X70204386Y-165414485D01*
X70293412Y-165629413D01*
X70422658Y-165822843D01*
X70587157Y-165987342D01*
X70780587Y-166116588D01*
X70995515Y-166205614D01*
X71223682Y-166251000D01*
X71456318Y-166251000D01*
X71684485Y-166205614D01*
X71899413Y-166116588D01*
X72092843Y-165987342D01*
X72257342Y-165822843D01*
X72386588Y-165629413D01*
X72475614Y-165414485D01*
X72521000Y-165186318D01*
X72521000Y-164953682D01*
X72475614Y-164725515D01*
X72386588Y-164510587D01*
X72276107Y-164345240D01*
X73292608Y-164345240D01*
X73304868Y-164469722D01*
X73341178Y-164589420D01*
X73400143Y-164699734D01*
X73479495Y-164796425D01*
X73576186Y-164875777D01*
X73686500Y-164934742D01*
X73806198Y-164971052D01*
X73930680Y-164983312D01*
X74423930Y-164980240D01*
X74582680Y-164821490D01*
X74582680Y-163918240D01*
X74728680Y-163918240D01*
X74728680Y-164821490D01*
X74887430Y-164980240D01*
X75380680Y-164983312D01*
X75505162Y-164971052D01*
X75624860Y-164934742D01*
X75735174Y-164875777D01*
X75831865Y-164796425D01*
X75911217Y-164699734D01*
X75970182Y-164589420D01*
X76006492Y-164469722D01*
X76018752Y-164345240D01*
X76015680Y-164076990D01*
X75856930Y-163918240D01*
X74728680Y-163918240D01*
X74582680Y-163918240D01*
X73454430Y-163918240D01*
X73295680Y-164076990D01*
X73292608Y-164345240D01*
X72276107Y-164345240D01*
X72257342Y-164317157D01*
X72092843Y-164152658D01*
X71899413Y-164023412D01*
X71684485Y-163934386D01*
X71456318Y-163889000D01*
X71223682Y-163889000D01*
X70995515Y-163934386D01*
X70780587Y-164023412D01*
X70587157Y-164152658D01*
X70422658Y-164317157D01*
X70293412Y-164510587D01*
X70204386Y-164725515D01*
X70159000Y-164953682D01*
X57281000Y-164953682D01*
X57235614Y-164725515D01*
X57146588Y-164510587D01*
X57017342Y-164317157D01*
X56852843Y-164152658D01*
X56659413Y-164023412D01*
X56444485Y-163934386D01*
X56216318Y-163889000D01*
X55983682Y-163889000D01*
X55755515Y-163934386D01*
X55540587Y-164023412D01*
X55347157Y-164152658D01*
X55182658Y-164317157D01*
X55053412Y-164510587D01*
X54964386Y-164725515D01*
X54919000Y-164953682D01*
X44088547Y-164953682D01*
X43942448Y-164893166D01*
X43318226Y-164769000D01*
X42681774Y-164769000D01*
X42057552Y-164893166D01*
X41469548Y-165136725D01*
X40940358Y-165490319D01*
X40490319Y-165940358D01*
X40136725Y-166469548D01*
X39893166Y-167057552D01*
X39769000Y-167681774D01*
X38406000Y-167681774D01*
X38406000Y-162413682D01*
X54919000Y-162413682D01*
X54919000Y-162646318D01*
X54964386Y-162874485D01*
X55053412Y-163089413D01*
X55182658Y-163282843D01*
X55347157Y-163447342D01*
X55540587Y-163576588D01*
X55755515Y-163665614D01*
X55983682Y-163711000D01*
X56216318Y-163711000D01*
X56444485Y-163665614D01*
X56659413Y-163576588D01*
X56852843Y-163447342D01*
X57017342Y-163282843D01*
X57146588Y-163089413D01*
X57235614Y-162874485D01*
X57281000Y-162646318D01*
X57281000Y-162413682D01*
X70159000Y-162413682D01*
X70159000Y-162646318D01*
X70204386Y-162874485D01*
X70293412Y-163089413D01*
X70422658Y-163282843D01*
X70587157Y-163447342D01*
X70780587Y-163576588D01*
X70995515Y-163665614D01*
X71223682Y-163711000D01*
X71456318Y-163711000D01*
X71684485Y-163665614D01*
X71899413Y-163576588D01*
X72092843Y-163447342D01*
X72257342Y-163282843D01*
X72386588Y-163089413D01*
X72475614Y-162874485D01*
X72521000Y-162646318D01*
X72521000Y-162413682D01*
X72475614Y-162185515D01*
X72386588Y-161970587D01*
X72257342Y-161777157D01*
X72092843Y-161612658D01*
X71899413Y-161483412D01*
X71684485Y-161394386D01*
X71456318Y-161349000D01*
X71223682Y-161349000D01*
X70995515Y-161394386D01*
X70780587Y-161483412D01*
X70587157Y-161612658D01*
X70422658Y-161777157D01*
X70293412Y-161970587D01*
X70204386Y-162185515D01*
X70159000Y-162413682D01*
X57281000Y-162413682D01*
X57235614Y-162185515D01*
X57146588Y-161970587D01*
X57017342Y-161777157D01*
X56852843Y-161612658D01*
X56659413Y-161483412D01*
X56444485Y-161394386D01*
X56216318Y-161349000D01*
X55983682Y-161349000D01*
X55755515Y-161394386D01*
X55540587Y-161483412D01*
X55347157Y-161612658D01*
X55182658Y-161777157D01*
X55053412Y-161970587D01*
X54964386Y-162185515D01*
X54919000Y-162413682D01*
X38406000Y-162413682D01*
X38406000Y-159873682D01*
X54919000Y-159873682D01*
X54919000Y-160106318D01*
X54964386Y-160334485D01*
X55053412Y-160549413D01*
X55182658Y-160742843D01*
X55347157Y-160907342D01*
X55540587Y-161036588D01*
X55755515Y-161125614D01*
X55983682Y-161171000D01*
X56216318Y-161171000D01*
X56444485Y-161125614D01*
X56659413Y-161036588D01*
X56852843Y-160907342D01*
X57017342Y-160742843D01*
X57146588Y-160549413D01*
X57235614Y-160334485D01*
X57281000Y-160106318D01*
X57281000Y-159873682D01*
X70159000Y-159873682D01*
X70159000Y-160106318D01*
X70204386Y-160334485D01*
X70293412Y-160549413D01*
X70422658Y-160742843D01*
X70587157Y-160907342D01*
X70780587Y-161036588D01*
X70995515Y-161125614D01*
X71223682Y-161171000D01*
X71456318Y-161171000D01*
X71684485Y-161125614D01*
X71899413Y-161036588D01*
X72092843Y-160907342D01*
X72106317Y-160893868D01*
X72273708Y-161061260D01*
X72289553Y-161080567D01*
X72366601Y-161143799D01*
X72428347Y-161176803D01*
X72454505Y-161190785D01*
X72549887Y-161219718D01*
X72649080Y-161229488D01*
X72673934Y-161227040D01*
X73758430Y-161227040D01*
X73733192Y-161247752D01*
X73654490Y-161343651D01*
X73596009Y-161453061D01*
X73559997Y-161571778D01*
X73547837Y-161695240D01*
X73547837Y-162195240D01*
X73559997Y-162318702D01*
X73596009Y-162437419D01*
X73654490Y-162546829D01*
X73733192Y-162642728D01*
X73824460Y-162717629D01*
X73806198Y-162719428D01*
X73686500Y-162755738D01*
X73576186Y-162814703D01*
X73479495Y-162894055D01*
X73400143Y-162990746D01*
X73341178Y-163101060D01*
X73304868Y-163220758D01*
X73292608Y-163345240D01*
X73295680Y-163613490D01*
X73454430Y-163772240D01*
X74582680Y-163772240D01*
X74582680Y-163752240D01*
X74728680Y-163752240D01*
X74728680Y-163772240D01*
X75856930Y-163772240D01*
X76015680Y-163613490D01*
X76018752Y-163345240D01*
X76006492Y-163220758D01*
X75970182Y-163101060D01*
X75911217Y-162990746D01*
X75831865Y-162894055D01*
X75735174Y-162814703D01*
X75624860Y-162755738D01*
X75505162Y-162719428D01*
X75486900Y-162717629D01*
X75578168Y-162642728D01*
X75656870Y-162546829D01*
X75715351Y-162437419D01*
X75751363Y-162318702D01*
X75763523Y-162195240D01*
X75763523Y-161695240D01*
X75751363Y-161571778D01*
X75715351Y-161453061D01*
X75656870Y-161343651D01*
X75578168Y-161247752D01*
X75482269Y-161169050D01*
X75372859Y-161110569D01*
X75254142Y-161074557D01*
X75161680Y-161065450D01*
X75161680Y-161035454D01*
X75164128Y-161010600D01*
X75154358Y-160911407D01*
X75125425Y-160816025D01*
X75118848Y-160803720D01*
X75078439Y-160728121D01*
X75015207Y-160651073D01*
X74995895Y-160635224D01*
X74741496Y-160380825D01*
X74725647Y-160361513D01*
X74648599Y-160298281D01*
X74560695Y-160251295D01*
X74465313Y-160222362D01*
X74390974Y-160215040D01*
X74390966Y-160215040D01*
X74366120Y-160212593D01*
X74341274Y-160215040D01*
X72858672Y-160215040D01*
X72521000Y-159877369D01*
X72521000Y-159873682D01*
X72475614Y-159645515D01*
X72386588Y-159430587D01*
X72257342Y-159237157D01*
X72092843Y-159072658D01*
X71899413Y-158943412D01*
X71684485Y-158854386D01*
X71456318Y-158809000D01*
X71223682Y-158809000D01*
X70995515Y-158854386D01*
X70780587Y-158943412D01*
X70587157Y-159072658D01*
X70422658Y-159237157D01*
X70293412Y-159430587D01*
X70204386Y-159645515D01*
X70159000Y-159873682D01*
X57281000Y-159873682D01*
X57235614Y-159645515D01*
X57146588Y-159430587D01*
X57017342Y-159237157D01*
X56852843Y-159072658D01*
X56659413Y-158943412D01*
X56444485Y-158854386D01*
X56216318Y-158809000D01*
X55983682Y-158809000D01*
X55755515Y-158854386D01*
X55540587Y-158943412D01*
X55347157Y-159072658D01*
X55182658Y-159237157D01*
X55053412Y-159430587D01*
X54964386Y-159645515D01*
X54919000Y-159873682D01*
X38406000Y-159873682D01*
X38406000Y-159101360D01*
X44321928Y-159101360D01*
X44334188Y-159225842D01*
X44370498Y-159345540D01*
X44429463Y-159455854D01*
X44508815Y-159552545D01*
X44605506Y-159631897D01*
X44715820Y-159690862D01*
X44835518Y-159727172D01*
X44960000Y-159739432D01*
X48028250Y-159736360D01*
X48187000Y-159577610D01*
X48187000Y-158274360D01*
X48333000Y-158274360D01*
X48333000Y-159577610D01*
X48491750Y-159736360D01*
X51560000Y-159739432D01*
X51684482Y-159727172D01*
X51804180Y-159690862D01*
X51914494Y-159631897D01*
X52011185Y-159552545D01*
X52090537Y-159455854D01*
X52149502Y-159345540D01*
X52185812Y-159225842D01*
X52198072Y-159101360D01*
X52195000Y-158433110D01*
X52036250Y-158274360D01*
X48333000Y-158274360D01*
X48187000Y-158274360D01*
X44483750Y-158274360D01*
X44325000Y-158433110D01*
X44321928Y-159101360D01*
X38406000Y-159101360D01*
X38406000Y-157301360D01*
X44321928Y-157301360D01*
X44325000Y-157969610D01*
X44483750Y-158128360D01*
X48187000Y-158128360D01*
X48187000Y-156825110D01*
X48333000Y-156825110D01*
X48333000Y-158128360D01*
X52036250Y-158128360D01*
X52195000Y-157969610D01*
X52197923Y-157333682D01*
X54919000Y-157333682D01*
X54919000Y-157566318D01*
X54964386Y-157794485D01*
X55053412Y-158009413D01*
X55182658Y-158202843D01*
X55347157Y-158367342D01*
X55540587Y-158496588D01*
X55755515Y-158585614D01*
X55983682Y-158631000D01*
X56216318Y-158631000D01*
X56444485Y-158585614D01*
X56659413Y-158496588D01*
X56852843Y-158367342D01*
X57017342Y-158202843D01*
X57146588Y-158009413D01*
X57235614Y-157794485D01*
X57281000Y-157566318D01*
X57281000Y-157333682D01*
X70159000Y-157333682D01*
X70159000Y-157566318D01*
X70204386Y-157794485D01*
X70293412Y-158009413D01*
X70422658Y-158202843D01*
X70587157Y-158367342D01*
X70780587Y-158496588D01*
X70995515Y-158585614D01*
X71223682Y-158631000D01*
X71456318Y-158631000D01*
X71684485Y-158585614D01*
X71899413Y-158496588D01*
X72092843Y-158367342D01*
X72257342Y-158202843D01*
X72386588Y-158009413D01*
X72408712Y-157956000D01*
X73610909Y-157956000D01*
X80295028Y-164640120D01*
X80310873Y-164659427D01*
X80387921Y-164722659D01*
X80475825Y-164769645D01*
X80549007Y-164791844D01*
X80571206Y-164798578D01*
X80581094Y-164799552D01*
X80645546Y-164805900D01*
X80645553Y-164805900D01*
X80670399Y-164808347D01*
X80695245Y-164805900D01*
X81846268Y-164805900D01*
X81878202Y-164882997D01*
X82012920Y-165084617D01*
X82184383Y-165256080D01*
X82386003Y-165390798D01*
X82610031Y-165483593D01*
X82847857Y-165530900D01*
X83090343Y-165530900D01*
X83328169Y-165483593D01*
X83552197Y-165390798D01*
X83753817Y-165256080D01*
X83925280Y-165084617D01*
X84059998Y-164882997D01*
X84152793Y-164658969D01*
X84200100Y-164421143D01*
X84200100Y-164178657D01*
X84152793Y-163940831D01*
X84059998Y-163716803D01*
X83925280Y-163515183D01*
X83753817Y-163343720D01*
X83552197Y-163209002D01*
X83328169Y-163116207D01*
X83090343Y-163068900D01*
X82847857Y-163068900D01*
X82610031Y-163116207D01*
X82386003Y-163209002D01*
X82184383Y-163343720D01*
X82012920Y-163515183D01*
X81878202Y-163716803D01*
X81846268Y-163793900D01*
X80879992Y-163793900D01*
X74195876Y-157109785D01*
X74180027Y-157090473D01*
X74102979Y-157027241D01*
X74015075Y-156980255D01*
X73919693Y-156951322D01*
X73845354Y-156944000D01*
X73845346Y-156944000D01*
X73820500Y-156941553D01*
X73795654Y-156944000D01*
X72408712Y-156944000D01*
X72386588Y-156890587D01*
X72257342Y-156697157D01*
X72092843Y-156532658D01*
X71899413Y-156403412D01*
X71684485Y-156314386D01*
X71456318Y-156269000D01*
X71223682Y-156269000D01*
X70995515Y-156314386D01*
X70780587Y-156403412D01*
X70587157Y-156532658D01*
X70422658Y-156697157D01*
X70293412Y-156890587D01*
X70204386Y-157105515D01*
X70159000Y-157333682D01*
X57281000Y-157333682D01*
X57235614Y-157105515D01*
X57146588Y-156890587D01*
X57017342Y-156697157D01*
X56852843Y-156532658D01*
X56659413Y-156403412D01*
X56444485Y-156314386D01*
X56216318Y-156269000D01*
X55983682Y-156269000D01*
X55755515Y-156314386D01*
X55540587Y-156403412D01*
X55347157Y-156532658D01*
X55182658Y-156697157D01*
X55053412Y-156890587D01*
X54964386Y-157105515D01*
X54919000Y-157333682D01*
X52197923Y-157333682D01*
X52198072Y-157301360D01*
X52185812Y-157176878D01*
X52149502Y-157057180D01*
X52090537Y-156946866D01*
X52011185Y-156850175D01*
X51914494Y-156770823D01*
X51804180Y-156711858D01*
X51684482Y-156675548D01*
X51560000Y-156663288D01*
X48491750Y-156666360D01*
X48333000Y-156825110D01*
X48187000Y-156825110D01*
X48028250Y-156666360D01*
X44960000Y-156663288D01*
X44835518Y-156675548D01*
X44715820Y-156711858D01*
X44605506Y-156770823D01*
X44508815Y-156850175D01*
X44429463Y-156946866D01*
X44370498Y-157057180D01*
X44334188Y-157176878D01*
X44321928Y-157301360D01*
X38406000Y-157301360D01*
X38406000Y-154793682D01*
X54919000Y-154793682D01*
X54919000Y-155026318D01*
X54964386Y-155254485D01*
X55053412Y-155469413D01*
X55182658Y-155662843D01*
X55347157Y-155827342D01*
X55540587Y-155956588D01*
X55755515Y-156045614D01*
X55983682Y-156091000D01*
X56216318Y-156091000D01*
X56444485Y-156045614D01*
X56659413Y-155956588D01*
X56852843Y-155827342D01*
X57017342Y-155662843D01*
X57146588Y-155469413D01*
X57235614Y-155254485D01*
X57281000Y-155026318D01*
X57281000Y-154793682D01*
X57235614Y-154565515D01*
X57146588Y-154350587D01*
X57017342Y-154157157D01*
X56852843Y-153992658D01*
X56659413Y-153863412D01*
X56444485Y-153774386D01*
X56216318Y-153729000D01*
X55983682Y-153729000D01*
X55755515Y-153774386D01*
X55540587Y-153863412D01*
X55347157Y-153992658D01*
X55182658Y-154157157D01*
X55053412Y-154350587D01*
X54964386Y-154565515D01*
X54919000Y-154793682D01*
X38406000Y-154793682D01*
X38406000Y-135509000D01*
X40269213Y-135509000D01*
X40274081Y-135558424D01*
X40274080Y-146274906D01*
X40269213Y-146324320D01*
X40274080Y-146373733D01*
X40288637Y-146521529D01*
X40346161Y-146711161D01*
X40439575Y-146885928D01*
X40565289Y-147039111D01*
X40603678Y-147070616D01*
X40881944Y-147348882D01*
X40913449Y-147387271D01*
X41066632Y-147512985D01*
X41241398Y-147606399D01*
X41381990Y-147649047D01*
X41431030Y-147663923D01*
X41628240Y-147683347D01*
X41677654Y-147678480D01*
X44995782Y-147678480D01*
X47219900Y-149902599D01*
X47219901Y-151668517D01*
X45210000Y-151668517D01*
X45086538Y-151680677D01*
X44967821Y-151716689D01*
X44858411Y-151775170D01*
X44762512Y-151853872D01*
X44683810Y-151949771D01*
X44625329Y-152059181D01*
X44589317Y-152177898D01*
X44577157Y-152301360D01*
X44577157Y-153601360D01*
X44589317Y-153724822D01*
X44625329Y-153843539D01*
X44683810Y-153952949D01*
X44762512Y-154048848D01*
X44858411Y-154127550D01*
X44967821Y-154186031D01*
X45086538Y-154222043D01*
X45210000Y-154234203D01*
X51310000Y-154234203D01*
X51433462Y-154222043D01*
X51552179Y-154186031D01*
X51661589Y-154127550D01*
X51757488Y-154048848D01*
X51836190Y-153952949D01*
X51894671Y-153843539D01*
X51930683Y-153724822D01*
X51942843Y-153601360D01*
X51942843Y-152301360D01*
X51930683Y-152177898D01*
X51894671Y-152059181D01*
X51836190Y-151949771D01*
X51757488Y-151853872D01*
X51661589Y-151775170D01*
X51552179Y-151716689D01*
X51433462Y-151680677D01*
X51310000Y-151668517D01*
X49231900Y-151668517D01*
X49231900Y-150616000D01*
X49592557Y-150616000D01*
X49592557Y-150679520D01*
X49599913Y-150754209D01*
X49621699Y-150826028D01*
X49657078Y-150892216D01*
X49704689Y-150950231D01*
X49762704Y-150997842D01*
X49828892Y-151033221D01*
X49900711Y-151055007D01*
X49975400Y-151062363D01*
X51675400Y-151062363D01*
X51750089Y-151055007D01*
X51821908Y-151033221D01*
X51888096Y-150997842D01*
X51946111Y-150950231D01*
X51993722Y-150892216D01*
X52029101Y-150826028D01*
X52050887Y-150754209D01*
X52058243Y-150679520D01*
X52058243Y-149713682D01*
X54919000Y-149713682D01*
X54919000Y-149946318D01*
X54964386Y-150174485D01*
X55053412Y-150389413D01*
X55182658Y-150582843D01*
X55347157Y-150747342D01*
X55540587Y-150876588D01*
X55755515Y-150965614D01*
X55983682Y-151011000D01*
X56216318Y-151011000D01*
X56444485Y-150965614D01*
X56659413Y-150876588D01*
X56852843Y-150747342D01*
X57017342Y-150582843D01*
X57146588Y-150389413D01*
X57235614Y-150174485D01*
X57281000Y-149946318D01*
X57281000Y-149713682D01*
X57235614Y-149485515D01*
X57213490Y-149432102D01*
X57574992Y-149070600D01*
X70429215Y-149070600D01*
X70422658Y-149077157D01*
X70293412Y-149270587D01*
X70204386Y-149485515D01*
X70159000Y-149713682D01*
X70159000Y-149946318D01*
X70204386Y-150174485D01*
X70293412Y-150389413D01*
X70422658Y-150582843D01*
X70425715Y-150585900D01*
X57402945Y-150585900D01*
X57378099Y-150583453D01*
X57353253Y-150585900D01*
X57353246Y-150585900D01*
X57288794Y-150592248D01*
X57278906Y-150593222D01*
X57256707Y-150599956D01*
X57183525Y-150622155D01*
X57095621Y-150669141D01*
X57018573Y-150732373D01*
X57002728Y-150751680D01*
X56497898Y-151256510D01*
X56444485Y-151234386D01*
X56216318Y-151189000D01*
X55983682Y-151189000D01*
X55755515Y-151234386D01*
X55540587Y-151323412D01*
X55347157Y-151452658D01*
X55182658Y-151617157D01*
X55053412Y-151810587D01*
X54964386Y-152025515D01*
X54919000Y-152253682D01*
X54919000Y-152486318D01*
X54964386Y-152714485D01*
X55053412Y-152929413D01*
X55182658Y-153122843D01*
X55347157Y-153287342D01*
X55540587Y-153416588D01*
X55755515Y-153505614D01*
X55983682Y-153551000D01*
X56216318Y-153551000D01*
X56444485Y-153505614D01*
X56659413Y-153416588D01*
X56852843Y-153287342D01*
X57017342Y-153122843D01*
X57146588Y-152929413D01*
X57235614Y-152714485D01*
X57281000Y-152486318D01*
X57281000Y-152253682D01*
X57235614Y-152025515D01*
X57213490Y-151972102D01*
X57587692Y-151597900D01*
X70441915Y-151597900D01*
X70422658Y-151617157D01*
X70293412Y-151810587D01*
X70204386Y-152025515D01*
X70159000Y-152253682D01*
X70159000Y-152486318D01*
X70204386Y-152714485D01*
X70293412Y-152929413D01*
X70422658Y-153122843D01*
X70587157Y-153287342D01*
X70780587Y-153416588D01*
X70995515Y-153505614D01*
X71223682Y-153551000D01*
X71456318Y-153551000D01*
X71684485Y-153505614D01*
X71899413Y-153416588D01*
X72092843Y-153287342D01*
X72257342Y-153122843D01*
X72386588Y-152929413D01*
X72408712Y-152876000D01*
X73699809Y-152876000D01*
X80383928Y-159560120D01*
X80399773Y-159579427D01*
X80476821Y-159642659D01*
X80564725Y-159689645D01*
X80637907Y-159711844D01*
X80660106Y-159718578D01*
X80669994Y-159719552D01*
X80734446Y-159725900D01*
X80734453Y-159725900D01*
X80759299Y-159728347D01*
X80784145Y-159725900D01*
X81846268Y-159725900D01*
X81878202Y-159802997D01*
X82012920Y-160004617D01*
X82184383Y-160176080D01*
X82386003Y-160310798D01*
X82610031Y-160403593D01*
X82847857Y-160450900D01*
X83090343Y-160450900D01*
X83328169Y-160403593D01*
X83552197Y-160310798D01*
X83753817Y-160176080D01*
X83925280Y-160004617D01*
X84059998Y-159802997D01*
X84106294Y-159691227D01*
X84131574Y-159774565D01*
X84266253Y-160032649D01*
X84448693Y-160259500D01*
X84671884Y-160446400D01*
X84751362Y-160489900D01*
X84671884Y-160533400D01*
X84448693Y-160720300D01*
X84266253Y-160947151D01*
X84131574Y-161205235D01*
X84106294Y-161288573D01*
X84059998Y-161176803D01*
X83925280Y-160975183D01*
X83753817Y-160803720D01*
X83552197Y-160669002D01*
X83328169Y-160576207D01*
X83090343Y-160528900D01*
X82847857Y-160528900D01*
X82610031Y-160576207D01*
X82386003Y-160669002D01*
X82184383Y-160803720D01*
X82012920Y-160975183D01*
X81878202Y-161176803D01*
X81846268Y-161253900D01*
X80981592Y-161253900D01*
X74297476Y-154569785D01*
X74281627Y-154550473D01*
X74204579Y-154487241D01*
X74116675Y-154440255D01*
X74021293Y-154411322D01*
X73946954Y-154404000D01*
X73946946Y-154404000D01*
X73922100Y-154401553D01*
X73897254Y-154404000D01*
X72408712Y-154404000D01*
X72386588Y-154350587D01*
X72257342Y-154157157D01*
X72092843Y-153992658D01*
X71899413Y-153863412D01*
X71684485Y-153774386D01*
X71456318Y-153729000D01*
X71223682Y-153729000D01*
X70995515Y-153774386D01*
X70780587Y-153863412D01*
X70587157Y-153992658D01*
X70422658Y-154157157D01*
X70293412Y-154350587D01*
X70204386Y-154565515D01*
X70159000Y-154793682D01*
X70159000Y-155026318D01*
X70204386Y-155254485D01*
X70293412Y-155469413D01*
X70422658Y-155662843D01*
X70587157Y-155827342D01*
X70780587Y-155956588D01*
X70995515Y-156045614D01*
X71223682Y-156091000D01*
X71456318Y-156091000D01*
X71684485Y-156045614D01*
X71899413Y-155956588D01*
X72092843Y-155827342D01*
X72257342Y-155662843D01*
X72386588Y-155469413D01*
X72408712Y-155416000D01*
X73712509Y-155416000D01*
X80396628Y-162100120D01*
X80412473Y-162119427D01*
X80489521Y-162182659D01*
X80577425Y-162229645D01*
X80650607Y-162251844D01*
X80672806Y-162258578D01*
X80682694Y-162259552D01*
X80747146Y-162265900D01*
X80747153Y-162265900D01*
X80771999Y-162268347D01*
X80796845Y-162265900D01*
X81846268Y-162265900D01*
X81878202Y-162342997D01*
X82012920Y-162544617D01*
X82184383Y-162716080D01*
X82386003Y-162850798D01*
X82610031Y-162943593D01*
X82847857Y-162990900D01*
X83090343Y-162990900D01*
X83328169Y-162943593D01*
X83552197Y-162850798D01*
X83753817Y-162716080D01*
X83925280Y-162544617D01*
X84059998Y-162342997D01*
X84106294Y-162231227D01*
X84131574Y-162314565D01*
X84266253Y-162572649D01*
X84448693Y-162799500D01*
X84671884Y-162986400D01*
X84927249Y-163126166D01*
X85040262Y-163161675D01*
X84926003Y-163209002D01*
X84724383Y-163343720D01*
X84552920Y-163515183D01*
X84418202Y-163716803D01*
X84325407Y-163940831D01*
X84278100Y-164178657D01*
X84278100Y-164421143D01*
X84325407Y-164658969D01*
X84418202Y-164882997D01*
X84552920Y-165084617D01*
X84724383Y-165256080D01*
X84926003Y-165390798D01*
X85150031Y-165483593D01*
X85387857Y-165530900D01*
X85630343Y-165530900D01*
X85868169Y-165483593D01*
X86092197Y-165390798D01*
X86293817Y-165256080D01*
X86465280Y-165084617D01*
X86599998Y-164882997D01*
X86692793Y-164658969D01*
X86740100Y-164421143D01*
X86740100Y-164178657D01*
X86692793Y-163940831D01*
X86599998Y-163716803D01*
X86465280Y-163515183D01*
X86293817Y-163343720D01*
X86092197Y-163209002D01*
X85977938Y-163161675D01*
X86090951Y-163126166D01*
X86346316Y-162986400D01*
X86569507Y-162799500D01*
X86751947Y-162572649D01*
X86886626Y-162314565D01*
X86962625Y-162064026D01*
X86833339Y-161832900D01*
X85582100Y-161832900D01*
X85582100Y-161852900D01*
X85436100Y-161852900D01*
X85436100Y-161832900D01*
X85416100Y-161832900D01*
X85416100Y-161686900D01*
X85436100Y-161686900D01*
X85436100Y-159292900D01*
X85582100Y-159292900D01*
X85582100Y-161686900D01*
X86833339Y-161686900D01*
X86962625Y-161455774D01*
X86886626Y-161205235D01*
X86751947Y-160947151D01*
X86569507Y-160720300D01*
X86346316Y-160533400D01*
X86266838Y-160489900D01*
X86346316Y-160446400D01*
X86569507Y-160259500D01*
X86751947Y-160032649D01*
X86886626Y-159774565D01*
X86962625Y-159524026D01*
X86833339Y-159292900D01*
X85582100Y-159292900D01*
X85436100Y-159292900D01*
X85416100Y-159292900D01*
X85416100Y-159146900D01*
X85436100Y-159146900D01*
X85436100Y-156752900D01*
X85582100Y-156752900D01*
X85582100Y-159146900D01*
X86833339Y-159146900D01*
X86962625Y-158915774D01*
X86886626Y-158665235D01*
X86751947Y-158407151D01*
X86569507Y-158180300D01*
X86346316Y-157993400D01*
X86266838Y-157949900D01*
X86346316Y-157906400D01*
X86569507Y-157719500D01*
X86751947Y-157492649D01*
X86886626Y-157234565D01*
X86962625Y-156984026D01*
X86833339Y-156752900D01*
X85582100Y-156752900D01*
X85436100Y-156752900D01*
X85416100Y-156752900D01*
X85416100Y-156606900D01*
X85436100Y-156606900D01*
X85436100Y-156586900D01*
X85582100Y-156586900D01*
X85582100Y-156606900D01*
X86833339Y-156606900D01*
X86962625Y-156375774D01*
X86886626Y-156125235D01*
X86751947Y-155867151D01*
X86569507Y-155640300D01*
X86346316Y-155453400D01*
X86090951Y-155313634D01*
X85977938Y-155278125D01*
X86092197Y-155230798D01*
X86293817Y-155096080D01*
X86465280Y-154924617D01*
X86599998Y-154722997D01*
X86692793Y-154498969D01*
X86740100Y-154261143D01*
X86740100Y-154018657D01*
X86692793Y-153780831D01*
X86599998Y-153556803D01*
X86465280Y-153355183D01*
X86293817Y-153183720D01*
X86092197Y-153049002D01*
X85868169Y-152956207D01*
X85630343Y-152908900D01*
X85387857Y-152908900D01*
X85150031Y-152956207D01*
X84926003Y-153049002D01*
X84724383Y-153183720D01*
X84552920Y-153355183D01*
X84418202Y-153556803D01*
X84325407Y-153780831D01*
X84278100Y-154018657D01*
X84278100Y-154261143D01*
X84325407Y-154498969D01*
X84418202Y-154722997D01*
X84552920Y-154924617D01*
X84724383Y-155096080D01*
X84926003Y-155230798D01*
X85040262Y-155278125D01*
X84927249Y-155313634D01*
X84671884Y-155453400D01*
X84448693Y-155640300D01*
X84266253Y-155867151D01*
X84131574Y-156125235D01*
X84106294Y-156208573D01*
X84059998Y-156096803D01*
X83925280Y-155895183D01*
X83753817Y-155723720D01*
X83552197Y-155589002D01*
X83328169Y-155496207D01*
X83090343Y-155448900D01*
X82847857Y-155448900D01*
X82610031Y-155496207D01*
X82532934Y-155528142D01*
X82377535Y-155372743D01*
X83819100Y-155372743D01*
X83893789Y-155365387D01*
X83965608Y-155343601D01*
X84031796Y-155308222D01*
X84089811Y-155260611D01*
X84137422Y-155202596D01*
X84172801Y-155136408D01*
X84194587Y-155064589D01*
X84201943Y-154989900D01*
X84201943Y-153289900D01*
X84194587Y-153215211D01*
X84172801Y-153143392D01*
X84137422Y-153077204D01*
X84089811Y-153019189D01*
X84031796Y-152971578D01*
X83965608Y-152936199D01*
X83893789Y-152914413D01*
X83819100Y-152907057D01*
X82451849Y-152907057D01*
X77769176Y-148224385D01*
X77753327Y-148205073D01*
X77676279Y-148141841D01*
X77588375Y-148094855D01*
X77492993Y-148065922D01*
X77418654Y-148058600D01*
X77418646Y-148058600D01*
X77393800Y-148056153D01*
X77368954Y-148058600D01*
X72241585Y-148058600D01*
X72257342Y-148042843D01*
X72386588Y-147849413D01*
X72408712Y-147796000D01*
X81399454Y-147796000D01*
X81424300Y-147798447D01*
X81449146Y-147796000D01*
X81449154Y-147796000D01*
X81523493Y-147788678D01*
X81618875Y-147759745D01*
X81706779Y-147712759D01*
X81783827Y-147649527D01*
X81799676Y-147630215D01*
X83549102Y-145880790D01*
X83602515Y-145902914D01*
X83830682Y-145948300D01*
X84063318Y-145948300D01*
X84291485Y-145902914D01*
X84506413Y-145813888D01*
X84699843Y-145684642D01*
X84864342Y-145520143D01*
X84993588Y-145326713D01*
X85015712Y-145273300D01*
X86645709Y-145273300D01*
X87282628Y-145910220D01*
X87298473Y-145929527D01*
X87375521Y-145992759D01*
X87448200Y-146031607D01*
X87463425Y-146039745D01*
X87558806Y-146068678D01*
X87568694Y-146069652D01*
X87633146Y-146076000D01*
X87633153Y-146076000D01*
X87657999Y-146078447D01*
X87682845Y-146076000D01*
X88247168Y-146076000D01*
X88279102Y-146153097D01*
X88413820Y-146354717D01*
X88585283Y-146526180D01*
X88786903Y-146660898D01*
X89010931Y-146753693D01*
X89248757Y-146801000D01*
X89491243Y-146801000D01*
X89729069Y-146753693D01*
X89953097Y-146660898D01*
X90154717Y-146526180D01*
X90326180Y-146354717D01*
X90460898Y-146153097D01*
X90492832Y-146076000D01*
X93555154Y-146076000D01*
X93580000Y-146078447D01*
X93604846Y-146076000D01*
X93604854Y-146076000D01*
X93679193Y-146068678D01*
X93774575Y-146039745D01*
X93862479Y-145992759D01*
X93939527Y-145929527D01*
X93955376Y-145910215D01*
X94011465Y-145854126D01*
X94686475Y-145854126D01*
X94762474Y-146104665D01*
X94897153Y-146362749D01*
X95079593Y-146589600D01*
X95302784Y-146776500D01*
X95558149Y-146916266D01*
X95835874Y-147003527D01*
X96067000Y-146874457D01*
X96067000Y-145623000D01*
X96213000Y-145623000D01*
X96213000Y-146874457D01*
X96444126Y-147003527D01*
X96721851Y-146916266D01*
X96977216Y-146776500D01*
X97200407Y-146589600D01*
X97382847Y-146362749D01*
X97517526Y-146104665D01*
X97593525Y-145854126D01*
X98676475Y-145854126D01*
X98752474Y-146104665D01*
X98887153Y-146362749D01*
X99069593Y-146589600D01*
X99292784Y-146776500D01*
X99548149Y-146916266D01*
X99825874Y-147003527D01*
X100057000Y-146874457D01*
X100057000Y-145623000D01*
X100203000Y-145623000D01*
X100203000Y-146874457D01*
X100434126Y-147003527D01*
X100711851Y-146916266D01*
X100967216Y-146776500D01*
X101190407Y-146589600D01*
X101372847Y-146362749D01*
X101507526Y-146104665D01*
X101583525Y-145854126D01*
X101454239Y-145623000D01*
X100203000Y-145623000D01*
X100057000Y-145623000D01*
X98805761Y-145623000D01*
X98676475Y-145854126D01*
X97593525Y-145854126D01*
X97464239Y-145623000D01*
X96213000Y-145623000D01*
X96067000Y-145623000D01*
X94815761Y-145623000D01*
X94686475Y-145854126D01*
X94011465Y-145854126D01*
X94715543Y-145150048D01*
X94686475Y-145245874D01*
X94815761Y-145477000D01*
X96067000Y-145477000D01*
X96067000Y-145457000D01*
X96213000Y-145457000D01*
X96213000Y-145477000D01*
X97464239Y-145477000D01*
X97593525Y-145245874D01*
X97517526Y-144995335D01*
X97382847Y-144737251D01*
X97200407Y-144510400D01*
X96977216Y-144323500D01*
X96721851Y-144183734D01*
X96608838Y-144148225D01*
X96723097Y-144100898D01*
X96924717Y-143966180D01*
X97096180Y-143794717D01*
X97230898Y-143593097D01*
X97262832Y-143516000D01*
X99007168Y-143516000D01*
X99039102Y-143593097D01*
X99173820Y-143794717D01*
X99345283Y-143966180D01*
X99546903Y-144100898D01*
X99661162Y-144148225D01*
X99548149Y-144183734D01*
X99292784Y-144323500D01*
X99069593Y-144510400D01*
X98887153Y-144737251D01*
X98752474Y-144995335D01*
X98676475Y-145245874D01*
X98805761Y-145477000D01*
X100057000Y-145477000D01*
X100057000Y-145457000D01*
X100203000Y-145457000D01*
X100203000Y-145477000D01*
X101454239Y-145477000D01*
X101583525Y-145245874D01*
X101507526Y-144995335D01*
X101372847Y-144737251D01*
X101190407Y-144510400D01*
X100967216Y-144323500D01*
X100711851Y-144183734D01*
X100598838Y-144148225D01*
X100713097Y-144100898D01*
X100914717Y-143966180D01*
X101086180Y-143794717D01*
X101220898Y-143593097D01*
X101313693Y-143369069D01*
X101361000Y-143131243D01*
X101361000Y-142888757D01*
X101313693Y-142650931D01*
X101220898Y-142426903D01*
X101086180Y-142225283D01*
X100914717Y-142053820D01*
X100713097Y-141919102D01*
X100489069Y-141826307D01*
X100251243Y-141779000D01*
X100008757Y-141779000D01*
X99770931Y-141826307D01*
X99546903Y-141919102D01*
X99345283Y-142053820D01*
X99173820Y-142225283D01*
X99039102Y-142426903D01*
X99007168Y-142504000D01*
X97262832Y-142504000D01*
X97230898Y-142426903D01*
X97096180Y-142225283D01*
X96924717Y-142053820D01*
X96723097Y-141919102D01*
X96499069Y-141826307D01*
X96261243Y-141779000D01*
X96018757Y-141779000D01*
X95780931Y-141826307D01*
X95556903Y-141919102D01*
X95355283Y-142053820D01*
X95183820Y-142225283D01*
X95049102Y-142426903D01*
X94956307Y-142650931D01*
X94909000Y-142888757D01*
X94909000Y-143131243D01*
X94956307Y-143369069D01*
X94988242Y-143446167D01*
X93370409Y-145064000D01*
X90492832Y-145064000D01*
X90460898Y-144986903D01*
X90326180Y-144785283D01*
X90154717Y-144613820D01*
X89953097Y-144479102D01*
X89729069Y-144386307D01*
X89491243Y-144339000D01*
X89248757Y-144339000D01*
X89010931Y-144386307D01*
X88786903Y-144479102D01*
X88585283Y-144613820D01*
X88413820Y-144785283D01*
X88279102Y-144986903D01*
X88247168Y-145064000D01*
X87867592Y-145064000D01*
X87230676Y-144427085D01*
X87214827Y-144407773D01*
X87137779Y-144344541D01*
X87049875Y-144297555D01*
X86954493Y-144268622D01*
X86880154Y-144261300D01*
X86880146Y-144261300D01*
X86855300Y-144258853D01*
X86830454Y-144261300D01*
X85015712Y-144261300D01*
X84993588Y-144207887D01*
X84864342Y-144014457D01*
X84699843Y-143849958D01*
X84506413Y-143720712D01*
X84291485Y-143631686D01*
X84063318Y-143586300D01*
X83830682Y-143586300D01*
X83602515Y-143631686D01*
X83387587Y-143720712D01*
X83194157Y-143849958D01*
X83029658Y-144014457D01*
X82900412Y-144207887D01*
X82811386Y-144422815D01*
X82766000Y-144650982D01*
X82766000Y-144883618D01*
X82811386Y-145111785D01*
X82833510Y-145165198D01*
X81214709Y-146784000D01*
X72408712Y-146784000D01*
X72386588Y-146730587D01*
X72257342Y-146537157D01*
X72092843Y-146372658D01*
X71899413Y-146243412D01*
X71684485Y-146154386D01*
X71456318Y-146109000D01*
X71223682Y-146109000D01*
X70995515Y-146154386D01*
X70780587Y-146243412D01*
X70587157Y-146372658D01*
X70422658Y-146537157D01*
X70293412Y-146730587D01*
X70204386Y-146945515D01*
X70159000Y-147173682D01*
X70159000Y-147406318D01*
X70204386Y-147634485D01*
X70293412Y-147849413D01*
X70422658Y-148042843D01*
X70438415Y-148058600D01*
X57390254Y-148058600D01*
X57365400Y-148056152D01*
X57340546Y-148058600D01*
X57266207Y-148065922D01*
X57170825Y-148094855D01*
X57082921Y-148141841D01*
X57005873Y-148205073D01*
X56990028Y-148224380D01*
X56497898Y-148716510D01*
X56444485Y-148694386D01*
X56216318Y-148649000D01*
X55983682Y-148649000D01*
X55755515Y-148694386D01*
X55540587Y-148783412D01*
X55347157Y-148912658D01*
X55182658Y-149077157D01*
X55053412Y-149270587D01*
X54964386Y-149485515D01*
X54919000Y-149713682D01*
X52058243Y-149713682D01*
X52058243Y-148979520D01*
X52050887Y-148904831D01*
X52029101Y-148833012D01*
X51993722Y-148766824D01*
X51946111Y-148708809D01*
X51888096Y-148661198D01*
X51821908Y-148625819D01*
X51750089Y-148604033D01*
X51675400Y-148596677D01*
X49975400Y-148596677D01*
X49901046Y-148604000D01*
X48766699Y-148604000D01*
X47330976Y-147168277D01*
X49594400Y-147168277D01*
X49594400Y-147410763D01*
X49641707Y-147648589D01*
X49734502Y-147872617D01*
X49869220Y-148074237D01*
X50040683Y-148245700D01*
X50242303Y-148380418D01*
X50466331Y-148473213D01*
X50704157Y-148520520D01*
X50946643Y-148520520D01*
X51184469Y-148473213D01*
X51408497Y-148380418D01*
X51610117Y-148245700D01*
X51781580Y-148074237D01*
X51916298Y-147872617D01*
X51948232Y-147795520D01*
X55031089Y-147795520D01*
X55053412Y-147849413D01*
X55182658Y-148042843D01*
X55347157Y-148207342D01*
X55540587Y-148336588D01*
X55755515Y-148425614D01*
X55983682Y-148471000D01*
X56216318Y-148471000D01*
X56444485Y-148425614D01*
X56659413Y-148336588D01*
X56852843Y-148207342D01*
X57017342Y-148042843D01*
X57146588Y-147849413D01*
X57235614Y-147634485D01*
X57281000Y-147406318D01*
X57281000Y-147173682D01*
X57235614Y-146945515D01*
X57146588Y-146730587D01*
X57017342Y-146537157D01*
X56852843Y-146372658D01*
X56659413Y-146243412D01*
X56444485Y-146154386D01*
X56216318Y-146109000D01*
X55983682Y-146109000D01*
X55755515Y-146154386D01*
X55540587Y-146243412D01*
X55347157Y-146372658D01*
X55182658Y-146537157D01*
X55053412Y-146730587D01*
X55031486Y-146783520D01*
X51948232Y-146783520D01*
X51916298Y-146706423D01*
X51781580Y-146504803D01*
X51610117Y-146333340D01*
X51408497Y-146198622D01*
X51184469Y-146105827D01*
X50946643Y-146058520D01*
X50704157Y-146058520D01*
X50466331Y-146105827D01*
X50242303Y-146198622D01*
X50040683Y-146333340D01*
X49869220Y-146504803D01*
X49734502Y-146706423D01*
X49641707Y-146930451D01*
X49594400Y-147168277D01*
X47330976Y-147168277D01*
X46158776Y-145996078D01*
X46127271Y-145957689D01*
X46088887Y-145926188D01*
X45442843Y-145280145D01*
X45442843Y-144620000D01*
X45435487Y-144545311D01*
X45413701Y-144473492D01*
X45378322Y-144407304D01*
X45330711Y-144349289D01*
X45272696Y-144301678D01*
X45206508Y-144266299D01*
X45134689Y-144244513D01*
X45060000Y-144237157D01*
X43360000Y-144237157D01*
X43285311Y-144244513D01*
X43213492Y-144266299D01*
X43147304Y-144301678D01*
X43089289Y-144349289D01*
X43041678Y-144407304D01*
X43006299Y-144473492D01*
X42984513Y-144545311D01*
X42977157Y-144620000D01*
X42977157Y-145666480D01*
X42286080Y-145666480D01*
X42286080Y-142808757D01*
X42979000Y-142808757D01*
X42979000Y-143051243D01*
X43026307Y-143289069D01*
X43119102Y-143513097D01*
X43253820Y-143714717D01*
X43425283Y-143886180D01*
X43626903Y-144020898D01*
X43850931Y-144113693D01*
X44088757Y-144161000D01*
X44331243Y-144161000D01*
X44569069Y-144113693D01*
X44793097Y-144020898D01*
X44853647Y-143980440D01*
X49858772Y-143980440D01*
X49734502Y-144166423D01*
X49641707Y-144390451D01*
X49594400Y-144628277D01*
X49594400Y-144870763D01*
X49641707Y-145108589D01*
X49734502Y-145332617D01*
X49869220Y-145534237D01*
X50040683Y-145705700D01*
X50242303Y-145840418D01*
X50466331Y-145933213D01*
X50704157Y-145980520D01*
X50946643Y-145980520D01*
X51184469Y-145933213D01*
X51408497Y-145840418D01*
X51610117Y-145705700D01*
X51781580Y-145534237D01*
X51916298Y-145332617D01*
X51948232Y-145255520D01*
X55031089Y-145255520D01*
X55053412Y-145309413D01*
X55182658Y-145502843D01*
X55347157Y-145667342D01*
X55540587Y-145796588D01*
X55755515Y-145885614D01*
X55983682Y-145931000D01*
X56216318Y-145931000D01*
X56444485Y-145885614D01*
X56659413Y-145796588D01*
X56852843Y-145667342D01*
X57017342Y-145502843D01*
X57146588Y-145309413D01*
X57235614Y-145094485D01*
X57281000Y-144866318D01*
X57281000Y-144633682D01*
X70159000Y-144633682D01*
X70159000Y-144866318D01*
X70204386Y-145094485D01*
X70293412Y-145309413D01*
X70422658Y-145502843D01*
X70587157Y-145667342D01*
X70780587Y-145796588D01*
X70995515Y-145885614D01*
X71223682Y-145931000D01*
X71456318Y-145931000D01*
X71684485Y-145885614D01*
X71899413Y-145796588D01*
X72092843Y-145667342D01*
X72257342Y-145502843D01*
X72386588Y-145309413D01*
X72408712Y-145256000D01*
X79358482Y-145256000D01*
X79382512Y-145314013D01*
X79511758Y-145507443D01*
X79676257Y-145671942D01*
X79869687Y-145801188D01*
X80084615Y-145890214D01*
X80312782Y-145935600D01*
X80545418Y-145935600D01*
X80773585Y-145890214D01*
X80988513Y-145801188D01*
X81181943Y-145671942D01*
X81346442Y-145507443D01*
X81475688Y-145314013D01*
X81564714Y-145099085D01*
X81610100Y-144870918D01*
X81610100Y-144638282D01*
X81564714Y-144410115D01*
X81542590Y-144356702D01*
X82365892Y-143533400D01*
X88246091Y-143533400D01*
X88279102Y-143613097D01*
X88413820Y-143814717D01*
X88585283Y-143986180D01*
X88786903Y-144120898D01*
X89010931Y-144213693D01*
X89248757Y-144261000D01*
X89491243Y-144261000D01*
X89729069Y-144213693D01*
X89953097Y-144120898D01*
X90154717Y-143986180D01*
X90326180Y-143814717D01*
X90460898Y-143613097D01*
X90492832Y-143536000D01*
X93555154Y-143536000D01*
X93580000Y-143538447D01*
X93604846Y-143536000D01*
X93604854Y-143536000D01*
X93679193Y-143528678D01*
X93774575Y-143499745D01*
X93862479Y-143452759D01*
X93939527Y-143389527D01*
X93955376Y-143370215D01*
X95703833Y-141621758D01*
X95780931Y-141653693D01*
X96018757Y-141701000D01*
X96261243Y-141701000D01*
X96499069Y-141653693D01*
X96723097Y-141560898D01*
X96924717Y-141426180D01*
X97096180Y-141254717D01*
X97230898Y-141053097D01*
X97262832Y-140976000D01*
X99007168Y-140976000D01*
X99039102Y-141053097D01*
X99173820Y-141254717D01*
X99345283Y-141426180D01*
X99546903Y-141560898D01*
X99770931Y-141653693D01*
X100008757Y-141701000D01*
X100251243Y-141701000D01*
X100489069Y-141653693D01*
X100713097Y-141560898D01*
X100914717Y-141426180D01*
X101086180Y-141254717D01*
X101220898Y-141053097D01*
X101313693Y-140829069D01*
X101361000Y-140591243D01*
X101361000Y-140348757D01*
X101313693Y-140110931D01*
X101220898Y-139886903D01*
X101086180Y-139685283D01*
X100914717Y-139513820D01*
X100713097Y-139379102D01*
X100489069Y-139286307D01*
X100251243Y-139239000D01*
X100008757Y-139239000D01*
X99770931Y-139286307D01*
X99546903Y-139379102D01*
X99345283Y-139513820D01*
X99173820Y-139685283D01*
X99039102Y-139886903D01*
X99007168Y-139964000D01*
X97262832Y-139964000D01*
X97230898Y-139886903D01*
X97096180Y-139685283D01*
X96924717Y-139513820D01*
X96723097Y-139379102D01*
X96499069Y-139286307D01*
X96261243Y-139239000D01*
X96018757Y-139239000D01*
X95780931Y-139286307D01*
X95556903Y-139379102D01*
X95355283Y-139513820D01*
X95183820Y-139685283D01*
X95049102Y-139886903D01*
X94956307Y-140110931D01*
X94909000Y-140348757D01*
X94909000Y-140591243D01*
X94956307Y-140829069D01*
X94988242Y-140906167D01*
X93370409Y-142524000D01*
X90492832Y-142524000D01*
X90460898Y-142446903D01*
X90326180Y-142245283D01*
X90154717Y-142073820D01*
X89953097Y-141939102D01*
X89838838Y-141891775D01*
X89951851Y-141856266D01*
X90207216Y-141716500D01*
X90430407Y-141529600D01*
X90612847Y-141302749D01*
X90747526Y-141044665D01*
X90823525Y-140794126D01*
X90694239Y-140563000D01*
X89443000Y-140563000D01*
X89443000Y-140583000D01*
X89297000Y-140583000D01*
X89297000Y-140563000D01*
X88045761Y-140563000D01*
X87916475Y-140794126D01*
X87992474Y-141044665D01*
X88127153Y-141302749D01*
X88309593Y-141529600D01*
X88532784Y-141716500D01*
X88788149Y-141856266D01*
X88901162Y-141891775D01*
X88786903Y-141939102D01*
X88585283Y-142073820D01*
X88413820Y-142245283D01*
X88279102Y-142446903D01*
X88248244Y-142521400D01*
X82181154Y-142521400D01*
X82156300Y-142518952D01*
X82131446Y-142521400D01*
X82057107Y-142528722D01*
X81961725Y-142557655D01*
X81873821Y-142604641D01*
X81796773Y-142667873D01*
X81780928Y-142687180D01*
X80826998Y-143641110D01*
X80773585Y-143618986D01*
X80545418Y-143573600D01*
X80312782Y-143573600D01*
X80084615Y-143618986D01*
X79869687Y-143708012D01*
X79676257Y-143837258D01*
X79511758Y-144001757D01*
X79382512Y-144195187D01*
X79362293Y-144244000D01*
X72408712Y-144244000D01*
X72386588Y-144190587D01*
X72257342Y-143997157D01*
X72092843Y-143832658D01*
X71899413Y-143703412D01*
X71684485Y-143614386D01*
X71456318Y-143569000D01*
X71223682Y-143569000D01*
X70995515Y-143614386D01*
X70780587Y-143703412D01*
X70587157Y-143832658D01*
X70422658Y-143997157D01*
X70293412Y-144190587D01*
X70204386Y-144405515D01*
X70159000Y-144633682D01*
X57281000Y-144633682D01*
X57235614Y-144405515D01*
X57146588Y-144190587D01*
X57017342Y-143997157D01*
X57000625Y-143980440D01*
X70050714Y-143980440D01*
X70075560Y-143982887D01*
X70100406Y-143980440D01*
X70100414Y-143980440D01*
X70174753Y-143973118D01*
X70270135Y-143944185D01*
X70358039Y-143897199D01*
X70435087Y-143833967D01*
X70450936Y-143814655D01*
X70527130Y-143738461D01*
X70539792Y-143723033D01*
X70555220Y-143710371D01*
X70942102Y-143323490D01*
X70995515Y-143345614D01*
X71223682Y-143391000D01*
X71456318Y-143391000D01*
X71684485Y-143345614D01*
X71899413Y-143256588D01*
X72092843Y-143127342D01*
X72257342Y-142962843D01*
X72386588Y-142769413D01*
X72475614Y-142554485D01*
X72521000Y-142326318D01*
X72521000Y-142093682D01*
X72475614Y-141865515D01*
X72386588Y-141650587D01*
X72257342Y-141457157D01*
X72226716Y-141426531D01*
X86407734Y-141426531D01*
X86431963Y-141548339D01*
X86490837Y-141690472D01*
X86576308Y-141818389D01*
X86685091Y-141927172D01*
X86813008Y-142012643D01*
X86955141Y-142071517D01*
X87106028Y-142101530D01*
X87259872Y-142101530D01*
X87410759Y-142071517D01*
X87552892Y-142012643D01*
X87680809Y-141927172D01*
X87789592Y-141818389D01*
X87875063Y-141690472D01*
X87933937Y-141548339D01*
X87963950Y-141397452D01*
X87963950Y-141243608D01*
X87933937Y-141092721D01*
X87875063Y-140950588D01*
X87789592Y-140822671D01*
X87680809Y-140713888D01*
X87552892Y-140628417D01*
X87410759Y-140569543D01*
X87259872Y-140539530D01*
X87116312Y-140539530D01*
X87065430Y-140497772D01*
X86977526Y-140450786D01*
X86882144Y-140421853D01*
X86807805Y-140414531D01*
X86807797Y-140414531D01*
X86782951Y-140412084D01*
X86758105Y-140414531D01*
X72262896Y-140414531D01*
X72386588Y-140229413D01*
X72475614Y-140014485D01*
X72521000Y-139786318D01*
X72521000Y-139553682D01*
X72475614Y-139325515D01*
X72386588Y-139110587D01*
X72257342Y-138917157D01*
X72092843Y-138752658D01*
X71899413Y-138623412D01*
X71684485Y-138534386D01*
X71456318Y-138489000D01*
X71223682Y-138489000D01*
X70995515Y-138534386D01*
X70780587Y-138623412D01*
X70587157Y-138752658D01*
X70422658Y-138917157D01*
X70293412Y-139110587D01*
X70204386Y-139325515D01*
X70159000Y-139553682D01*
X70159000Y-139786318D01*
X70204386Y-140014485D01*
X70293412Y-140229413D01*
X70417104Y-140414531D01*
X57414323Y-140414531D01*
X57389469Y-140412083D01*
X57364615Y-140414531D01*
X57290276Y-140421853D01*
X57194894Y-140450786D01*
X57106990Y-140497772D01*
X57029942Y-140561004D01*
X57014097Y-140580311D01*
X56497898Y-141096510D01*
X56444485Y-141074386D01*
X56216318Y-141029000D01*
X55983682Y-141029000D01*
X55755515Y-141074386D01*
X55540587Y-141163412D01*
X55347157Y-141292658D01*
X55182658Y-141457157D01*
X55053412Y-141650587D01*
X54964386Y-141865515D01*
X54919000Y-142093682D01*
X54919000Y-142326318D01*
X54964386Y-142554485D01*
X55053412Y-142769413D01*
X55182658Y-142962843D01*
X55188255Y-142968440D01*
X52096337Y-142968440D01*
X52202926Y-142764185D01*
X52278925Y-142513646D01*
X52149639Y-142282520D01*
X50898400Y-142282520D01*
X50898400Y-142302520D01*
X50752400Y-142302520D01*
X50752400Y-142282520D01*
X49501161Y-142282520D01*
X49371875Y-142513646D01*
X49447874Y-142764185D01*
X49554463Y-142968440D01*
X45441000Y-142968440D01*
X45441000Y-142808757D01*
X45393693Y-142570931D01*
X45300898Y-142346903D01*
X45166180Y-142145283D01*
X44994717Y-141973820D01*
X44793097Y-141839102D01*
X44569069Y-141746307D01*
X44331243Y-141699000D01*
X44088757Y-141699000D01*
X43850931Y-141746307D01*
X43626903Y-141839102D01*
X43425283Y-141973820D01*
X43253820Y-142145283D01*
X43119102Y-142346903D01*
X43026307Y-142570931D01*
X42979000Y-142808757D01*
X42286080Y-142808757D01*
X42286080Y-138154126D01*
X42756475Y-138154126D01*
X42832474Y-138404665D01*
X42967153Y-138662749D01*
X43149593Y-138889600D01*
X43372784Y-139076500D01*
X43628149Y-139216266D01*
X43741162Y-139251775D01*
X43626903Y-139299102D01*
X43425283Y-139433820D01*
X43253820Y-139605283D01*
X43119102Y-139806903D01*
X43026307Y-140030931D01*
X42979000Y-140268757D01*
X42979000Y-140511243D01*
X43026307Y-140749069D01*
X43119102Y-140973097D01*
X43253820Y-141174717D01*
X43425283Y-141346180D01*
X43626903Y-141480898D01*
X43850931Y-141573693D01*
X44088757Y-141621000D01*
X44331243Y-141621000D01*
X44569069Y-141573693D01*
X44793097Y-141480898D01*
X44994717Y-141346180D01*
X45166180Y-141174717D01*
X45270360Y-141018800D01*
X49945456Y-141018800D01*
X49764993Y-141169920D01*
X49582553Y-141396771D01*
X49447874Y-141654855D01*
X49371875Y-141905394D01*
X49501161Y-142136520D01*
X50752400Y-142136520D01*
X50752400Y-142116520D01*
X50898400Y-142116520D01*
X50898400Y-142136520D01*
X52149639Y-142136520D01*
X52278925Y-141905394D01*
X52202926Y-141654855D01*
X52068247Y-141396771D01*
X51885807Y-141169920D01*
X51705344Y-141018800D01*
X55322956Y-141018800D01*
X55347802Y-141021247D01*
X55372648Y-141018800D01*
X55372656Y-141018800D01*
X55446995Y-141011478D01*
X55542377Y-140982545D01*
X55630281Y-140935559D01*
X55707329Y-140872327D01*
X55723178Y-140853015D01*
X55768080Y-140808113D01*
X55983682Y-140851000D01*
X56216318Y-140851000D01*
X56444485Y-140805614D01*
X56659413Y-140716588D01*
X56852843Y-140587342D01*
X57017342Y-140422843D01*
X57146588Y-140229413D01*
X57235614Y-140014485D01*
X57281000Y-139786318D01*
X57281000Y-139553682D01*
X57235614Y-139325515D01*
X57146588Y-139110587D01*
X57017342Y-138917157D01*
X56852843Y-138752658D01*
X56659413Y-138623412D01*
X56444485Y-138534386D01*
X56414316Y-138528385D01*
X56664524Y-138449298D01*
X56911059Y-138313815D01*
X57126426Y-138132839D01*
X57302348Y-137913324D01*
X57432064Y-137663706D01*
X57504078Y-137426294D01*
X57374161Y-137203000D01*
X56173000Y-137203000D01*
X56173000Y-137223000D01*
X56027000Y-137223000D01*
X56027000Y-137203000D01*
X54825839Y-137203000D01*
X54695922Y-137426294D01*
X54767936Y-137663706D01*
X54897652Y-137913324D01*
X55073574Y-138132839D01*
X55288941Y-138313815D01*
X55535476Y-138449298D01*
X55785684Y-138528385D01*
X55755515Y-138534386D01*
X55540587Y-138623412D01*
X55347157Y-138752658D01*
X55182658Y-138917157D01*
X55053412Y-139110587D01*
X54964386Y-139325515D01*
X54919000Y-139553682D01*
X54919000Y-139786318D01*
X54962857Y-140006800D01*
X45383698Y-140006800D01*
X45300898Y-139806903D01*
X45166180Y-139605283D01*
X44994717Y-139433820D01*
X44793097Y-139299102D01*
X44678838Y-139251775D01*
X44791851Y-139216266D01*
X45047216Y-139076500D01*
X45270407Y-138889600D01*
X45452847Y-138662749D01*
X45587526Y-138404665D01*
X45663525Y-138154126D01*
X45534239Y-137923000D01*
X44283000Y-137923000D01*
X44283000Y-137943000D01*
X44137000Y-137943000D01*
X44137000Y-137923000D01*
X42885761Y-137923000D01*
X42756475Y-138154126D01*
X42286080Y-138154126D01*
X42286080Y-137545874D01*
X42756475Y-137545874D01*
X42885761Y-137777000D01*
X44137000Y-137777000D01*
X44137000Y-136525543D01*
X44283000Y-136525543D01*
X44283000Y-137777000D01*
X45534239Y-137777000D01*
X45663525Y-137545874D01*
X45587526Y-137295335D01*
X45452847Y-137037251D01*
X45289151Y-136833706D01*
X54695922Y-136833706D01*
X54825839Y-137057000D01*
X56027000Y-137057000D01*
X56027000Y-137037000D01*
X56173000Y-137037000D01*
X56173000Y-137057000D01*
X57374161Y-137057000D01*
X57504078Y-136833706D01*
X57432064Y-136596294D01*
X57302348Y-136346676D01*
X57126426Y-136127161D01*
X56911059Y-135946185D01*
X56664524Y-135810702D01*
X56414316Y-135731615D01*
X56444485Y-135725614D01*
X56659413Y-135636588D01*
X56852843Y-135507342D01*
X57017342Y-135342843D01*
X57146588Y-135149413D01*
X57235614Y-134934485D01*
X57281000Y-134706318D01*
X57281000Y-134473682D01*
X57235614Y-134245515D01*
X57146588Y-134030587D01*
X57017342Y-133837157D01*
X56852843Y-133672658D01*
X56659413Y-133543412D01*
X56444485Y-133454386D01*
X56216318Y-133409000D01*
X55983682Y-133409000D01*
X55755515Y-133454386D01*
X55540587Y-133543412D01*
X55347157Y-133672658D01*
X55182658Y-133837157D01*
X55053412Y-134030587D01*
X54964386Y-134245515D01*
X54919000Y-134473682D01*
X54919000Y-134706318D01*
X54964386Y-134934485D01*
X55053412Y-135149413D01*
X55182658Y-135342843D01*
X55347157Y-135507342D01*
X55540587Y-135636588D01*
X55755515Y-135725614D01*
X55785684Y-135731615D01*
X55535476Y-135810702D01*
X55288941Y-135946185D01*
X55073574Y-136127161D01*
X54897652Y-136346676D01*
X54767936Y-136596294D01*
X54695922Y-136833706D01*
X45289151Y-136833706D01*
X45270407Y-136810400D01*
X45047216Y-136623500D01*
X44791851Y-136483734D01*
X44514126Y-136396473D01*
X44283000Y-136525543D01*
X44137000Y-136525543D01*
X43905874Y-136396473D01*
X43628149Y-136483734D01*
X43372784Y-136623500D01*
X43149593Y-136810400D01*
X42967153Y-137037251D01*
X42832474Y-137295335D01*
X42756475Y-137545874D01*
X42286080Y-137545874D01*
X42286080Y-135925698D01*
X42418139Y-135793640D01*
X45990626Y-135793640D01*
X46040040Y-135798507D01*
X46089454Y-135793640D01*
X46237250Y-135779083D01*
X46426882Y-135721559D01*
X46601648Y-135628145D01*
X46754831Y-135502431D01*
X46786336Y-135464042D01*
X50316696Y-131933682D01*
X54919000Y-131933682D01*
X54919000Y-132166318D01*
X54964386Y-132394485D01*
X55053412Y-132609413D01*
X55182658Y-132802843D01*
X55347157Y-132967342D01*
X55540587Y-133096588D01*
X55755515Y-133185614D01*
X55983682Y-133231000D01*
X56216318Y-133231000D01*
X56444485Y-133185614D01*
X56659413Y-133096588D01*
X56852843Y-132967342D01*
X57017342Y-132802843D01*
X57146588Y-132609413D01*
X57235614Y-132394485D01*
X57281000Y-132166318D01*
X57281000Y-131933682D01*
X57235614Y-131705515D01*
X57146588Y-131490587D01*
X57017342Y-131297157D01*
X56852843Y-131132658D01*
X56659413Y-131003412D01*
X56444485Y-130914386D01*
X56216318Y-130869000D01*
X55983682Y-130869000D01*
X55755515Y-130914386D01*
X55540587Y-131003412D01*
X55347157Y-131132658D01*
X55182658Y-131297157D01*
X55053412Y-131490587D01*
X54964386Y-131705515D01*
X54919000Y-131933682D01*
X50316696Y-131933682D01*
X53540378Y-128710000D01*
X54917157Y-128710000D01*
X54917157Y-130310000D01*
X54924513Y-130384689D01*
X54946299Y-130456508D01*
X54981678Y-130522696D01*
X55029289Y-130580711D01*
X55087304Y-130628322D01*
X55153492Y-130663701D01*
X55225311Y-130685487D01*
X55300000Y-130692843D01*
X56900000Y-130692843D01*
X56974689Y-130685487D01*
X57046508Y-130663701D01*
X57112696Y-130628322D01*
X57170711Y-130580711D01*
X57218322Y-130522696D01*
X57253701Y-130456508D01*
X57275487Y-130384689D01*
X57282843Y-130310000D01*
X57282843Y-128710000D01*
X57275487Y-128635311D01*
X57253701Y-128563492D01*
X57218322Y-128497304D01*
X57170711Y-128439289D01*
X57112696Y-128391678D01*
X57046508Y-128356299D01*
X56974689Y-128334513D01*
X56900000Y-128327157D01*
X55300000Y-128327157D01*
X55225311Y-128334513D01*
X55153492Y-128356299D01*
X55087304Y-128391678D01*
X55029289Y-128439289D01*
X54981678Y-128497304D01*
X54946299Y-128563492D01*
X54924513Y-128635311D01*
X54917157Y-128710000D01*
X53540378Y-128710000D01*
X54330739Y-127919640D01*
X66872982Y-127919640D01*
X67111720Y-128158379D01*
X67111721Y-136455256D01*
X67106853Y-136504680D01*
X67126277Y-136701889D01*
X67183801Y-136891521D01*
X67218958Y-136957294D01*
X67277216Y-137066288D01*
X67402930Y-137219471D01*
X67441314Y-137250972D01*
X67996744Y-137806402D01*
X68028249Y-137844791D01*
X68181432Y-137970505D01*
X68355040Y-138063300D01*
X68356198Y-138063919D01*
X68545830Y-138121443D01*
X68743039Y-138140867D01*
X68792453Y-138136000D01*
X70719843Y-138136000D01*
X70780587Y-138176588D01*
X70995515Y-138265614D01*
X71223682Y-138311000D01*
X71456318Y-138311000D01*
X71684485Y-138265614D01*
X71899413Y-138176588D01*
X72092843Y-138047342D01*
X72129185Y-138011000D01*
X85445030Y-138011000D01*
X85488300Y-138015262D01*
X85531570Y-138011000D01*
X88137157Y-138011000D01*
X88137157Y-138800000D01*
X88144513Y-138874689D01*
X88166299Y-138946508D01*
X88201678Y-139012696D01*
X88249289Y-139070711D01*
X88307304Y-139118322D01*
X88373492Y-139153701D01*
X88445311Y-139175487D01*
X88520000Y-139182843D01*
X88680152Y-139182843D01*
X88532784Y-139263500D01*
X88309593Y-139450400D01*
X88127153Y-139677251D01*
X87992474Y-139935335D01*
X87916475Y-140185874D01*
X88045761Y-140417000D01*
X89297000Y-140417000D01*
X89297000Y-140397000D01*
X89443000Y-140397000D01*
X89443000Y-140417000D01*
X90694239Y-140417000D01*
X90823525Y-140185874D01*
X90747526Y-139935335D01*
X90612847Y-139677251D01*
X90430407Y-139450400D01*
X90207216Y-139263500D01*
X90059848Y-139182843D01*
X90220000Y-139182843D01*
X90294689Y-139175487D01*
X90366508Y-139153701D01*
X90432696Y-139118322D01*
X90490711Y-139070711D01*
X90538322Y-139012696D01*
X90573701Y-138946508D01*
X90595487Y-138874689D01*
X90599790Y-138831000D01*
X94912180Y-138831000D01*
X94914513Y-138854689D01*
X94936299Y-138926508D01*
X94971678Y-138992696D01*
X95019289Y-139050711D01*
X95077304Y-139098322D01*
X95143492Y-139133701D01*
X95215311Y-139155487D01*
X95290000Y-139162843D01*
X96990000Y-139162843D01*
X97064689Y-139155487D01*
X97136508Y-139133701D01*
X97202696Y-139098322D01*
X97260711Y-139050711D01*
X97308322Y-138992696D01*
X97343701Y-138926508D01*
X97365487Y-138854689D01*
X97369790Y-138811000D01*
X98900210Y-138811000D01*
X98904513Y-138854689D01*
X98926299Y-138926508D01*
X98961678Y-138992696D01*
X99009289Y-139050711D01*
X99067304Y-139098322D01*
X99133492Y-139133701D01*
X99205311Y-139155487D01*
X99280000Y-139162843D01*
X100980000Y-139162843D01*
X101054689Y-139155487D01*
X101126508Y-139133701D01*
X101192696Y-139098322D01*
X101250711Y-139050711D01*
X101298322Y-138992696D01*
X101333701Y-138926508D01*
X101355487Y-138854689D01*
X101362843Y-138780000D01*
X101362843Y-137080000D01*
X101355487Y-137005311D01*
X101333701Y-136933492D01*
X101298322Y-136867304D01*
X101250711Y-136809289D01*
X101192696Y-136761678D01*
X101126508Y-136726299D01*
X101054689Y-136704513D01*
X100980000Y-136697157D01*
X99280000Y-136697157D01*
X99205311Y-136704513D01*
X99133492Y-136726299D01*
X99067304Y-136761678D01*
X99009289Y-136809289D01*
X98961678Y-136867304D01*
X98926299Y-136933492D01*
X98904513Y-137005311D01*
X98900210Y-137049000D01*
X97369790Y-137049000D01*
X97365487Y-137005311D01*
X97343701Y-136933492D01*
X97308322Y-136867304D01*
X97260711Y-136809289D01*
X97202696Y-136761678D01*
X97136508Y-136726299D01*
X97064689Y-136704513D01*
X96990000Y-136697157D01*
X95290000Y-136697157D01*
X95215311Y-136704513D01*
X95143492Y-136726299D01*
X95077304Y-136761678D01*
X95019289Y-136809289D01*
X94971678Y-136867304D01*
X94936299Y-136933492D01*
X94914513Y-137005311D01*
X94908240Y-137069000D01*
X90599790Y-137069000D01*
X90595487Y-137025311D01*
X90573701Y-136953492D01*
X90538322Y-136887304D01*
X90490711Y-136829289D01*
X90432696Y-136781678D01*
X90366508Y-136746299D01*
X90294689Y-136724513D01*
X90220000Y-136717157D01*
X89383078Y-136717157D01*
X89203565Y-136537644D01*
X89175975Y-136504025D01*
X89041825Y-136393932D01*
X88888775Y-136312125D01*
X88722706Y-136261748D01*
X88593273Y-136249000D01*
X88593270Y-136249000D01*
X88550000Y-136244738D01*
X88506730Y-136249000D01*
X85621906Y-136249000D01*
X85496399Y-136236638D01*
X85370894Y-136249000D01*
X84453000Y-136249000D01*
X84453000Y-135676012D01*
X84506413Y-135653888D01*
X84699843Y-135524642D01*
X84864342Y-135360143D01*
X84993588Y-135166713D01*
X85082614Y-134951785D01*
X85128000Y-134723618D01*
X85128000Y-134490982D01*
X85082614Y-134262815D01*
X84993588Y-134047887D01*
X84864342Y-133854457D01*
X84699843Y-133689958D01*
X84506413Y-133560712D01*
X84291485Y-133471686D01*
X84063318Y-133426300D01*
X83830682Y-133426300D01*
X83602515Y-133471686D01*
X83387587Y-133560712D01*
X83194157Y-133689958D01*
X83029658Y-133854457D01*
X82900412Y-134047887D01*
X82811386Y-134262815D01*
X82766000Y-134490982D01*
X82766000Y-134723618D01*
X82811386Y-134951785D01*
X82900412Y-135166713D01*
X83029658Y-135360143D01*
X83194157Y-135524642D01*
X83387587Y-135653888D01*
X83441000Y-135676013D01*
X83441001Y-136249000D01*
X80935100Y-136249000D01*
X80935100Y-135663312D01*
X80988513Y-135641188D01*
X81181943Y-135511942D01*
X81346442Y-135347443D01*
X81475688Y-135154013D01*
X81564714Y-134939085D01*
X81610100Y-134710918D01*
X81610100Y-134478282D01*
X81564714Y-134250115D01*
X81475688Y-134035187D01*
X81346442Y-133841757D01*
X81181943Y-133677258D01*
X80988513Y-133548012D01*
X80773585Y-133458986D01*
X80545418Y-133413600D01*
X80312782Y-133413600D01*
X80084615Y-133458986D01*
X79869687Y-133548012D01*
X79676257Y-133677258D01*
X79511758Y-133841757D01*
X79382512Y-134035187D01*
X79293486Y-134250115D01*
X79248100Y-134478282D01*
X79248100Y-134710918D01*
X79293486Y-134939085D01*
X79382512Y-135154013D01*
X79511758Y-135347443D01*
X79676257Y-135511942D01*
X79869687Y-135641188D01*
X79923100Y-135663313D01*
X79923101Y-136249000D01*
X76912409Y-136249000D01*
X76929471Y-136217079D01*
X76965483Y-136098362D01*
X76977643Y-135974900D01*
X76977643Y-135474900D01*
X76965483Y-135351438D01*
X76929471Y-135232721D01*
X76870990Y-135123311D01*
X76792288Y-135027412D01*
X76701020Y-134952511D01*
X76719282Y-134950712D01*
X76838980Y-134914402D01*
X76949294Y-134855437D01*
X77045985Y-134776085D01*
X77125337Y-134679394D01*
X77184302Y-134569080D01*
X77220612Y-134449382D01*
X77232872Y-134324900D01*
X77229800Y-134056650D01*
X77071050Y-133897900D01*
X75942800Y-133897900D01*
X75942800Y-133917900D01*
X75796800Y-133917900D01*
X75796800Y-133897900D01*
X74668550Y-133897900D01*
X74509800Y-134056650D01*
X74506728Y-134324900D01*
X74518988Y-134449382D01*
X74555298Y-134569080D01*
X74614263Y-134679394D01*
X74693615Y-134776085D01*
X74790306Y-134855437D01*
X74900620Y-134914402D01*
X75020318Y-134950712D01*
X75038580Y-134952511D01*
X74947312Y-135027412D01*
X74868610Y-135123311D01*
X74810129Y-135232721D01*
X74774117Y-135351438D01*
X74761957Y-135474900D01*
X74761957Y-135974900D01*
X74774117Y-136098362D01*
X74810129Y-136217079D01*
X74827191Y-136249000D01*
X72129185Y-136249000D01*
X72092843Y-136212658D01*
X71899413Y-136083412D01*
X71684485Y-135994386D01*
X71456318Y-135949000D01*
X71223682Y-135949000D01*
X70995515Y-135994386D01*
X70780587Y-136083412D01*
X70719843Y-136124000D01*
X69159738Y-136124000D01*
X69123720Y-136087982D01*
X69123720Y-132346294D01*
X69935922Y-132346294D01*
X70007936Y-132583706D01*
X70137652Y-132833324D01*
X70313574Y-133052839D01*
X70528941Y-133233815D01*
X70775476Y-133369298D01*
X71025684Y-133448385D01*
X70995515Y-133454386D01*
X70780587Y-133543412D01*
X70587157Y-133672658D01*
X70422658Y-133837157D01*
X70293412Y-134030587D01*
X70204386Y-134245515D01*
X70159000Y-134473682D01*
X70159000Y-134706318D01*
X70204386Y-134934485D01*
X70293412Y-135149413D01*
X70422658Y-135342843D01*
X70587157Y-135507342D01*
X70780587Y-135636588D01*
X70995515Y-135725614D01*
X71223682Y-135771000D01*
X71456318Y-135771000D01*
X71684485Y-135725614D01*
X71899413Y-135636588D01*
X72092843Y-135507342D01*
X72257342Y-135342843D01*
X72386588Y-135149413D01*
X72475614Y-134934485D01*
X72521000Y-134706318D01*
X72521000Y-134473682D01*
X72475614Y-134245515D01*
X72386588Y-134030587D01*
X72257342Y-133837157D01*
X72092843Y-133672658D01*
X71899413Y-133543412D01*
X71684485Y-133454386D01*
X71654316Y-133448385D01*
X71904524Y-133369298D01*
X71985313Y-133324900D01*
X74506728Y-133324900D01*
X74509800Y-133593150D01*
X74668550Y-133751900D01*
X75796800Y-133751900D01*
X75796800Y-132848650D01*
X75942800Y-132848650D01*
X75942800Y-133751900D01*
X77071050Y-133751900D01*
X77229800Y-133593150D01*
X77232872Y-133324900D01*
X77220612Y-133200418D01*
X77184302Y-133080720D01*
X77125337Y-132970406D01*
X77045985Y-132873715D01*
X76949294Y-132794363D01*
X76838980Y-132735398D01*
X76719282Y-132699088D01*
X76594800Y-132686828D01*
X76101550Y-132689900D01*
X75942800Y-132848650D01*
X75796800Y-132848650D01*
X75638050Y-132689900D01*
X75144800Y-132686828D01*
X75020318Y-132699088D01*
X74900620Y-132735398D01*
X74790306Y-132794363D01*
X74693615Y-132873715D01*
X74614263Y-132970406D01*
X74555298Y-133080720D01*
X74518988Y-133200418D01*
X74506728Y-133324900D01*
X71985313Y-133324900D01*
X72151059Y-133233815D01*
X72366426Y-133052839D01*
X72542348Y-132833324D01*
X72672064Y-132583706D01*
X72744078Y-132346294D01*
X72614161Y-132123000D01*
X71413000Y-132123000D01*
X71413000Y-132143000D01*
X71267000Y-132143000D01*
X71267000Y-132123000D01*
X70065839Y-132123000D01*
X69935922Y-132346294D01*
X69123720Y-132346294D01*
X69123720Y-131753706D01*
X69935922Y-131753706D01*
X70065839Y-131977000D01*
X71267000Y-131977000D01*
X71267000Y-131957000D01*
X71413000Y-131957000D01*
X71413000Y-131977000D01*
X72614161Y-131977000D01*
X72744078Y-131753706D01*
X72672064Y-131516294D01*
X72542348Y-131266676D01*
X72366426Y-131047161D01*
X72151059Y-130866185D01*
X71904524Y-130730702D01*
X71654316Y-130651615D01*
X71684485Y-130645614D01*
X71899413Y-130556588D01*
X72092843Y-130427342D01*
X72257342Y-130262843D01*
X72386588Y-130069413D01*
X72475614Y-129854485D01*
X72521000Y-129626318D01*
X72521000Y-129393682D01*
X72475614Y-129165515D01*
X72386588Y-128950587D01*
X72257342Y-128757157D01*
X72092843Y-128592658D01*
X71899413Y-128463412D01*
X71684485Y-128374386D01*
X71456318Y-128329000D01*
X71223682Y-128329000D01*
X70995515Y-128374386D01*
X70780587Y-128463412D01*
X70587157Y-128592658D01*
X70422658Y-128757157D01*
X70293412Y-128950587D01*
X70204386Y-129165515D01*
X70159000Y-129393682D01*
X70159000Y-129626318D01*
X70204386Y-129854485D01*
X70293412Y-130069413D01*
X70422658Y-130262843D01*
X70587157Y-130427342D01*
X70780587Y-130556588D01*
X70995515Y-130645614D01*
X71025684Y-130651615D01*
X70775476Y-130730702D01*
X70528941Y-130866185D01*
X70313574Y-131047161D01*
X70137652Y-131266676D01*
X70007936Y-131516294D01*
X69935922Y-131753706D01*
X69123720Y-131753706D01*
X69123720Y-127791086D01*
X69128586Y-127741679D01*
X69123720Y-127692272D01*
X69123720Y-127692266D01*
X69122687Y-127681774D01*
X94769000Y-127681774D01*
X94769000Y-128318226D01*
X94893166Y-128942448D01*
X95136725Y-129530452D01*
X95490319Y-130059642D01*
X95940358Y-130509681D01*
X96469548Y-130863275D01*
X97057552Y-131106834D01*
X97681774Y-131231000D01*
X98318226Y-131231000D01*
X98942448Y-131106834D01*
X99530452Y-130863275D01*
X100059642Y-130509681D01*
X100509681Y-130059642D01*
X100863275Y-129530452D01*
X101106834Y-128942448D01*
X101231000Y-128318226D01*
X101231000Y-127681774D01*
X101106834Y-127057552D01*
X100863275Y-126469548D01*
X100509681Y-125940358D01*
X100059642Y-125490319D01*
X99530452Y-125136725D01*
X98942448Y-124893166D01*
X98318226Y-124769000D01*
X97681774Y-124769000D01*
X97057552Y-124893166D01*
X96469548Y-125136725D01*
X95940358Y-125490319D01*
X95490319Y-125940358D01*
X95136725Y-126469548D01*
X94893166Y-127057552D01*
X94769000Y-127681774D01*
X69122687Y-127681774D01*
X69109163Y-127544470D01*
X69108452Y-127542124D01*
X69088165Y-127475248D01*
X69051639Y-127354838D01*
X68958225Y-127180072D01*
X68832511Y-127026889D01*
X68794127Y-126995388D01*
X68035976Y-126237238D01*
X68004471Y-126198849D01*
X67851288Y-126073135D01*
X67676522Y-125979721D01*
X67486890Y-125922197D01*
X67339094Y-125907640D01*
X67289680Y-125902773D01*
X67240266Y-125907640D01*
X53963454Y-125907640D01*
X53914040Y-125902773D01*
X53831192Y-125910933D01*
X53716830Y-125922197D01*
X53527198Y-125979721D01*
X53352432Y-126073135D01*
X53199249Y-126198849D01*
X53167748Y-126237233D01*
X45623342Y-133781640D01*
X42050853Y-133781640D01*
X42001439Y-133776773D01*
X41804229Y-133796197D01*
X41760094Y-133809586D01*
X41614598Y-133853721D01*
X41439832Y-133947135D01*
X41286649Y-134072849D01*
X41255149Y-134111232D01*
X40603673Y-134762709D01*
X40565290Y-134794209D01*
X40439576Y-134947392D01*
X40419554Y-134984851D01*
X40346161Y-135122159D01*
X40288637Y-135311791D01*
X40269213Y-135509000D01*
X38406000Y-135509000D01*
X38406000Y-128018085D01*
X38436014Y-127681774D01*
X39769000Y-127681774D01*
X39769000Y-128318226D01*
X39893166Y-128942448D01*
X40136725Y-129530452D01*
X40490319Y-130059642D01*
X40940358Y-130509681D01*
X41469548Y-130863275D01*
X42057552Y-131106834D01*
X42681774Y-131231000D01*
X43318226Y-131231000D01*
X43942448Y-131106834D01*
X44530452Y-130863275D01*
X45059642Y-130509681D01*
X45509681Y-130059642D01*
X45863275Y-129530452D01*
X46106834Y-128942448D01*
X46231000Y-128318226D01*
X46231000Y-127681774D01*
X46106834Y-127057552D01*
X45863275Y-126469548D01*
X45509681Y-125940358D01*
X45059642Y-125490319D01*
X44530452Y-125136725D01*
X43942448Y-124893166D01*
X43318226Y-124769000D01*
X42681774Y-124769000D01*
X42057552Y-124893166D01*
X41469548Y-125136725D01*
X40940358Y-125490319D01*
X40490319Y-125940358D01*
X40136725Y-126469548D01*
X39893166Y-127057552D01*
X39769000Y-127681774D01*
X38436014Y-127681774D01*
X38480194Y-127186754D01*
X38695638Y-126399227D01*
X39047141Y-125662284D01*
X39523587Y-124999240D01*
X40109919Y-124431044D01*
X40787600Y-123975662D01*
X41535216Y-123647481D01*
X42332251Y-123456130D01*
X43014937Y-123405997D01*
X97981948Y-123395993D01*
X98813245Y-123470184D01*
G37*
%TD.AperFunction*%
D23*
X81817342Y-156243734D02*
X81785407Y-156320831D01*
X81738100Y-156558657D01*
X81738100Y-156801143D01*
X81785407Y-157038969D01*
X81878202Y-157262997D01*
X82012920Y-157464617D01*
X82184383Y-157636080D01*
X82386003Y-157770798D01*
X82610031Y-157863593D01*
X82847857Y-157910900D01*
X83090343Y-157910900D01*
X83328169Y-157863593D01*
X83552197Y-157770798D01*
X83753817Y-157636080D01*
X83925280Y-157464617D01*
X84059998Y-157262997D01*
X84106294Y-157151227D01*
X84131574Y-157234565D01*
X84266253Y-157492649D01*
X84448693Y-157719500D01*
X84671884Y-157906400D01*
X84751362Y-157949900D01*
X84671884Y-157993400D01*
X84448693Y-158180300D01*
X84266253Y-158407151D01*
X84131574Y-158665235D01*
X84106294Y-158748573D01*
X84059998Y-158636803D01*
X83925280Y-158435183D01*
X83753817Y-158263720D01*
X83552197Y-158129002D01*
X83328169Y-158036207D01*
X83090343Y-157988900D01*
X82847857Y-157988900D01*
X82610031Y-158036207D01*
X82386003Y-158129002D01*
X82184383Y-158263720D01*
X82012920Y-158435183D01*
X81878202Y-158636803D01*
X81846268Y-158713900D01*
X80968892Y-158713900D01*
X74284776Y-152029785D01*
X74268927Y-152010473D01*
X74191879Y-151947241D01*
X74103975Y-151900255D01*
X74008593Y-151871322D01*
X73934254Y-151864000D01*
X73934246Y-151864000D01*
X73909400Y-151861553D01*
X73884554Y-151864000D01*
X72408712Y-151864000D01*
X72386588Y-151810587D01*
X72257342Y-151617157D01*
X72238085Y-151597900D01*
X77171509Y-151597900D01*
X81817342Y-156243734D01*
%TA.AperFunction,Conductor*%
D24*
G36*
X81817342Y-156243734D02*
G01*
X81785407Y-156320831D01*
X81738100Y-156558657D01*
X81738100Y-156801143D01*
X81785407Y-157038969D01*
X81878202Y-157262997D01*
X82012920Y-157464617D01*
X82184383Y-157636080D01*
X82386003Y-157770798D01*
X82610031Y-157863593D01*
X82847857Y-157910900D01*
X83090343Y-157910900D01*
X83328169Y-157863593D01*
X83552197Y-157770798D01*
X83753817Y-157636080D01*
X83925280Y-157464617D01*
X84059998Y-157262997D01*
X84106294Y-157151227D01*
X84131574Y-157234565D01*
X84266253Y-157492649D01*
X84448693Y-157719500D01*
X84671884Y-157906400D01*
X84751362Y-157949900D01*
X84671884Y-157993400D01*
X84448693Y-158180300D01*
X84266253Y-158407151D01*
X84131574Y-158665235D01*
X84106294Y-158748573D01*
X84059998Y-158636803D01*
X83925280Y-158435183D01*
X83753817Y-158263720D01*
X83552197Y-158129002D01*
X83328169Y-158036207D01*
X83090343Y-157988900D01*
X82847857Y-157988900D01*
X82610031Y-158036207D01*
X82386003Y-158129002D01*
X82184383Y-158263720D01*
X82012920Y-158435183D01*
X81878202Y-158636803D01*
X81846268Y-158713900D01*
X80968892Y-158713900D01*
X74284776Y-152029785D01*
X74268927Y-152010473D01*
X74191879Y-151947241D01*
X74103975Y-151900255D01*
X74008593Y-151871322D01*
X73934254Y-151864000D01*
X73934246Y-151864000D01*
X73909400Y-151861553D01*
X73884554Y-151864000D01*
X72408712Y-151864000D01*
X72386588Y-151810587D01*
X72257342Y-151617157D01*
X72238085Y-151597900D01*
X77171509Y-151597900D01*
X81817342Y-156243734D01*
G37*
%TD.AperFunction*%
D23*
X81736257Y-153622649D02*
X81736257Y-154731465D01*
X77756476Y-150751685D01*
X77740627Y-150732373D01*
X77663579Y-150669141D01*
X77575675Y-150622155D01*
X77480293Y-150593222D01*
X77405954Y-150585900D01*
X77405946Y-150585900D01*
X77381100Y-150583453D01*
X77356254Y-150585900D01*
X72254285Y-150585900D01*
X72257342Y-150582843D01*
X72386588Y-150389413D01*
X72475614Y-150174485D01*
X72521000Y-149946318D01*
X72521000Y-149713682D01*
X72475614Y-149485515D01*
X72386588Y-149270587D01*
X72257342Y-149077157D01*
X72250785Y-149070600D01*
X77184209Y-149070600D01*
X81736257Y-153622649D01*
%TA.AperFunction,Conductor*%
D24*
G36*
X81736257Y-153622649D02*
G01*
X81736257Y-154731465D01*
X77756476Y-150751685D01*
X77740627Y-150732373D01*
X77663579Y-150669141D01*
X77575675Y-150622155D01*
X77480293Y-150593222D01*
X77405954Y-150585900D01*
X77405946Y-150585900D01*
X77381100Y-150583453D01*
X77356254Y-150585900D01*
X72254285Y-150585900D01*
X72257342Y-150582843D01*
X72386588Y-150389413D01*
X72475614Y-150174485D01*
X72521000Y-149946318D01*
X72521000Y-149713682D01*
X72475614Y-149485515D01*
X72386588Y-149270587D01*
X72257342Y-149077157D01*
X72250785Y-149070600D01*
X77184209Y-149070600D01*
X81736257Y-153622649D01*
G37*
%TD.AperFunction*%
D23*
X70422658Y-141457157D02*
X70293412Y-141650587D01*
X70204386Y-141865515D01*
X70159000Y-142093682D01*
X70159000Y-142326318D01*
X70204386Y-142554485D01*
X70226510Y-142607898D01*
X69865969Y-142968440D01*
X57011745Y-142968440D01*
X57017342Y-142962843D01*
X57146588Y-142769413D01*
X57235614Y-142554485D01*
X57281000Y-142326318D01*
X57281000Y-142093682D01*
X57235614Y-141865515D01*
X57213490Y-141812102D01*
X57599061Y-141426531D01*
X70453284Y-141426531D01*
X70422658Y-141457157D01*
%TA.AperFunction,Conductor*%
D24*
G36*
X70422658Y-141457157D02*
G01*
X70293412Y-141650587D01*
X70204386Y-141865515D01*
X70159000Y-142093682D01*
X70159000Y-142326318D01*
X70204386Y-142554485D01*
X70226510Y-142607898D01*
X69865969Y-142968440D01*
X57011745Y-142968440D01*
X57017342Y-142962843D01*
X57146588Y-142769413D01*
X57235614Y-142554485D01*
X57281000Y-142326318D01*
X57281000Y-142093682D01*
X57235614Y-141865515D01*
X57213490Y-141812102D01*
X57599061Y-141426531D01*
X70453284Y-141426531D01*
X70422658Y-141457157D01*
G37*
%TD.AperFunction*%
%TD*%
M02*
