M48
; DRILL file {KiCad 5.1.12-84ad8e8a86~92~ubuntu20.04.1} date Sun 28 Nov 2021 02:42:29 PM PST
; FORMAT={-:-/ absolute / inch / decimal}
; #@! TF.CreationDate,2021-11-28T14:42:29-08:00
; #@! TF.GenerationSoftware,Kicad,Pcbnew,5.1.12-84ad8e8a86~92~ubuntu20.04.1
; #@! TF.FileFunction,Plated,1,2,PTH
FMAT,2
INCH
T1C0.0157
T2C0.0315
T3C0.0394
T4C0.1260
%
G90
G05
T1
X1.7348Y-6.153
X1.7358Y-6.3022
X1.8765Y-5.59
X1.8896Y-5.728
X2.079Y-6.3034
X2.0796Y-6.1542
X2.1085Y-5.5835
X2.1105Y-5.857
X2.6752Y-5.4722
X2.6807Y-5.7539
X2.6807Y-5.9047
X2.6834Y-5.6034
X2.902Y-6.0485
X2.902Y-6.15
X2.9287Y-5.7441
X2.935Y-5.894
X3.0385Y-6.03
X3.1252Y-6.1294
X3.1465Y-5.9995
X3.1595Y-6.402
X3.17Y-6.308
X3.236Y-5.934
X3.366Y-5.3985
X3.4324Y-5.5638
X3.643Y-5.683
X3.6535Y-5.5345
X3.863Y-5.5807
X3.8685Y-5.4835
T2
X3.1665Y-5.299
X3.1665Y-5.699
X3.305Y-5.2995
X3.305Y-5.6995
T3
X1.7406Y-5.4272
X1.7406Y-5.5272
X1.7406Y-5.6272
X1.7406Y-5.7272
X2.001Y-5.5988
X2.001Y-5.6988
X2.001Y-5.7988
X2.001Y-5.8988
X2.2087Y-5.0988
X2.2087Y-5.1988
X2.2087Y-5.2988
X2.2087Y-5.3988
X2.2087Y-5.4988
X2.2087Y-5.5988
X2.2087Y-5.6988
X2.2087Y-5.7988
X2.2087Y-5.8988
X2.2087Y-5.9988
X2.2087Y-6.0988
X2.2087Y-6.1988
X2.2087Y-6.2988
X2.2087Y-6.3988
X2.2087Y-6.4988
X2.8087Y-5.0988
X2.8087Y-5.1988
X2.8087Y-5.2988
X2.8087Y-5.3988
X2.8087Y-5.4988
X2.8087Y-5.5988
X2.8087Y-5.6988
X2.8087Y-5.7988
X2.8087Y-5.8988
X2.8087Y-5.9988
X2.8087Y-6.0988
X2.8087Y-6.1988
X2.8087Y-6.2988
X2.8087Y-6.3988
X2.8087Y-6.4988
X3.2665Y-6.0685
X3.2665Y-6.1685
X3.2665Y-6.2685
X3.2665Y-6.3685
X3.2665Y-6.4685
X3.3665Y-6.0685
X3.3665Y-6.1685
X3.3665Y-6.2685
X3.3665Y-6.3685
X3.3665Y-6.4685
X3.5185Y-5.4311
X3.5185Y-5.5311
X3.5185Y-5.6311
X3.5185Y-5.7311
X3.785Y-5.4303
X3.785Y-5.5303
X3.785Y-5.6303
X3.785Y-5.7303
X3.9421Y-5.4303
X3.9421Y-5.5303
X3.9421Y-5.6303
X3.9421Y-5.7303
T4
X1.6929Y-5.0394
X1.6929Y-6.6142
X3.8583Y-5.0394
X3.8583Y-6.6142
T0
M30
