%TF.GenerationSoftware,KiCad,Pcbnew,5.1.10-88a1d61d58~90~ubuntu20.04.1*%
%TF.CreationDate,2021-10-05T16:38:46-07:00*%
%TF.ProjectId,FilaScale-s,46696c61-5363-4616-9c65-2d732e6b6963,rev?*%
%TF.SameCoordinates,Original*%
%TF.FileFunction,Soldermask,Top*%
%TF.FilePolarity,Negative*%
%FSLAX46Y46*%
G04 Gerber Fmt 4.6, Leading zero omitted, Abs format (unit mm)*
G04 Created by KiCad (PCBNEW 5.1.10-88a1d61d58~90~ubuntu20.04.1) date 2021-10-05 16:38:46*
%MOMM*%
%LPD*%
G01*
G04 APERTURE LIST*
%ADD10C,5.700000*%
%ADD11R,1.524000X1.524000*%
%ADD12C,1.524000*%
%ADD13R,1.600000X1.600000*%
%ADD14O,1.600000X1.600000*%
%ADD15O,1.700000X1.700000*%
%ADD16R,1.700000X1.700000*%
%ADD17C,1.600000*%
G04 APERTURE END LIST*
D10*
%TO.C,M3*%
X43000000Y-168000000D03*
%TD*%
%TO.C,M3*%
X83000000Y-168000000D03*
%TD*%
%TO.C,M3*%
X83000000Y-128000000D03*
%TD*%
%TO.C,M3*%
X43000000Y-128000000D03*
%TD*%
D11*
%TO.C,J1*%
X50914300Y-149733000D03*
D12*
X50914300Y-147193000D03*
X50914300Y-144653000D03*
X50914300Y-142113000D03*
%TD*%
D13*
%TO.C,J2*%
X56203101Y-129497501D03*
D14*
X71443101Y-162517501D03*
X56203101Y-132037501D03*
X71443101Y-159977501D03*
X56203101Y-134577501D03*
X71443101Y-157437501D03*
X56203101Y-137117501D03*
X71443101Y-154897501D03*
X56203101Y-139657501D03*
X71443101Y-152357501D03*
X56203101Y-142197501D03*
X71443101Y-149817501D03*
X56203101Y-144737501D03*
X71443101Y-147277501D03*
X56203101Y-147277501D03*
X71443101Y-144737501D03*
X56203101Y-149817501D03*
X71443101Y-142197501D03*
X56203101Y-152357501D03*
X71443101Y-139657501D03*
X56203101Y-154897501D03*
X71443101Y-137117501D03*
X56203101Y-157437501D03*
X71443101Y-134577501D03*
X56203101Y-159977501D03*
X71443101Y-132037501D03*
X56203101Y-162517501D03*
X71443101Y-129497501D03*
X56203101Y-165057501D03*
X71443101Y-165057501D03*
%TD*%
D15*
%TO.C,J3*%
X79425800Y-146342100D03*
X79425800Y-143802100D03*
X79425800Y-141262100D03*
D16*
X79425800Y-138722100D03*
%TD*%
%TO.C,J4*%
X44208700Y-145592800D03*
D15*
X44208700Y-143052800D03*
X44208700Y-140512800D03*
X44208700Y-137972800D03*
%TD*%
D14*
%TO.C,R1*%
X82960000Y-137190000D03*
D17*
X82960000Y-147350000D03*
%TD*%
%TO.C,R2*%
X86170000Y-137200000D03*
D14*
X86170000Y-147360000D03*
%TD*%
M02*
