%TF.GenerationSoftware,KiCad,Pcbnew,5.1.12-84ad8e8a86~92~ubuntu20.04.1*%
%TF.CreationDate,2021-11-28T14:42:32-08:00*%
%TF.ProjectId,FilaScale-s,46696c61-5363-4616-9c65-2d732e6b6963,rev?*%
%TF.SameCoordinates,Original*%
%TF.FileFunction,Soldermask,Top*%
%TF.FilePolarity,Negative*%
%FSLAX46Y46*%
G04 Gerber Fmt 4.6, Leading zero omitted, Abs format (unit mm)*
G04 Created by KiCad (PCBNEW 5.1.12-84ad8e8a86~92~ubuntu20.04.1) date 2021-11-28 14:42:32*
%MOMM*%
%LPD*%
G01*
G04 APERTURE LIST*
%ADD10R,1.700000X1.700000*%
%ADD11O,1.700000X1.700000*%
%ADD12C,5.700000*%
%ADD13O,1.600000X1.600000*%
%ADD14C,1.600000*%
%ADD15R,1.600000X1.600000*%
G04 APERTURE END LIST*
D10*
%TO.C,J2*%
X44210000Y-145470000D03*
D11*
X44210000Y-142930000D03*
X44210000Y-140390000D03*
X44210000Y-137850000D03*
%TD*%
D12*
%TO.C,M3*%
X43000000Y-168000000D03*
%TD*%
%TO.C,M3*%
X98000000Y-168000000D03*
%TD*%
%TO.C,M3*%
X98000000Y-128000000D03*
%TD*%
%TO.C,M3*%
X43000000Y-128000000D03*
%TD*%
D13*
%TO.C,R2*%
X80429100Y-134594600D03*
D14*
X80429100Y-144754600D03*
%TD*%
%TO.C,R1*%
X83947000Y-134607300D03*
D13*
X83947000Y-144767300D03*
%TD*%
D15*
%TO.C,J4*%
X56100000Y-129510000D03*
D13*
X71340000Y-162530000D03*
X56100000Y-132050000D03*
X71340000Y-159990000D03*
X56100000Y-134590000D03*
X71340000Y-157450000D03*
X56100000Y-137130000D03*
X71340000Y-154910000D03*
X56100000Y-139670000D03*
X71340000Y-152370000D03*
X56100000Y-142210000D03*
X71340000Y-149830000D03*
X56100000Y-144750000D03*
X71340000Y-147290000D03*
X56100000Y-147290000D03*
X71340000Y-144750000D03*
X56100000Y-149830000D03*
X71340000Y-142210000D03*
X56100000Y-152370000D03*
X71340000Y-139670000D03*
X56100000Y-154910000D03*
X71340000Y-137130000D03*
X56100000Y-157450000D03*
X71340000Y-134590000D03*
X56100000Y-159990000D03*
X71340000Y-132050000D03*
X56100000Y-162530000D03*
X71340000Y-129510000D03*
X56100000Y-165070000D03*
X71340000Y-165070000D03*
%TD*%
D11*
%TO.C,J5*%
X89370000Y-145570000D03*
X89370000Y-143030000D03*
X89370000Y-140490000D03*
D10*
X89370000Y-137950000D03*
%TD*%
%TO.C,J6*%
X96140000Y-137930000D03*
D11*
X96140000Y-140470000D03*
X96140000Y-143010000D03*
X96140000Y-145550000D03*
%TD*%
%TO.C,J7*%
X100130000Y-145550000D03*
X100130000Y-143010000D03*
X100130000Y-140470000D03*
D10*
X100130000Y-137930000D03*
%TD*%
%TO.C,J3*%
X82969100Y-154139900D03*
D11*
X85509100Y-154139900D03*
X82969100Y-156679900D03*
X85509100Y-156679900D03*
X82969100Y-159219900D03*
X85509100Y-159219900D03*
X82969100Y-161759900D03*
X85509100Y-161759900D03*
X82969100Y-164299900D03*
X85509100Y-164299900D03*
%TD*%
%TO.C,C1*%
G36*
G01*
X45210000Y-152051360D02*
X51310000Y-152051360D01*
G75*
G02*
X51560000Y-152301360I0J-250000D01*
G01*
X51560000Y-153601360D01*
G75*
G02*
X51310000Y-153851360I-250000J0D01*
G01*
X45210000Y-153851360D01*
G75*
G02*
X44960000Y-153601360I0J250000D01*
G01*
X44960000Y-152301360D01*
G75*
G02*
X45210000Y-152051360I250000J0D01*
G01*
G37*
G36*
G01*
X45210000Y-157301360D02*
X51310000Y-157301360D01*
G75*
G02*
X51560000Y-157551360I0J-250000D01*
G01*
X51560000Y-158851360D01*
G75*
G02*
X51310000Y-159101360I-250000J0D01*
G01*
X45210000Y-159101360D01*
G75*
G02*
X44960000Y-158851360I0J250000D01*
G01*
X44960000Y-157551360D01*
G75*
G02*
X45210000Y-157301360I250000J0D01*
G01*
G37*
%TD*%
%TO.C,C2*%
G36*
G01*
X76344800Y-136224900D02*
X75394800Y-136224900D01*
G75*
G02*
X75144800Y-135974900I0J250000D01*
G01*
X75144800Y-135474900D01*
G75*
G02*
X75394800Y-135224900I250000J0D01*
G01*
X76344800Y-135224900D01*
G75*
G02*
X76594800Y-135474900I0J-250000D01*
G01*
X76594800Y-135974900D01*
G75*
G02*
X76344800Y-136224900I-250000J0D01*
G01*
G37*
G36*
G01*
X76344800Y-134324900D02*
X75394800Y-134324900D01*
G75*
G02*
X75144800Y-134074900I0J250000D01*
G01*
X75144800Y-133574900D01*
G75*
G02*
X75394800Y-133324900I250000J0D01*
G01*
X76344800Y-133324900D01*
G75*
G02*
X76594800Y-133574900I0J-250000D01*
G01*
X76594800Y-134074900D01*
G75*
G02*
X76344800Y-134324900I-250000J0D01*
G01*
G37*
%TD*%
D10*
%TO.C,J1*%
X50825400Y-149829520D03*
D11*
X50825400Y-147289520D03*
X50825400Y-144749520D03*
X50825400Y-142209520D03*
%TD*%
%TO.C,C3*%
G36*
G01*
X74180680Y-161445240D02*
X75130680Y-161445240D01*
G75*
G02*
X75380680Y-161695240I0J-250000D01*
G01*
X75380680Y-162195240D01*
G75*
G02*
X75130680Y-162445240I-250000J0D01*
G01*
X74180680Y-162445240D01*
G75*
G02*
X73930680Y-162195240I0J250000D01*
G01*
X73930680Y-161695240D01*
G75*
G02*
X74180680Y-161445240I250000J0D01*
G01*
G37*
G36*
G01*
X74180680Y-163345240D02*
X75130680Y-163345240D01*
G75*
G02*
X75380680Y-163595240I0J-250000D01*
G01*
X75380680Y-164095240D01*
G75*
G02*
X75130680Y-164345240I-250000J0D01*
G01*
X74180680Y-164345240D01*
G75*
G02*
X73930680Y-164095240I0J250000D01*
G01*
X73930680Y-163595240D01*
G75*
G02*
X74180680Y-163345240I250000J0D01*
G01*
G37*
%TD*%
M02*
