%TF.GenerationSoftware,KiCad,Pcbnew,5.1.12-84ad8e8a86~92~ubuntu20.04.1*%
%TF.CreationDate,2021-11-28T14:42:32-08:00*%
%TF.ProjectId,FilaScale-s,46696c61-5363-4616-9c65-2d732e6b6963,rev?*%
%TF.SameCoordinates,Original*%
%TF.FileFunction,Copper,L2,Bot*%
%TF.FilePolarity,Positive*%
%FSLAX46Y46*%
G04 Gerber Fmt 4.6, Leading zero omitted, Abs format (unit mm)*
G04 Created by KiCad (PCBNEW 5.1.12-84ad8e8a86~92~ubuntu20.04.1) date 2021-11-28 14:42:32*
%MOMM*%
%LPD*%
G01*
G04 APERTURE LIST*
%TA.AperFunction,ComponentPad*%
%ADD10R,1.700000X1.700000*%
%TD*%
%TA.AperFunction,ComponentPad*%
%ADD11O,1.700000X1.700000*%
%TD*%
%TA.AperFunction,ComponentPad*%
%ADD12C,5.700000*%
%TD*%
%TA.AperFunction,ComponentPad*%
%ADD13O,1.600000X1.600000*%
%TD*%
%TA.AperFunction,ComponentPad*%
%ADD14C,1.600000*%
%TD*%
%TA.AperFunction,ComponentPad*%
%ADD15R,1.600000X1.600000*%
%TD*%
%TA.AperFunction,ViaPad*%
%ADD16C,0.800000*%
%TD*%
%TA.AperFunction,Conductor*%
%ADD17C,1.000000*%
%TD*%
%TA.AperFunction,Conductor*%
%ADD18C,0.250000*%
%TD*%
%TA.AperFunction,Conductor*%
%ADD19C,0.254000*%
%TD*%
%TA.AperFunction,Conductor*%
%ADD20C,0.100000*%
%TD*%
G04 APERTURE END LIST*
D10*
%TO.P,J2,1*%
%TO.N,+5V*%
X44210000Y-145470000D03*
D11*
%TO.P,J2,2*%
%TO.N,/RFID_TXO*%
X44210000Y-142930000D03*
%TO.P,J2,3*%
%TO.N,/RFID_RXI*%
X44210000Y-140390000D03*
%TO.P,J2,4*%
%TO.N,GND*%
X44210000Y-137850000D03*
%TD*%
D12*
%TO.P,M3,1*%
%TO.N,N/C*%
X43000000Y-168000000D03*
%TD*%
%TO.P,M3,1*%
%TO.N,N/C*%
X98000000Y-168000000D03*
%TD*%
%TO.P,M3,1*%
%TO.N,N/C*%
X98000000Y-128000000D03*
%TD*%
%TO.P,M3,1*%
%TO.N,N/C*%
X43000000Y-128000000D03*
%TD*%
D13*
%TO.P,R2,2*%
%TO.N,+5V*%
X80429100Y-134594600D03*
D14*
%TO.P,R2,1*%
%TO.N,/SCL*%
X80429100Y-144754600D03*
%TD*%
%TO.P,R1,1*%
%TO.N,+5V*%
X83947000Y-134607300D03*
D13*
%TO.P,R1,2*%
%TO.N,/SDA*%
X83947000Y-144767300D03*
%TD*%
D15*
%TO.P,J4,1*%
%TO.N,Net-(J4-Pad1)*%
X56100000Y-129510000D03*
D13*
%TO.P,J4,17*%
%TO.N,Net-(J4-Pad17)*%
X71340000Y-162530000D03*
%TO.P,J4,2*%
%TO.N,Net-(J4-Pad2)*%
X56100000Y-132050000D03*
%TO.P,J4,18*%
%TO.N,/AREF*%
X71340000Y-159990000D03*
%TO.P,J4,3*%
%TO.N,Net-(J4-Pad3)*%
X56100000Y-134590000D03*
%TO.P,J4,19*%
%TO.N,/A0*%
X71340000Y-157450000D03*
%TO.P,J4,4*%
%TO.N,GND*%
X56100000Y-137130000D03*
%TO.P,J4,20*%
%TO.N,/A1*%
X71340000Y-154910000D03*
%TO.P,J4,5*%
%TO.N,/RFID_RXI*%
X56100000Y-139670000D03*
%TO.P,J4,21*%
%TO.N,/A2*%
X71340000Y-152370000D03*
%TO.P,J4,6*%
%TO.N,/D3*%
X56100000Y-142210000D03*
%TO.P,J4,22*%
%TO.N,Net-(J4-Pad22)*%
X71340000Y-149830000D03*
%TO.P,J4,7*%
%TO.N,/PD_DOUT*%
X56100000Y-144750000D03*
%TO.P,J4,23*%
%TO.N,/SDA*%
X71340000Y-147290000D03*
%TO.P,J4,8*%
%TO.N,/PD_SCK*%
X56100000Y-147290000D03*
%TO.P,J4,24*%
%TO.N,/SCL*%
X71340000Y-144750000D03*
%TO.P,J4,9*%
%TO.N,/D6*%
X56100000Y-149830000D03*
%TO.P,J4,25*%
%TO.N,/RFID_TXO*%
X71340000Y-142210000D03*
%TO.P,J4,10*%
%TO.N,/D7*%
X56100000Y-152370000D03*
%TO.P,J4,26*%
%TO.N,Net-(J4-Pad26)*%
X71340000Y-139670000D03*
%TO.P,J4,11*%
%TO.N,Net-(J4-Pad11)*%
X56100000Y-154910000D03*
%TO.P,J4,27*%
%TO.N,+5V*%
X71340000Y-137130000D03*
%TO.P,J4,12*%
%TO.N,Net-(J4-Pad12)*%
X56100000Y-157450000D03*
%TO.P,J4,28*%
%TO.N,Net-(J4-Pad28)*%
X71340000Y-134590000D03*
%TO.P,J4,13*%
%TO.N,Net-(J4-Pad13)*%
X56100000Y-159990000D03*
%TO.P,J4,29*%
%TO.N,GND*%
X71340000Y-132050000D03*
%TO.P,J4,14*%
%TO.N,Net-(J4-Pad14)*%
X56100000Y-162530000D03*
%TO.P,J4,30*%
%TO.N,Net-(J4-Pad30)*%
X71340000Y-129510000D03*
%TO.P,J4,15*%
%TO.N,Net-(J4-Pad15)*%
X56100000Y-165070000D03*
%TO.P,J4,16*%
%TO.N,Net-(J4-Pad16)*%
X71340000Y-165070000D03*
%TD*%
D11*
%TO.P,J5,4*%
%TO.N,/SDA*%
X89370000Y-145570000D03*
%TO.P,J5,3*%
%TO.N,/SCL*%
X89370000Y-143030000D03*
%TO.P,J5,2*%
%TO.N,GND*%
X89370000Y-140490000D03*
D10*
%TO.P,J5,1*%
%TO.N,+5V*%
X89370000Y-137950000D03*
%TD*%
%TO.P,J6,1*%
%TO.N,+5V*%
X96140000Y-137930000D03*
D11*
%TO.P,J6,2*%
%TO.N,/SCL*%
X96140000Y-140470000D03*
%TO.P,J6,3*%
%TO.N,/SDA*%
X96140000Y-143010000D03*
%TO.P,J6,4*%
%TO.N,GND*%
X96140000Y-145550000D03*
%TD*%
%TO.P,J7,4*%
%TO.N,GND*%
X100130000Y-145550000D03*
%TO.P,J7,3*%
%TO.N,/SDA*%
X100130000Y-143010000D03*
%TO.P,J7,2*%
%TO.N,/SCL*%
X100130000Y-140470000D03*
D10*
%TO.P,J7,1*%
%TO.N,+5V*%
X100130000Y-137930000D03*
%TD*%
%TO.P,J3,1*%
%TO.N,/D6*%
X82969100Y-154139900D03*
D11*
%TO.P,J3,2*%
%TO.N,+5V*%
X85509100Y-154139900D03*
%TO.P,J3,3*%
%TO.N,/D7*%
X82969100Y-156679900D03*
%TO.P,J3,4*%
%TO.N,GND*%
X85509100Y-156679900D03*
%TO.P,J3,5*%
%TO.N,/A2*%
X82969100Y-159219900D03*
%TO.P,J3,6*%
%TO.N,GND*%
X85509100Y-159219900D03*
%TO.P,J3,7*%
%TO.N,/A1*%
X82969100Y-161759900D03*
%TO.P,J3,8*%
%TO.N,GND*%
X85509100Y-161759900D03*
%TO.P,J3,9*%
%TO.N,/A0*%
X82969100Y-164299900D03*
%TO.P,J3,10*%
%TO.N,/D3*%
X85509100Y-164299900D03*
%TD*%
D10*
%TO.P,J1,1*%
%TO.N,+5V*%
X50825400Y-149829520D03*
D11*
%TO.P,J1,2*%
%TO.N,/PD_SCK*%
X50825400Y-147289520D03*
%TO.P,J1,3*%
%TO.N,/PD_DOUT*%
X50825400Y-144749520D03*
%TO.P,J1,4*%
%TO.N,GND*%
X50825400Y-142209520D03*
%TD*%
D16*
%TO.N,+5V*%
X85496400Y-137121900D03*
%TO.N,GND*%
X47663100Y-141986000D03*
X53555900Y-141820900D03*
X53606700Y-148767800D03*
X98120000Y-141750000D03*
X98260000Y-139280000D03*
X67950080Y-138993880D03*
X74390000Y-145900000D03*
X68090000Y-146150000D03*
X68090000Y-149980000D03*
X74549000Y-149707600D03*
X73710800Y-153631900D03*
X77177900Y-153162000D03*
X79380080Y-155686760D03*
X80518000Y-160223200D03*
X80251300Y-162610800D03*
X73710800Y-156210000D03*
X79921100Y-152387300D03*
X92532200Y-144348200D03*
X92798900Y-140576300D03*
X82194400Y-150723600D03*
X68158360Y-142326360D03*
X47995840Y-145491200D03*
X44063920Y-156286200D03*
X44089320Y-160075880D03*
X52806600Y-160106360D03*
X52821840Y-156316680D03*
%TO.N,/D3*%
X87182950Y-141320530D03*
%TD*%
D17*
%TO.N,+5V*%
X85509100Y-137134600D02*
X85509100Y-154139900D01*
X85504500Y-137130000D02*
X85509100Y-137134600D01*
D18*
%TO.N,/RFID_TXO*%
X44615001Y-143335001D02*
X44678240Y-143398240D01*
%TO.N,/D3*%
X85509100Y-164299900D02*
X87182950Y-162626050D01*
X87182950Y-162626050D02*
X87182950Y-141320530D01*
%TD*%
D19*
%TO.N,GND*%
X98768084Y-123721163D02*
X99511894Y-123924647D01*
X100207909Y-124256628D01*
X100834137Y-124706618D01*
X101370785Y-125260397D01*
X101800882Y-125900450D01*
X102110839Y-126606550D01*
X102291998Y-127361131D01*
X102340001Y-128023890D01*
X102340000Y-167970608D01*
X102268827Y-168768083D01*
X102065344Y-169511890D01*
X101733363Y-170207904D01*
X101283374Y-170834130D01*
X100729597Y-171370777D01*
X100089549Y-171800871D01*
X99383447Y-172110829D01*
X98628543Y-172292065D01*
X97975793Y-172340000D01*
X43029392Y-172340000D01*
X42231917Y-172268827D01*
X41488110Y-172065344D01*
X40792096Y-171733363D01*
X40165870Y-171283374D01*
X39629223Y-170729597D01*
X39199129Y-170089549D01*
X38889171Y-169383447D01*
X38707935Y-168628543D01*
X38660000Y-167975793D01*
X38660000Y-167656758D01*
X39515000Y-167656758D01*
X39515000Y-168343242D01*
X39648927Y-169016537D01*
X39911633Y-169650766D01*
X40293024Y-170221558D01*
X40778442Y-170706976D01*
X41349234Y-171088367D01*
X41983463Y-171351073D01*
X42656758Y-171485000D01*
X43343242Y-171485000D01*
X44016537Y-171351073D01*
X44650766Y-171088367D01*
X45221558Y-170706976D01*
X45706976Y-170221558D01*
X46088367Y-169650766D01*
X46351073Y-169016537D01*
X46485000Y-168343242D01*
X46485000Y-167656758D01*
X94515000Y-167656758D01*
X94515000Y-168343242D01*
X94648927Y-169016537D01*
X94911633Y-169650766D01*
X95293024Y-170221558D01*
X95778442Y-170706976D01*
X96349234Y-171088367D01*
X96983463Y-171351073D01*
X97656758Y-171485000D01*
X98343242Y-171485000D01*
X99016537Y-171351073D01*
X99650766Y-171088367D01*
X100221558Y-170706976D01*
X100706976Y-170221558D01*
X101088367Y-169650766D01*
X101351073Y-169016537D01*
X101485000Y-168343242D01*
X101485000Y-167656758D01*
X101351073Y-166983463D01*
X101088367Y-166349234D01*
X100706976Y-165778442D01*
X100221558Y-165293024D01*
X99650766Y-164911633D01*
X99016537Y-164648927D01*
X98343242Y-164515000D01*
X97656758Y-164515000D01*
X96983463Y-164648927D01*
X96349234Y-164911633D01*
X95778442Y-165293024D01*
X95293024Y-165778442D01*
X94911633Y-166349234D01*
X94648927Y-166983463D01*
X94515000Y-167656758D01*
X46485000Y-167656758D01*
X46351073Y-166983463D01*
X46088367Y-166349234D01*
X45706976Y-165778442D01*
X45221558Y-165293024D01*
X44650766Y-164911633D01*
X44016537Y-164648927D01*
X43343242Y-164515000D01*
X42656758Y-164515000D01*
X41983463Y-164648927D01*
X41349234Y-164911633D01*
X40778442Y-165293024D01*
X40293024Y-165778442D01*
X39911633Y-166349234D01*
X39648927Y-166983463D01*
X39515000Y-167656758D01*
X38660000Y-167656758D01*
X38660000Y-148979520D01*
X49337328Y-148979520D01*
X49337328Y-150679520D01*
X49349588Y-150804002D01*
X49385898Y-150923700D01*
X49444863Y-151034014D01*
X49524215Y-151130705D01*
X49620906Y-151210057D01*
X49731220Y-151269022D01*
X49850918Y-151305332D01*
X49975400Y-151317592D01*
X51675400Y-151317592D01*
X51799882Y-151305332D01*
X51919580Y-151269022D01*
X52029894Y-151210057D01*
X52126585Y-151130705D01*
X52205937Y-151034014D01*
X52264902Y-150923700D01*
X52301212Y-150804002D01*
X52313472Y-150679520D01*
X52313472Y-148979520D01*
X52301212Y-148855038D01*
X52264902Y-148735340D01*
X52205937Y-148625026D01*
X52126585Y-148528335D01*
X52029894Y-148448983D01*
X51919580Y-148390018D01*
X51847020Y-148368007D01*
X51978875Y-148236152D01*
X52141390Y-147992931D01*
X52253332Y-147722678D01*
X52310400Y-147435780D01*
X52310400Y-147143260D01*
X52253332Y-146856362D01*
X52141390Y-146586109D01*
X51978875Y-146342888D01*
X51772032Y-146136045D01*
X51597640Y-146019520D01*
X51772032Y-145902995D01*
X51978875Y-145696152D01*
X52141390Y-145452931D01*
X52253332Y-145182678D01*
X52310400Y-144895780D01*
X52310400Y-144603260D01*
X52253332Y-144316362D01*
X52141390Y-144046109D01*
X51978875Y-143802888D01*
X51772032Y-143596045D01*
X51589866Y-143474325D01*
X51706755Y-143404698D01*
X51922988Y-143209789D01*
X52097041Y-142976440D01*
X52222225Y-142713619D01*
X52266876Y-142566410D01*
X52145555Y-142336520D01*
X50952400Y-142336520D01*
X50952400Y-142356520D01*
X50698400Y-142356520D01*
X50698400Y-142336520D01*
X49505245Y-142336520D01*
X49383924Y-142566410D01*
X49428575Y-142713619D01*
X49553759Y-142976440D01*
X49727812Y-143209789D01*
X49944045Y-143404698D01*
X50060934Y-143474325D01*
X49878768Y-143596045D01*
X49671925Y-143802888D01*
X49509410Y-144046109D01*
X49397468Y-144316362D01*
X49340400Y-144603260D01*
X49340400Y-144895780D01*
X49397468Y-145182678D01*
X49509410Y-145452931D01*
X49671925Y-145696152D01*
X49878768Y-145902995D01*
X50053160Y-146019520D01*
X49878768Y-146136045D01*
X49671925Y-146342888D01*
X49509410Y-146586109D01*
X49397468Y-146856362D01*
X49340400Y-147143260D01*
X49340400Y-147435780D01*
X49397468Y-147722678D01*
X49509410Y-147992931D01*
X49671925Y-148236152D01*
X49803780Y-148368007D01*
X49731220Y-148390018D01*
X49620906Y-148448983D01*
X49524215Y-148528335D01*
X49444863Y-148625026D01*
X49385898Y-148735340D01*
X49349588Y-148855038D01*
X49337328Y-148979520D01*
X38660000Y-148979520D01*
X38660000Y-144620000D01*
X42721928Y-144620000D01*
X42721928Y-146320000D01*
X42734188Y-146444482D01*
X42770498Y-146564180D01*
X42829463Y-146674494D01*
X42908815Y-146771185D01*
X43005506Y-146850537D01*
X43115820Y-146909502D01*
X43235518Y-146945812D01*
X43360000Y-146958072D01*
X45060000Y-146958072D01*
X45184482Y-146945812D01*
X45304180Y-146909502D01*
X45414494Y-146850537D01*
X45511185Y-146771185D01*
X45590537Y-146674494D01*
X45649502Y-146564180D01*
X45685812Y-146444482D01*
X45698072Y-146320000D01*
X45698072Y-144620000D01*
X45685812Y-144495518D01*
X45649502Y-144375820D01*
X45590537Y-144265506D01*
X45511185Y-144168815D01*
X45414494Y-144089463D01*
X45304180Y-144030498D01*
X45231620Y-144008487D01*
X45363475Y-143876632D01*
X45525990Y-143633411D01*
X45637932Y-143363158D01*
X45695000Y-143076260D01*
X45695000Y-142783740D01*
X45637932Y-142496842D01*
X45525990Y-142226589D01*
X45363475Y-141983368D01*
X45232737Y-141852630D01*
X49383924Y-141852630D01*
X49505245Y-142082520D01*
X50698400Y-142082520D01*
X50698400Y-140888706D01*
X50952400Y-140888706D01*
X50952400Y-142082520D01*
X52145555Y-142082520D01*
X52266876Y-141852630D01*
X52222225Y-141705421D01*
X52097041Y-141442600D01*
X51922988Y-141209251D01*
X51706755Y-141014342D01*
X51456652Y-140865363D01*
X51182291Y-140768039D01*
X50952400Y-140888706D01*
X50698400Y-140888706D01*
X50468509Y-140768039D01*
X50194148Y-140865363D01*
X49944045Y-141014342D01*
X49727812Y-141209251D01*
X49553759Y-141442600D01*
X49428575Y-141705421D01*
X49383924Y-141852630D01*
X45232737Y-141852630D01*
X45156632Y-141776525D01*
X44982240Y-141660000D01*
X45156632Y-141543475D01*
X45363475Y-141336632D01*
X45525990Y-141093411D01*
X45637932Y-140823158D01*
X45695000Y-140536260D01*
X45695000Y-140243740D01*
X45637932Y-139956842D01*
X45525990Y-139686589D01*
X45420469Y-139528665D01*
X54665000Y-139528665D01*
X54665000Y-139811335D01*
X54720147Y-140088574D01*
X54828320Y-140349727D01*
X54985363Y-140584759D01*
X55185241Y-140784637D01*
X55417759Y-140940000D01*
X55185241Y-141095363D01*
X54985363Y-141295241D01*
X54828320Y-141530273D01*
X54720147Y-141791426D01*
X54665000Y-142068665D01*
X54665000Y-142351335D01*
X54720147Y-142628574D01*
X54828320Y-142889727D01*
X54985363Y-143124759D01*
X55185241Y-143324637D01*
X55417759Y-143480000D01*
X55185241Y-143635363D01*
X54985363Y-143835241D01*
X54828320Y-144070273D01*
X54720147Y-144331426D01*
X54665000Y-144608665D01*
X54665000Y-144891335D01*
X54720147Y-145168574D01*
X54828320Y-145429727D01*
X54985363Y-145664759D01*
X55185241Y-145864637D01*
X55417759Y-146020000D01*
X55185241Y-146175363D01*
X54985363Y-146375241D01*
X54828320Y-146610273D01*
X54720147Y-146871426D01*
X54665000Y-147148665D01*
X54665000Y-147431335D01*
X54720147Y-147708574D01*
X54828320Y-147969727D01*
X54985363Y-148204759D01*
X55185241Y-148404637D01*
X55417759Y-148560000D01*
X55185241Y-148715363D01*
X54985363Y-148915241D01*
X54828320Y-149150273D01*
X54720147Y-149411426D01*
X54665000Y-149688665D01*
X54665000Y-149971335D01*
X54720147Y-150248574D01*
X54828320Y-150509727D01*
X54985363Y-150744759D01*
X55185241Y-150944637D01*
X55417759Y-151100000D01*
X55185241Y-151255363D01*
X54985363Y-151455241D01*
X54828320Y-151690273D01*
X54720147Y-151951426D01*
X54665000Y-152228665D01*
X54665000Y-152511335D01*
X54720147Y-152788574D01*
X54828320Y-153049727D01*
X54985363Y-153284759D01*
X55185241Y-153484637D01*
X55417759Y-153640000D01*
X55185241Y-153795363D01*
X54985363Y-153995241D01*
X54828320Y-154230273D01*
X54720147Y-154491426D01*
X54665000Y-154768665D01*
X54665000Y-155051335D01*
X54720147Y-155328574D01*
X54828320Y-155589727D01*
X54985363Y-155824759D01*
X55185241Y-156024637D01*
X55417759Y-156180000D01*
X55185241Y-156335363D01*
X54985363Y-156535241D01*
X54828320Y-156770273D01*
X54720147Y-157031426D01*
X54665000Y-157308665D01*
X54665000Y-157591335D01*
X54720147Y-157868574D01*
X54828320Y-158129727D01*
X54985363Y-158364759D01*
X55185241Y-158564637D01*
X55417759Y-158720000D01*
X55185241Y-158875363D01*
X54985363Y-159075241D01*
X54828320Y-159310273D01*
X54720147Y-159571426D01*
X54665000Y-159848665D01*
X54665000Y-160131335D01*
X54720147Y-160408574D01*
X54828320Y-160669727D01*
X54985363Y-160904759D01*
X55185241Y-161104637D01*
X55417759Y-161260000D01*
X55185241Y-161415363D01*
X54985363Y-161615241D01*
X54828320Y-161850273D01*
X54720147Y-162111426D01*
X54665000Y-162388665D01*
X54665000Y-162671335D01*
X54720147Y-162948574D01*
X54828320Y-163209727D01*
X54985363Y-163444759D01*
X55185241Y-163644637D01*
X55417759Y-163800000D01*
X55185241Y-163955363D01*
X54985363Y-164155241D01*
X54828320Y-164390273D01*
X54720147Y-164651426D01*
X54665000Y-164928665D01*
X54665000Y-165211335D01*
X54720147Y-165488574D01*
X54828320Y-165749727D01*
X54985363Y-165984759D01*
X55185241Y-166184637D01*
X55420273Y-166341680D01*
X55681426Y-166449853D01*
X55958665Y-166505000D01*
X56241335Y-166505000D01*
X56518574Y-166449853D01*
X56779727Y-166341680D01*
X57014759Y-166184637D01*
X57214637Y-165984759D01*
X57371680Y-165749727D01*
X57479853Y-165488574D01*
X57535000Y-165211335D01*
X57535000Y-164928665D01*
X57479853Y-164651426D01*
X57371680Y-164390273D01*
X57214637Y-164155241D01*
X57014759Y-163955363D01*
X56782241Y-163800000D01*
X57014759Y-163644637D01*
X57214637Y-163444759D01*
X57371680Y-163209727D01*
X57479853Y-162948574D01*
X57535000Y-162671335D01*
X57535000Y-162388665D01*
X57479853Y-162111426D01*
X57371680Y-161850273D01*
X57214637Y-161615241D01*
X57014759Y-161415363D01*
X56782241Y-161260000D01*
X57014759Y-161104637D01*
X57214637Y-160904759D01*
X57371680Y-160669727D01*
X57479853Y-160408574D01*
X57535000Y-160131335D01*
X57535000Y-159848665D01*
X57479853Y-159571426D01*
X57371680Y-159310273D01*
X57214637Y-159075241D01*
X57014759Y-158875363D01*
X56782241Y-158720000D01*
X57014759Y-158564637D01*
X57214637Y-158364759D01*
X57371680Y-158129727D01*
X57479853Y-157868574D01*
X57535000Y-157591335D01*
X57535000Y-157308665D01*
X57479853Y-157031426D01*
X57371680Y-156770273D01*
X57214637Y-156535241D01*
X57014759Y-156335363D01*
X56782241Y-156180000D01*
X57014759Y-156024637D01*
X57214637Y-155824759D01*
X57371680Y-155589727D01*
X57479853Y-155328574D01*
X57535000Y-155051335D01*
X57535000Y-154768665D01*
X57479853Y-154491426D01*
X57371680Y-154230273D01*
X57214637Y-153995241D01*
X57014759Y-153795363D01*
X56782241Y-153640000D01*
X57014759Y-153484637D01*
X57214637Y-153284759D01*
X57371680Y-153049727D01*
X57479853Y-152788574D01*
X57535000Y-152511335D01*
X57535000Y-152228665D01*
X57479853Y-151951426D01*
X57371680Y-151690273D01*
X57214637Y-151455241D01*
X57014759Y-151255363D01*
X56782241Y-151100000D01*
X57014759Y-150944637D01*
X57214637Y-150744759D01*
X57371680Y-150509727D01*
X57479853Y-150248574D01*
X57535000Y-149971335D01*
X57535000Y-149688665D01*
X57479853Y-149411426D01*
X57371680Y-149150273D01*
X57214637Y-148915241D01*
X57014759Y-148715363D01*
X56782241Y-148560000D01*
X57014759Y-148404637D01*
X57214637Y-148204759D01*
X57371680Y-147969727D01*
X57479853Y-147708574D01*
X57535000Y-147431335D01*
X57535000Y-147148665D01*
X57479853Y-146871426D01*
X57371680Y-146610273D01*
X57214637Y-146375241D01*
X57014759Y-146175363D01*
X56782241Y-146020000D01*
X57014759Y-145864637D01*
X57214637Y-145664759D01*
X57371680Y-145429727D01*
X57479853Y-145168574D01*
X57535000Y-144891335D01*
X57535000Y-144608665D01*
X57479853Y-144331426D01*
X57371680Y-144070273D01*
X57214637Y-143835241D01*
X57014759Y-143635363D01*
X56782241Y-143480000D01*
X57014759Y-143324637D01*
X57214637Y-143124759D01*
X57371680Y-142889727D01*
X57479853Y-142628574D01*
X57535000Y-142351335D01*
X57535000Y-142068665D01*
X57479853Y-141791426D01*
X57371680Y-141530273D01*
X57214637Y-141295241D01*
X57014759Y-141095363D01*
X56782241Y-140940000D01*
X57014759Y-140784637D01*
X57214637Y-140584759D01*
X57371680Y-140349727D01*
X57479853Y-140088574D01*
X57535000Y-139811335D01*
X57535000Y-139528665D01*
X57479853Y-139251426D01*
X57371680Y-138990273D01*
X57214637Y-138755241D01*
X57014759Y-138555363D01*
X56779727Y-138398320D01*
X56769135Y-138393933D01*
X56955131Y-138282385D01*
X57163519Y-138093414D01*
X57331037Y-137867420D01*
X57451246Y-137613087D01*
X57491904Y-137479039D01*
X57369915Y-137257000D01*
X56227000Y-137257000D01*
X56227000Y-137277000D01*
X55973000Y-137277000D01*
X55973000Y-137257000D01*
X54830085Y-137257000D01*
X54708096Y-137479039D01*
X54748754Y-137613087D01*
X54868963Y-137867420D01*
X55036481Y-138093414D01*
X55244869Y-138282385D01*
X55430865Y-138393933D01*
X55420273Y-138398320D01*
X55185241Y-138555363D01*
X54985363Y-138755241D01*
X54828320Y-138990273D01*
X54720147Y-139251426D01*
X54665000Y-139528665D01*
X45420469Y-139528665D01*
X45363475Y-139443368D01*
X45156632Y-139236525D01*
X44974466Y-139114805D01*
X45091355Y-139045178D01*
X45307588Y-138850269D01*
X45481641Y-138616920D01*
X45606825Y-138354099D01*
X45651476Y-138206890D01*
X45530155Y-137977000D01*
X44337000Y-137977000D01*
X44337000Y-137997000D01*
X44083000Y-137997000D01*
X44083000Y-137977000D01*
X42889845Y-137977000D01*
X42768524Y-138206890D01*
X42813175Y-138354099D01*
X42938359Y-138616920D01*
X43112412Y-138850269D01*
X43328645Y-139045178D01*
X43445534Y-139114805D01*
X43263368Y-139236525D01*
X43056525Y-139443368D01*
X42894010Y-139686589D01*
X42782068Y-139956842D01*
X42725000Y-140243740D01*
X42725000Y-140536260D01*
X42782068Y-140823158D01*
X42894010Y-141093411D01*
X43056525Y-141336632D01*
X43263368Y-141543475D01*
X43437760Y-141660000D01*
X43263368Y-141776525D01*
X43056525Y-141983368D01*
X42894010Y-142226589D01*
X42782068Y-142496842D01*
X42725000Y-142783740D01*
X42725000Y-143076260D01*
X42782068Y-143363158D01*
X42894010Y-143633411D01*
X43056525Y-143876632D01*
X43188380Y-144008487D01*
X43115820Y-144030498D01*
X43005506Y-144089463D01*
X42908815Y-144168815D01*
X42829463Y-144265506D01*
X42770498Y-144375820D01*
X42734188Y-144495518D01*
X42721928Y-144620000D01*
X38660000Y-144620000D01*
X38660000Y-137493110D01*
X42768524Y-137493110D01*
X42889845Y-137723000D01*
X44083000Y-137723000D01*
X44083000Y-136529186D01*
X44337000Y-136529186D01*
X44337000Y-137723000D01*
X45530155Y-137723000D01*
X45651476Y-137493110D01*
X45606825Y-137345901D01*
X45481641Y-137083080D01*
X45307588Y-136849731D01*
X45091355Y-136654822D01*
X44841252Y-136505843D01*
X44566891Y-136408519D01*
X44337000Y-136529186D01*
X44083000Y-136529186D01*
X43853109Y-136408519D01*
X43578748Y-136505843D01*
X43328645Y-136654822D01*
X43112412Y-136849731D01*
X42938359Y-137083080D01*
X42813175Y-137345901D01*
X42768524Y-137493110D01*
X38660000Y-137493110D01*
X38660000Y-128029392D01*
X38693256Y-127656758D01*
X39515000Y-127656758D01*
X39515000Y-128343242D01*
X39648927Y-129016537D01*
X39911633Y-129650766D01*
X40293024Y-130221558D01*
X40778442Y-130706976D01*
X41349234Y-131088367D01*
X41983463Y-131351073D01*
X42656758Y-131485000D01*
X43343242Y-131485000D01*
X44016537Y-131351073D01*
X44650766Y-131088367D01*
X45221558Y-130706976D01*
X45706976Y-130221558D01*
X46088367Y-129650766D01*
X46351073Y-129016537D01*
X46412047Y-128710000D01*
X54661928Y-128710000D01*
X54661928Y-130310000D01*
X54674188Y-130434482D01*
X54710498Y-130554180D01*
X54769463Y-130664494D01*
X54848815Y-130761185D01*
X54945506Y-130840537D01*
X55055820Y-130899502D01*
X55175518Y-130935812D01*
X55183961Y-130936643D01*
X54985363Y-131135241D01*
X54828320Y-131370273D01*
X54720147Y-131631426D01*
X54665000Y-131908665D01*
X54665000Y-132191335D01*
X54720147Y-132468574D01*
X54828320Y-132729727D01*
X54985363Y-132964759D01*
X55185241Y-133164637D01*
X55417759Y-133320000D01*
X55185241Y-133475363D01*
X54985363Y-133675241D01*
X54828320Y-133910273D01*
X54720147Y-134171426D01*
X54665000Y-134448665D01*
X54665000Y-134731335D01*
X54720147Y-135008574D01*
X54828320Y-135269727D01*
X54985363Y-135504759D01*
X55185241Y-135704637D01*
X55420273Y-135861680D01*
X55430865Y-135866067D01*
X55244869Y-135977615D01*
X55036481Y-136166586D01*
X54868963Y-136392580D01*
X54748754Y-136646913D01*
X54708096Y-136780961D01*
X54830085Y-137003000D01*
X55973000Y-137003000D01*
X55973000Y-136983000D01*
X56227000Y-136983000D01*
X56227000Y-137003000D01*
X57369915Y-137003000D01*
X57491904Y-136780961D01*
X57451246Y-136646913D01*
X57331037Y-136392580D01*
X57163519Y-136166586D01*
X56955131Y-135977615D01*
X56769135Y-135866067D01*
X56779727Y-135861680D01*
X57014759Y-135704637D01*
X57214637Y-135504759D01*
X57371680Y-135269727D01*
X57479853Y-135008574D01*
X57535000Y-134731335D01*
X57535000Y-134448665D01*
X69905000Y-134448665D01*
X69905000Y-134731335D01*
X69960147Y-135008574D01*
X70068320Y-135269727D01*
X70225363Y-135504759D01*
X70425241Y-135704637D01*
X70657759Y-135860000D01*
X70425241Y-136015363D01*
X70225363Y-136215241D01*
X70068320Y-136450273D01*
X69960147Y-136711426D01*
X69905000Y-136988665D01*
X69905000Y-137271335D01*
X69960147Y-137548574D01*
X70068320Y-137809727D01*
X70225363Y-138044759D01*
X70425241Y-138244637D01*
X70657759Y-138400000D01*
X70425241Y-138555363D01*
X70225363Y-138755241D01*
X70068320Y-138990273D01*
X69960147Y-139251426D01*
X69905000Y-139528665D01*
X69905000Y-139811335D01*
X69960147Y-140088574D01*
X70068320Y-140349727D01*
X70225363Y-140584759D01*
X70425241Y-140784637D01*
X70657759Y-140940000D01*
X70425241Y-141095363D01*
X70225363Y-141295241D01*
X70068320Y-141530273D01*
X69960147Y-141791426D01*
X69905000Y-142068665D01*
X69905000Y-142351335D01*
X69960147Y-142628574D01*
X70068320Y-142889727D01*
X70225363Y-143124759D01*
X70425241Y-143324637D01*
X70657759Y-143480000D01*
X70425241Y-143635363D01*
X70225363Y-143835241D01*
X70068320Y-144070273D01*
X69960147Y-144331426D01*
X69905000Y-144608665D01*
X69905000Y-144891335D01*
X69960147Y-145168574D01*
X70068320Y-145429727D01*
X70225363Y-145664759D01*
X70425241Y-145864637D01*
X70657759Y-146020000D01*
X70425241Y-146175363D01*
X70225363Y-146375241D01*
X70068320Y-146610273D01*
X69960147Y-146871426D01*
X69905000Y-147148665D01*
X69905000Y-147431335D01*
X69960147Y-147708574D01*
X70068320Y-147969727D01*
X70225363Y-148204759D01*
X70425241Y-148404637D01*
X70657759Y-148560000D01*
X70425241Y-148715363D01*
X70225363Y-148915241D01*
X70068320Y-149150273D01*
X69960147Y-149411426D01*
X69905000Y-149688665D01*
X69905000Y-149971335D01*
X69960147Y-150248574D01*
X70068320Y-150509727D01*
X70225363Y-150744759D01*
X70425241Y-150944637D01*
X70657759Y-151100000D01*
X70425241Y-151255363D01*
X70225363Y-151455241D01*
X70068320Y-151690273D01*
X69960147Y-151951426D01*
X69905000Y-152228665D01*
X69905000Y-152511335D01*
X69960147Y-152788574D01*
X70068320Y-153049727D01*
X70225363Y-153284759D01*
X70425241Y-153484637D01*
X70657759Y-153640000D01*
X70425241Y-153795363D01*
X70225363Y-153995241D01*
X70068320Y-154230273D01*
X69960147Y-154491426D01*
X69905000Y-154768665D01*
X69905000Y-155051335D01*
X69960147Y-155328574D01*
X70068320Y-155589727D01*
X70225363Y-155824759D01*
X70425241Y-156024637D01*
X70657759Y-156180000D01*
X70425241Y-156335363D01*
X70225363Y-156535241D01*
X70068320Y-156770273D01*
X69960147Y-157031426D01*
X69905000Y-157308665D01*
X69905000Y-157591335D01*
X69960147Y-157868574D01*
X70068320Y-158129727D01*
X70225363Y-158364759D01*
X70425241Y-158564637D01*
X70657759Y-158720000D01*
X70425241Y-158875363D01*
X70225363Y-159075241D01*
X70068320Y-159310273D01*
X69960147Y-159571426D01*
X69905000Y-159848665D01*
X69905000Y-160131335D01*
X69960147Y-160408574D01*
X70068320Y-160669727D01*
X70225363Y-160904759D01*
X70425241Y-161104637D01*
X70657759Y-161260000D01*
X70425241Y-161415363D01*
X70225363Y-161615241D01*
X70068320Y-161850273D01*
X69960147Y-162111426D01*
X69905000Y-162388665D01*
X69905000Y-162671335D01*
X69960147Y-162948574D01*
X70068320Y-163209727D01*
X70225363Y-163444759D01*
X70425241Y-163644637D01*
X70657759Y-163800000D01*
X70425241Y-163955363D01*
X70225363Y-164155241D01*
X70068320Y-164390273D01*
X69960147Y-164651426D01*
X69905000Y-164928665D01*
X69905000Y-165211335D01*
X69960147Y-165488574D01*
X70068320Y-165749727D01*
X70225363Y-165984759D01*
X70425241Y-166184637D01*
X70660273Y-166341680D01*
X70921426Y-166449853D01*
X71198665Y-166505000D01*
X71481335Y-166505000D01*
X71758574Y-166449853D01*
X72019727Y-166341680D01*
X72254759Y-166184637D01*
X72454637Y-165984759D01*
X72611680Y-165749727D01*
X72719853Y-165488574D01*
X72775000Y-165211335D01*
X72775000Y-164928665D01*
X72719853Y-164651426D01*
X72611680Y-164390273D01*
X72454637Y-164155241D01*
X72254759Y-163955363D01*
X72022241Y-163800000D01*
X72254759Y-163644637D01*
X72454637Y-163444759D01*
X72611680Y-163209727D01*
X72719853Y-162948574D01*
X72775000Y-162671335D01*
X72775000Y-162388665D01*
X72719853Y-162111426D01*
X72611680Y-161850273D01*
X72454637Y-161615241D01*
X72254759Y-161415363D01*
X72022241Y-161260000D01*
X72254759Y-161104637D01*
X72454637Y-160904759D01*
X72611680Y-160669727D01*
X72719853Y-160408574D01*
X72775000Y-160131335D01*
X72775000Y-159848665D01*
X72719853Y-159571426D01*
X72611680Y-159310273D01*
X72454637Y-159075241D01*
X72254759Y-158875363D01*
X72022241Y-158720000D01*
X72254759Y-158564637D01*
X72454637Y-158364759D01*
X72611680Y-158129727D01*
X72719853Y-157868574D01*
X72775000Y-157591335D01*
X72775000Y-157308665D01*
X72719853Y-157031426D01*
X72611680Y-156770273D01*
X72454637Y-156535241D01*
X72254759Y-156335363D01*
X72022241Y-156180000D01*
X72254759Y-156024637D01*
X72454637Y-155824759D01*
X72611680Y-155589727D01*
X72719853Y-155328574D01*
X72775000Y-155051335D01*
X72775000Y-154768665D01*
X72719853Y-154491426D01*
X72611680Y-154230273D01*
X72454637Y-153995241D01*
X72254759Y-153795363D01*
X72022241Y-153640000D01*
X72254759Y-153484637D01*
X72449496Y-153289900D01*
X81481028Y-153289900D01*
X81481028Y-154989900D01*
X81493288Y-155114382D01*
X81529598Y-155234080D01*
X81588563Y-155344394D01*
X81667915Y-155441085D01*
X81764606Y-155520437D01*
X81874920Y-155579402D01*
X81947480Y-155601413D01*
X81815625Y-155733268D01*
X81653110Y-155976489D01*
X81541168Y-156246742D01*
X81484100Y-156533640D01*
X81484100Y-156826160D01*
X81541168Y-157113058D01*
X81653110Y-157383311D01*
X81815625Y-157626532D01*
X82022468Y-157833375D01*
X82196860Y-157949900D01*
X82022468Y-158066425D01*
X81815625Y-158273268D01*
X81653110Y-158516489D01*
X81541168Y-158786742D01*
X81484100Y-159073640D01*
X81484100Y-159366160D01*
X81541168Y-159653058D01*
X81653110Y-159923311D01*
X81815625Y-160166532D01*
X82022468Y-160373375D01*
X82196860Y-160489900D01*
X82022468Y-160606425D01*
X81815625Y-160813268D01*
X81653110Y-161056489D01*
X81541168Y-161326742D01*
X81484100Y-161613640D01*
X81484100Y-161906160D01*
X81541168Y-162193058D01*
X81653110Y-162463311D01*
X81815625Y-162706532D01*
X82022468Y-162913375D01*
X82196860Y-163029900D01*
X82022468Y-163146425D01*
X81815625Y-163353268D01*
X81653110Y-163596489D01*
X81541168Y-163866742D01*
X81484100Y-164153640D01*
X81484100Y-164446160D01*
X81541168Y-164733058D01*
X81653110Y-165003311D01*
X81815625Y-165246532D01*
X82022468Y-165453375D01*
X82265689Y-165615890D01*
X82535942Y-165727832D01*
X82822840Y-165784900D01*
X83115360Y-165784900D01*
X83402258Y-165727832D01*
X83672511Y-165615890D01*
X83915732Y-165453375D01*
X84122575Y-165246532D01*
X84239100Y-165072140D01*
X84355625Y-165246532D01*
X84562468Y-165453375D01*
X84805689Y-165615890D01*
X85075942Y-165727832D01*
X85362840Y-165784900D01*
X85655360Y-165784900D01*
X85942258Y-165727832D01*
X86212511Y-165615890D01*
X86455732Y-165453375D01*
X86662575Y-165246532D01*
X86825090Y-165003311D01*
X86937032Y-164733058D01*
X86994100Y-164446160D01*
X86994100Y-164153640D01*
X86950310Y-163933492D01*
X87693954Y-163189848D01*
X87722951Y-163166051D01*
X87817924Y-163050326D01*
X87888496Y-162918297D01*
X87931953Y-162775036D01*
X87942950Y-162663383D01*
X87942950Y-162663374D01*
X87946626Y-162626051D01*
X87942950Y-162588728D01*
X87942950Y-146005287D01*
X88054010Y-146273411D01*
X88216525Y-146516632D01*
X88423368Y-146723475D01*
X88666589Y-146885990D01*
X88936842Y-146997932D01*
X89223740Y-147055000D01*
X89516260Y-147055000D01*
X89803158Y-146997932D01*
X90073411Y-146885990D01*
X90316632Y-146723475D01*
X90523475Y-146516632D01*
X90685990Y-146273411D01*
X90797932Y-146003158D01*
X90817081Y-145906890D01*
X94698524Y-145906890D01*
X94743175Y-146054099D01*
X94868359Y-146316920D01*
X95042412Y-146550269D01*
X95258645Y-146745178D01*
X95508748Y-146894157D01*
X95783109Y-146991481D01*
X96013000Y-146870814D01*
X96013000Y-145677000D01*
X96267000Y-145677000D01*
X96267000Y-146870814D01*
X96496891Y-146991481D01*
X96771252Y-146894157D01*
X97021355Y-146745178D01*
X97237588Y-146550269D01*
X97411641Y-146316920D01*
X97536825Y-146054099D01*
X97581476Y-145906890D01*
X98688524Y-145906890D01*
X98733175Y-146054099D01*
X98858359Y-146316920D01*
X99032412Y-146550269D01*
X99248645Y-146745178D01*
X99498748Y-146894157D01*
X99773109Y-146991481D01*
X100003000Y-146870814D01*
X100003000Y-145677000D01*
X100257000Y-145677000D01*
X100257000Y-146870814D01*
X100486891Y-146991481D01*
X100761252Y-146894157D01*
X101011355Y-146745178D01*
X101227588Y-146550269D01*
X101401641Y-146316920D01*
X101526825Y-146054099D01*
X101571476Y-145906890D01*
X101450155Y-145677000D01*
X100257000Y-145677000D01*
X100003000Y-145677000D01*
X98809845Y-145677000D01*
X98688524Y-145906890D01*
X97581476Y-145906890D01*
X97460155Y-145677000D01*
X96267000Y-145677000D01*
X96013000Y-145677000D01*
X94819845Y-145677000D01*
X94698524Y-145906890D01*
X90817081Y-145906890D01*
X90855000Y-145716260D01*
X90855000Y-145423740D01*
X90797932Y-145136842D01*
X90685990Y-144866589D01*
X90523475Y-144623368D01*
X90316632Y-144416525D01*
X90142240Y-144300000D01*
X90316632Y-144183475D01*
X90523475Y-143976632D01*
X90685990Y-143733411D01*
X90797932Y-143463158D01*
X90855000Y-143176260D01*
X90855000Y-142883740D01*
X90797932Y-142596842D01*
X90685990Y-142326589D01*
X90523475Y-142083368D01*
X90316632Y-141876525D01*
X90134466Y-141754805D01*
X90251355Y-141685178D01*
X90467588Y-141490269D01*
X90641641Y-141256920D01*
X90766825Y-140994099D01*
X90811476Y-140846890D01*
X90690155Y-140617000D01*
X89497000Y-140617000D01*
X89497000Y-140637000D01*
X89243000Y-140637000D01*
X89243000Y-140617000D01*
X88049845Y-140617000D01*
X88009161Y-140694092D01*
X87986887Y-140660756D01*
X87842724Y-140516593D01*
X87673206Y-140403325D01*
X87484848Y-140325304D01*
X87284889Y-140285530D01*
X87081011Y-140285530D01*
X86881052Y-140325304D01*
X86692694Y-140403325D01*
X86644100Y-140435794D01*
X86644100Y-137190341D01*
X86649590Y-137134599D01*
X86646183Y-137100000D01*
X87881928Y-137100000D01*
X87881928Y-138800000D01*
X87894188Y-138924482D01*
X87930498Y-139044180D01*
X87989463Y-139154494D01*
X88068815Y-139251185D01*
X88165506Y-139330537D01*
X88275820Y-139389502D01*
X88356466Y-139413966D01*
X88272412Y-139489731D01*
X88098359Y-139723080D01*
X87973175Y-139985901D01*
X87928524Y-140133110D01*
X88049845Y-140363000D01*
X89243000Y-140363000D01*
X89243000Y-140343000D01*
X89497000Y-140343000D01*
X89497000Y-140363000D01*
X90690155Y-140363000D01*
X90811476Y-140133110D01*
X90766825Y-139985901D01*
X90641641Y-139723080D01*
X90467588Y-139489731D01*
X90383534Y-139413966D01*
X90464180Y-139389502D01*
X90574494Y-139330537D01*
X90671185Y-139251185D01*
X90750537Y-139154494D01*
X90809502Y-139044180D01*
X90845812Y-138924482D01*
X90858072Y-138800000D01*
X90858072Y-137100000D01*
X90856103Y-137080000D01*
X94651928Y-137080000D01*
X94651928Y-138780000D01*
X94664188Y-138904482D01*
X94700498Y-139024180D01*
X94759463Y-139134494D01*
X94838815Y-139231185D01*
X94935506Y-139310537D01*
X95045820Y-139369502D01*
X95118380Y-139391513D01*
X94986525Y-139523368D01*
X94824010Y-139766589D01*
X94712068Y-140036842D01*
X94655000Y-140323740D01*
X94655000Y-140616260D01*
X94712068Y-140903158D01*
X94824010Y-141173411D01*
X94986525Y-141416632D01*
X95193368Y-141623475D01*
X95367760Y-141740000D01*
X95193368Y-141856525D01*
X94986525Y-142063368D01*
X94824010Y-142306589D01*
X94712068Y-142576842D01*
X94655000Y-142863740D01*
X94655000Y-143156260D01*
X94712068Y-143443158D01*
X94824010Y-143713411D01*
X94986525Y-143956632D01*
X95193368Y-144163475D01*
X95375534Y-144285195D01*
X95258645Y-144354822D01*
X95042412Y-144549731D01*
X94868359Y-144783080D01*
X94743175Y-145045901D01*
X94698524Y-145193110D01*
X94819845Y-145423000D01*
X96013000Y-145423000D01*
X96013000Y-145403000D01*
X96267000Y-145403000D01*
X96267000Y-145423000D01*
X97460155Y-145423000D01*
X97581476Y-145193110D01*
X97536825Y-145045901D01*
X97411641Y-144783080D01*
X97237588Y-144549731D01*
X97021355Y-144354822D01*
X96904466Y-144285195D01*
X97086632Y-144163475D01*
X97293475Y-143956632D01*
X97455990Y-143713411D01*
X97567932Y-143443158D01*
X97625000Y-143156260D01*
X97625000Y-142863740D01*
X97567932Y-142576842D01*
X97455990Y-142306589D01*
X97293475Y-142063368D01*
X97086632Y-141856525D01*
X96912240Y-141740000D01*
X97086632Y-141623475D01*
X97293475Y-141416632D01*
X97455990Y-141173411D01*
X97567932Y-140903158D01*
X97625000Y-140616260D01*
X97625000Y-140323740D01*
X97567932Y-140036842D01*
X97455990Y-139766589D01*
X97293475Y-139523368D01*
X97161620Y-139391513D01*
X97234180Y-139369502D01*
X97344494Y-139310537D01*
X97441185Y-139231185D01*
X97520537Y-139134494D01*
X97579502Y-139024180D01*
X97615812Y-138904482D01*
X97628072Y-138780000D01*
X97628072Y-137080000D01*
X98641928Y-137080000D01*
X98641928Y-138780000D01*
X98654188Y-138904482D01*
X98690498Y-139024180D01*
X98749463Y-139134494D01*
X98828815Y-139231185D01*
X98925506Y-139310537D01*
X99035820Y-139369502D01*
X99108380Y-139391513D01*
X98976525Y-139523368D01*
X98814010Y-139766589D01*
X98702068Y-140036842D01*
X98645000Y-140323740D01*
X98645000Y-140616260D01*
X98702068Y-140903158D01*
X98814010Y-141173411D01*
X98976525Y-141416632D01*
X99183368Y-141623475D01*
X99357760Y-141740000D01*
X99183368Y-141856525D01*
X98976525Y-142063368D01*
X98814010Y-142306589D01*
X98702068Y-142576842D01*
X98645000Y-142863740D01*
X98645000Y-143156260D01*
X98702068Y-143443158D01*
X98814010Y-143713411D01*
X98976525Y-143956632D01*
X99183368Y-144163475D01*
X99365534Y-144285195D01*
X99248645Y-144354822D01*
X99032412Y-144549731D01*
X98858359Y-144783080D01*
X98733175Y-145045901D01*
X98688524Y-145193110D01*
X98809845Y-145423000D01*
X100003000Y-145423000D01*
X100003000Y-145403000D01*
X100257000Y-145403000D01*
X100257000Y-145423000D01*
X101450155Y-145423000D01*
X101571476Y-145193110D01*
X101526825Y-145045901D01*
X101401641Y-144783080D01*
X101227588Y-144549731D01*
X101011355Y-144354822D01*
X100894466Y-144285195D01*
X101076632Y-144163475D01*
X101283475Y-143956632D01*
X101445990Y-143713411D01*
X101557932Y-143443158D01*
X101615000Y-143156260D01*
X101615000Y-142863740D01*
X101557932Y-142576842D01*
X101445990Y-142306589D01*
X101283475Y-142063368D01*
X101076632Y-141856525D01*
X100902240Y-141740000D01*
X101076632Y-141623475D01*
X101283475Y-141416632D01*
X101445990Y-141173411D01*
X101557932Y-140903158D01*
X101615000Y-140616260D01*
X101615000Y-140323740D01*
X101557932Y-140036842D01*
X101445990Y-139766589D01*
X101283475Y-139523368D01*
X101151620Y-139391513D01*
X101224180Y-139369502D01*
X101334494Y-139310537D01*
X101431185Y-139231185D01*
X101510537Y-139134494D01*
X101569502Y-139024180D01*
X101605812Y-138904482D01*
X101618072Y-138780000D01*
X101618072Y-137080000D01*
X101605812Y-136955518D01*
X101569502Y-136835820D01*
X101510537Y-136725506D01*
X101431185Y-136628815D01*
X101334494Y-136549463D01*
X101224180Y-136490498D01*
X101104482Y-136454188D01*
X100980000Y-136441928D01*
X99280000Y-136441928D01*
X99155518Y-136454188D01*
X99035820Y-136490498D01*
X98925506Y-136549463D01*
X98828815Y-136628815D01*
X98749463Y-136725506D01*
X98690498Y-136835820D01*
X98654188Y-136955518D01*
X98641928Y-137080000D01*
X97628072Y-137080000D01*
X97615812Y-136955518D01*
X97579502Y-136835820D01*
X97520537Y-136725506D01*
X97441185Y-136628815D01*
X97344494Y-136549463D01*
X97234180Y-136490498D01*
X97114482Y-136454188D01*
X96990000Y-136441928D01*
X95290000Y-136441928D01*
X95165518Y-136454188D01*
X95045820Y-136490498D01*
X94935506Y-136549463D01*
X94838815Y-136628815D01*
X94759463Y-136725506D01*
X94700498Y-136835820D01*
X94664188Y-136955518D01*
X94651928Y-137080000D01*
X90856103Y-137080000D01*
X90845812Y-136975518D01*
X90809502Y-136855820D01*
X90750537Y-136745506D01*
X90671185Y-136648815D01*
X90574494Y-136569463D01*
X90464180Y-136510498D01*
X90344482Y-136474188D01*
X90220000Y-136461928D01*
X88520000Y-136461928D01*
X88395518Y-136474188D01*
X88275820Y-136510498D01*
X88165506Y-136569463D01*
X88068815Y-136648815D01*
X87989463Y-136745506D01*
X87930498Y-136855820D01*
X87894188Y-136975518D01*
X87881928Y-137100000D01*
X86646183Y-137100000D01*
X86644100Y-137078858D01*
X86644100Y-137078848D01*
X86627677Y-136912101D01*
X86562776Y-136698153D01*
X86457384Y-136500977D01*
X86315549Y-136328151D01*
X86272235Y-136292604D01*
X86267643Y-136288012D01*
X86138122Y-136181717D01*
X85940946Y-136076324D01*
X85726998Y-136011423D01*
X85504500Y-135989509D01*
X85282002Y-136011423D01*
X85068054Y-136076324D01*
X84870878Y-136181717D01*
X84698052Y-136323552D01*
X84556217Y-136496378D01*
X84450824Y-136693554D01*
X84385923Y-136907502D01*
X84364009Y-137130000D01*
X84374100Y-137232456D01*
X84374100Y-143390979D01*
X84365574Y-143387447D01*
X84088335Y-143332300D01*
X83805665Y-143332300D01*
X83528426Y-143387447D01*
X83267273Y-143495620D01*
X83032241Y-143652663D01*
X82832363Y-143852541D01*
X82675320Y-144087573D01*
X82567147Y-144348726D01*
X82512000Y-144625965D01*
X82512000Y-144908635D01*
X82567147Y-145185874D01*
X82675320Y-145447027D01*
X82832363Y-145682059D01*
X83032241Y-145881937D01*
X83267273Y-146038980D01*
X83528426Y-146147153D01*
X83805665Y-146202300D01*
X84088335Y-146202300D01*
X84365574Y-146147153D01*
X84374101Y-146143621D01*
X84374101Y-152981174D01*
X84349637Y-152935406D01*
X84270285Y-152838715D01*
X84173594Y-152759363D01*
X84063280Y-152700398D01*
X83943582Y-152664088D01*
X83819100Y-152651828D01*
X82119100Y-152651828D01*
X81994618Y-152664088D01*
X81874920Y-152700398D01*
X81764606Y-152759363D01*
X81667915Y-152838715D01*
X81588563Y-152935406D01*
X81529598Y-153045720D01*
X81493288Y-153165418D01*
X81481028Y-153289900D01*
X72449496Y-153289900D01*
X72454637Y-153284759D01*
X72611680Y-153049727D01*
X72719853Y-152788574D01*
X72775000Y-152511335D01*
X72775000Y-152228665D01*
X72719853Y-151951426D01*
X72611680Y-151690273D01*
X72454637Y-151455241D01*
X72254759Y-151255363D01*
X72022241Y-151100000D01*
X72254759Y-150944637D01*
X72454637Y-150744759D01*
X72611680Y-150509727D01*
X72719853Y-150248574D01*
X72775000Y-149971335D01*
X72775000Y-149688665D01*
X72719853Y-149411426D01*
X72611680Y-149150273D01*
X72454637Y-148915241D01*
X72254759Y-148715363D01*
X72022241Y-148560000D01*
X72254759Y-148404637D01*
X72454637Y-148204759D01*
X72611680Y-147969727D01*
X72719853Y-147708574D01*
X72775000Y-147431335D01*
X72775000Y-147148665D01*
X72719853Y-146871426D01*
X72611680Y-146610273D01*
X72454637Y-146375241D01*
X72254759Y-146175363D01*
X72022241Y-146020000D01*
X72254759Y-145864637D01*
X72454637Y-145664759D01*
X72611680Y-145429727D01*
X72719853Y-145168574D01*
X72775000Y-144891335D01*
X72775000Y-144613265D01*
X78994100Y-144613265D01*
X78994100Y-144895935D01*
X79049247Y-145173174D01*
X79157420Y-145434327D01*
X79314463Y-145669359D01*
X79514341Y-145869237D01*
X79749373Y-146026280D01*
X80010526Y-146134453D01*
X80287765Y-146189600D01*
X80570435Y-146189600D01*
X80847674Y-146134453D01*
X81108827Y-146026280D01*
X81343859Y-145869237D01*
X81543737Y-145669359D01*
X81700780Y-145434327D01*
X81808953Y-145173174D01*
X81864100Y-144895935D01*
X81864100Y-144613265D01*
X81808953Y-144336026D01*
X81700780Y-144074873D01*
X81543737Y-143839841D01*
X81343859Y-143639963D01*
X81108827Y-143482920D01*
X80847674Y-143374747D01*
X80570435Y-143319600D01*
X80287765Y-143319600D01*
X80010526Y-143374747D01*
X79749373Y-143482920D01*
X79514341Y-143639963D01*
X79314463Y-143839841D01*
X79157420Y-144074873D01*
X79049247Y-144336026D01*
X78994100Y-144613265D01*
X72775000Y-144613265D01*
X72775000Y-144608665D01*
X72719853Y-144331426D01*
X72611680Y-144070273D01*
X72454637Y-143835241D01*
X72254759Y-143635363D01*
X72022241Y-143480000D01*
X72254759Y-143324637D01*
X72454637Y-143124759D01*
X72611680Y-142889727D01*
X72719853Y-142628574D01*
X72775000Y-142351335D01*
X72775000Y-142068665D01*
X72719853Y-141791426D01*
X72611680Y-141530273D01*
X72454637Y-141295241D01*
X72254759Y-141095363D01*
X72022241Y-140940000D01*
X72254759Y-140784637D01*
X72454637Y-140584759D01*
X72611680Y-140349727D01*
X72719853Y-140088574D01*
X72775000Y-139811335D01*
X72775000Y-139528665D01*
X72719853Y-139251426D01*
X72611680Y-138990273D01*
X72454637Y-138755241D01*
X72254759Y-138555363D01*
X72022241Y-138400000D01*
X72254759Y-138244637D01*
X72454637Y-138044759D01*
X72611680Y-137809727D01*
X72719853Y-137548574D01*
X72775000Y-137271335D01*
X72775000Y-136988665D01*
X72719853Y-136711426D01*
X72611680Y-136450273D01*
X72454637Y-136215241D01*
X72254759Y-136015363D01*
X72022241Y-135860000D01*
X72254759Y-135704637D01*
X72454637Y-135504759D01*
X72611680Y-135269727D01*
X72719853Y-135008574D01*
X72775000Y-134731335D01*
X72775000Y-134453265D01*
X78994100Y-134453265D01*
X78994100Y-134735935D01*
X79049247Y-135013174D01*
X79157420Y-135274327D01*
X79314463Y-135509359D01*
X79514341Y-135709237D01*
X79749373Y-135866280D01*
X80010526Y-135974453D01*
X80287765Y-136029600D01*
X80570435Y-136029600D01*
X80847674Y-135974453D01*
X81108827Y-135866280D01*
X81343859Y-135709237D01*
X81543737Y-135509359D01*
X81700780Y-135274327D01*
X81808953Y-135013174D01*
X81864100Y-134735935D01*
X81864100Y-134465965D01*
X82512000Y-134465965D01*
X82512000Y-134748635D01*
X82567147Y-135025874D01*
X82675320Y-135287027D01*
X82832363Y-135522059D01*
X83032241Y-135721937D01*
X83267273Y-135878980D01*
X83528426Y-135987153D01*
X83805665Y-136042300D01*
X84088335Y-136042300D01*
X84365574Y-135987153D01*
X84626727Y-135878980D01*
X84861759Y-135721937D01*
X85061637Y-135522059D01*
X85218680Y-135287027D01*
X85326853Y-135025874D01*
X85382000Y-134748635D01*
X85382000Y-134465965D01*
X85326853Y-134188726D01*
X85218680Y-133927573D01*
X85061637Y-133692541D01*
X84861759Y-133492663D01*
X84626727Y-133335620D01*
X84365574Y-133227447D01*
X84088335Y-133172300D01*
X83805665Y-133172300D01*
X83528426Y-133227447D01*
X83267273Y-133335620D01*
X83032241Y-133492663D01*
X82832363Y-133692541D01*
X82675320Y-133927573D01*
X82567147Y-134188726D01*
X82512000Y-134465965D01*
X81864100Y-134465965D01*
X81864100Y-134453265D01*
X81808953Y-134176026D01*
X81700780Y-133914873D01*
X81543737Y-133679841D01*
X81343859Y-133479963D01*
X81108827Y-133322920D01*
X80847674Y-133214747D01*
X80570435Y-133159600D01*
X80287765Y-133159600D01*
X80010526Y-133214747D01*
X79749373Y-133322920D01*
X79514341Y-133479963D01*
X79314463Y-133679841D01*
X79157420Y-133914873D01*
X79049247Y-134176026D01*
X78994100Y-134453265D01*
X72775000Y-134453265D01*
X72775000Y-134448665D01*
X72719853Y-134171426D01*
X72611680Y-133910273D01*
X72454637Y-133675241D01*
X72254759Y-133475363D01*
X72019727Y-133318320D01*
X72009135Y-133313933D01*
X72195131Y-133202385D01*
X72403519Y-133013414D01*
X72571037Y-132787420D01*
X72691246Y-132533087D01*
X72731904Y-132399039D01*
X72609915Y-132177000D01*
X71467000Y-132177000D01*
X71467000Y-132197000D01*
X71213000Y-132197000D01*
X71213000Y-132177000D01*
X70070085Y-132177000D01*
X69948096Y-132399039D01*
X69988754Y-132533087D01*
X70108963Y-132787420D01*
X70276481Y-133013414D01*
X70484869Y-133202385D01*
X70670865Y-133313933D01*
X70660273Y-133318320D01*
X70425241Y-133475363D01*
X70225363Y-133675241D01*
X70068320Y-133910273D01*
X69960147Y-134171426D01*
X69905000Y-134448665D01*
X57535000Y-134448665D01*
X57479853Y-134171426D01*
X57371680Y-133910273D01*
X57214637Y-133675241D01*
X57014759Y-133475363D01*
X56782241Y-133320000D01*
X57014759Y-133164637D01*
X57214637Y-132964759D01*
X57371680Y-132729727D01*
X57479853Y-132468574D01*
X57535000Y-132191335D01*
X57535000Y-131908665D01*
X57479853Y-131631426D01*
X57371680Y-131370273D01*
X57214637Y-131135241D01*
X57016039Y-130936643D01*
X57024482Y-130935812D01*
X57144180Y-130899502D01*
X57254494Y-130840537D01*
X57351185Y-130761185D01*
X57430537Y-130664494D01*
X57489502Y-130554180D01*
X57525812Y-130434482D01*
X57538072Y-130310000D01*
X57538072Y-129368665D01*
X69905000Y-129368665D01*
X69905000Y-129651335D01*
X69960147Y-129928574D01*
X70068320Y-130189727D01*
X70225363Y-130424759D01*
X70425241Y-130624637D01*
X70660273Y-130781680D01*
X70670865Y-130786067D01*
X70484869Y-130897615D01*
X70276481Y-131086586D01*
X70108963Y-131312580D01*
X69988754Y-131566913D01*
X69948096Y-131700961D01*
X70070085Y-131923000D01*
X71213000Y-131923000D01*
X71213000Y-131903000D01*
X71467000Y-131903000D01*
X71467000Y-131923000D01*
X72609915Y-131923000D01*
X72731904Y-131700961D01*
X72691246Y-131566913D01*
X72571037Y-131312580D01*
X72403519Y-131086586D01*
X72195131Y-130897615D01*
X72009135Y-130786067D01*
X72019727Y-130781680D01*
X72254759Y-130624637D01*
X72454637Y-130424759D01*
X72611680Y-130189727D01*
X72719853Y-129928574D01*
X72775000Y-129651335D01*
X72775000Y-129368665D01*
X72719853Y-129091426D01*
X72611680Y-128830273D01*
X72454637Y-128595241D01*
X72254759Y-128395363D01*
X72019727Y-128238320D01*
X71758574Y-128130147D01*
X71481335Y-128075000D01*
X71198665Y-128075000D01*
X70921426Y-128130147D01*
X70660273Y-128238320D01*
X70425241Y-128395363D01*
X70225363Y-128595241D01*
X70068320Y-128830273D01*
X69960147Y-129091426D01*
X69905000Y-129368665D01*
X57538072Y-129368665D01*
X57538072Y-128710000D01*
X57525812Y-128585518D01*
X57489502Y-128465820D01*
X57430537Y-128355506D01*
X57351185Y-128258815D01*
X57254494Y-128179463D01*
X57144180Y-128120498D01*
X57024482Y-128084188D01*
X56900000Y-128071928D01*
X55300000Y-128071928D01*
X55175518Y-128084188D01*
X55055820Y-128120498D01*
X54945506Y-128179463D01*
X54848815Y-128258815D01*
X54769463Y-128355506D01*
X54710498Y-128465820D01*
X54674188Y-128585518D01*
X54661928Y-128710000D01*
X46412047Y-128710000D01*
X46485000Y-128343242D01*
X46485000Y-127656758D01*
X94515000Y-127656758D01*
X94515000Y-128343242D01*
X94648927Y-129016537D01*
X94911633Y-129650766D01*
X95293024Y-130221558D01*
X95778442Y-130706976D01*
X96349234Y-131088367D01*
X96983463Y-131351073D01*
X97656758Y-131485000D01*
X98343242Y-131485000D01*
X99016537Y-131351073D01*
X99650766Y-131088367D01*
X100221558Y-130706976D01*
X100706976Y-130221558D01*
X101088367Y-129650766D01*
X101351073Y-129016537D01*
X101485000Y-128343242D01*
X101485000Y-127656758D01*
X101351073Y-126983463D01*
X101088367Y-126349234D01*
X100706976Y-125778442D01*
X100221558Y-125293024D01*
X99650766Y-124911633D01*
X99016537Y-124648927D01*
X98343242Y-124515000D01*
X97656758Y-124515000D01*
X96983463Y-124648927D01*
X96349234Y-124911633D01*
X95778442Y-125293024D01*
X95293024Y-125778442D01*
X94911633Y-126349234D01*
X94648927Y-126983463D01*
X94515000Y-127656758D01*
X46485000Y-127656758D01*
X46351073Y-126983463D01*
X46088367Y-126349234D01*
X45706976Y-125778442D01*
X45221558Y-125293024D01*
X44650766Y-124911633D01*
X44016537Y-124648927D01*
X43343242Y-124515000D01*
X42656758Y-124515000D01*
X41983463Y-124648927D01*
X41349234Y-124911633D01*
X40778442Y-125293024D01*
X40293024Y-125778442D01*
X39911633Y-126349234D01*
X39648927Y-126983463D01*
X39515000Y-127656758D01*
X38693256Y-127656758D01*
X38731173Y-127231917D01*
X38934656Y-126488109D01*
X39266638Y-125792095D01*
X39716626Y-125165870D01*
X40270403Y-124629223D01*
X40910451Y-124199129D01*
X41616553Y-123889171D01*
X42371457Y-123707935D01*
X43024279Y-123659995D01*
X97970667Y-123649995D01*
X98768084Y-123721163D01*
%TA.AperFunction,Conductor*%
D20*
G36*
X98768084Y-123721163D02*
G01*
X99511894Y-123924647D01*
X100207909Y-124256628D01*
X100834137Y-124706618D01*
X101370785Y-125260397D01*
X101800882Y-125900450D01*
X102110839Y-126606550D01*
X102291998Y-127361131D01*
X102340001Y-128023890D01*
X102340000Y-167970608D01*
X102268827Y-168768083D01*
X102065344Y-169511890D01*
X101733363Y-170207904D01*
X101283374Y-170834130D01*
X100729597Y-171370777D01*
X100089549Y-171800871D01*
X99383447Y-172110829D01*
X98628543Y-172292065D01*
X97975793Y-172340000D01*
X43029392Y-172340000D01*
X42231917Y-172268827D01*
X41488110Y-172065344D01*
X40792096Y-171733363D01*
X40165870Y-171283374D01*
X39629223Y-170729597D01*
X39199129Y-170089549D01*
X38889171Y-169383447D01*
X38707935Y-168628543D01*
X38660000Y-167975793D01*
X38660000Y-167656758D01*
X39515000Y-167656758D01*
X39515000Y-168343242D01*
X39648927Y-169016537D01*
X39911633Y-169650766D01*
X40293024Y-170221558D01*
X40778442Y-170706976D01*
X41349234Y-171088367D01*
X41983463Y-171351073D01*
X42656758Y-171485000D01*
X43343242Y-171485000D01*
X44016537Y-171351073D01*
X44650766Y-171088367D01*
X45221558Y-170706976D01*
X45706976Y-170221558D01*
X46088367Y-169650766D01*
X46351073Y-169016537D01*
X46485000Y-168343242D01*
X46485000Y-167656758D01*
X94515000Y-167656758D01*
X94515000Y-168343242D01*
X94648927Y-169016537D01*
X94911633Y-169650766D01*
X95293024Y-170221558D01*
X95778442Y-170706976D01*
X96349234Y-171088367D01*
X96983463Y-171351073D01*
X97656758Y-171485000D01*
X98343242Y-171485000D01*
X99016537Y-171351073D01*
X99650766Y-171088367D01*
X100221558Y-170706976D01*
X100706976Y-170221558D01*
X101088367Y-169650766D01*
X101351073Y-169016537D01*
X101485000Y-168343242D01*
X101485000Y-167656758D01*
X101351073Y-166983463D01*
X101088367Y-166349234D01*
X100706976Y-165778442D01*
X100221558Y-165293024D01*
X99650766Y-164911633D01*
X99016537Y-164648927D01*
X98343242Y-164515000D01*
X97656758Y-164515000D01*
X96983463Y-164648927D01*
X96349234Y-164911633D01*
X95778442Y-165293024D01*
X95293024Y-165778442D01*
X94911633Y-166349234D01*
X94648927Y-166983463D01*
X94515000Y-167656758D01*
X46485000Y-167656758D01*
X46351073Y-166983463D01*
X46088367Y-166349234D01*
X45706976Y-165778442D01*
X45221558Y-165293024D01*
X44650766Y-164911633D01*
X44016537Y-164648927D01*
X43343242Y-164515000D01*
X42656758Y-164515000D01*
X41983463Y-164648927D01*
X41349234Y-164911633D01*
X40778442Y-165293024D01*
X40293024Y-165778442D01*
X39911633Y-166349234D01*
X39648927Y-166983463D01*
X39515000Y-167656758D01*
X38660000Y-167656758D01*
X38660000Y-148979520D01*
X49337328Y-148979520D01*
X49337328Y-150679520D01*
X49349588Y-150804002D01*
X49385898Y-150923700D01*
X49444863Y-151034014D01*
X49524215Y-151130705D01*
X49620906Y-151210057D01*
X49731220Y-151269022D01*
X49850918Y-151305332D01*
X49975400Y-151317592D01*
X51675400Y-151317592D01*
X51799882Y-151305332D01*
X51919580Y-151269022D01*
X52029894Y-151210057D01*
X52126585Y-151130705D01*
X52205937Y-151034014D01*
X52264902Y-150923700D01*
X52301212Y-150804002D01*
X52313472Y-150679520D01*
X52313472Y-148979520D01*
X52301212Y-148855038D01*
X52264902Y-148735340D01*
X52205937Y-148625026D01*
X52126585Y-148528335D01*
X52029894Y-148448983D01*
X51919580Y-148390018D01*
X51847020Y-148368007D01*
X51978875Y-148236152D01*
X52141390Y-147992931D01*
X52253332Y-147722678D01*
X52310400Y-147435780D01*
X52310400Y-147143260D01*
X52253332Y-146856362D01*
X52141390Y-146586109D01*
X51978875Y-146342888D01*
X51772032Y-146136045D01*
X51597640Y-146019520D01*
X51772032Y-145902995D01*
X51978875Y-145696152D01*
X52141390Y-145452931D01*
X52253332Y-145182678D01*
X52310400Y-144895780D01*
X52310400Y-144603260D01*
X52253332Y-144316362D01*
X52141390Y-144046109D01*
X51978875Y-143802888D01*
X51772032Y-143596045D01*
X51589866Y-143474325D01*
X51706755Y-143404698D01*
X51922988Y-143209789D01*
X52097041Y-142976440D01*
X52222225Y-142713619D01*
X52266876Y-142566410D01*
X52145555Y-142336520D01*
X50952400Y-142336520D01*
X50952400Y-142356520D01*
X50698400Y-142356520D01*
X50698400Y-142336520D01*
X49505245Y-142336520D01*
X49383924Y-142566410D01*
X49428575Y-142713619D01*
X49553759Y-142976440D01*
X49727812Y-143209789D01*
X49944045Y-143404698D01*
X50060934Y-143474325D01*
X49878768Y-143596045D01*
X49671925Y-143802888D01*
X49509410Y-144046109D01*
X49397468Y-144316362D01*
X49340400Y-144603260D01*
X49340400Y-144895780D01*
X49397468Y-145182678D01*
X49509410Y-145452931D01*
X49671925Y-145696152D01*
X49878768Y-145902995D01*
X50053160Y-146019520D01*
X49878768Y-146136045D01*
X49671925Y-146342888D01*
X49509410Y-146586109D01*
X49397468Y-146856362D01*
X49340400Y-147143260D01*
X49340400Y-147435780D01*
X49397468Y-147722678D01*
X49509410Y-147992931D01*
X49671925Y-148236152D01*
X49803780Y-148368007D01*
X49731220Y-148390018D01*
X49620906Y-148448983D01*
X49524215Y-148528335D01*
X49444863Y-148625026D01*
X49385898Y-148735340D01*
X49349588Y-148855038D01*
X49337328Y-148979520D01*
X38660000Y-148979520D01*
X38660000Y-144620000D01*
X42721928Y-144620000D01*
X42721928Y-146320000D01*
X42734188Y-146444482D01*
X42770498Y-146564180D01*
X42829463Y-146674494D01*
X42908815Y-146771185D01*
X43005506Y-146850537D01*
X43115820Y-146909502D01*
X43235518Y-146945812D01*
X43360000Y-146958072D01*
X45060000Y-146958072D01*
X45184482Y-146945812D01*
X45304180Y-146909502D01*
X45414494Y-146850537D01*
X45511185Y-146771185D01*
X45590537Y-146674494D01*
X45649502Y-146564180D01*
X45685812Y-146444482D01*
X45698072Y-146320000D01*
X45698072Y-144620000D01*
X45685812Y-144495518D01*
X45649502Y-144375820D01*
X45590537Y-144265506D01*
X45511185Y-144168815D01*
X45414494Y-144089463D01*
X45304180Y-144030498D01*
X45231620Y-144008487D01*
X45363475Y-143876632D01*
X45525990Y-143633411D01*
X45637932Y-143363158D01*
X45695000Y-143076260D01*
X45695000Y-142783740D01*
X45637932Y-142496842D01*
X45525990Y-142226589D01*
X45363475Y-141983368D01*
X45232737Y-141852630D01*
X49383924Y-141852630D01*
X49505245Y-142082520D01*
X50698400Y-142082520D01*
X50698400Y-140888706D01*
X50952400Y-140888706D01*
X50952400Y-142082520D01*
X52145555Y-142082520D01*
X52266876Y-141852630D01*
X52222225Y-141705421D01*
X52097041Y-141442600D01*
X51922988Y-141209251D01*
X51706755Y-141014342D01*
X51456652Y-140865363D01*
X51182291Y-140768039D01*
X50952400Y-140888706D01*
X50698400Y-140888706D01*
X50468509Y-140768039D01*
X50194148Y-140865363D01*
X49944045Y-141014342D01*
X49727812Y-141209251D01*
X49553759Y-141442600D01*
X49428575Y-141705421D01*
X49383924Y-141852630D01*
X45232737Y-141852630D01*
X45156632Y-141776525D01*
X44982240Y-141660000D01*
X45156632Y-141543475D01*
X45363475Y-141336632D01*
X45525990Y-141093411D01*
X45637932Y-140823158D01*
X45695000Y-140536260D01*
X45695000Y-140243740D01*
X45637932Y-139956842D01*
X45525990Y-139686589D01*
X45420469Y-139528665D01*
X54665000Y-139528665D01*
X54665000Y-139811335D01*
X54720147Y-140088574D01*
X54828320Y-140349727D01*
X54985363Y-140584759D01*
X55185241Y-140784637D01*
X55417759Y-140940000D01*
X55185241Y-141095363D01*
X54985363Y-141295241D01*
X54828320Y-141530273D01*
X54720147Y-141791426D01*
X54665000Y-142068665D01*
X54665000Y-142351335D01*
X54720147Y-142628574D01*
X54828320Y-142889727D01*
X54985363Y-143124759D01*
X55185241Y-143324637D01*
X55417759Y-143480000D01*
X55185241Y-143635363D01*
X54985363Y-143835241D01*
X54828320Y-144070273D01*
X54720147Y-144331426D01*
X54665000Y-144608665D01*
X54665000Y-144891335D01*
X54720147Y-145168574D01*
X54828320Y-145429727D01*
X54985363Y-145664759D01*
X55185241Y-145864637D01*
X55417759Y-146020000D01*
X55185241Y-146175363D01*
X54985363Y-146375241D01*
X54828320Y-146610273D01*
X54720147Y-146871426D01*
X54665000Y-147148665D01*
X54665000Y-147431335D01*
X54720147Y-147708574D01*
X54828320Y-147969727D01*
X54985363Y-148204759D01*
X55185241Y-148404637D01*
X55417759Y-148560000D01*
X55185241Y-148715363D01*
X54985363Y-148915241D01*
X54828320Y-149150273D01*
X54720147Y-149411426D01*
X54665000Y-149688665D01*
X54665000Y-149971335D01*
X54720147Y-150248574D01*
X54828320Y-150509727D01*
X54985363Y-150744759D01*
X55185241Y-150944637D01*
X55417759Y-151100000D01*
X55185241Y-151255363D01*
X54985363Y-151455241D01*
X54828320Y-151690273D01*
X54720147Y-151951426D01*
X54665000Y-152228665D01*
X54665000Y-152511335D01*
X54720147Y-152788574D01*
X54828320Y-153049727D01*
X54985363Y-153284759D01*
X55185241Y-153484637D01*
X55417759Y-153640000D01*
X55185241Y-153795363D01*
X54985363Y-153995241D01*
X54828320Y-154230273D01*
X54720147Y-154491426D01*
X54665000Y-154768665D01*
X54665000Y-155051335D01*
X54720147Y-155328574D01*
X54828320Y-155589727D01*
X54985363Y-155824759D01*
X55185241Y-156024637D01*
X55417759Y-156180000D01*
X55185241Y-156335363D01*
X54985363Y-156535241D01*
X54828320Y-156770273D01*
X54720147Y-157031426D01*
X54665000Y-157308665D01*
X54665000Y-157591335D01*
X54720147Y-157868574D01*
X54828320Y-158129727D01*
X54985363Y-158364759D01*
X55185241Y-158564637D01*
X55417759Y-158720000D01*
X55185241Y-158875363D01*
X54985363Y-159075241D01*
X54828320Y-159310273D01*
X54720147Y-159571426D01*
X54665000Y-159848665D01*
X54665000Y-160131335D01*
X54720147Y-160408574D01*
X54828320Y-160669727D01*
X54985363Y-160904759D01*
X55185241Y-161104637D01*
X55417759Y-161260000D01*
X55185241Y-161415363D01*
X54985363Y-161615241D01*
X54828320Y-161850273D01*
X54720147Y-162111426D01*
X54665000Y-162388665D01*
X54665000Y-162671335D01*
X54720147Y-162948574D01*
X54828320Y-163209727D01*
X54985363Y-163444759D01*
X55185241Y-163644637D01*
X55417759Y-163800000D01*
X55185241Y-163955363D01*
X54985363Y-164155241D01*
X54828320Y-164390273D01*
X54720147Y-164651426D01*
X54665000Y-164928665D01*
X54665000Y-165211335D01*
X54720147Y-165488574D01*
X54828320Y-165749727D01*
X54985363Y-165984759D01*
X55185241Y-166184637D01*
X55420273Y-166341680D01*
X55681426Y-166449853D01*
X55958665Y-166505000D01*
X56241335Y-166505000D01*
X56518574Y-166449853D01*
X56779727Y-166341680D01*
X57014759Y-166184637D01*
X57214637Y-165984759D01*
X57371680Y-165749727D01*
X57479853Y-165488574D01*
X57535000Y-165211335D01*
X57535000Y-164928665D01*
X57479853Y-164651426D01*
X57371680Y-164390273D01*
X57214637Y-164155241D01*
X57014759Y-163955363D01*
X56782241Y-163800000D01*
X57014759Y-163644637D01*
X57214637Y-163444759D01*
X57371680Y-163209727D01*
X57479853Y-162948574D01*
X57535000Y-162671335D01*
X57535000Y-162388665D01*
X57479853Y-162111426D01*
X57371680Y-161850273D01*
X57214637Y-161615241D01*
X57014759Y-161415363D01*
X56782241Y-161260000D01*
X57014759Y-161104637D01*
X57214637Y-160904759D01*
X57371680Y-160669727D01*
X57479853Y-160408574D01*
X57535000Y-160131335D01*
X57535000Y-159848665D01*
X57479853Y-159571426D01*
X57371680Y-159310273D01*
X57214637Y-159075241D01*
X57014759Y-158875363D01*
X56782241Y-158720000D01*
X57014759Y-158564637D01*
X57214637Y-158364759D01*
X57371680Y-158129727D01*
X57479853Y-157868574D01*
X57535000Y-157591335D01*
X57535000Y-157308665D01*
X57479853Y-157031426D01*
X57371680Y-156770273D01*
X57214637Y-156535241D01*
X57014759Y-156335363D01*
X56782241Y-156180000D01*
X57014759Y-156024637D01*
X57214637Y-155824759D01*
X57371680Y-155589727D01*
X57479853Y-155328574D01*
X57535000Y-155051335D01*
X57535000Y-154768665D01*
X57479853Y-154491426D01*
X57371680Y-154230273D01*
X57214637Y-153995241D01*
X57014759Y-153795363D01*
X56782241Y-153640000D01*
X57014759Y-153484637D01*
X57214637Y-153284759D01*
X57371680Y-153049727D01*
X57479853Y-152788574D01*
X57535000Y-152511335D01*
X57535000Y-152228665D01*
X57479853Y-151951426D01*
X57371680Y-151690273D01*
X57214637Y-151455241D01*
X57014759Y-151255363D01*
X56782241Y-151100000D01*
X57014759Y-150944637D01*
X57214637Y-150744759D01*
X57371680Y-150509727D01*
X57479853Y-150248574D01*
X57535000Y-149971335D01*
X57535000Y-149688665D01*
X57479853Y-149411426D01*
X57371680Y-149150273D01*
X57214637Y-148915241D01*
X57014759Y-148715363D01*
X56782241Y-148560000D01*
X57014759Y-148404637D01*
X57214637Y-148204759D01*
X57371680Y-147969727D01*
X57479853Y-147708574D01*
X57535000Y-147431335D01*
X57535000Y-147148665D01*
X57479853Y-146871426D01*
X57371680Y-146610273D01*
X57214637Y-146375241D01*
X57014759Y-146175363D01*
X56782241Y-146020000D01*
X57014759Y-145864637D01*
X57214637Y-145664759D01*
X57371680Y-145429727D01*
X57479853Y-145168574D01*
X57535000Y-144891335D01*
X57535000Y-144608665D01*
X57479853Y-144331426D01*
X57371680Y-144070273D01*
X57214637Y-143835241D01*
X57014759Y-143635363D01*
X56782241Y-143480000D01*
X57014759Y-143324637D01*
X57214637Y-143124759D01*
X57371680Y-142889727D01*
X57479853Y-142628574D01*
X57535000Y-142351335D01*
X57535000Y-142068665D01*
X57479853Y-141791426D01*
X57371680Y-141530273D01*
X57214637Y-141295241D01*
X57014759Y-141095363D01*
X56782241Y-140940000D01*
X57014759Y-140784637D01*
X57214637Y-140584759D01*
X57371680Y-140349727D01*
X57479853Y-140088574D01*
X57535000Y-139811335D01*
X57535000Y-139528665D01*
X57479853Y-139251426D01*
X57371680Y-138990273D01*
X57214637Y-138755241D01*
X57014759Y-138555363D01*
X56779727Y-138398320D01*
X56769135Y-138393933D01*
X56955131Y-138282385D01*
X57163519Y-138093414D01*
X57331037Y-137867420D01*
X57451246Y-137613087D01*
X57491904Y-137479039D01*
X57369915Y-137257000D01*
X56227000Y-137257000D01*
X56227000Y-137277000D01*
X55973000Y-137277000D01*
X55973000Y-137257000D01*
X54830085Y-137257000D01*
X54708096Y-137479039D01*
X54748754Y-137613087D01*
X54868963Y-137867420D01*
X55036481Y-138093414D01*
X55244869Y-138282385D01*
X55430865Y-138393933D01*
X55420273Y-138398320D01*
X55185241Y-138555363D01*
X54985363Y-138755241D01*
X54828320Y-138990273D01*
X54720147Y-139251426D01*
X54665000Y-139528665D01*
X45420469Y-139528665D01*
X45363475Y-139443368D01*
X45156632Y-139236525D01*
X44974466Y-139114805D01*
X45091355Y-139045178D01*
X45307588Y-138850269D01*
X45481641Y-138616920D01*
X45606825Y-138354099D01*
X45651476Y-138206890D01*
X45530155Y-137977000D01*
X44337000Y-137977000D01*
X44337000Y-137997000D01*
X44083000Y-137997000D01*
X44083000Y-137977000D01*
X42889845Y-137977000D01*
X42768524Y-138206890D01*
X42813175Y-138354099D01*
X42938359Y-138616920D01*
X43112412Y-138850269D01*
X43328645Y-139045178D01*
X43445534Y-139114805D01*
X43263368Y-139236525D01*
X43056525Y-139443368D01*
X42894010Y-139686589D01*
X42782068Y-139956842D01*
X42725000Y-140243740D01*
X42725000Y-140536260D01*
X42782068Y-140823158D01*
X42894010Y-141093411D01*
X43056525Y-141336632D01*
X43263368Y-141543475D01*
X43437760Y-141660000D01*
X43263368Y-141776525D01*
X43056525Y-141983368D01*
X42894010Y-142226589D01*
X42782068Y-142496842D01*
X42725000Y-142783740D01*
X42725000Y-143076260D01*
X42782068Y-143363158D01*
X42894010Y-143633411D01*
X43056525Y-143876632D01*
X43188380Y-144008487D01*
X43115820Y-144030498D01*
X43005506Y-144089463D01*
X42908815Y-144168815D01*
X42829463Y-144265506D01*
X42770498Y-144375820D01*
X42734188Y-144495518D01*
X42721928Y-144620000D01*
X38660000Y-144620000D01*
X38660000Y-137493110D01*
X42768524Y-137493110D01*
X42889845Y-137723000D01*
X44083000Y-137723000D01*
X44083000Y-136529186D01*
X44337000Y-136529186D01*
X44337000Y-137723000D01*
X45530155Y-137723000D01*
X45651476Y-137493110D01*
X45606825Y-137345901D01*
X45481641Y-137083080D01*
X45307588Y-136849731D01*
X45091355Y-136654822D01*
X44841252Y-136505843D01*
X44566891Y-136408519D01*
X44337000Y-136529186D01*
X44083000Y-136529186D01*
X43853109Y-136408519D01*
X43578748Y-136505843D01*
X43328645Y-136654822D01*
X43112412Y-136849731D01*
X42938359Y-137083080D01*
X42813175Y-137345901D01*
X42768524Y-137493110D01*
X38660000Y-137493110D01*
X38660000Y-128029392D01*
X38693256Y-127656758D01*
X39515000Y-127656758D01*
X39515000Y-128343242D01*
X39648927Y-129016537D01*
X39911633Y-129650766D01*
X40293024Y-130221558D01*
X40778442Y-130706976D01*
X41349234Y-131088367D01*
X41983463Y-131351073D01*
X42656758Y-131485000D01*
X43343242Y-131485000D01*
X44016537Y-131351073D01*
X44650766Y-131088367D01*
X45221558Y-130706976D01*
X45706976Y-130221558D01*
X46088367Y-129650766D01*
X46351073Y-129016537D01*
X46412047Y-128710000D01*
X54661928Y-128710000D01*
X54661928Y-130310000D01*
X54674188Y-130434482D01*
X54710498Y-130554180D01*
X54769463Y-130664494D01*
X54848815Y-130761185D01*
X54945506Y-130840537D01*
X55055820Y-130899502D01*
X55175518Y-130935812D01*
X55183961Y-130936643D01*
X54985363Y-131135241D01*
X54828320Y-131370273D01*
X54720147Y-131631426D01*
X54665000Y-131908665D01*
X54665000Y-132191335D01*
X54720147Y-132468574D01*
X54828320Y-132729727D01*
X54985363Y-132964759D01*
X55185241Y-133164637D01*
X55417759Y-133320000D01*
X55185241Y-133475363D01*
X54985363Y-133675241D01*
X54828320Y-133910273D01*
X54720147Y-134171426D01*
X54665000Y-134448665D01*
X54665000Y-134731335D01*
X54720147Y-135008574D01*
X54828320Y-135269727D01*
X54985363Y-135504759D01*
X55185241Y-135704637D01*
X55420273Y-135861680D01*
X55430865Y-135866067D01*
X55244869Y-135977615D01*
X55036481Y-136166586D01*
X54868963Y-136392580D01*
X54748754Y-136646913D01*
X54708096Y-136780961D01*
X54830085Y-137003000D01*
X55973000Y-137003000D01*
X55973000Y-136983000D01*
X56227000Y-136983000D01*
X56227000Y-137003000D01*
X57369915Y-137003000D01*
X57491904Y-136780961D01*
X57451246Y-136646913D01*
X57331037Y-136392580D01*
X57163519Y-136166586D01*
X56955131Y-135977615D01*
X56769135Y-135866067D01*
X56779727Y-135861680D01*
X57014759Y-135704637D01*
X57214637Y-135504759D01*
X57371680Y-135269727D01*
X57479853Y-135008574D01*
X57535000Y-134731335D01*
X57535000Y-134448665D01*
X69905000Y-134448665D01*
X69905000Y-134731335D01*
X69960147Y-135008574D01*
X70068320Y-135269727D01*
X70225363Y-135504759D01*
X70425241Y-135704637D01*
X70657759Y-135860000D01*
X70425241Y-136015363D01*
X70225363Y-136215241D01*
X70068320Y-136450273D01*
X69960147Y-136711426D01*
X69905000Y-136988665D01*
X69905000Y-137271335D01*
X69960147Y-137548574D01*
X70068320Y-137809727D01*
X70225363Y-138044759D01*
X70425241Y-138244637D01*
X70657759Y-138400000D01*
X70425241Y-138555363D01*
X70225363Y-138755241D01*
X70068320Y-138990273D01*
X69960147Y-139251426D01*
X69905000Y-139528665D01*
X69905000Y-139811335D01*
X69960147Y-140088574D01*
X70068320Y-140349727D01*
X70225363Y-140584759D01*
X70425241Y-140784637D01*
X70657759Y-140940000D01*
X70425241Y-141095363D01*
X70225363Y-141295241D01*
X70068320Y-141530273D01*
X69960147Y-141791426D01*
X69905000Y-142068665D01*
X69905000Y-142351335D01*
X69960147Y-142628574D01*
X70068320Y-142889727D01*
X70225363Y-143124759D01*
X70425241Y-143324637D01*
X70657759Y-143480000D01*
X70425241Y-143635363D01*
X70225363Y-143835241D01*
X70068320Y-144070273D01*
X69960147Y-144331426D01*
X69905000Y-144608665D01*
X69905000Y-144891335D01*
X69960147Y-145168574D01*
X70068320Y-145429727D01*
X70225363Y-145664759D01*
X70425241Y-145864637D01*
X70657759Y-146020000D01*
X70425241Y-146175363D01*
X70225363Y-146375241D01*
X70068320Y-146610273D01*
X69960147Y-146871426D01*
X69905000Y-147148665D01*
X69905000Y-147431335D01*
X69960147Y-147708574D01*
X70068320Y-147969727D01*
X70225363Y-148204759D01*
X70425241Y-148404637D01*
X70657759Y-148560000D01*
X70425241Y-148715363D01*
X70225363Y-148915241D01*
X70068320Y-149150273D01*
X69960147Y-149411426D01*
X69905000Y-149688665D01*
X69905000Y-149971335D01*
X69960147Y-150248574D01*
X70068320Y-150509727D01*
X70225363Y-150744759D01*
X70425241Y-150944637D01*
X70657759Y-151100000D01*
X70425241Y-151255363D01*
X70225363Y-151455241D01*
X70068320Y-151690273D01*
X69960147Y-151951426D01*
X69905000Y-152228665D01*
X69905000Y-152511335D01*
X69960147Y-152788574D01*
X70068320Y-153049727D01*
X70225363Y-153284759D01*
X70425241Y-153484637D01*
X70657759Y-153640000D01*
X70425241Y-153795363D01*
X70225363Y-153995241D01*
X70068320Y-154230273D01*
X69960147Y-154491426D01*
X69905000Y-154768665D01*
X69905000Y-155051335D01*
X69960147Y-155328574D01*
X70068320Y-155589727D01*
X70225363Y-155824759D01*
X70425241Y-156024637D01*
X70657759Y-156180000D01*
X70425241Y-156335363D01*
X70225363Y-156535241D01*
X70068320Y-156770273D01*
X69960147Y-157031426D01*
X69905000Y-157308665D01*
X69905000Y-157591335D01*
X69960147Y-157868574D01*
X70068320Y-158129727D01*
X70225363Y-158364759D01*
X70425241Y-158564637D01*
X70657759Y-158720000D01*
X70425241Y-158875363D01*
X70225363Y-159075241D01*
X70068320Y-159310273D01*
X69960147Y-159571426D01*
X69905000Y-159848665D01*
X69905000Y-160131335D01*
X69960147Y-160408574D01*
X70068320Y-160669727D01*
X70225363Y-160904759D01*
X70425241Y-161104637D01*
X70657759Y-161260000D01*
X70425241Y-161415363D01*
X70225363Y-161615241D01*
X70068320Y-161850273D01*
X69960147Y-162111426D01*
X69905000Y-162388665D01*
X69905000Y-162671335D01*
X69960147Y-162948574D01*
X70068320Y-163209727D01*
X70225363Y-163444759D01*
X70425241Y-163644637D01*
X70657759Y-163800000D01*
X70425241Y-163955363D01*
X70225363Y-164155241D01*
X70068320Y-164390273D01*
X69960147Y-164651426D01*
X69905000Y-164928665D01*
X69905000Y-165211335D01*
X69960147Y-165488574D01*
X70068320Y-165749727D01*
X70225363Y-165984759D01*
X70425241Y-166184637D01*
X70660273Y-166341680D01*
X70921426Y-166449853D01*
X71198665Y-166505000D01*
X71481335Y-166505000D01*
X71758574Y-166449853D01*
X72019727Y-166341680D01*
X72254759Y-166184637D01*
X72454637Y-165984759D01*
X72611680Y-165749727D01*
X72719853Y-165488574D01*
X72775000Y-165211335D01*
X72775000Y-164928665D01*
X72719853Y-164651426D01*
X72611680Y-164390273D01*
X72454637Y-164155241D01*
X72254759Y-163955363D01*
X72022241Y-163800000D01*
X72254759Y-163644637D01*
X72454637Y-163444759D01*
X72611680Y-163209727D01*
X72719853Y-162948574D01*
X72775000Y-162671335D01*
X72775000Y-162388665D01*
X72719853Y-162111426D01*
X72611680Y-161850273D01*
X72454637Y-161615241D01*
X72254759Y-161415363D01*
X72022241Y-161260000D01*
X72254759Y-161104637D01*
X72454637Y-160904759D01*
X72611680Y-160669727D01*
X72719853Y-160408574D01*
X72775000Y-160131335D01*
X72775000Y-159848665D01*
X72719853Y-159571426D01*
X72611680Y-159310273D01*
X72454637Y-159075241D01*
X72254759Y-158875363D01*
X72022241Y-158720000D01*
X72254759Y-158564637D01*
X72454637Y-158364759D01*
X72611680Y-158129727D01*
X72719853Y-157868574D01*
X72775000Y-157591335D01*
X72775000Y-157308665D01*
X72719853Y-157031426D01*
X72611680Y-156770273D01*
X72454637Y-156535241D01*
X72254759Y-156335363D01*
X72022241Y-156180000D01*
X72254759Y-156024637D01*
X72454637Y-155824759D01*
X72611680Y-155589727D01*
X72719853Y-155328574D01*
X72775000Y-155051335D01*
X72775000Y-154768665D01*
X72719853Y-154491426D01*
X72611680Y-154230273D01*
X72454637Y-153995241D01*
X72254759Y-153795363D01*
X72022241Y-153640000D01*
X72254759Y-153484637D01*
X72449496Y-153289900D01*
X81481028Y-153289900D01*
X81481028Y-154989900D01*
X81493288Y-155114382D01*
X81529598Y-155234080D01*
X81588563Y-155344394D01*
X81667915Y-155441085D01*
X81764606Y-155520437D01*
X81874920Y-155579402D01*
X81947480Y-155601413D01*
X81815625Y-155733268D01*
X81653110Y-155976489D01*
X81541168Y-156246742D01*
X81484100Y-156533640D01*
X81484100Y-156826160D01*
X81541168Y-157113058D01*
X81653110Y-157383311D01*
X81815625Y-157626532D01*
X82022468Y-157833375D01*
X82196860Y-157949900D01*
X82022468Y-158066425D01*
X81815625Y-158273268D01*
X81653110Y-158516489D01*
X81541168Y-158786742D01*
X81484100Y-159073640D01*
X81484100Y-159366160D01*
X81541168Y-159653058D01*
X81653110Y-159923311D01*
X81815625Y-160166532D01*
X82022468Y-160373375D01*
X82196860Y-160489900D01*
X82022468Y-160606425D01*
X81815625Y-160813268D01*
X81653110Y-161056489D01*
X81541168Y-161326742D01*
X81484100Y-161613640D01*
X81484100Y-161906160D01*
X81541168Y-162193058D01*
X81653110Y-162463311D01*
X81815625Y-162706532D01*
X82022468Y-162913375D01*
X82196860Y-163029900D01*
X82022468Y-163146425D01*
X81815625Y-163353268D01*
X81653110Y-163596489D01*
X81541168Y-163866742D01*
X81484100Y-164153640D01*
X81484100Y-164446160D01*
X81541168Y-164733058D01*
X81653110Y-165003311D01*
X81815625Y-165246532D01*
X82022468Y-165453375D01*
X82265689Y-165615890D01*
X82535942Y-165727832D01*
X82822840Y-165784900D01*
X83115360Y-165784900D01*
X83402258Y-165727832D01*
X83672511Y-165615890D01*
X83915732Y-165453375D01*
X84122575Y-165246532D01*
X84239100Y-165072140D01*
X84355625Y-165246532D01*
X84562468Y-165453375D01*
X84805689Y-165615890D01*
X85075942Y-165727832D01*
X85362840Y-165784900D01*
X85655360Y-165784900D01*
X85942258Y-165727832D01*
X86212511Y-165615890D01*
X86455732Y-165453375D01*
X86662575Y-165246532D01*
X86825090Y-165003311D01*
X86937032Y-164733058D01*
X86994100Y-164446160D01*
X86994100Y-164153640D01*
X86950310Y-163933492D01*
X87693954Y-163189848D01*
X87722951Y-163166051D01*
X87817924Y-163050326D01*
X87888496Y-162918297D01*
X87931953Y-162775036D01*
X87942950Y-162663383D01*
X87942950Y-162663374D01*
X87946626Y-162626051D01*
X87942950Y-162588728D01*
X87942950Y-146005287D01*
X88054010Y-146273411D01*
X88216525Y-146516632D01*
X88423368Y-146723475D01*
X88666589Y-146885990D01*
X88936842Y-146997932D01*
X89223740Y-147055000D01*
X89516260Y-147055000D01*
X89803158Y-146997932D01*
X90073411Y-146885990D01*
X90316632Y-146723475D01*
X90523475Y-146516632D01*
X90685990Y-146273411D01*
X90797932Y-146003158D01*
X90817081Y-145906890D01*
X94698524Y-145906890D01*
X94743175Y-146054099D01*
X94868359Y-146316920D01*
X95042412Y-146550269D01*
X95258645Y-146745178D01*
X95508748Y-146894157D01*
X95783109Y-146991481D01*
X96013000Y-146870814D01*
X96013000Y-145677000D01*
X96267000Y-145677000D01*
X96267000Y-146870814D01*
X96496891Y-146991481D01*
X96771252Y-146894157D01*
X97021355Y-146745178D01*
X97237588Y-146550269D01*
X97411641Y-146316920D01*
X97536825Y-146054099D01*
X97581476Y-145906890D01*
X98688524Y-145906890D01*
X98733175Y-146054099D01*
X98858359Y-146316920D01*
X99032412Y-146550269D01*
X99248645Y-146745178D01*
X99498748Y-146894157D01*
X99773109Y-146991481D01*
X100003000Y-146870814D01*
X100003000Y-145677000D01*
X100257000Y-145677000D01*
X100257000Y-146870814D01*
X100486891Y-146991481D01*
X100761252Y-146894157D01*
X101011355Y-146745178D01*
X101227588Y-146550269D01*
X101401641Y-146316920D01*
X101526825Y-146054099D01*
X101571476Y-145906890D01*
X101450155Y-145677000D01*
X100257000Y-145677000D01*
X100003000Y-145677000D01*
X98809845Y-145677000D01*
X98688524Y-145906890D01*
X97581476Y-145906890D01*
X97460155Y-145677000D01*
X96267000Y-145677000D01*
X96013000Y-145677000D01*
X94819845Y-145677000D01*
X94698524Y-145906890D01*
X90817081Y-145906890D01*
X90855000Y-145716260D01*
X90855000Y-145423740D01*
X90797932Y-145136842D01*
X90685990Y-144866589D01*
X90523475Y-144623368D01*
X90316632Y-144416525D01*
X90142240Y-144300000D01*
X90316632Y-144183475D01*
X90523475Y-143976632D01*
X90685990Y-143733411D01*
X90797932Y-143463158D01*
X90855000Y-143176260D01*
X90855000Y-142883740D01*
X90797932Y-142596842D01*
X90685990Y-142326589D01*
X90523475Y-142083368D01*
X90316632Y-141876525D01*
X90134466Y-141754805D01*
X90251355Y-141685178D01*
X90467588Y-141490269D01*
X90641641Y-141256920D01*
X90766825Y-140994099D01*
X90811476Y-140846890D01*
X90690155Y-140617000D01*
X89497000Y-140617000D01*
X89497000Y-140637000D01*
X89243000Y-140637000D01*
X89243000Y-140617000D01*
X88049845Y-140617000D01*
X88009161Y-140694092D01*
X87986887Y-140660756D01*
X87842724Y-140516593D01*
X87673206Y-140403325D01*
X87484848Y-140325304D01*
X87284889Y-140285530D01*
X87081011Y-140285530D01*
X86881052Y-140325304D01*
X86692694Y-140403325D01*
X86644100Y-140435794D01*
X86644100Y-137190341D01*
X86649590Y-137134599D01*
X86646183Y-137100000D01*
X87881928Y-137100000D01*
X87881928Y-138800000D01*
X87894188Y-138924482D01*
X87930498Y-139044180D01*
X87989463Y-139154494D01*
X88068815Y-139251185D01*
X88165506Y-139330537D01*
X88275820Y-139389502D01*
X88356466Y-139413966D01*
X88272412Y-139489731D01*
X88098359Y-139723080D01*
X87973175Y-139985901D01*
X87928524Y-140133110D01*
X88049845Y-140363000D01*
X89243000Y-140363000D01*
X89243000Y-140343000D01*
X89497000Y-140343000D01*
X89497000Y-140363000D01*
X90690155Y-140363000D01*
X90811476Y-140133110D01*
X90766825Y-139985901D01*
X90641641Y-139723080D01*
X90467588Y-139489731D01*
X90383534Y-139413966D01*
X90464180Y-139389502D01*
X90574494Y-139330537D01*
X90671185Y-139251185D01*
X90750537Y-139154494D01*
X90809502Y-139044180D01*
X90845812Y-138924482D01*
X90858072Y-138800000D01*
X90858072Y-137100000D01*
X90856103Y-137080000D01*
X94651928Y-137080000D01*
X94651928Y-138780000D01*
X94664188Y-138904482D01*
X94700498Y-139024180D01*
X94759463Y-139134494D01*
X94838815Y-139231185D01*
X94935506Y-139310537D01*
X95045820Y-139369502D01*
X95118380Y-139391513D01*
X94986525Y-139523368D01*
X94824010Y-139766589D01*
X94712068Y-140036842D01*
X94655000Y-140323740D01*
X94655000Y-140616260D01*
X94712068Y-140903158D01*
X94824010Y-141173411D01*
X94986525Y-141416632D01*
X95193368Y-141623475D01*
X95367760Y-141740000D01*
X95193368Y-141856525D01*
X94986525Y-142063368D01*
X94824010Y-142306589D01*
X94712068Y-142576842D01*
X94655000Y-142863740D01*
X94655000Y-143156260D01*
X94712068Y-143443158D01*
X94824010Y-143713411D01*
X94986525Y-143956632D01*
X95193368Y-144163475D01*
X95375534Y-144285195D01*
X95258645Y-144354822D01*
X95042412Y-144549731D01*
X94868359Y-144783080D01*
X94743175Y-145045901D01*
X94698524Y-145193110D01*
X94819845Y-145423000D01*
X96013000Y-145423000D01*
X96013000Y-145403000D01*
X96267000Y-145403000D01*
X96267000Y-145423000D01*
X97460155Y-145423000D01*
X97581476Y-145193110D01*
X97536825Y-145045901D01*
X97411641Y-144783080D01*
X97237588Y-144549731D01*
X97021355Y-144354822D01*
X96904466Y-144285195D01*
X97086632Y-144163475D01*
X97293475Y-143956632D01*
X97455990Y-143713411D01*
X97567932Y-143443158D01*
X97625000Y-143156260D01*
X97625000Y-142863740D01*
X97567932Y-142576842D01*
X97455990Y-142306589D01*
X97293475Y-142063368D01*
X97086632Y-141856525D01*
X96912240Y-141740000D01*
X97086632Y-141623475D01*
X97293475Y-141416632D01*
X97455990Y-141173411D01*
X97567932Y-140903158D01*
X97625000Y-140616260D01*
X97625000Y-140323740D01*
X97567932Y-140036842D01*
X97455990Y-139766589D01*
X97293475Y-139523368D01*
X97161620Y-139391513D01*
X97234180Y-139369502D01*
X97344494Y-139310537D01*
X97441185Y-139231185D01*
X97520537Y-139134494D01*
X97579502Y-139024180D01*
X97615812Y-138904482D01*
X97628072Y-138780000D01*
X97628072Y-137080000D01*
X98641928Y-137080000D01*
X98641928Y-138780000D01*
X98654188Y-138904482D01*
X98690498Y-139024180D01*
X98749463Y-139134494D01*
X98828815Y-139231185D01*
X98925506Y-139310537D01*
X99035820Y-139369502D01*
X99108380Y-139391513D01*
X98976525Y-139523368D01*
X98814010Y-139766589D01*
X98702068Y-140036842D01*
X98645000Y-140323740D01*
X98645000Y-140616260D01*
X98702068Y-140903158D01*
X98814010Y-141173411D01*
X98976525Y-141416632D01*
X99183368Y-141623475D01*
X99357760Y-141740000D01*
X99183368Y-141856525D01*
X98976525Y-142063368D01*
X98814010Y-142306589D01*
X98702068Y-142576842D01*
X98645000Y-142863740D01*
X98645000Y-143156260D01*
X98702068Y-143443158D01*
X98814010Y-143713411D01*
X98976525Y-143956632D01*
X99183368Y-144163475D01*
X99365534Y-144285195D01*
X99248645Y-144354822D01*
X99032412Y-144549731D01*
X98858359Y-144783080D01*
X98733175Y-145045901D01*
X98688524Y-145193110D01*
X98809845Y-145423000D01*
X100003000Y-145423000D01*
X100003000Y-145403000D01*
X100257000Y-145403000D01*
X100257000Y-145423000D01*
X101450155Y-145423000D01*
X101571476Y-145193110D01*
X101526825Y-145045901D01*
X101401641Y-144783080D01*
X101227588Y-144549731D01*
X101011355Y-144354822D01*
X100894466Y-144285195D01*
X101076632Y-144163475D01*
X101283475Y-143956632D01*
X101445990Y-143713411D01*
X101557932Y-143443158D01*
X101615000Y-143156260D01*
X101615000Y-142863740D01*
X101557932Y-142576842D01*
X101445990Y-142306589D01*
X101283475Y-142063368D01*
X101076632Y-141856525D01*
X100902240Y-141740000D01*
X101076632Y-141623475D01*
X101283475Y-141416632D01*
X101445990Y-141173411D01*
X101557932Y-140903158D01*
X101615000Y-140616260D01*
X101615000Y-140323740D01*
X101557932Y-140036842D01*
X101445990Y-139766589D01*
X101283475Y-139523368D01*
X101151620Y-139391513D01*
X101224180Y-139369502D01*
X101334494Y-139310537D01*
X101431185Y-139231185D01*
X101510537Y-139134494D01*
X101569502Y-139024180D01*
X101605812Y-138904482D01*
X101618072Y-138780000D01*
X101618072Y-137080000D01*
X101605812Y-136955518D01*
X101569502Y-136835820D01*
X101510537Y-136725506D01*
X101431185Y-136628815D01*
X101334494Y-136549463D01*
X101224180Y-136490498D01*
X101104482Y-136454188D01*
X100980000Y-136441928D01*
X99280000Y-136441928D01*
X99155518Y-136454188D01*
X99035820Y-136490498D01*
X98925506Y-136549463D01*
X98828815Y-136628815D01*
X98749463Y-136725506D01*
X98690498Y-136835820D01*
X98654188Y-136955518D01*
X98641928Y-137080000D01*
X97628072Y-137080000D01*
X97615812Y-136955518D01*
X97579502Y-136835820D01*
X97520537Y-136725506D01*
X97441185Y-136628815D01*
X97344494Y-136549463D01*
X97234180Y-136490498D01*
X97114482Y-136454188D01*
X96990000Y-136441928D01*
X95290000Y-136441928D01*
X95165518Y-136454188D01*
X95045820Y-136490498D01*
X94935506Y-136549463D01*
X94838815Y-136628815D01*
X94759463Y-136725506D01*
X94700498Y-136835820D01*
X94664188Y-136955518D01*
X94651928Y-137080000D01*
X90856103Y-137080000D01*
X90845812Y-136975518D01*
X90809502Y-136855820D01*
X90750537Y-136745506D01*
X90671185Y-136648815D01*
X90574494Y-136569463D01*
X90464180Y-136510498D01*
X90344482Y-136474188D01*
X90220000Y-136461928D01*
X88520000Y-136461928D01*
X88395518Y-136474188D01*
X88275820Y-136510498D01*
X88165506Y-136569463D01*
X88068815Y-136648815D01*
X87989463Y-136745506D01*
X87930498Y-136855820D01*
X87894188Y-136975518D01*
X87881928Y-137100000D01*
X86646183Y-137100000D01*
X86644100Y-137078858D01*
X86644100Y-137078848D01*
X86627677Y-136912101D01*
X86562776Y-136698153D01*
X86457384Y-136500977D01*
X86315549Y-136328151D01*
X86272235Y-136292604D01*
X86267643Y-136288012D01*
X86138122Y-136181717D01*
X85940946Y-136076324D01*
X85726998Y-136011423D01*
X85504500Y-135989509D01*
X85282002Y-136011423D01*
X85068054Y-136076324D01*
X84870878Y-136181717D01*
X84698052Y-136323552D01*
X84556217Y-136496378D01*
X84450824Y-136693554D01*
X84385923Y-136907502D01*
X84364009Y-137130000D01*
X84374100Y-137232456D01*
X84374100Y-143390979D01*
X84365574Y-143387447D01*
X84088335Y-143332300D01*
X83805665Y-143332300D01*
X83528426Y-143387447D01*
X83267273Y-143495620D01*
X83032241Y-143652663D01*
X82832363Y-143852541D01*
X82675320Y-144087573D01*
X82567147Y-144348726D01*
X82512000Y-144625965D01*
X82512000Y-144908635D01*
X82567147Y-145185874D01*
X82675320Y-145447027D01*
X82832363Y-145682059D01*
X83032241Y-145881937D01*
X83267273Y-146038980D01*
X83528426Y-146147153D01*
X83805665Y-146202300D01*
X84088335Y-146202300D01*
X84365574Y-146147153D01*
X84374101Y-146143621D01*
X84374101Y-152981174D01*
X84349637Y-152935406D01*
X84270285Y-152838715D01*
X84173594Y-152759363D01*
X84063280Y-152700398D01*
X83943582Y-152664088D01*
X83819100Y-152651828D01*
X82119100Y-152651828D01*
X81994618Y-152664088D01*
X81874920Y-152700398D01*
X81764606Y-152759363D01*
X81667915Y-152838715D01*
X81588563Y-152935406D01*
X81529598Y-153045720D01*
X81493288Y-153165418D01*
X81481028Y-153289900D01*
X72449496Y-153289900D01*
X72454637Y-153284759D01*
X72611680Y-153049727D01*
X72719853Y-152788574D01*
X72775000Y-152511335D01*
X72775000Y-152228665D01*
X72719853Y-151951426D01*
X72611680Y-151690273D01*
X72454637Y-151455241D01*
X72254759Y-151255363D01*
X72022241Y-151100000D01*
X72254759Y-150944637D01*
X72454637Y-150744759D01*
X72611680Y-150509727D01*
X72719853Y-150248574D01*
X72775000Y-149971335D01*
X72775000Y-149688665D01*
X72719853Y-149411426D01*
X72611680Y-149150273D01*
X72454637Y-148915241D01*
X72254759Y-148715363D01*
X72022241Y-148560000D01*
X72254759Y-148404637D01*
X72454637Y-148204759D01*
X72611680Y-147969727D01*
X72719853Y-147708574D01*
X72775000Y-147431335D01*
X72775000Y-147148665D01*
X72719853Y-146871426D01*
X72611680Y-146610273D01*
X72454637Y-146375241D01*
X72254759Y-146175363D01*
X72022241Y-146020000D01*
X72254759Y-145864637D01*
X72454637Y-145664759D01*
X72611680Y-145429727D01*
X72719853Y-145168574D01*
X72775000Y-144891335D01*
X72775000Y-144613265D01*
X78994100Y-144613265D01*
X78994100Y-144895935D01*
X79049247Y-145173174D01*
X79157420Y-145434327D01*
X79314463Y-145669359D01*
X79514341Y-145869237D01*
X79749373Y-146026280D01*
X80010526Y-146134453D01*
X80287765Y-146189600D01*
X80570435Y-146189600D01*
X80847674Y-146134453D01*
X81108827Y-146026280D01*
X81343859Y-145869237D01*
X81543737Y-145669359D01*
X81700780Y-145434327D01*
X81808953Y-145173174D01*
X81864100Y-144895935D01*
X81864100Y-144613265D01*
X81808953Y-144336026D01*
X81700780Y-144074873D01*
X81543737Y-143839841D01*
X81343859Y-143639963D01*
X81108827Y-143482920D01*
X80847674Y-143374747D01*
X80570435Y-143319600D01*
X80287765Y-143319600D01*
X80010526Y-143374747D01*
X79749373Y-143482920D01*
X79514341Y-143639963D01*
X79314463Y-143839841D01*
X79157420Y-144074873D01*
X79049247Y-144336026D01*
X78994100Y-144613265D01*
X72775000Y-144613265D01*
X72775000Y-144608665D01*
X72719853Y-144331426D01*
X72611680Y-144070273D01*
X72454637Y-143835241D01*
X72254759Y-143635363D01*
X72022241Y-143480000D01*
X72254759Y-143324637D01*
X72454637Y-143124759D01*
X72611680Y-142889727D01*
X72719853Y-142628574D01*
X72775000Y-142351335D01*
X72775000Y-142068665D01*
X72719853Y-141791426D01*
X72611680Y-141530273D01*
X72454637Y-141295241D01*
X72254759Y-141095363D01*
X72022241Y-140940000D01*
X72254759Y-140784637D01*
X72454637Y-140584759D01*
X72611680Y-140349727D01*
X72719853Y-140088574D01*
X72775000Y-139811335D01*
X72775000Y-139528665D01*
X72719853Y-139251426D01*
X72611680Y-138990273D01*
X72454637Y-138755241D01*
X72254759Y-138555363D01*
X72022241Y-138400000D01*
X72254759Y-138244637D01*
X72454637Y-138044759D01*
X72611680Y-137809727D01*
X72719853Y-137548574D01*
X72775000Y-137271335D01*
X72775000Y-136988665D01*
X72719853Y-136711426D01*
X72611680Y-136450273D01*
X72454637Y-136215241D01*
X72254759Y-136015363D01*
X72022241Y-135860000D01*
X72254759Y-135704637D01*
X72454637Y-135504759D01*
X72611680Y-135269727D01*
X72719853Y-135008574D01*
X72775000Y-134731335D01*
X72775000Y-134453265D01*
X78994100Y-134453265D01*
X78994100Y-134735935D01*
X79049247Y-135013174D01*
X79157420Y-135274327D01*
X79314463Y-135509359D01*
X79514341Y-135709237D01*
X79749373Y-135866280D01*
X80010526Y-135974453D01*
X80287765Y-136029600D01*
X80570435Y-136029600D01*
X80847674Y-135974453D01*
X81108827Y-135866280D01*
X81343859Y-135709237D01*
X81543737Y-135509359D01*
X81700780Y-135274327D01*
X81808953Y-135013174D01*
X81864100Y-134735935D01*
X81864100Y-134465965D01*
X82512000Y-134465965D01*
X82512000Y-134748635D01*
X82567147Y-135025874D01*
X82675320Y-135287027D01*
X82832363Y-135522059D01*
X83032241Y-135721937D01*
X83267273Y-135878980D01*
X83528426Y-135987153D01*
X83805665Y-136042300D01*
X84088335Y-136042300D01*
X84365574Y-135987153D01*
X84626727Y-135878980D01*
X84861759Y-135721937D01*
X85061637Y-135522059D01*
X85218680Y-135287027D01*
X85326853Y-135025874D01*
X85382000Y-134748635D01*
X85382000Y-134465965D01*
X85326853Y-134188726D01*
X85218680Y-133927573D01*
X85061637Y-133692541D01*
X84861759Y-133492663D01*
X84626727Y-133335620D01*
X84365574Y-133227447D01*
X84088335Y-133172300D01*
X83805665Y-133172300D01*
X83528426Y-133227447D01*
X83267273Y-133335620D01*
X83032241Y-133492663D01*
X82832363Y-133692541D01*
X82675320Y-133927573D01*
X82567147Y-134188726D01*
X82512000Y-134465965D01*
X81864100Y-134465965D01*
X81864100Y-134453265D01*
X81808953Y-134176026D01*
X81700780Y-133914873D01*
X81543737Y-133679841D01*
X81343859Y-133479963D01*
X81108827Y-133322920D01*
X80847674Y-133214747D01*
X80570435Y-133159600D01*
X80287765Y-133159600D01*
X80010526Y-133214747D01*
X79749373Y-133322920D01*
X79514341Y-133479963D01*
X79314463Y-133679841D01*
X79157420Y-133914873D01*
X79049247Y-134176026D01*
X78994100Y-134453265D01*
X72775000Y-134453265D01*
X72775000Y-134448665D01*
X72719853Y-134171426D01*
X72611680Y-133910273D01*
X72454637Y-133675241D01*
X72254759Y-133475363D01*
X72019727Y-133318320D01*
X72009135Y-133313933D01*
X72195131Y-133202385D01*
X72403519Y-133013414D01*
X72571037Y-132787420D01*
X72691246Y-132533087D01*
X72731904Y-132399039D01*
X72609915Y-132177000D01*
X71467000Y-132177000D01*
X71467000Y-132197000D01*
X71213000Y-132197000D01*
X71213000Y-132177000D01*
X70070085Y-132177000D01*
X69948096Y-132399039D01*
X69988754Y-132533087D01*
X70108963Y-132787420D01*
X70276481Y-133013414D01*
X70484869Y-133202385D01*
X70670865Y-133313933D01*
X70660273Y-133318320D01*
X70425241Y-133475363D01*
X70225363Y-133675241D01*
X70068320Y-133910273D01*
X69960147Y-134171426D01*
X69905000Y-134448665D01*
X57535000Y-134448665D01*
X57479853Y-134171426D01*
X57371680Y-133910273D01*
X57214637Y-133675241D01*
X57014759Y-133475363D01*
X56782241Y-133320000D01*
X57014759Y-133164637D01*
X57214637Y-132964759D01*
X57371680Y-132729727D01*
X57479853Y-132468574D01*
X57535000Y-132191335D01*
X57535000Y-131908665D01*
X57479853Y-131631426D01*
X57371680Y-131370273D01*
X57214637Y-131135241D01*
X57016039Y-130936643D01*
X57024482Y-130935812D01*
X57144180Y-130899502D01*
X57254494Y-130840537D01*
X57351185Y-130761185D01*
X57430537Y-130664494D01*
X57489502Y-130554180D01*
X57525812Y-130434482D01*
X57538072Y-130310000D01*
X57538072Y-129368665D01*
X69905000Y-129368665D01*
X69905000Y-129651335D01*
X69960147Y-129928574D01*
X70068320Y-130189727D01*
X70225363Y-130424759D01*
X70425241Y-130624637D01*
X70660273Y-130781680D01*
X70670865Y-130786067D01*
X70484869Y-130897615D01*
X70276481Y-131086586D01*
X70108963Y-131312580D01*
X69988754Y-131566913D01*
X69948096Y-131700961D01*
X70070085Y-131923000D01*
X71213000Y-131923000D01*
X71213000Y-131903000D01*
X71467000Y-131903000D01*
X71467000Y-131923000D01*
X72609915Y-131923000D01*
X72731904Y-131700961D01*
X72691246Y-131566913D01*
X72571037Y-131312580D01*
X72403519Y-131086586D01*
X72195131Y-130897615D01*
X72009135Y-130786067D01*
X72019727Y-130781680D01*
X72254759Y-130624637D01*
X72454637Y-130424759D01*
X72611680Y-130189727D01*
X72719853Y-129928574D01*
X72775000Y-129651335D01*
X72775000Y-129368665D01*
X72719853Y-129091426D01*
X72611680Y-128830273D01*
X72454637Y-128595241D01*
X72254759Y-128395363D01*
X72019727Y-128238320D01*
X71758574Y-128130147D01*
X71481335Y-128075000D01*
X71198665Y-128075000D01*
X70921426Y-128130147D01*
X70660273Y-128238320D01*
X70425241Y-128395363D01*
X70225363Y-128595241D01*
X70068320Y-128830273D01*
X69960147Y-129091426D01*
X69905000Y-129368665D01*
X57538072Y-129368665D01*
X57538072Y-128710000D01*
X57525812Y-128585518D01*
X57489502Y-128465820D01*
X57430537Y-128355506D01*
X57351185Y-128258815D01*
X57254494Y-128179463D01*
X57144180Y-128120498D01*
X57024482Y-128084188D01*
X56900000Y-128071928D01*
X55300000Y-128071928D01*
X55175518Y-128084188D01*
X55055820Y-128120498D01*
X54945506Y-128179463D01*
X54848815Y-128258815D01*
X54769463Y-128355506D01*
X54710498Y-128465820D01*
X54674188Y-128585518D01*
X54661928Y-128710000D01*
X46412047Y-128710000D01*
X46485000Y-128343242D01*
X46485000Y-127656758D01*
X94515000Y-127656758D01*
X94515000Y-128343242D01*
X94648927Y-129016537D01*
X94911633Y-129650766D01*
X95293024Y-130221558D01*
X95778442Y-130706976D01*
X96349234Y-131088367D01*
X96983463Y-131351073D01*
X97656758Y-131485000D01*
X98343242Y-131485000D01*
X99016537Y-131351073D01*
X99650766Y-131088367D01*
X100221558Y-130706976D01*
X100706976Y-130221558D01*
X101088367Y-129650766D01*
X101351073Y-129016537D01*
X101485000Y-128343242D01*
X101485000Y-127656758D01*
X101351073Y-126983463D01*
X101088367Y-126349234D01*
X100706976Y-125778442D01*
X100221558Y-125293024D01*
X99650766Y-124911633D01*
X99016537Y-124648927D01*
X98343242Y-124515000D01*
X97656758Y-124515000D01*
X96983463Y-124648927D01*
X96349234Y-124911633D01*
X95778442Y-125293024D01*
X95293024Y-125778442D01*
X94911633Y-126349234D01*
X94648927Y-126983463D01*
X94515000Y-127656758D01*
X46485000Y-127656758D01*
X46351073Y-126983463D01*
X46088367Y-126349234D01*
X45706976Y-125778442D01*
X45221558Y-125293024D01*
X44650766Y-124911633D01*
X44016537Y-124648927D01*
X43343242Y-124515000D01*
X42656758Y-124515000D01*
X41983463Y-124648927D01*
X41349234Y-124911633D01*
X40778442Y-125293024D01*
X40293024Y-125778442D01*
X39911633Y-126349234D01*
X39648927Y-126983463D01*
X39515000Y-127656758D01*
X38693256Y-127656758D01*
X38731173Y-127231917D01*
X38934656Y-126488109D01*
X39266638Y-125792095D01*
X39716626Y-125165870D01*
X40270403Y-124629223D01*
X40910451Y-124199129D01*
X41616553Y-123889171D01*
X42371457Y-123707935D01*
X43024279Y-123659995D01*
X97970667Y-123649995D01*
X98768084Y-123721163D01*
G37*
%TD.AperFunction*%
D19*
X85636100Y-156552900D02*
X85656100Y-156552900D01*
X85656100Y-156806900D01*
X85636100Y-156806900D01*
X85636100Y-159092900D01*
X85656100Y-159092900D01*
X85656100Y-159346900D01*
X85636100Y-159346900D01*
X85636100Y-161632900D01*
X85656100Y-161632900D01*
X85656100Y-161886900D01*
X85636100Y-161886900D01*
X85636100Y-161906900D01*
X85382100Y-161906900D01*
X85382100Y-161886900D01*
X85362100Y-161886900D01*
X85362100Y-161632900D01*
X85382100Y-161632900D01*
X85382100Y-159346900D01*
X85362100Y-159346900D01*
X85362100Y-159092900D01*
X85382100Y-159092900D01*
X85382100Y-156806900D01*
X85362100Y-156806900D01*
X85362100Y-156552900D01*
X85382100Y-156552900D01*
X85382100Y-156532900D01*
X85636100Y-156532900D01*
X85636100Y-156552900D01*
%TA.AperFunction,Conductor*%
D20*
G36*
X85636100Y-156552900D02*
G01*
X85656100Y-156552900D01*
X85656100Y-156806900D01*
X85636100Y-156806900D01*
X85636100Y-159092900D01*
X85656100Y-159092900D01*
X85656100Y-159346900D01*
X85636100Y-159346900D01*
X85636100Y-161632900D01*
X85656100Y-161632900D01*
X85656100Y-161886900D01*
X85636100Y-161886900D01*
X85636100Y-161906900D01*
X85382100Y-161906900D01*
X85382100Y-161886900D01*
X85362100Y-161886900D01*
X85362100Y-161632900D01*
X85382100Y-161632900D01*
X85382100Y-159346900D01*
X85362100Y-159346900D01*
X85362100Y-159092900D01*
X85382100Y-159092900D01*
X85382100Y-156806900D01*
X85362100Y-156806900D01*
X85362100Y-156552900D01*
X85382100Y-156552900D01*
X85382100Y-156532900D01*
X85636100Y-156532900D01*
X85636100Y-156552900D01*
G37*
%TD.AperFunction*%
%TD*%
M02*
